<?xml version="1.0" encoding="utf-8"?>
<!-- Generator: Adobe Illustrator 27.3.1, SVG Export Plug-In . SVG Version: 6.00 Build 0)  -->
<svg version="1.1" xmlns="http://www.w3.org/2000/svg" xmlns:xlink="http://www.w3.org/1999/xlink" x="0px" y="0px"
	 viewBox="0 0 500 500" style="enable-background:new 0 0 500 500;" xml:space="preserve">
  <style type="text/css">
	.st1{fill:#EBEBEB;}
	.st2{fill:none;stroke:#BC6E2B;stroke-miterlimit:10;}
	.st3{fill:#BC6E2B;}
	.st4{fill:#C7C7C7;}
	.st5{fill:#A6A6A6;}
	.st6{fill:#FFC061;}
	.st7{fill:#DB973E;}
	.st8{opacity:0.28;fill:#A87D1D;}
	.st9{fill:#D1D1D1;}
	.st10{fill:#263238;}
	.st11{fill:#FFFFFD;}
	.st12{fill:#DBDBDB;}
	.st13{fill:#455A64;}
	.st14{fill:none;stroke:#606060;stroke-width:0.9651;stroke-linecap:round;stroke-miterlimit:10;}
	.st15{fill:none;stroke:#A6A6A6;stroke-width:0.7959;stroke-miterlimit:10;}
	.st16{fill:#FFFFFD;stroke:#EBEBEB;stroke-miterlimit:10;}
	.st17{fill:none;stroke:#B58039;stroke-width:1.1595;stroke-miterlimit:10;}
	.st18{opacity:0.39;fill:#FFFFFF;}
	.st19{fill:none;stroke:#BC6E2B;stroke-width:3;stroke-linecap:round;stroke-miterlimit:10;}
	.st20{fill:none;stroke:#FFFFFF;stroke-width:0.8437;stroke-miterlimit:10;}
	.st21{fill:#A87D1D;}
	.st22{fill:#EDB62B;}
	.st23{opacity:0.62;fill:#FFFFFF;}
	.st24{fill:#999999;}
	.st25{clip-path:url(#SVGID_00000013871830183029587360000013888429100768695937_);}
	.st26{fill:#BC6C64;}
	.st27{opacity:0.33;fill:#6BA6BF;}
	.st28{fill:none;stroke:#263238;stroke-width:1.3156;stroke-miterlimit:10;}
	.st29{fill:#37474F;}
	.st30{opacity:0.32;fill:#590A06;}
	.st31{fill:#7C2E25;}
	.st32{fill:#51200B;}
	.st33{fill:#995420;}
	.st34{fill:#380403;}
	.st35{fill:#651D13;}
	.st36{fill:#F9F3E9;}
	.st37{fill:#590A06;}
	.st38{fill:none;stroke:#3F100B;stroke-width:1.0488;stroke-miterlimit:10;}
	.st39{opacity:0.32;fill:#FFFFFF;}
	.st40{opacity:0.16;fill:#FF6D00;}
	.st41{opacity:0.26;fill:#FFFFFF;}
	.st42{fill:#411919;}
	.st43{fill:#FFFEE6;}
	.st44{fill:#995F1A;}
	.st45{opacity:0.56;fill:#BC6E2B;}
	.st46{fill:none;stroke:#995F1A;stroke-width:1.4633;stroke-miterlimit:10;}
	.st47{fill:#AAAAAA;}
	.st48{opacity:0.25;fill:#56221C;}
	.st49{fill:#75240E;}
</style>
  <g id="OBJECTS">
    <path class="st1" d="M193.3,79.3c3.9-2.2,7.7-4.3,11.4-6.2C228.8,60.5,258.3,61,284,68c58.4,15.9,88.9,78,128.5,94.3
		c39.6,16.3,93.6,185.7-57.4,208.7c-150.9,23-229.1,64-290.4,16c-61.3-48,0-141.6,54.1-160c53.9-18.4,19.1-67.2,28.2-100.1
		C152.9,105.5,173.8,90.5,193.3,79.3z"/>
    <g>
      <g>
        <path class="st2" d="M322.8,418.9c0,0-1-33.5,97.5-89"/>
        <g>
          <path class="st3" d="M409.1,321.6c0.5,14.4-9,21.1-9,21.1s-4.2-10.8,4.3-22.5C405.8,318.1,409,319,409.1,321.6z"/>
          <path class="st3" d="M422.8,345.5c-12.2-7.7-22.8-2.9-22.8-2.9s7.2,9.1,21.6,7.7C424.2,350.1,424.9,346.8,422.8,345.5z"/>
        </g>
        <g>
          <path class="st3" d="M384,335.8c1.9,14.3-6.9,21.9-6.9,21.9s-5.3-10.4,2-22.8C380.4,332.6,383.7,333.3,384,335.8z"/>
          <path class="st3" d="M400,358.2c-12.9-6.4-22.9-0.6-22.9-0.6s8.1,8.3,22.3,5.5C401.9,362.6,402.3,359.3,400,358.2z"/>
        </g>
        <g>
          <path class="st3" d="M363.2,349.5c3,14.1-5.2,22.3-5.2,22.3s-6-10,0.3-22.9C359.4,346.6,362.7,347,363.2,349.5z"/>
          <path class="st3" d="M380.9,370.7c-13.3-5.5-22.9,1.1-22.9,1.1s8.7,7.7,22.6,3.8C383,375,383.2,371.6,380.9,370.7z"/>
        </g>
        <path class="st3" d="M440.3,323.1c-10.2,10.2-21.5,7.8-21.5,7.8s5-10.5,19.3-12.3C440.6,318.3,442.1,321.3,440.3,323.1z"/>
      </g>
      <g>
        <path class="st4" d="M340.3,412.6c0,0,42.8-44.7,88.9-54.4c46.1-9.7-33.5-44.9-97.2,40.9C329.6,419.4,340.3,412.6,340.3,412.6z"
				/>
        <g>
          <path class="st5" d="M441.5,348c-4.9-0.3-9.7,0-14.6,0.5c-4.8,0.5-9.6,1.4-14.3,2.5c-9.4,2.3-18.6,5.6-27.2,10.1
					c-4.3,2.2-8.5,4.6-12.5,7.4l-1.5,1l-1.5,1.1l-2.9,2.1l-2.9,2.3l-1.4,1.1l-1.4,1.2l-2.8,2.4c-0.9,0.8-1.8,1.6-2.7,2.5
					c-1.8,1.6-3.5,3.4-5.2,5.1c-0.9,0.8-1.7,1.7-2.5,2.6l-2.5,2.7c-1.6,1.8-3.2,3.7-4.8,5.5c1.5-1.9,2.9-3.9,4.5-5.8l2.4-2.8
					c0.8-0.9,1.6-1.9,2.4-2.8c1.7-1.8,3.3-3.6,5.1-5.3c0.9-0.8,1.7-1.7,2.6-2.6l2.7-2.5c1.8-1.7,3.8-3.1,5.6-4.7l3-2.2l1.5-1.1
					l1.5-1c4-2.8,8.3-5.3,12.6-7.6c4.4-2.3,8.9-4.2,13.5-5.8c4.6-1.7,9.3-3.1,14.1-4.1C421.9,347.8,431.8,346.8,441.5,348z"/>
        </g>
      </g>
      <g>
        <path class="st6" d="M312.5,409.6c0,0,65.3-65.5,141-35.4c75.7,30.1-77.9,52.5-129.4,90.2C306.9,428.2,312.5,409.6,312.5,409.6z"
				/>
        <g>
          <path class="st7" d="M468.2,381.8c-6.9,0.4-13.9,1.1-20.8,2c-6.9,0.8-13.8,1.8-20.6,3.1c-13.7,2.4-27.2,5.5-40.4,9.6
					c-13.3,4-26.2,9-38.7,15.1c-12.4,6.1-24.2,13.5-35,22.3c2.6-2.3,5.1-4.7,7.9-6.8c1.4-1.1,2.7-2.2,4.1-3.2l4.2-3.1
					c5.8-3.9,11.8-7.5,18-10.8c12.4-6.5,25.5-11.6,38.8-15.7c6.7-2,13.4-3.8,20.2-5.3c6.8-1.5,13.7-2.8,20.6-3.8
					c6.9-1,13.8-1.9,20.8-2.5c3.5-0.3,6.9-0.5,10.4-0.7C461.2,381.9,464.7,381.8,468.2,381.8z"/>
        </g>
        <g>
          <path class="st7" d="M406.3,390.7c3.8,0.6,7.5,1.8,11.1,3.2c3.6,1.4,7.1,3,10.5,4.8c3.4,1.9,6.7,3.8,9.9,6.1
					c3.2,2.2,6.2,4.6,9,7.2c-1.7-0.9-3.3-1.9-5-2.9c-1.7-1-3.3-2-5-2.9c-0.8-0.5-1.7-0.9-2.5-1.4l-2.5-1.4c-1.6-1-3.3-1.8-5-2.8
					c-3.4-1.8-6.8-3.5-10.2-5.2C413.3,393.9,409.9,392.3,406.3,390.7z"/>
        </g>
        <g>
          <path class="st7" d="M375,399c2.4-5.1,4.9-10,7.2-15c1.2-2.5,2.3-5,3.4-7.5c1.2-2.5,2.2-5.1,3.4-7.7c-0.3,2.8-0.9,5.6-1.7,8.3
					c-0.4,1.4-0.9,2.7-1.4,4c-0.5,1.3-1.1,2.6-1.7,3.9c-1.2,2.5-2.5,5-4.1,7.4C378.6,394.7,376.9,396.9,375,399z"/>
        </g>
        <g>
          <path class="st7" d="M341.5,413.8c4.4,0.2,8.7,0.9,13,1.9c4.3,1,8.5,2.3,12.6,3.9c4.1,1.7,8,3.6,11.8,6c3.7,2.4,7.1,5.3,9.9,8.7
					c-3.4-2.7-7-5.1-10.7-7.2c-1.9-0.9-3.8-2-5.8-2.8c-1.9-0.9-3.9-1.7-5.9-2.5c-4-1.6-8.1-3-12.2-4.3
					C349.9,416.1,345.8,414.9,341.5,413.8z"/>
        </g>
        <path class="st8" d="M378.9,371.2c-39.4,11.3-66.4,38.4-66.4,38.4s-5.6,18.6,11.6,54.8c13-9.5,32.6-18.1,53.3-26
				C363.2,416.7,373.3,385,378.9,371.2z"/>
      </g>
    </g>
    <g>
      <g>
        <path class="st2" d="M177.4,418.9c0,0,1-33.5-97.5-89"/>
        <g>
          <path class="st3" d="M91.1,321.6c-0.5,14.4,9,21.1,9,21.1s4.2-10.8-4.3-22.5C94.4,318.1,91.2,319,91.1,321.6z"/>
          <path class="st3" d="M77.4,345.5c12.2-7.7,22.8-2.9,22.8-2.9s-7.2,9.1-21.6,7.7C76.1,350.1,75.3,346.8,77.4,345.5z"/>
        </g>
        <g>
          <path class="st3" d="M116.2,335.8c-1.9,14.3,6.9,21.9,6.9,21.9s5.3-10.4-2-22.8C119.9,332.6,116.6,333.3,116.2,335.8z"/>
          <path class="st3" d="M100.2,358.2c12.9-6.4,22.9-0.6,22.9-0.6s-8.1,8.3-22.3,5.5C98.4,362.6,97.9,359.3,100.2,358.2z"/>
        </g>
        <g>
          <path class="st3" d="M137,349.5c-3,14.1,5.2,22.3,5.2,22.3s6-10-0.3-22.9C140.8,346.6,137.5,347,137,349.5z"/>
          <path class="st3" d="M119.3,370.7c13.3-5.5,22.9,1.1,22.9,1.1s-8.7,7.7-22.6,3.8C117.2,375,117,371.6,119.3,370.7z"/>
        </g>
        <path class="st3" d="M59.9,323.1c10.2,10.2,21.5,7.8,21.5,7.8s-5-10.5-19.3-12.3C59.6,318.3,58.1,321.3,59.9,323.1z"/>
      </g>
      <g>
        <path class="st4" d="M159.9,412.6c0,0-42.8-44.7-88.9-54.4c-46.1-9.7,33.5-44.9,97.2,40.9C170.7,419.4,159.9,412.6,159.9,412.6z"
				/>
        <g>
          <path class="st5" d="M58.7,348c9.7-1.1,19.6-0.1,29.1,1.9c4.8,1,9.5,2.4,14.1,4.1c4.6,1.7,9.1,3.6,13.5,5.8
					c4.3,2.3,8.6,4.8,12.6,7.6l1.5,1l1.5,1.1l3,2.2c1.9,1.6,3.9,3,5.6,4.7l2.7,2.5c0.9,0.8,1.8,1.7,2.6,2.6c1.8,1.7,3.4,3.5,5.1,5.3
					c0.8,0.9,1.6,1.8,2.4,2.8l2.4,2.8c1.5,1.9,3,3.9,4.5,5.8c-1.6-1.8-3.2-3.7-4.8-5.5l-2.5-2.7c-0.8-0.9-1.6-1.8-2.5-2.6
					c-1.7-1.7-3.4-3.5-5.2-5.1c-0.9-0.8-1.8-1.7-2.7-2.5l-2.8-2.4l-1.4-1.2l-1.4-1.1l-2.9-2.3l-2.9-2.1l-1.5-1.1l-1.5-1
					c-4-2.7-8.2-5.1-12.5-7.4c-8.6-4.5-17.7-7.8-27.2-10.1c-4.7-1.1-9.5-2-14.3-2.5C68.5,347.9,63.6,347.7,58.7,348z"/>
        </g>
      </g>
      <g>
        <path class="st6" d="M187.7,409.6c0,0-65.3-65.5-141-35.4c-75.7,30.1,77.9,52.5,129.4,90.2C193.3,428.2,187.7,409.6,187.7,409.6z
				"/>
        <g>
          <path class="st7" d="M32.1,381.8c3.5,0,7,0.1,10.4,0.2c3.5,0.2,7,0.4,10.4,0.7c6.9,0.6,13.9,1.4,20.8,2.5
					c6.9,1,13.7,2.3,20.6,3.8c6.8,1.5,13.6,3.3,20.2,5.3c13.3,4.1,26.4,9.2,38.8,15.7c6.2,3.2,12.2,6.9,18,10.8l4.2,3.1
					c1.4,1,2.8,2.1,4.1,3.2c2.8,2.1,5.3,4.5,7.9,6.8c-10.8-8.8-22.6-16.2-35-22.3c-12.4-6.1-25.4-11-38.7-15.1
					c-13.2-4-26.8-7.1-40.4-9.6c-6.8-1.2-13.7-2.2-20.6-3.1C45.9,382.9,39,382.2,32.1,381.8z"/>
        </g>
        <g>
          <path class="st7" d="M93.9,390.7c-3.6,1.5-7,3.2-10.4,4.8c-3.4,1.7-6.8,3.4-10.2,5.2c-1.7,0.9-3.4,1.8-5,2.8l-2.5,1.4
					c-0.8,0.5-1.6,1-2.5,1.4c-1.7,0.9-3.3,1.9-5,2.9c-1.7,1-3.3,2-5,2.9c2.8-2.6,5.9-5.1,9-7.2c3.1-2.3,6.5-4.2,9.9-6.1
					c3.4-1.8,6.9-3.5,10.5-4.8C86.4,392.6,90.1,391.4,93.9,390.7z"/>
        </g>
        <g>
          <path class="st7" d="M125.3,399c-2-2.1-3.6-4.3-5.1-6.7c-1.5-2.4-2.9-4.9-4.1-7.4c-0.6-1.3-1.1-2.6-1.7-3.9
					c-0.5-1.3-1-2.6-1.4-4c-0.9-2.7-1.4-5.5-1.7-8.3c1.2,2.6,2.2,5.1,3.4,7.7c1.1,2.5,2.2,5.1,3.4,7.5
					C120.4,389,122.9,393.9,125.3,399z"/>
        </g>
        <g>
          <path class="st7" d="M158.7,413.8c-4.2,1.1-8.4,2.3-12.5,3.6c-4.1,1.3-8.2,2.7-12.2,4.3c-2,0.8-4,1.6-5.9,2.5
					c-2,0.8-3.8,1.9-5.8,2.8c-3.7,2.1-7.3,4.4-10.7,7.2c2.8-3.4,6.2-6.2,9.9-8.7c3.7-2.4,7.7-4.3,11.8-6c4.1-1.6,8.3-2.9,12.6-3.9
					C150,414.7,154.3,414,158.7,413.8z"/>
        </g>
        <path class="st8" d="M121.3,371.2c39.4,11.3,66.4,38.4,66.4,38.4s5.6,18.6-11.6,54.8c-13-9.5-32.6-18.1-53.3-26
				C137.1,416.7,126.9,385,121.3,371.2z"/>
      </g>
    </g>
    <g>
      <ellipse class="st9" cx="250.1" cy="464.4" rx="123.8" ry="6.5"/>
      <path class="st10" d="M168.2,465h164.3c13.7,0,24.8-11.1,24.8-24.8V63.4c0-13.7-11.1-24.8-24.8-24.8H168.2
			c-13.7,0-24.8,11.1-24.8,24.8v376.8C143.4,453.9,154.5,465,168.2,465z"/>
      <path class="st11" d="M161,440.5h178.7c6.3,0,11.5-5.1,11.5-11.5V61c0-6.3-5.1-11.5-11.5-11.5H161c-6.3,0-11.5,5.1-11.5,11.5v368
			C149.5,435.4,154.7,440.5,161,440.5z"/>
      <path class="st1" d="M330.4,274.2H170.7c-6.9,0-12.6,5.6-12.6,12.6V419c0,6.9,5.6,12.6,12.6,12.6h159.6c6.9,0,12.6-5.6,12.6-12.6
			V286.8C342.9,279.9,337.3,274.2,330.4,274.2z"/>
      <path class="st1" d="M332.6,89.4H169.3c-5.7,0-10.3,4.6-10.3,10.3v155.1c0,5.7,4.6,10.3,10.3,10.3h163.3c5.7,0,10.3-4.6,10.3-10.3
			V99.7C342.9,94,338.3,89.4,332.6,89.4z"/>
      <path class="st12" d="M339.7,49.5H161c-6.3,0-11.5,5.1-11.5,11.5v4.4h201.7V61C351.2,54.6,346.1,49.5,339.7,49.5z"/>
      <g>
        <rect x="318.9" y="54" class="st0" width="18.5" height="8.7"/>
        <rect x="315.9" y="56.1" class="st0" width="2" height="4.6"/>
        <rect x="321" y="55.6" class="st4" width="3.3" height="5.6"/>
        <rect x="326.4" y="55.6" class="st4" width="3.3" height="5.6"/>
        <rect x="331.9" y="55.6" class="st4" width="3.3" height="5.6"/>
      </g>
      <rect x="306.6" y="52.4" class="st5" width="2" height="10"/>
      <rect x="302.6" y="54.3" class="st5" width="2" height="8.1"/>
      <rect x="298.6" y="57" class="st5" width="2" height="5.5"/>
      <rect x="294.6" y="59.6" class="st5" width="2" height="2.9"/>
      <path class="st5" d="M278.2,59.6h-53.2c-1.3,0-2.4-1.1-2.4-2.4l0,0c0-1.3,1.1-2.4,2.4-2.4h53.2c1.3,0,2.4,1.1,2.4,2.4l0,0
			C280.6,58.5,279.5,59.6,278.2,59.6z"/>
      <g>
        <circle class="st10" cx="162" cy="58.3" r="5"/>
        <path class="st13" d="M164.1,58.4c0,1.2-0.9,2.1-2.1,2.1c-1.2,0-2.1-0.9-2.1-2.1c0-1.2,0.9-2.1,2.1-2.1
				C163.2,56.2,164.1,57.2,164.1,58.4z"/>
        <path class="st0" d="M165.4,57.8c0,0.8-0.6,1.4-1.4,1.4c-0.8,0-1.4-0.6-1.4-1.4c0-0.8,0.6-1.4,1.4-1.4
				C164.7,56.4,165.4,57,165.4,57.8z"/>
      </g>
      <g>
        <line class="st14" x1="177.4" y1="53.3" x2="189.4" y2="53.3"/>
        <line class="st14" x1="177.4" y1="57.4" x2="189.4" y2="57.4"/>
        <line class="st14" x1="177.4" y1="61.4" x2="189.4" y2="61.4"/>
      </g>
    </g>
    <g>
      <path class="st12" d="M120.7,75.7c0,6.6-1.1,12-2.5,12c-1.4,0-2.5-5.4-2.5-12c0-6.6,1.1-12,2.5-12C119.6,63.6,120.7,69,120.7,75.7
			z"/>
      <path class="st12" d="M118.2,73.2c6.6,0,12,1.1,12,2.5c0,1.4-5.4,2.5-12,2.5c-6.6,0-12-1.1-12-2.5
			C106.2,74.3,111.6,73.2,118.2,73.2z"/>
    </g>
    <g>
      <path class="st4" d="M462.2,191c0,5.9-1,10.7-2.2,10.7c-1.2,0-2.2-4.8-2.2-10.7c0-5.9,1-10.7,2.2-10.7
			C461.2,180.2,462.2,185,462.2,191z"/>
      <path class="st4" d="M460,188.7c5.9,0,10.7,1,10.7,2.2c0,1.2-4.8,2.2-10.7,2.2c-5.9,0-10.7-1-10.7-2.2
			C449.3,189.7,454.1,188.7,460,188.7z"/>
    </g>
    <path class="st12" d="M456.7,330.8c0,2.5-2,4.5-4.5,4.5c-2.5,0-4.5-2-4.5-4.5c0-2.5,2-4.5,4.5-4.5
		C454.7,326.3,456.7,328.4,456.7,330.8z"/>
    <polygon class="st4" points="68.6,224.4 59.1,223.3 49.7,222.1 55.4,214.5 61.2,206.8 64.9,215.6 	"/>
    <polygon class="st4" points="442.6,93.4 436.1,91.4 429.7,89.3 434.7,84.8 439.7,80.2 441.1,86.8 	"/>
    <g>
      <path class="st0" d="M118.6,294.8H48.4c-2.9,0-5.2-2.3-5.2-5.2v-40.1c0-2.9,2.3-5.2,5.2-5.2h70.2c2.9,0,5.2,2.3,5.2,5.2v40.1
			C123.8,292.5,121.5,294.8,118.6,294.8z"/>
      <path class="st4" d="M118.6,244.3H48.4c-2.9,0-5.2,2.3-5.2,5.2v6.8h80.6v-6.8C123.8,246.6,121.5,244.3,118.6,244.3z"/>
      <path class="st15" d="M118.6,294.8H48.4c-2.9,0-5.2-2.3-5.2-5.2v-40.1c0-2.9,2.3-5.2,5.2-5.2h70.2c2.9,0,5.2,2.3,5.2,5.2v40.1
			C123.8,292.5,121.5,294.8,118.6,294.8z"/>
      <path class="st0" d="M53.4,250.5c0,1.5-1.3,2.8-2.8,2.8c-1.5,0-2.8-1.3-2.8-2.8c0-1.5,1.3-2.8,2.8-2.8
			C52.1,247.7,53.4,249,53.4,250.5z"/>
      <path class="st1" d="M62.5,250.5c0,1.5-1.3,2.8-2.8,2.8s-2.8-1.3-2.8-2.8c0-1.5,1.3-2.8,2.8-2.8S62.5,249,62.5,250.5z"/>
      <path class="st6" d="M71.6,250.5c0,1.5-1.3,2.8-2.8,2.8c-1.5,0-2.8-1.3-2.8-2.8c0-1.5,1.3-2.8,2.8-2.8
			C70.4,247.7,71.6,249,71.6,250.5z"/>
      <path class="st1" d="M74.4,265v18.2c0,2.7,2.9,4.3,5.2,3l16.1-9.1c2.4-1.3,2.4-4.7,0-6.1L79.6,262C77.2,260.7,74.4,262.4,74.4,265
			z"/>
    </g>
    <g>
      <path class="st4" d="M392.8,60.6h6.3l2.7,2.4c5.3,3.1,8.8,8.8,8.8,15.4c0,6.6-3.5,12.3-8.8,15.4l-2.7,2.4h-6.3
			c-9.8,0-17.8-8-17.8-17.8C375,68.6,383,60.6,392.8,60.6z"/>
      <path class="st16" d="M381.3,78.4c0,9.8,8,17.8,17.8,17.8c9.8,0,17.8-8,17.8-17.8c0-9.8-8-17.8-17.8-17.8
			C389.3,60.6,381.3,68.6,381.3,78.4z"/>
      <path class="st6" d="M399.1,72.8c3.4-4,11.6-5.1,11.6,2.2c0,7.3-11.6,14.6-11.6,14.6s-11.6-7.4-11.6-14.6
			C387.5,67.7,395.7,68.8,399.1,72.8z"/>
    </g>
    <g>
      <path class="st6" d="M379.9,232.1c0,0,20.4-0.7,23.1-13c2.7-12.4-1-16.7,0-20.4c1-3.7,15.1-2.3,15.7,9.7c0.7,12-1.7,19.1-1.7,19.1
			h18.3c5,0,8.8,4.8,7.4,9.6c-0.6,2.1-1.9,4.3-4.2,6.1c4.7,9.3,4.7,12.3,0.3,17c2,7,1.3,16.2-12.7,16.2c-14.1,0-46.2,0-46.2,0V232.1
			z"/>
      <path class="st17" d="M380.9,234.3c0,0,21.8-2.1,24.3-13.2c2.5-11.1-0.6-17.4,0.3-20.7c0.9-3.3,9.9,0,10.8,9.3
			c1,10.8-2.9,20.4-2.9,20.4h18.8c4.7,0,8.1,4.3,6.8,8.7c-0.6,1.9-1.7,3.9-3.9,5.5c4.3,8.4,4.3,11.1,0.3,15.3
			c1.9,6.3,1.2,14.6-11.8,14.6c-13,0-42.7,0-42.7,0V234.3z"/>
      <path class="st3" d="M383.6,272.9c0,3.3-2.7,6-6,6l0,0c-3.3,0-6-2.7-6-6v-41.5c0-3.3,2.7-6,6-6l0,0c3.3,0,6,2.7,6,6V272.9z"/>
      <path class="st18" d="M379.9,278.4v-41.5c0-3.3-2.7-6-6-6c-0.8,0-1.6,0.2-2.3,0.5c0.1-3.3,2.7-5.9,6-5.9c3.3,0,6,2.7,6,6v41.5
			C383.6,275.4,382.1,277.5,379.9,278.4C379.9,278.4,379.9,278.4,379.9,278.4z"/>
      <path class="st0" d="M400.7,242.7c0,1,0.8,1.8,1.8,1.8h21.6c1,0,1.8-0.8,1.8-1.8l0,0c0-1-0.8-1.8-1.8-1.8h-21.6
			C401.5,240.9,400.7,241.7,400.7,242.7L400.7,242.7z"/>
      <path class="st0" d="M400.7,259.4c0,1,0.8,1.8,1.8,1.8h21.6c1,0,1.8-0.8,1.8-1.8l0,0c0-1-0.8-1.8-1.8-1.8h-21.6
			C401.5,257.6,400.7,258.4,400.7,259.4L400.7,259.4z"/>
    </g>
    <g>
      <path class="st3" d="M100.4,161.7h-8.7l-3.7,3.4c-7.3,4.3-12.2,12.2-12.2,21.2c0,9,4.9,16.9,12.2,21.2l3.7,3.4h8.7
			c13.6,0,24.6-11,24.6-24.6C124.9,172.7,113.9,161.7,100.4,161.7z"/>
      <path class="st6" d="M116.2,186.3c0,13.6-11,24.6-24.6,24.6c-13.6,0-24.6-11-24.6-24.6c0-13.6,11-24.6,24.6-24.6
			C105.2,161.7,116.2,172.7,116.2,186.3z"/>
      <path class="st3" d="M83.2,181.6c0,2-1.6,3.7-3.7,3.7c-2,0-3.7-1.6-3.7-3.7c0-2,1.6-3.7,3.7-3.7C81.5,177.9,83.2,179.5,83.2,181.6
			z"/>
      <path class="st3" d="M105.6,181.6c0,2-1.6,3.7-3.7,3.7c-2,0-3.7-1.6-3.7-3.7c0-2,1.6-3.7,3.7-3.7
			C103.9,177.9,105.6,179.5,105.6,181.6z"/>
      <path class="st19" d="M104.1,192.4c-1.8,5.4-6.8,9.2-12.8,9.2c-6,0-11.1-4-12.9-9.4"/>
    </g>
    <g>
      <g>
        <path class="st13" d="M438.6,185.2H321c-1.4,0-2.5-1.1-2.5-2.5v-70c0-1.4,1.1-2.5,2.5-2.5h117.7c1.4,0,2.5,1.1,2.5,2.5v70
				C441.1,184.1,440,185.2,438.6,185.2z"/>
        <rect x="321.5" y="113.2" class="st0" width="116.3" height="69"/>
        <path class="st6" d="M433.3,121H325.9c-1.4,0-2.5-1.1-2.5-2.5v0c0-1.4,1.1-2.5,2.5-2.5h107.4c1.4,0,2.5,1.1,2.5,2.5v0
				C435.8,119.9,434.7,121,433.3,121z"/>
        <circle class="st0" cx="326.7" cy="118.5" r="1.3"/>
        <path class="st0" d="M332.1,118.5c0,0.7-0.6,1.3-1.3,1.3c-0.7,0-1.3-0.6-1.3-1.3c0-0.7,0.6-1.3,1.3-1.3
				C331.5,117.2,332.1,117.8,332.1,118.5z"/>
        <path class="st13" d="M336.2,118.5c0,0.7-0.6,1.3-1.3,1.3c-0.7,0-1.3-0.6-1.3-1.3c0-0.7,0.6-1.3,1.3-1.3
				C335.6,117.2,336.2,117.8,336.2,118.5z"/>
        <path class="st4" d="M432,180.2H327.2c-2.1,0-3.7-1.7-3.7-3.7v-49.4c0-2.1,1.7-3.7,3.7-3.7H432c2.1,0,3.7,1.7,3.7,3.7v49.4
				C435.8,178.6,434.1,180.2,432,180.2z"/>
        <g>
          <path class="st0" d="M429.5,135.1c0,2.6-2.1,4.6-4.6,4.6h-88.2c-2.6,0-4.6-2.1-4.6-4.6l0,0c0-2.6,2.1-4.6,4.6-4.6h88.2
					C427.4,130.4,429.5,132.5,429.5,135.1L429.5,135.1z"/>
          <path class="st13" d="M346.8,130.4h-10.1c-2.6,0-4.6,2.1-4.6,4.6c0,2.6,2.1,4.6,4.6,4.6h10.1V130.4z"/>
        </g>
        <path class="st1" d="M419.9,148.4c0,1.7-1.4,3-3,3h-74c-1.7,0-3-1.4-3-3l0,0c0-1.7,1.4-3,3-3h74
				C418.5,145.4,419.9,146.8,419.9,148.4L419.9,148.4z"/>
        <path class="st1" d="M419.9,159.1c0,1.7-1.4,3-3,3h-74c-1.7,0-3-1.4-3-3l0,0c0-1.7,1.4-3,3-3h74
				C418.5,156,419.9,157.4,419.9,159.1L419.9,159.1z"/>
      </g>
      <g>
        <path class="st20" d="M342.9,134.7c0,1.2-1,2.2-2.2,2.2c-1.2,0-2.2-1-2.2-2.2c0-1.2,1-2.2,2.2-2.2
				C341.9,132.5,342.9,133.4,342.9,134.7z"/>
        <line class="st20" x1="338.9" y1="135.9" x2="335.7" y2="138"/>
      </g>
    </g>
    <g>
      <path class="st13" d="M175,135H45.7c-1.4,0-2.5-1.1-2.5-2.5V103c0-1.4,1.1-2.5,2.5-2.5H175c1.4,0,2.5,1.1,2.5,2.5v29.5
			C177.5,133.9,176.3,135,175,135z"/>
      <path class="st4" d="M165.5,135H36.2c-1.4,0-2.5-1.1-2.5-2.5V103c0-1.4,1.1-2.5,2.5-2.5h129.3c1.4,0,2.5,1.1,2.5,2.5v29.5
			C168,133.9,166.9,135,165.5,135z"/>
      <path class="st1" d="M163.1,132.6H38.6c-1.4,0-2.6-1.2-2.6-2.6v-24.5c0-1.4,1.2-2.6,2.6-2.6h124.5c1.4,0,2.6,1.2,2.6,2.6V130
			C165.7,131.4,164.5,132.6,163.1,132.6z"/>
      <g>
        <g>
          <polygon class="st21" points="53.7,107.5 55.1,107.5 55.4,108.8 53.7,109.3 				"/>
          <path class="st21" d="M55.8,107.9l2.5,5.1l5.6,0.8c0.7,0.1,0.9,0.9,0.5,1.4l-4.1,4l1,5.6c0.1,0.7-0.6,1.2-1.2,0.9l-5-2.6l-5,2.6
					c-0.6,0.3-1.3-0.2-1.2-0.9l1-5.6l-4.1-4c-0.5-0.5-0.2-1.3,0.5-1.4l5.6-0.8l2.5-5.1C54.7,107.3,55.5,107.3,55.8,107.9z"/>
          <path class="st22" d="M54.4,107.9L57,113l5.6,0.8c0.7,0.1,0.9,0.9,0.5,1.4l-4.1,4l1,5.6c0.1,0.7-0.6,1.2-1.2,0.9l-5-2.6l-5,2.6
					c-0.6,0.3-1.3-0.2-1.2-0.9l1-5.6l-4.1-4c-0.5-0.5-0.2-1.3,0.5-1.4l5.6-0.8l2.5-5.1C53.3,107.3,54.1,107.3,54.4,107.9z"/>
        </g>
        <path class="st23" d="M52.3,113.4c-0.1,0.2-0.4,0.3-0.7,0.2l0,0c-0.2-0.1-0.3-0.4-0.2-0.7l1.7-3.4c0.1-0.2,0.4-0.3,0.7-0.2l0,0
				c0.2,0.1,0.3,0.4,0.2,0.7L52.3,113.4z"/>
      </g>
      <g>
        <g>
          <polygon class="st21" points="77.2,107.5 78.6,107.5 78.9,108.8 77.2,109.3 				"/>
          <path class="st21" d="M79.3,107.9l2.5,5.1l5.6,0.8c0.7,0.1,0.9,0.9,0.5,1.4l-4.1,4l1,5.6c0.1,0.7-0.6,1.2-1.2,0.9l-5-2.6l-5,2.6
					c-0.6,0.3-1.3-0.2-1.2-0.9l1-5.6l-4.1-4c-0.5-0.5-0.2-1.3,0.5-1.4l5.6-0.8l2.5-5.1C78.2,107.3,79,107.3,79.3,107.9z"/>
          <path class="st22" d="M77.9,107.9l2.5,5.1l5.6,0.8c0.7,0.1,0.9,0.9,0.5,1.4l-4.1,4l1,5.6c0.1,0.7-0.6,1.2-1.2,0.9l-5-2.6l-5,2.6
					c-0.6,0.3-1.3-0.2-1.2-0.9l1-5.6l-4.1-4c-0.5-0.5-0.2-1.3,0.5-1.4l5.6-0.8l2.5-5.1C76.8,107.3,77.6,107.3,77.9,107.9z"/>
        </g>
        <path class="st23" d="M75.8,113.4c-0.1,0.2-0.4,0.3-0.7,0.2l0,0c-0.2-0.1-0.3-0.4-0.2-0.7l1.7-3.4c0.1-0.2,0.4-0.3,0.7-0.2l0,0
				c0.2,0.1,0.3,0.4,0.2,0.7L75.8,113.4z"/>
      </g>
      <g>
        <g>
          <polygon class="st21" points="100.7,107.5 102.1,107.5 102.4,108.8 100.7,109.3 				"/>
          <path class="st21" d="M102.9,107.9l2.5,5.1l5.6,0.8c0.7,0.1,0.9,0.9,0.5,1.4l-4.1,4l1,5.6c0.1,0.7-0.6,1.2-1.2,0.9l-5-2.6
					l-5,2.6c-0.6,0.3-1.3-0.2-1.2-0.9l1-5.6l-4.1-4c-0.5-0.5-0.2-1.3,0.5-1.4l5.6-0.8l2.5-5.1C101.7,107.3,102.6,107.3,102.9,107.9z
					"/>
          <path class="st22" d="M101.5,107.9l2.5,5.1l5.6,0.8c0.7,0.1,0.9,0.9,0.5,1.4l-4.1,4l1,5.6c0.1,0.7-0.6,1.2-1.2,0.9l-5-2.6
					l-5,2.6c-0.6,0.3-1.3-0.2-1.2-0.9l1-5.6l-4.1-4c-0.5-0.5-0.2-1.3,0.5-1.4l5.6-0.8l2.5-5.1C100.3,107.3,101.2,107.3,101.5,107.9z
					"/>
        </g>
        <path class="st23" d="M99.3,113.4c-0.1,0.2-0.4,0.3-0.7,0.2l0,0c-0.2-0.1-0.3-0.4-0.2-0.7l1.7-3.4c0.1-0.2,0.4-0.3,0.7-0.2l0,0
				c0.2,0.1,0.3,0.4,0.2,0.7L99.3,113.4z"/>
      </g>
      <g>
        <g>
          <polygon class="st21" points="124.2,107.5 125.6,107.5 125.9,108.8 124.2,109.3 				"/>
          <path class="st21" d="M126.4,107.9l2.5,5.1l5.6,0.8c0.7,0.1,0.9,0.9,0.5,1.4l-4.1,4l1,5.6c0.1,0.7-0.6,1.2-1.2,0.9l-5-2.6
					l-5,2.6c-0.6,0.3-1.3-0.2-1.2-0.9l1-5.6l-4.1-4c-0.5-0.5-0.2-1.3,0.5-1.4l5.6-0.8l2.5-5.1C125.2,107.3,126.1,107.3,126.4,107.9z
					"/>
          <path class="st22" d="M125,107.9l2.5,5.1l5.6,0.8c0.7,0.1,0.9,0.9,0.5,1.4l-4.1,4l1,5.6c0.1,0.7-0.6,1.2-1.2,0.9l-5-2.6l-5,2.6
					c-0.6,0.3-1.3-0.2-1.2-0.9l1-5.6l-4.1-4c-0.5-0.5-0.2-1.3,0.5-1.4l5.6-0.8l2.5-5.1C123.8,107.3,124.7,107.3,125,107.9z"/>
        </g>
        <path class="st23" d="M122.8,113.4c-0.1,0.2-0.4,0.3-0.7,0.2l0,0c-0.2-0.1-0.3-0.4-0.2-0.7l1.7-3.4c0.1-0.2,0.4-0.3,0.7-0.2l0,0
				c0.2,0.1,0.3,0.4,0.2,0.7L122.8,113.4z"/>
      </g>
      <g>
        <g>
          <polygon class="st21" points="149.1,107.5 147.7,107.5 147.4,108.8 149.1,109.3 				"/>
          <path class="st24" d="M147,107.9l-2.5,5.1l-5.6,0.8c-0.7,0.1-0.9,0.9-0.5,1.4l4.1,4l-1,5.6c-0.1,0.7,0.6,1.2,1.2,0.9l5-2.6
					l5,2.6c0.6,0.3,1.3-0.2,1.2-0.9l-1-5.6l4.1-4c0.5-0.5,0.2-1.3-0.5-1.4L151,113l-2.5-5.1C148.2,107.3,147.3,107.3,147,107.9z"/>
          <path class="st4" d="M148.4,107.9l-2.5,5.1l-5.6,0.8c-0.7,0.1-0.9,0.9-0.5,1.4l4.1,4l-1,5.6c-0.1,0.7,0.6,1.2,1.2,0.9l5-2.6
					l5,2.6c0.6,0.3,1.3-0.2,1.2-0.9l-1-5.6l4.1-4c0.5-0.5,0.2-1.3-0.5-1.4l-5.6-0.8l-2.5-5.1C149.6,107.3,148.7,107.3,148.4,107.9z"
					/>
        </g>
      </g>
      <polygon class="st4" points="115.3,134.4 127.7,149 124.9,134.4 		"/>
      <polygon class="st13" points="127.7,149 133.6,149 131.9,135.3 124.9,135.3 		"/>
    </g>
    <g>
      <defs>
        <rect id="SVGID_1_" x="159.9" y="65.4" width="183.9" height="375.1"/>
      </defs>
      <clipPath id="SVGID_00000157300679353611469040000017303151261300889749_">
        <use xlink:href="#SVGID_1_"  style="overflow:visible;"/>
      </clipPath>
      <g style="clip-path:url(#SVGID_00000157300679353611469040000017303151261300889749_);">
        <path class="st6" d="M270.5,183.7l38.6,17l-2.4,183.4c0,0-38.4-2.4-55.4-15.6c0-128.3,0-143.2,0-143.2V200l4.3-15.6L270.5,183.7z
				"/>
        <path class="st6" d="M226.4,619.4c0,0,3.5,16.6,1.2,28.4c-16.6,3.3-40.1,2.3-42.7-0.9c2.3-13.4,14.3-21.6,16.6-21.3
				c2.1-6.1,2.1-6.1,2.1-6.1H226.4z"/>
        <path class="st3" d="M223.5,648.5c-16.2,2.4-36.2,1.4-38.6-1.6c2.3-13.4,14.3-21.6,16.6-21.3
				C201.6,625.5,225.5,623.2,223.5,648.5z"/>
        <path class="st26" d="M227.6,608.2l-1.2,11.3c0,0-11.7,7-22.7,0c-0.2-15-0.2-15-0.2-15L227.6,608.2z"/>
        <path class="st6" d="M298,619.6c0,0-1.3,19.1,0,25.2c29.3,3.3,43.4,4.7,51.2,1.2c7.8-3.5-10.2-22.1-17.5-22.1
				c-10.4-6.5-10.4-6.5-10.4-6.5L298,619.6z"/>
        <path class="st26" d="M295.8,605.9l2.2,13.7c0,0,13.4,8.5,23.3-2.2c-1.8-15.4-1.8-15.4-1.8-15.4L295.8,605.9z"/>
        <path class="st3" d="M349.2,646c-6.3,2.8-16.5,2.4-35.3,0.5c0.4-22.2,17.8-22.6,17.8-22.6C339,624,357,642.6,349.2,646z"/>
        <path class="st13" d="M196.1,377.4L194.3,609c0,0,19.6,6.5,40.4,0c10.4-192.9,10.4-192.9,10.4-192.9h11.3l31.8,190.3
				c0,0,16.4,10.4,43.4-3.9c-24.8-224.2-24.8-224.2-24.8-224.2l-49.1-17.4l-22.2-4.3L196.1,377.4z"/>
        <path class="st27" d="M235.8,589.6c-0.3,6.2-0.7,12.7-1,19.3c-20.9,6.5-40.4,0-40.4,0l0.1-18.8
				C211.2,592.7,227.4,591,235.8,589.6z"/>
        <path class="st27" d="M329.6,584.1c0.7,6,1.3,12.1,2,18.4c-27,14.3-43.4,3.9-43.4,3.9l-2.8-16.9
				C294.7,589.9,312.8,589.7,329.6,584.1z"/>
        <path class="st28" d="M248.2,416.1c0,0-4.8-36.5-4.8-51.7"/>
        <path class="st28" d="M254.3,416.1c0,0,4.8-36.5,4.8-51.7"/>
        <line class="st28" x1="262" y1="416.1" x2="231.3" y2="416.1"/>
        <line class="st28" x1="256.5" y1="416.1" x2="263" y2="416.1"/>
        <line class="st28" x1="240" y1="416.1" x2="228.7" y2="610"/>
        <line class="st28" x1="263" y1="416.1" x2="293.6" y2="608.6"/>
        <path class="st28" d="M221.8,379.6c0,0-0.1,22.2-25.9,24.3"/>
        <path class="st28" d="M282.1,377.8c0,0,1.2,25.2,28,29.5"/>
        <path class="st6" d="M232,183.7l-38.6,17l2.4,183.4c0,0,38.4-2.4,55.4-15.6c0-128.3,0-143.2,0-143.2V200l-4.3-15.6L232,183.7z"/>
        <path class="st29" d="M195.1,511.5l0.2-30.2c3.5-3,8-4.8,12.9-4.8c11,0,20,8.9,20,20c0,11-8.9,20-20,20
				C203.2,516.4,198.6,514.5,195.1,511.5z"/>
        <path class="st29" d="M285.4,496.4c0-11,8.9-20,20-20c4.9,0,9.3,1.7,12.8,4.6c0.9,8.5,1.9,17.6,3,27.5c-3.7,4.8-9.4,7.8-15.8,7.8
				C294.4,516.4,285.4,507.5,285.4,496.4z"/>
        <g>
          <path class="st26" d="M286.7,133.4c-2.4,4.7-7.7,6.8-11.9,4.7c-4.2-2.1-5.6-7.6-3.3-12.3c2.4-4.7,7.7-6.8,11.9-4.7
					C287.7,123.2,289.1,128.8,286.7,133.4z"/>
          <path class="st30" d="M286.7,133.4c1.7-3.3,1.4-7-0.3-9.6c-3.4-0.1-6.9,1.9-8.7,5.5c-1.7,3.3-1.4,7,0.3,9.6
					C281.4,139.1,284.9,137,286.7,133.4z"/>
          <path class="st26" d="M215.8,133.4c2.4,4.7,7.7,6.8,11.9,4.7c4.2-2.1,5.6-7.6,3.3-12.3c-2.4-4.7-7.7-6.8-11.9-4.7
					C214.9,123.2,213.4,128.8,215.8,133.4z"/>
          <path class="st30" d="M215.8,133.4c-1.7-3.3-1.4-7,0.3-9.6c3.4-0.1,6.9,1.9,8.7,5.5c1.7,3.3,1.4,7-0.3,9.6
					C221.1,139.1,217.6,137,215.8,133.4z"/>
          <path class="st31" d="M267.8,81.1c0,0,8.7-1.4,12.7,2.3c4,3.7,10,18.5,4.2,14.3c-5.8-4.2-4.2-3.7-4.2-3.7s1.2,18.4-2.6,26.2
					c-3.8,7.8-9.3,8.4-9.3,8.4l-6.8-29.1L267.8,81.1z"/>
          <path class="st32" d="M262.6,97.7l5.2-16.6c0,0-16.1-9.8-30.6-7c-14.5,2.8,1.7,4.7,1.7,4.7s-13.6,4.2-21.1,13.5s2.7,7.2,2.7,7.2
					s1.5,18.3,3.9,23.7c2.4,5.4,9.8,4.9,9.8,4.9L262.6,97.7z"/>
          <path class="st26" d="M266.6,158.7h-15.3H236c0,0-0.2,12.1-3.9,25c7.4,30.4,19.2,48.9,19.2,48.9s11.8-18.5,19.2-48.9
					C266.7,170.8,266.6,158.7,266.6,158.7z"/>
          <path class="st3" d="M268.4,175.1c0,0-6.8,10.9-17.2,12.7c-10.4-1.7-17.1-12.7-17.2-12.7c-0.5,2.8-1.2,5.7-2.1,8.7
					c7.4,30.4,19.2,48.9,19.2,48.9s11.8-18.5,19.2-48.9C269.6,180.7,268.9,177.8,268.4,175.1z"/>
          <path class="st33" d="M270.5,183.7c-0.9-3-1.5-5.9-2.1-8.7c0,0-6.8,10.9-17.2,12.7l14,13.8C267.1,196.2,268.9,190.2,270.5,183.7
					z"/>
          <path class="st33" d="M232,183.7c0.9-3,1.5-5.9,2.1-8.7c0,0,6.8,10.9,17.2,12.7l-14,13.8C235.4,196.2,233.6,190.2,232,183.7z"/>
          <path class="st34" d="M266.6,158.7h-15.3H236c0,0-0.1,7.7-2.1,17.4c19.4,8.5,31.8-11.5,31.8-11.5l1.1-1.1
					C266.6,160.5,266.6,158.7,266.6,158.7z"/>
          <path class="st26" d="M274.9,110.8c-0.8-17-23.6-16.8-23.6-16.8s-22.8-0.3-23.6,16.8c-0.8,17-0.3,45.4,9.2,53.8
					s14.4,7.6,14.4,7.6s5,0.8,14.4-7.6C275.1,156.2,275.6,127.9,274.9,110.8z"/>
          <path class="st32" d="M264.5,143.9c-6.8-4.1-10.6-4.9-13.2-4.9c-2.6,0-6.4,0.9-13.2,4.9c-3.8-3-8.2-11.7-10.5-16.6
					c0.4,15,2.6,31.3,9.4,37.3c9.4,8.4,14.4,7.6,14.4,7.6s5,0.8,14.4-7.6c6.8-6,9-22.3,9.4-37.3
					C272.7,132.2,268.3,140.9,264.5,143.9z"/>
          <path class="st35" d="M258,110.1c-1.1,1-0.4,2.8,1.1,2.8c2.9,0,7.8,0.1,11.1,1.1c2.4,0.3,1.9-4-3.1-5
					C263.5,108.4,259.9,108.5,258,110.1z"/>
          <path class="st35" d="M244.5,110.1c1.1,1,0.4,2.8-1.1,2.8c-2.9,0-7.8,0.1-11.1,1.1c-2.4,0.3-1.9-4,3.1-5
					C239,108.4,242.6,108.5,244.5,110.1z"/>
          <path class="st36" d="M251.3,147.3c-2,0-4-0.2-5.9-0.5c-0.7-0.1-1.2,0.6-0.9,1.2c1.4,2.3,3.9,3.9,6.8,3.9c2.9,0,5.4-1.6,6.8-3.9
					c0.4-0.6-0.2-1.3-0.9-1.2C255.3,147.1,253.3,147.3,251.3,147.3z"/>
          <g>
            <path class="st37" d="M258.9,127.1c0.6-1,1.7-1.7,2.8-2.1c1.1-0.4,2.3-0.6,3.4-0.6c1.2,0,2.3,0.1,3.4,0.4
						c0.5,0.2,1.1,0.4,1.6,0.6c0.5,0.3,1,0.5,1.5,0.9c-0.6,0.1-1.1,0.1-1.7,0.1c-0.6,0-1.1,0-1.6,0l-3.1,0c-1,0-2.1,0-3.1,0.1
						C261,126.6,260,126.7,258.9,127.1z"/>
          </g>
          <g>
            <path class="st37" d="M243.6,127.1c-1.1-0.3-2.1-0.4-3.2-0.5c-1-0.1-2-0.1-3.1-0.1l-3.1,0c-0.5,0-1.1,0-1.6,0
						c-0.6,0-1.1,0-1.7-0.1c0.5-0.3,1-0.6,1.5-0.9c0.5-0.2,1.1-0.4,1.6-0.6c1.1-0.3,2.2-0.5,3.4-0.4c1.2,0,2.3,0.2,3.4,0.6
						C241.9,125.4,243,126,243.6,127.1z"/>
          </g>
          <path class="st26" d="M253.2,126.2c0,0,1.2,13.3,0,14.6c-1.2,1.3-6.1-1.9-6.1-1.9l2.4-12.7H253.2z"/>
          <g>
            <path class="st35" d="M253.2,126.2c0.6,3.4,0.9,6.8,1,10.3c0,0.9,0,1.7-0.1,2.6c0,0.4-0.1,0.9-0.2,1.4c0,0.1-0.1,0.3-0.2,0.4
						l-0.1,0.2c-0.1,0.1-0.1,0.1-0.2,0.2c-0.1,0.1-0.3,0.2-0.4,0.2c-0.1,0.1-0.3,0.1-0.4,0.1c-1.1,0-1.8-0.4-2.6-0.8
						c-0.8-0.4-1.5-0.9-2.2-1.5c0.8,0.4,1.6,0.7,2.4,1c0.8,0.3,1.7,0.5,2.3,0.5c0.3-0.1,0.4-0.2,0.5-0.5c0.1-0.4,0.1-0.8,0.1-1.2
						c0-0.8,0.1-1.7,0.1-2.5C253.1,133.1,253,129.7,253.2,126.2z"/>
          </g>
          <line class="st38" x1="263.1" y1="96.2" x2="267.8" y2="81.1"/>
          <path class="st39" d="M255.7,171.2c2.4-1,5.7-2.9,9.9-6.6c9.4-8.4,10-36.7,9.2-53.8c-0.8-17-23.6-16.8-23.6-16.8
					s-8-0.1-14.7,3.4C234,111.2,226.4,163.4,255.7,171.2z"/>
          <g>
            <g>
              <path class="st40" d="M255,122.6c0,0,5.6-4.7,19.3-4c5.2,2,7.4,2.7,6.3,8.3c-1.1,5.7-2.2,11.6-11.4,12
							c-9.2,0.5-13.2-6.1-14.2-13C254.5,123.8,255,122.6,255,122.6z"/>
              <path class="st41" d="M274.3,118.6c-4.6-0.3-8.3,0.1-11.2,0.7c1,6.2,3.9,14,11.6,18.4c4.3-2.1,5.1-6.5,5.9-10.8
							C281.7,121.3,279.5,120.6,274.3,118.6z"/>
              <path class="st40" d="M247.6,122.7c0,0-5.7-4.6-19.4-3.6c-5.1,2.1-7.3,2.8-6.2,8.5c1.2,5.6,2.4,11.5,11.7,11.8
							c9.2,0.3,13.1-6.3,13.9-13.3C248.1,123.9,247.6,122.7,247.6,122.7z"/>
              <path class="st41" d="M241.2,119.7c-4.6-0.3-8.3-0.6-11.2,0c1,6.2,3.9,14,11.6,18.4c4.3-2.1,5.1-6.5,5.9-10.8
							C248.5,121.7,246.3,121.7,241.2,119.7z"/>
              <g>
                <g>
                  <path class="st0" d="M255,120.8c-2.7,0.4-3.7,0.3-3.7,0.3s-1,0.1-3.7-0.2c-13.7-4.9-29.8-1.9-29.8-1.9l0.1,4.9l2.9,1.6
									c0,0,0.8,10.9,6.4,13.4c5.7,2.4,13.9,1.5,16.6-1.7c2.7-3.2,3.3-3.3,5.4-10.4c0,0,0.7-1.6,2.2-1.9c1.5,0.2,2.2,1.8,2.2,1.8
									c2.2,7,2.8,7.1,5.6,10.2c2.8,3.1,11.1,3.9,16.7,1.4c5.6-2.6,6.1-13.5,6.1-13.5l2.9-1.6l-0.1-4.9
									C284.7,118.3,268.6,115.6,255,120.8z M243.9,134c-2.4,4.5-8.3,5.3-14,4c-5.6-1.3-7.7-9.3-6.1-13.9c1.6-4.5,9.1-3.8,14.2-3.5
									c5.1,0.3,6.9,2.6,6.9,2.6C246.8,124.9,246.3,129.6,243.9,134z M272.9,137.6c-5.6,1.4-11.6,0.7-14-3.7
									c-2.5-4.4-3.1-9.1-1.3-10.8c0,0,1.8-2.4,6.9-2.7c5.1-0.4,12.6-1.3,14.3,3.2C280.4,128.1,278.5,136.1,272.9,137.6z"/>
                  <path class="st42" d="M219.2,119L219.2,119L219.2,119C219.2,119,219.2,119,219.2,119z"/>
                </g>
              </g>
            </g>
          </g>
          <g>
            <path class="st43" d="M251.3,187.7c0.1,1.9,0.2,3.7,0.3,5.6l0.1,5.6c0.1,3.7,0.1,7.5,0.1,11.2c0,3.7,0,7.5-0.1,11.2l-0.1,5.6
						c-0.1,1.9-0.1,3.7-0.3,5.6c-0.1-1.9-0.2-3.7-0.3-5.6l-0.1-5.6c-0.1-3.7-0.1-7.5-0.1-11.2c0-3.7,0-7.5,0.1-11.2l0.1-5.6
						C251.1,191.5,251.1,189.6,251.3,187.7z"/>
          </g>
          <path class="st43" d="M248.4,198.8c0,1-0.8,1.9-1.9,1.9c-1,0-1.9-0.8-1.9-1.9c0-1,0.8-1.9,1.9-1.9
					C247.6,196.9,248.4,197.7,248.4,198.8z"/>
          <path class="st43" d="M248.4,211.9c0,1-0.8,1.9-1.9,1.9c-1,0-1.9-0.8-1.9-1.9c0-1,0.8-1.9,1.9-1.9
					C247.6,210,248.4,210.8,248.4,211.9z"/>
        </g>
        <path class="st26" d="M170.9,328.5c0,0-4.4-28.1-4.4-59.4c20.8-7.4,28.6,1.6,28.6,1.6l3.3,32.4L170.9,328.5z"/>
        <path class="st3" d="M193.4,200.7c0,0-27.5,15.6-30.4,53c0.5,16.3,3.4,31.3,3.4,31.3s13.7-8.9,28.8-11.6
				C194.3,206.8,193.4,200.7,193.4,200.7z"/>
        <path class="st6" d="M166.5,285.1c0,0,13.7-8.9,28.8-11.6c-0.1-3.6-0.1-7-0.2-10.3c-11.5,3.2-23.8,8.3-30.3,11.2
				C165.6,280.8,166.5,285.1,166.5,285.1z"/>
        <g>
          <path class="st44" d="M195.3,273.4c-0.2-3-0.4-6.1-0.6-9.1l-0.4-9.1c-0.3-6.1-0.5-12.1-0.6-18.2c-0.1-6.1-0.3-12.1-0.3-18.2
					l0-9.1c0-3,0-6.1,0.1-9.1c0.2,3,0.4,6.1,0.6,9.1l0.4,9.1c0.3,6.1,0.5,12.1,0.6,18.2c0.1,6.1,0.3,12.1,0.3,18.2l0,9.1
					C195.4,267.4,195.4,270.4,195.3,273.4z"/>
        </g>
        <path class="st3" d="M195.7,371.4l0.2,12.7c0,0,38.4-2.4,55.4-15.6c0-4.1,0-8,0-11.9C244.9,360.8,228.9,368.5,195.7,371.4z"/>
        <path class="st26" d="M331.6,328.5c0,0,4.4-28.1,4.4-59.4c-20.8-7.4-28.6,1.6-28.6,1.6l-3.3,32.4L331.6,328.5z"/>
        <path class="st3" d="M309.1,200.7c0,0,27.5,15.6,30.4,53c-0.5,16.3-3.4,31.3-3.4,31.3s-13.7-8.9-28.8-11.6
				C308.2,206.8,309.1,200.7,309.1,200.7z"/>
        <path class="st6" d="M336.1,285.1c0,0-13.7-8.9-28.8-11.6c0.1-3.6,0.1-7,0.2-10.3c11.5,3.2,23.8,8.3,30.3,11.2
				C336.9,280.8,336.1,285.1,336.1,285.1z"/>
        <path class="st45" d="M272.2,253h-21h-21c0,0-22.1,41.5-22.5,68.4c2.6-9.7,31.7-53.7,31.7-53.7h11.7H263c0,0,29.1,44,31.7,53.7
				C294.3,294.4,272.2,253,272.2,253z"/>
        <g>
          <path class="st44" d="M307.2,273.4c-0.1-3-0.1-6.1-0.1-9.1l0-9.1c0-6.1,0.2-12.1,0.3-18.2c0.2-6.1,0.3-12.1,0.6-18.2l0.4-9.1
					c0.2-3,0.3-6.1,0.6-9.1c0.1,3,0.1,6.1,0.1,9.1l0,9.1c0,6.1-0.2,12.1-0.3,18.2c-0.2,6.1-0.3,12.1-0.6,18.2l-0.4,9.1
					C307.6,267.4,307.5,270.4,307.2,273.4z"/>
        </g>
        <path class="st3" d="M306.8,371.4l-0.2,12.7c0,0-38.4-2.4-55.4-15.6c0-4.1,0-8,0-11.9C257.6,360.8,273.6,368.5,306.8,371.4z"/>
        <line class="st46" x1="251.3" y1="368.6" x2="251.3" y2="235.1"/>
        <g>
          <path class="st0" d="M252.8,209.4v-4.3h14.1c2.6,0,5.2,1.5,6.3,3.9c0.4,0.9,0.7,1.9,0.6,3.1C260.9,212,252.8,209.4,252.8,209.4z
					"/>
          <path class="st0" d="M252.8,209.4v-4.3h-14.1c-2.6,0-5.2,1.5-6.3,3.9c-0.4,0.9-0.7,1.9-0.6,3.1
					C244.8,212,252.8,209.4,252.8,209.4z"/>
          <path class="st1" d="M252.8,209.4h-17.4c-2.2,0-4,1.9-3.8,4.1l4.2,45.7c0.2,2.3,2.2,4.1,4.5,4.1h12.5h12.5
					c2.4,0,4.3-1.8,4.5-4.1l4.2-45.7c0.2-2.2-1.5-4.1-3.8-4.1H252.8z"/>
          <g>
            <path class="st47" d="M242.7,217.6c0,1.9-1.6,3.5-3.5,3.5c-1.9,0-3.5-1.6-3.5-3.5c0-1.9,1.6-3.5,3.5-3.5
						C241.2,214.1,242.7,215.7,242.7,217.6z"/>
            <path class="st10" d="M241.3,217.6c0,1.1-0.9,2.1-2.1,2.1c-1.1,0-2.1-0.9-2.1-2.1s0.9-2.1,2.1-2.1
						C240.4,215.5,241.3,216.5,241.3,217.6z"/>
          </g>
        </g>
        <g>
          <g>
            <path class="st26" d="M207.6,265c0,0,6.9-20.9,11-27c4.1-6.1,14.2-8.9,21.4-10.9c7.2-2,7.4,3.6,7.4,3.6s3.1,0.2,4.8,2
						c1.6,1.8-0.3,4.1-2.3,5.3c0.2,3.8-3.3,6.6-3.3,6.6s-0.7,5-2.4,8.1c-1.6,3.1-5,7.9-9.1,12.3c-4.1,4.4-5.1,7.2-11.4,17.5
						c-6.3,10.2-17.8,50.2-24.9,54.2c-7.1,4-20.3,5.1-25.2-2.3c-4.9-7.4-4-11.9,1.2-24.7C179.9,296.8,204.6,275.1,207.6,265z"/>
            <path class="st48" d="M187.8,319.3c7.4,0,13.6,5.2,15.3,12.1c-1.5,2.6-2.9,4.5-4.2,5.2c-7.1,4-20.3,5.1-25.2-2.3
						c-0.5-0.8-1-1.5-1.4-2.3C173.7,324.8,180.1,319.3,187.8,319.3z"/>
            <g>
              <path class="st49" d="M247.5,230.8c-1,0.5-2,0.8-3,1.1c-1,0.3-2,0.5-3.1,0.7c-1,0.2-2.1,0.3-3.1,0.4c-1,0.1-2.1,0.1-3.2,0
							c1-0.5,2-0.8,3-1.1c1-0.3,2-0.5,3.1-0.7c1-0.2,2.1-0.3,3.1-0.4C245.3,230.7,246.4,230.6,247.5,230.8z"/>
            </g>
            <g>
              <path class="st49" d="M249.9,238c-0.9,0.6-1.8,1-2.7,1.5c-0.9,0.4-1.8,0.8-2.8,1.1c-0.9,0.3-1.9,0.6-2.9,0.8
							c-1,0.2-2,0.3-3,0.4c0.9-0.6,1.8-1.1,2.7-1.5c0.9-0.4,1.8-0.8,2.8-1.1c0.9-0.3,1.9-0.6,2.9-0.7
							C247.9,238.2,248.9,238,249.9,238z"/>
            </g>
            <g>
              <path class="st49" d="M246.6,244.6c-0.5,0.8-1,1.5-1.6,2.1c-0.6,0.6-1.2,1.2-1.9,1.8c-0.7,0.6-1.4,1.1-2.1,1.5
							c-0.7,0.5-1.5,0.9-2.3,1.2c0.5-0.8,1-1.5,1.6-2.1c0.6-0.6,1.2-1.2,1.9-1.8c0.7-0.5,1.4-1.1,2.1-1.5
							C245,245.3,245.8,244.9,246.6,244.6z"/>
            </g>
          </g>
          <g>
            <path class="st49" d="M196.2,281.5c-2.1,2.4-4.2,4.8-6.3,7.3c-2.1,2.4-4.1,4.9-6.1,7.4c-2,2.5-3.9,5.1-5.6,7.8
						c-1.7,2.7-3.3,5.4-4.4,8.5c0.5-3.2,1.9-6.2,3.4-9.1c1.5-2.9,3.4-5.5,5.4-8.1c2-2.5,4.1-5,6.4-7.3
						C191.2,285.6,193.6,283.5,196.2,281.5z"/>
          </g>
        </g>
        <g>
          <g>
            <path class="st26" d="M294.9,265c0,0-6.9-20.9-11-27c-4.1-6.1-14.2-8.9-21.4-10.9c-7.2-2-7.4,3.6-7.4,3.6s-3.1,0.2-4.8,2
						c-1.6,1.8,0.3,4.1,2.3,5.3c-0.2,3.8,3.3,6.6,3.3,6.6s0.7,5,2.4,8.1c1.6,3.1,5,7.9,9.1,12.3c4.1,4.4,5.1,7.2,11.4,17.5
						c6.3,10.2,17.8,50.2,24.9,54.2c7.1,4,20.3,5.1,25.2-2.3c4.9-7.4,4-11.9-1.2-24.7C322.6,296.8,297.9,275.1,294.9,265z"/>
            <path class="st48" d="M314.7,319.3c-7.4,0-13.6,5.2-15.3,12.1c1.5,2.6,2.9,4.5,4.2,5.2c7.1,4,20.3,5.1,25.2-2.3
						c0.5-0.8,1-1.5,1.4-2.3C328.8,324.8,322.4,319.3,314.7,319.3z"/>
            <g>
              <path class="st49" d="M255.1,230.8c1.1-0.1,2.1-0.1,3.2,0c1,0.1,2.1,0.2,3.1,0.4c1,0.2,2,0.4,3.1,0.7c1,0.3,2,0.6,3,1.1
							c-1.1,0.1-2.1,0.1-3.2,0c-1-0.1-2.1-0.2-3.1-0.4c-1-0.2-2-0.4-3.1-0.7C257,231.6,256,231.3,255.1,230.8z"/>
            </g>
            <g>
              <path class="st49" d="M252.6,238c1,0,2,0.2,3,0.4c1,0.2,1.9,0.4,2.9,0.7c0.9,0.3,1.9,0.7,2.8,1.1c0.9,0.4,1.8,0.9,2.7,1.5
							c-1,0-2-0.2-3-0.4c-1-0.2-1.9-0.4-2.9-0.8c-0.9-0.3-1.9-0.7-2.8-1.1C254.3,239.1,253.4,238.6,252.6,238z"/>
            </g>
            <g>
              <path class="st49" d="M255.9,244.6c0.9,0.3,1.6,0.7,2.3,1.2c0.7,0.5,1.4,1,2.1,1.5c0.7,0.5,1.3,1.1,1.9,1.8
							c0.6,0.6,1.1,1.3,1.6,2.1c-0.9-0.3-1.6-0.7-2.3-1.2c-0.7-0.5-1.4-1-2.1-1.5c-0.7-0.5-1.3-1.1-1.9-1.8
							C256.9,246,256.3,245.4,255.9,244.6z"/>
            </g>
          </g>
          <g>
            <path class="st49" d="M306.3,281.5c2.5,2,4.9,4.2,7.2,6.5c2.3,2.3,4.4,4.7,6.4,7.3c2,2.6,3.9,5.2,5.4,8.1
						c1.6,2.8,2.9,5.9,3.4,9.1c-1.1-3-2.7-5.8-4.4-8.5c-1.7-2.7-3.6-5.2-5.6-7.8c-1.9-2.5-4-5-6.1-7.4
						C310.6,286.3,308.5,283.9,306.3,281.5z"/>
          </g>
        </g>
        <line class="st2" x1="269" y1="189.4" x2="310.1" y2="206.5"/>
        <line class="st2" x1="233.5" y1="189.4" x2="192.4" y2="206.5"/>
        <path class="st3" d="M267.8,346.6c0,0,12.3,6.6,34.8,8.6c0-10.9,0-10.6,0-10.6s-17.8-1.2-34.7-11.1
				C267.9,343.1,267.8,346.6,267.8,346.6z"/>
        <path class="st3" d="M234.7,346.6c0,0-12.3,6.6-34.8,8.6c0-10.9,0-10.6,0-10.6s17.8-1.2,34.7-11.1
				C234.6,343.1,234.7,346.6,234.7,346.6z"/>
      </g>
    </g>
  </g>
</svg>