<?xml version="1.0" encoding="utf-8"?>
<!-- Generator: Adobe Illustrator 27.5.0, SVG Export Plug-In . SVG Version: 6.00 Build 0)  -->
<svg version="1.1" xmlns="http://www.w3.org/2000/svg" xmlns:xlink="http://www.w3.org/1999/xlink" x="0px" y="0px"
	 viewBox="0 0 500 500" style="enable-background:new 0 0 500 500;" xml:space="preserve">
<g id="OBJECTS">
	<g>
		<path style="fill:#F2D9AF;" d="M402.417,413.114c-59.262,50.963-162.8,61.321-225.461,11.605
			c-30.356-28.873-29.667-72.944-32.679-111.795c-5.87-27.38-12.59-54.41-32.45-75.21c-46.058-38.6-78.124-76.858-43.887-137.372
			c71.129-98.165,246.108-90.067,326.515-6.896C464.208,177.684,483.851,330.53,402.417,413.114z"/>
	</g>
	<g>
		<g>
			<g>
				<g>
					<g>
						<g>
							<path style="fill:#25292B;" d="M172.302,163.742L172.302,163.742c-0.162,0-0.311-0.087-0.392-0.226l-4.27-7.392
								c-0.081-0.14-0.081-0.313,0-0.453l4.27-7.391c0.08-0.14,0.23-0.226,0.392-0.226l0,0c0.162,0,0.311,0.086,0.392,0.225
								l4.28,7.391c0.081,0.141,0.081,0.314,0,0.454l-4.28,7.392C172.613,163.656,172.463,163.742,172.302,163.742z
								 M168.554,155.897l3.749,6.488l3.756-6.488l-3.756-6.487L168.554,155.897z"/>
						</g>
					</g>
				</g>
			</g>
			<g>
				<g>
					<g>
						<g>
							<path style="fill:#25292B;" d="M160.427,154.886c-1.422,0-2.579-1.157-2.579-2.579c0-1.422,1.157-2.578,2.579-2.578
								s2.578,1.156,2.578,2.578C163.005,153.729,161.849,154.886,160.427,154.886z M160.427,150.634
								c-0.923,0-1.674,0.751-1.674,1.673c0,0.923,0.751,1.674,1.674,1.674c0.922,0,1.673-0.751,1.673-1.674
								C162.1,151.385,161.349,150.634,160.427,150.634z"/>
						</g>
					</g>
				</g>
			</g>
			<g>
				<g>
					<g>
						<g>
							<path style="fill:#25292B;" d="M168.031,145.401c-1.242,0-2.253-1.011-2.253-2.253c0-1.241,1.011-2.252,2.253-2.252
								c1.242,0,2.253,1.011,2.253,2.252C170.284,144.391,169.274,145.401,168.031,145.401z M168.031,141.802
								c-0.743,0-1.347,0.604-1.347,1.347c0,0.743,0.605,1.347,1.347,1.347c0.743,0,1.347-0.605,1.347-1.347
								C169.379,142.406,168.774,141.802,168.031,141.802z"/>
						</g>
					</g>
				</g>
			</g>
			<g>
				<g>
					<g>
						<g>
							<path style="fill:#25292B;" d="M158.301,146.438c-0.919,0-1.667-0.748-1.667-1.667s0.748-1.668,1.667-1.668
								c0.919,0,1.667,0.749,1.667,1.668S159.22,146.438,158.301,146.438z M158.301,144.008c-0.42,0-0.762,0.342-0.762,0.763
								c0,0.42,0.342,0.762,0.762,0.762s0.762-0.342,0.762-0.762C159.063,144.35,158.721,144.008,158.301,144.008z"/>
						</g>
					</g>
				</g>
			</g>
			<g>
				<g>
					<g>
						<g>
							<path style="fill:#25292B;" d="M337.508,131.287L337.508,131.287c-0.162,0-0.311-0.086-0.392-0.226l-3.267-5.656
								c-0.081-0.14-0.081-0.313,0-0.453l3.267-5.656c0.08-0.14,0.23-0.226,0.392-0.226l0,0c0.162,0,0.311,0.086,0.392,0.226
								l3.275,5.656c0.081,0.14,0.081,0.313,0,0.454l-3.275,5.656C337.819,131.2,337.67,131.287,337.508,131.287z M334.764,125.178
								l2.745,4.752l2.75-4.752l-2.75-4.752L334.764,125.178z"/>
						</g>
					</g>
				</g>
			</g>
			<g>
				<g>
					<g>
						<g>
							<path style="fill:#25292B;" d="M329.778,122.796c-1.422,0-2.579-1.157-2.579-2.579c0-1.422,1.157-2.579,2.579-2.579
								s2.578,1.157,2.578,2.579C332.356,121.639,331.2,122.796,329.778,122.796z M329.778,118.544
								c-0.923,0-1.674,0.751-1.674,1.674c0,0.923,0.751,1.673,1.674,1.673c0.922,0,1.673-0.751,1.673-1.673
								C331.451,119.295,330.7,118.544,329.778,118.544z"/>
						</g>
					</g>
				</g>
			</g>
			<g>
				<g>
					<g>
						<g>
							<path style="fill:#25292B;" d="M337.382,116.418c-1.242,0-2.253-1.011-2.253-2.253c0-1.242,1.011-2.252,2.253-2.252
								c1.242,0,2.253,1.011,2.253,2.252C339.635,115.408,338.625,116.418,337.382,116.418z M337.382,112.818
								c-0.743,0-1.347,0.604-1.347,1.347c0,0.743,0.605,1.347,1.347,1.347c0.743,0,1.347-0.604,1.347-1.347
								C338.73,113.423,338.125,112.818,337.382,112.818z"/>
						</g>
					</g>
				</g>
			</g>
			<g>
				<g>
					<g>
						<g>
							<path style="fill:#25292B;" d="M329.778,114.033c-0.919,0-1.667-0.748-1.667-1.667s0.748-1.668,1.667-1.668
								s1.667,0.748,1.667,1.668S330.698,114.033,329.778,114.033z M329.778,111.603c-0.42,0-0.762,0.342-0.762,0.763
								s0.342,0.762,0.762,0.762s0.762-0.342,0.762-0.762S330.198,111.603,329.778,111.603z"/>
						</g>
					</g>
				</g>
			</g>
			<g>
				<g>
					<g>
						<g>
							<path style="fill:#25292B;" d="M405.716,338.297L405.716,338.297c-0.162,0-0.311-0.087-0.392-0.226l-4.27-7.392
								c-0.081-0.14-0.081-0.313,0-0.453l4.27-7.391c0.081-0.14,0.23-0.226,0.392-0.226l0,0c0.161,0,0.311,0.086,0.392,0.225
								l4.28,7.391c0.081,0.141,0.081,0.314,0,0.454l-4.28,7.392C406.027,338.212,405.878,338.297,405.716,338.297z
								 M401.969,330.453l3.748,6.488l3.756-6.488l-3.756-6.487L401.969,330.453z"/>
						</g>
					</g>
				</g>
			</g>
			<g>
				<g>
					<g>
						<g>
							<path style="fill:#25292B;" d="M416.19,342.479c-1.422,0-2.579-1.156-2.579-2.578s1.157-2.579,2.579-2.579
								c1.422,0,2.579,1.157,2.579,2.579S417.612,342.479,416.19,342.479z M416.19,338.227c-0.923,0-1.674,0.751-1.674,1.674
								c0,0.922,0.751,1.673,1.674,1.673c0.923,0,1.673-0.751,1.673-1.673C417.863,338.978,417.113,338.227,416.19,338.227z"/>
						</g>
					</g>
				</g>
			</g>
			<g>
				<g>
					<g>
						<g>
							<path style="fill:#25292B;" d="M401.679,319.956c-1.242,0-2.252-1.011-2.252-2.252c0-1.242,1.011-2.253,2.252-2.253
								c1.242,0,2.253,1.011,2.253,2.253C403.932,318.946,402.921,319.956,401.679,319.956z M401.679,316.357
								c-0.743,0-1.347,0.605-1.347,1.347s0.604,1.346,1.347,1.346c0.743,0,1.347-0.604,1.347-1.346
								S402.422,316.357,401.679,316.357z"/>
						</g>
					</g>
				</g>
			</g>
			<g>
				<g>
					<g>
						<g>
							<path style="fill:#25292B;" d="M414.522,328.449c-0.919,0-1.667-0.748-1.667-1.667c0-0.919,0.748-1.667,1.667-1.667
								c0.919,0,1.668,0.748,1.668,1.667C416.19,327.701,415.442,328.449,414.522,328.449z M414.522,326.02
								c-0.42,0-0.762,0.342-0.762,0.762s0.342,0.762,0.762,0.762c0.42,0,0.763-0.342,0.763-0.762S414.943,326.02,414.522,326.02z"
								/>
						</g>
					</g>
				</g>
			</g>
			<g>
				<g>
					<g>
						<g>
							<path style="fill:#25292B;" d="M415.035,319.956L415.035,319.956c-0.162,0-0.311-0.087-0.392-0.226l-2.682-4.642
								c-0.081-0.14-0.081-0.313,0-0.453l2.682-4.642c0.081-0.14,0.23-0.226,0.392-0.226l0,0c0.161,0,0.311,0.086,0.392,0.225
								l2.688,4.642c0.081,0.141,0.081,0.314,0,0.454l-2.688,4.642C415.346,319.871,415.196,319.956,415.035,319.956z
								 M412.876,314.862l2.159,3.737l2.164-3.737l-2.164-3.738L412.876,314.862z"/>
						</g>
					</g>
				</g>
			</g>
			<g>
				<g>
					<g>
						<g>
							<path style="fill:#25292B;" d="M391.82,337.337c-0.919,0-1.667-0.748-1.667-1.667c0-0.919,0.748-1.667,1.667-1.667
								c0.919,0,1.668,0.748,1.668,1.667C393.488,336.589,392.739,337.337,391.82,337.337z M391.82,334.908
								c-0.42,0-0.762,0.342-0.762,0.762s0.342,0.762,0.762,0.762c0.42,0,0.763-0.342,0.763-0.762S392.24,334.908,391.82,334.908z"
								/>
						</g>
					</g>
				</g>
			</g>
		</g>
	</g>
	<g>
		<g>
			<g>
				<path style="fill:#25292B;" d="M156.327,249.794c0,0,6.975,164.802,6.35,191.906h-35.861l-18.367-190.526L156.327,249.794z"/>
			</g>
			<g>
				<polygon style="fill:#25292B;" points="73.487,251.734 68.668,339.955 43.001,441.7 81.456,441.7 120.147,339.538 
					136.587,250.724 				"/>
			</g>
			<g>
				<path style="fill:#F2E9DA;" d="M118.163,345.262l-1.023-0.209c5.863-28.847,10.786-58.302,14.629-87.545l0.055-0.416
					l12.228-1.055l0.09,1.041l-11.392,0.982C128.911,287.19,124.004,316.527,118.163,345.262z"/>
			</g>
			<g>
				<g>
					<path style="fill:#FFBD29;" d="M45.952,441.804h30.555l8.069,7.126c0,0,23.911-0.675,23.911,16.811H45.952V441.804z"/>
				</g>
			</g>
			<g>
				<g>
					<path style="fill:#25292B;" d="M48.063,463.724c0,0,0.001,0,0.001,0h0.109l58.82-0.221c0.23-0.001,0.416-0.188,0.415-0.418
						c-0.001-0.229-0.187-0.414-0.416-0.414c0,0-0.001,0-0.001,0l-58.93,0.221c-0.23,0.001-0.416,0.188-0.415,0.418
						C47.648,463.539,47.834,463.724,48.063,463.724z"/>
				</g>
			</g>
			<g>
				<g>
					<path style="fill:#25292B;" d="M64.554,451.661c-2.139-0.228-3.443-1.072-3.674-2.377c-0.299-1.688,1.371-2.899,2.892-3.423
						c4.757-1.64,10.269-0.625,14.184,2.503c1.099-3.577,3.046-6.868,5.66-9.552c0.817-0.84,1.825-1.731,3.115-1.979
						c1.312-0.252,2.937,0.416,3.27,1.813c0.317,1.331-0.634,2.513-1.499,3.393c-2.883,2.939-6.063,5.628-9.449,7.99
						c-0.12,0.085-0.271,0.095-0.401,0.042c-0.042,0.039-0.093,0.07-0.151,0.089c-3.358,1.113-6.926,1.683-10.479,1.683
						C66.861,451.843,65.703,451.782,64.554,451.661z M77.757,449.279c-3.712-3.161-9.091-4.225-13.715-2.631
						c-0.975,0.335-2.565,1.237-2.343,2.491c0.225,1.271,2.132,1.607,2.942,1.693c4.431,0.471,9.005,0.004,13.251-1.349
						C77.828,449.43,77.781,449.359,77.757,449.279z M86.887,437.65c-1.064,0.204-1.95,0.995-2.676,1.742
						c-2.605,2.676-4.524,5.977-5.564,9.563c0.071,0.064,0.141,0.13,0.211,0.196c3.239-2.285,6.282-4.872,9.05-7.693
						c0.714-0.728,1.505-1.683,1.283-2.617c-0.188-0.788-1.073-1.228-1.897-1.228C87.155,437.613,87.018,437.624,86.887,437.65z"/>
				</g>
			</g>
			<g>
				<g>
					<path style="fill:#FFBD29;" d="M129.602,441.554h30.555l8.069,7.126c0,0,23.911-0.675,23.911,16.811h-62.535V441.554z"/>
				</g>
			</g>
			<g>
				<g>
					<path style="fill:#25292B;" d="M131.713,463.473c0,0,0.001,0,0.001,0h0.109l58.82-0.221c0.23-0.001,0.416-0.188,0.415-0.418
						c-0.001-0.229-0.187-0.414-0.416-0.414c0,0-0.001,0-0.001,0l-58.93,0.221c-0.23,0.001-0.416,0.188-0.415,0.418
						C131.298,463.288,131.484,463.473,131.713,463.473z"/>
				</g>
			</g>
			<g>
				<g>
					<path style="fill:#25292B;" d="M148.203,451.41c-2.139-0.228-3.443-1.072-3.674-2.377c-0.299-1.688,1.371-2.899,2.892-3.423
						c4.757-1.64,10.269-0.625,14.184,2.503c1.099-3.577,3.046-6.868,5.66-9.552c0.817-0.84,1.825-1.731,3.115-1.979
						c1.312-0.252,2.937,0.416,3.27,1.813c0.317,1.331-0.634,2.513-1.499,3.393c-2.883,2.939-6.063,5.628-9.449,7.99
						c-0.12,0.085-0.271,0.095-0.401,0.042c-0.042,0.039-0.093,0.07-0.151,0.089c-3.358,1.113-6.926,1.683-10.479,1.683
						C150.511,451.592,149.352,451.531,148.203,451.41z M161.407,449.028c-3.712-3.161-9.091-4.225-13.715-2.631
						c-0.975,0.335-2.565,1.237-2.343,2.491c0.225,1.271,2.132,1.607,2.942,1.693c4.431,0.471,9.005,0.004,13.251-1.349
						C161.477,449.179,161.43,449.108,161.407,449.028z M170.537,437.399c-1.064,0.204-1.95,0.995-2.676,1.742
						c-2.605,2.676-4.524,5.977-5.564,9.563c0.071,0.064,0.141,0.13,0.211,0.196c3.239-2.285,6.282-4.872,9.05-7.693
						c0.714-0.728,1.505-1.683,1.283-2.617c-0.188-0.788-1.073-1.228-1.897-1.228C170.805,437.362,170.667,437.374,170.537,437.399z
						"/>
				</g>
			</g>
		</g>
		<g>
			<g>
				<path style="fill:#FFBD29;" d="M151.417,211.064l4.91,38.73l-4.82,19.74l-14.92-18.81l-21.4,18.81l-41.7-17.8l0.5-16.21
					c-12.23,2.5-23.56-7.13-23.07-19.6l5.122-59.748c0.33-8.34,6.453-20.797,14.483-23.047l27.495-8.135l23.95,4.38l16.28,5
					c7.18,2.21,12.42,8.39,13.41,15.83l4.76,35.6l22.43,5.8l0.83,19.46H151.417z"/>
			</g>
			<g>
				<path style="fill:#25292B;" d="M81.456,204.609c-0.017,0-0.034-0.001-0.052-0.002c-0.274-0.028-0.474-0.274-0.446-0.549
					l4.077-39.66c0.029-0.274,0.271-0.465,0.549-0.446c0.274,0.028,0.474,0.274,0.446,0.549l-4.077,39.66
					C81.927,204.418,81.71,204.609,81.456,204.609z"/>
			</g>
			<g>
				<path style="fill:#25292B;" d="M75.526,235.559c-0.212,0-0.409-0.136-0.477-0.349c-0.083-0.264,0.062-0.544,0.325-0.628
					l49.166-15.606l-5.716-20.412l-50.068,8.817c-0.274,0.051-0.532-0.133-0.579-0.405c-0.048-0.272,0.133-0.531,0.405-0.579
					l50.515-8.896c0.256-0.046,0.499,0.11,0.568,0.357l5.969,21.313c0.073,0.26-0.073,0.53-0.33,0.611l-49.626,15.753
					C75.627,235.552,75.576,235.559,75.526,235.559z"/>
			</g>
			<g>
				<path style="fill:#25292B;" d="M144.467,189.969c-0.25,0-0.466-0.187-0.496-0.441l-3.707-31.321
					c-0.032-0.274,0.164-0.522,0.438-0.555c0.273-0.035,0.522,0.164,0.555,0.438l3.707,31.321c0.032,0.274-0.164,0.522-0.438,0.555
					C144.506,189.968,144.487,189.969,144.467,189.969z"/>
			</g>
			<g>
				<path style="fill:#25292B;" d="M120.374,148.64c-0.106,0-0.213-0.034-0.303-0.103l-8.905-6.814
					c-0.865,0.017-5.014,0.37-5.866,5.48c-0.031,0.185-0.162,0.336-0.339,0.394c-0.177,0.06-0.373,0.012-0.505-0.12
					c-0.093-0.092-9.281-9.332-8.487-21.146c0.019-0.275,0.256-0.472,0.533-0.465c0.275,0.019,0.484,0.257,0.465,0.533
					c-0.641,9.54,5.521,17.371,7.555,19.677c1.473-5.495,6.782-5.347,6.834-5.352c0.103,0.004,0.203,0.04,0.284,0.103l9.038,6.917
					c0.219,0.168,0.261,0.481,0.093,0.701C120.674,148.573,120.525,148.64,120.374,148.64z"/>
			</g>
			<g>
				<path style="fill:#25292B;" d="M122.785,148.64c-0.024,0-0.048-0.001-0.073-0.005c-0.273-0.04-0.462-0.294-0.422-0.567
					l1.061-7.228c0.019-0.131,0.09-0.25,0.197-0.329c0.107-0.079,0.243-0.11,0.372-0.093c0.113,0.017,2.131,0.333,3.446,1.36
					c-0.118-2.714-0.809-8.561-4.487-11.013c-0.23-0.153-0.292-0.464-0.139-0.693c0.152-0.23,0.462-0.292,0.693-0.139
					c5.316,3.544,4.965,12.921,4.948,13.318c-0.011,0.239-0.188,0.437-0.425,0.472c-0.234,0.033-0.465-0.101-0.545-0.325
					c-0.379-1.058-2.103-1.657-3.146-1.896l-0.985,6.71C123.242,148.461,123.029,148.64,122.785,148.64z"/>
			</g>
			<g>
				<g>
					<g>
						<path style="fill:#F2E9DA;" d="M173.167,193.524l-14.27,1.75l3.96,3.09c1.45,1.13,1.71,3.23,0.58,4.68
							c-0.66,0.84-1.64,1.28-2.63,1.28c-0.1,0-0.21,0-0.31-0.01c0.36,1.03,0.22,2.24-0.51,3.17c-0.66,0.84-1.65,1.28-2.64,1.28
							c-0.35,0-0.71-0.06-1.05-0.17c0.41,1.06,0.26,2.29-0.48,3.24c-0.66,0.84-1.64,1.28-2.64,1.28c-0.71,0-1.43-0.22-2.04-0.69
							l-3-2.34l-0.4,0.6c-6.95,8.66-15.64,5.15-15.64,5.15l-6.81,1.97l-5.14-17.89l13.79-2.99l11.63-7.67
							c1.41-0.93,3.07-1.43,4.76-1.43h22.84V193.524z"/>
					</g>
				</g>
				<g>
					<path style="fill:#25292B;" d="M156.296,209.094c-0.111,0-0.223-0.037-0.316-0.113l-5.852-4.786
						c-0.214-0.175-0.246-0.49-0.071-0.704c0.175-0.214,0.49-0.246,0.704-0.071l5.852,4.786c0.214,0.175,0.246,0.49,0.071,0.704
						C156.585,209.032,156.441,209.094,156.296,209.094z"/>
				</g>
				<g>
					<path style="fill:#25292B;" d="M160.496,204.814c-0.112,0-0.226-0.038-0.319-0.116l-5.952-4.954
						c-0.212-0.177-0.241-0.492-0.064-0.704c0.176-0.211,0.491-0.241,0.704-0.064l5.952,4.954c0.212,0.177,0.241,0.492,0.064,0.704
						C160.782,204.752,160.64,204.814,160.496,204.814z"/>
				</g>
			</g>
			<g>
				<path style="fill:#25292B;" d="M218.467,165.724l-29.57,52.31c-0.77,1.36-2.21,2.2-3.78,2.2h-27.85c-3.32,0-5.4-3.58-3.77-6.47
					l29.57-52.3c0.77-1.36,2.21-2.2,3.77-2.2h27.86C218.017,159.264,220.097,162.834,218.467,165.724z"/>
			</g>
			<g>
				<g>
					<g>
						<g>
							<path style="fill:#F2E9DA;" d="M205.837,194.444c-0.47,0.92-1.33,1.51-2.28,1.67c0.42,0.42,0.72,0.93,0.9,1.48
								c0.29,0.91,0.24,1.93-0.23,2.84c-0.71,1.4-2.21,2.15-3.69,2c0.38,0.4,0.65,0.88,0.82,1.39c0.29,0.92,0.24,1.94-0.23,2.85
								c-0.63,1.23-1.86,1.96-3.16,2.01c0.17,0.25,0.31,0.51,0.42,0.78c0.39,0.96,0.4,2-0.07,2.92c-0.94,1.82-3.43,2.43-5.54,1.35
								l-4.693-2.243c-1.06-0.54-1.82-1.41-2.21-2.37c-0.39-0.96-0.39-2.01,0.07-2.92c0.57-1.12,1.74-1.78,3.04-1.86
								c-0.23-0.32-0.41-0.68-0.53-1.05c-0.3-0.91-0.24-1.93,0.22-2.84c0.72-1.4,2.22-2.16,3.7-2.01c-0.38-0.4-0.66-0.88-0.82-1.39
								c-0.3-0.91-0.25-1.93,0.22-2.84c0.73-1.44,2.28-2.19,3.8-2c-0.08-0.15-0.14-0.3-0.19-0.46c-0.25-0.77-0.21-1.64,0.19-2.41
								c0.79-1.55,2.71-2.17,4.26-1.37l4.623,2.213c0.78,0.4,1.32,1.08,1.57,1.85C206.277,192.804,206.227,193.674,205.837,194.444z
								"/>
						</g>
					</g>
				</g>
				<g>
					<path style="fill:#25292B;" d="M197.966,209.184c-0.073,0-0.147-0.016-0.217-0.05l-8.983-4.343
						c-0.249-0.12-0.353-0.419-0.232-0.668c0.121-0.247,0.419-0.352,0.668-0.232l8.983,4.343c0.249,0.12,0.353,0.419,0.232,0.668
						C198.33,209.08,198.152,209.184,197.966,209.184z"/>
				</g>
				<g>
					<path style="fill:#25292B;" d="M200.536,202.934c-0.074,0-0.148-0.016-0.219-0.051l-8.163-3.993
						c-0.248-0.122-0.351-0.421-0.229-0.669c0.122-0.248,0.421-0.35,0.669-0.229l8.163,3.993c0.248,0.122,0.351,0.421,0.229,0.669
						C200.899,202.831,200.721,202.934,200.536,202.934z"/>
				</g>
				<g>
					<path style="fill:#25292B;" d="M203.556,196.614c-0.074,0-0.148-0.016-0.219-0.051l-7.983-3.903
						c-0.248-0.121-0.351-0.421-0.229-0.669c0.122-0.248,0.421-0.35,0.669-0.229l7.983,3.903c0.248,0.121,0.351,0.421,0.229,0.669
						C203.919,196.511,203.741,196.614,203.556,196.614z"/>
				</g>
			</g>
		</g>
		<g>
			<g>
				<g>
					<g>
						<path style="fill:#F2E9DA;" d="M94.237,102.15c1.087,4.415,3.81,7.193,7.909,6.682l-4.6,16.877l22.99,19.928l2.233-21.034
							c0,0,2.881-0.632,6.283-3.56c3.402-2.918,9.108-10.13,9.554-16.933l0.892-13.42c-5.595-0.037-12.816-1.58-18.346-3.011
							c-4.87-1.264-8.429-2.435-8.429-2.435c-0.084,0.623-0.279,1.264-0.558,1.905c-1.506,3.485-5.381,6.961-5.381,6.961
							l-0.009,0.065c-0.009-0.009-0.009-0.019-0.019-0.019c-0.028-0.028-0.056-0.056-0.074-0.084
							c-1.31-1.431-3.039-2.398-4.889-2.686c-0.976-0.149-1.989-0.112-2.993,0.13C94.423,92.605,93.066,97.42,94.237,102.15z"/>
					</g>
				</g>
			</g>
			<g>
				<g>
					<g>
						
							<ellipse transform="matrix(0.0661 -0.9978 0.9978 0.0661 24.8398 230.0251)" style="fill:#25292B;" cx="135.297" cy="101.743" rx="2.454" ry="2.218"/>
					</g>
				</g>
			</g>
			<g>
				<g>
					<g>
						
							<ellipse transform="matrix(0.3163 -0.9487 0.9487 0.3163 -10.8275 182.4424)" style="fill:#25292B;" cx="121.154" cy="98.733" rx="2.454" ry="2.218"/>
					</g>
				</g>
			</g>
			<g>
				<g>
					<g>
						<path style="fill:#25292B;" d="M133.842,95.9c1.717-0.423,3.59,0,4.883,1.237c0.257,0.246,0.346,0.674,0.087,0.959
							c-0.234,0.258-0.684,0.35-0.959,0.087c-0.127-0.122-0.259-0.237-0.4-0.342c-0.069-0.052-0.139-0.101-0.21-0.149
							c-0.008-0.005-0.016-0.01-0.025-0.015c-0.038-0.022-0.076-0.045-0.114-0.066c-0.153-0.086-0.311-0.163-0.473-0.231
							c-0.081-0.034-0.163-0.065-0.246-0.095c-0.015-0.005-0.029-0.01-0.04-0.014c-0.046-0.014-0.092-0.027-0.138-0.039
							c-0.17-0.045-0.342-0.081-0.516-0.107c-0.087-0.013-0.174-0.023-0.262-0.031c-0.044-0.004-0.087-0.007-0.131-0.01
							c-0.002,0-0.001,0-0.003,0c-0.005,0-0.002,0-0.012,0c-0.176-0.001-0.351,0.004-0.526,0.022
							c-0.087,0.009-0.174,0.02-0.261,0.035c-0.043,0.007-0.086,0.015-0.13,0.023c-0.012,0.002-0.017,0.003-0.022,0.004
							c-0.009,0.002-0.013,0.003-0.025,0.006c-0.344,0.085-0.754-0.02-0.877-0.397C133.341,96.461,133.472,95.991,133.842,95.9z"/>
					</g>
				</g>
			</g>
			<g>
				<g>
					<g>
						<path style="fill:#25292B;" d="M125.008,94.923c-0.257,0.303-0.676,0.245-0.962,0.036c-0.009-0.007-0.014-0.01-0.021-0.015
							c-0.004-0.002-0.009-0.005-0.019-0.012c-0.037-0.024-0.074-0.048-0.111-0.071c-0.075-0.046-0.151-0.09-0.228-0.131
							c-0.155-0.083-0.315-0.154-0.478-0.219c-0.009-0.004-0.006-0.003-0.011-0.005c-0.002-0.001,0,0-0.003-0.001
							c-0.042-0.014-0.083-0.028-0.125-0.04c-0.084-0.026-0.169-0.049-0.254-0.07c-0.171-0.042-0.344-0.074-0.518-0.096
							c-0.048-0.006-0.095-0.011-0.143-0.016c-0.011-0.001-0.026-0.002-0.042-0.002c-0.088-0.003-0.176-0.006-0.263-0.005
							c-0.176,0.001-0.351,0.013-0.525,0.035c-0.044,0.005-0.087,0.012-0.13,0.018c-0.009,0.001-0.019,0.003-0.028,0.005
							c-0.084,0.017-0.168,0.036-0.251,0.058c-0.17,0.045-0.336,0.101-0.5,0.166c-0.354,0.139-0.735-0.117-0.854-0.444
							c-0.132-0.362,0.113-0.724,0.444-0.854c1.665-0.656,3.559-0.339,4.988,0.702C125.28,94.185,125.223,94.669,125.008,94.923z"/>
					</g>
				</g>
			</g>
			<g>
				<g>
					<path style="fill:#25292B;" d="M119.908,114.405c-1.239-0.554-2.063-1.372-2.447-2.43c-0.647-1.78,0.209-3.572,0.246-3.647
						c0.101-0.207,0.348-0.296,0.557-0.206l7.707,3.342c0.108,0.047,0.191,0.135,0.232,0.245c0.04,0.11,0.034,0.232-0.017,0.337
						c-0.017,0.034-1.421,2.837-4.21,2.837C121.356,114.883,120.666,114.745,119.908,114.405z M118.33,109.087
						c-0.183,0.545-0.426,1.589-0.061,2.595c0.302,0.831,0.971,1.483,1.99,1.939c2.733,1.223,4.359-0.691,4.927-1.561
						L118.33,109.087z"/>
				</g>
			</g>
			<g>
				<path style="fill:#25292B;" d="M101.187,106.781c-0.094,0-0.188-0.025-0.274-0.077c-1.582-0.963-2.437-2.974-2.032-4.781
					c0.378-1.693,1.833-3.077,3.53-3.407c0.269-0.945,0.195-1.93-0.211-2.686c-0.481-0.896-1.455-1.456-2.362-1.357
					c-0.918,0.098-1.708,0.961-1.657,1.812c0.018,0.292-0.204,0.542-0.496,0.559c-0.292,0.027-0.542-0.204-0.559-0.496
					c-0.086-1.427,1.104-2.767,2.6-2.926c1.337-0.146,2.727,0.644,3.405,1.908c0.597,1.111,0.662,2.511,0.178,3.84
					c-0.069,0.189-0.24,0.323-0.44,0.345c-1.405,0.151-2.648,1.261-2.957,2.639c-0.309,1.379,0.344,2.913,1.551,3.647
					c0.249,0.152,0.328,0.477,0.177,0.727C101.539,106.69,101.365,106.78,101.187,106.781z"/>
			</g>
			<g>
				<path style="fill:#25292B;" d="M120.306,125.185c-0.42,0-0.814-0.042-1.165-0.14c-2.478-0.689-5.848-4.668-5.99-4.837
					c-0.188-0.223-0.159-0.557,0.064-0.745c0.225-0.188,0.558-0.158,0.745,0.064c0.033,0.039,3.301,3.898,5.465,4.5
					c1.771,0.494,5.456-0.894,6.726-1.471c0.267-0.119,0.579-0.002,0.699,0.263c0.121,0.266,0.003,0.579-0.262,0.699
					C126.414,123.597,122.884,125.185,120.306,125.185z"/>
			</g>
			<g>
				<g>
					<g>
						<path style="fill:#FFBD29;" d="M120.526,105.288c-1.08,0-2.176-0.204-3.238-0.634c-2.14-0.868-3.814-2.517-4.714-4.643
							c-0.9-2.127-0.917-4.477-0.05-6.617s2.517-3.814,4.643-4.714c2.125-0.9,4.476-0.918,6.617-0.05
							c4.418,1.791,6.555,6.842,4.764,11.26l0,0C127.188,103.248,123.945,105.288,120.526,105.288z M120.536,89.049
							c-1.003,0-2.005,0.202-2.956,0.604c-1.867,0.79-3.314,2.26-4.076,4.138c-0.762,1.879-0.746,3.941,0.043,5.808
							c0.79,1.867,2.26,3.314,4.138,4.076c3.876,1.572,8.312-0.304,9.884-4.181c1.572-3.878-0.304-8.311-4.182-9.883
							C122.467,89.236,121.501,89.049,120.536,89.049z"/>
					</g>
				</g>
				<g>
					<g>
						<path style="fill:#FFBD29;" d="M139.486,110.698c-1.08,0-2.176-0.203-3.237-0.633c-4.418-1.791-6.555-6.843-4.764-11.261
							c0.868-2.14,2.517-3.814,4.643-4.714c2.125-0.901,4.476-0.918,6.617-0.05c4.418,1.791,6.555,6.842,4.764,11.26l0,0
							C146.149,108.658,142.904,110.698,139.486,110.698z M139.496,94.459c-1.003,0-2.005,0.202-2.956,0.604
							c-1.867,0.79-3.314,2.26-4.076,4.138c-1.572,3.878,0.303,8.311,4.182,9.884c3.875,1.572,8.312-0.303,9.884-4.182
							c1.572-3.878-0.304-8.311-4.182-9.883C141.427,94.646,140.462,94.459,139.496,94.459z"/>
					</g>
				</g>
				<g>
					<g>
						
							<rect x="107.832" y="86.341" transform="matrix(0.5032 -0.8642 0.8642 0.5032 -25.2457 139.1066)" style="fill:#FFBD29;" width="1.057" height="10.338"/>
					</g>
				</g>
				<g>
					<g>
						
							<rect x="129.218" y="98.58" transform="matrix(0.3939 -0.9192 0.9192 0.3939 -13.6559 180.1201)" style="fill:#FFBD29;" width="1.057" height="3.669"/>
					</g>
				</g>
			</g>
			<g>
				<g>
					<path style="fill:#25292B;" d="M98.8,91.518c1.004-0.242,2.017-0.279,2.993-0.13c1.849,0.288,3.578,1.255,4.889,2.686
						l0.102,0.037c0,0,3.876-3.476,5.381-6.961c0.279-0.641,0.474-1.283,0.558-1.905c0,0,3.56,1.171,8.429,2.435
						c5.53,1.431,12.751,2.974,18.346,3.011c3.55,0.028,6.45-0.548,7.844-2.138c6.31-7.212,1.71-14.647-5.251-13.95
						c-6.673,0.678-11.18,0.558-18.467-4.043c-7.286-4.61-14.954-3.838-17.193,2.063C106.43,72.624,94.395,72.996,98.8,91.518z"/>
				</g>
			</g>
			<g>
				<path style="fill:#25292B;" d="M131.953,111.189c-0.056,0-0.111-0.009-0.166-0.026l-6.593-2.176
					c-0.277-0.092-0.428-0.391-0.336-0.667c0.092-0.277,0.392-0.427,0.667-0.336l5.839,1.927l-0.855-11.007
					c-0.022-0.291,0.195-0.545,0.486-0.568c0.294-0.021,0.545,0.195,0.568,0.486l0.917,11.799c0.014,0.176-0.062,0.348-0.201,0.457
					C132.185,111.151,132.07,111.189,131.953,111.189z"/>
			</g>
		</g>
	</g>
	<g>
		<g>
			<g>
				<path style="fill:#25292B;" d="M317.481,301.405H196.571c-2.715,0-4.923-2.209-4.923-4.924v-73.172
					c0-2.715,2.208-4.924,4.923-4.924h120.911c2.715,0,4.924,2.209,4.924,4.924v73.172
					C322.405,299.196,320.196,301.405,317.481,301.405z M196.571,219.124c-2.308,0-4.186,1.878-4.186,4.186v73.172
					c0,2.308,1.877,4.186,4.186,4.186h120.911c2.308,0,4.186-1.878,4.186-4.186v-73.172c0-2.308-1.877-4.186-4.186-4.186H196.571z"
					/>
			</g>
			<g>
				<path style="fill:#25292B;" d="M322.036,228.202h-130.02v-4.892c0-2.516,2.039-4.555,4.555-4.555h120.91
					c2.516,0,4.555,2.039,4.555,4.555V228.202z"/>
			</g>
			<g>
				<g>
					
						<rect x="200.265" y="231.252" transform="matrix(-1 -4.488333e-11 4.488333e-11 -1 419.5786 481.5521)" style="fill:#F2E9DA;" width="19.048" height="19.048"/>
				</g>
			</g>
			<g>
				<g>
					
						<rect x="200.265" y="254.252" transform="matrix(-1 -4.488333e-11 4.488333e-11 -1 419.5786 527.5509)" style="fill:#F2E9DA;" width="19.048" height="19.048"/>
				</g>
			</g>
			<g>
				<g>
					
						<rect x="200.265" y="276.583" transform="matrix(-1 -4.488333e-11 4.488333e-11 -1 419.5786 572.2135)" style="fill:#F2E9DA;" width="19.048" height="19.048"/>
				</g>
			</g>
			<g>
				<g>
					<g>
						<polygon style="fill:#FFBD29;" points="207.945,247.04 201.136,240.23 204.603,236.762 207.945,240.104 214.975,233.074 
							218.443,236.542 						"/>
					</g>
				</g>
			</g>
			<g>
				<g>
					<g>
						<polygon style="fill:#FFBD29;" points="207.945,270.758 201.136,263.948 204.603,260.481 207.945,263.822 214.975,256.793 
							218.442,260.26 						"/>
					</g>
				</g>
			</g>
			<g>
				<g>
					<g>
						<polygon style="fill:#FFBD29;" points="207.945,292.474 201.136,285.664 204.603,282.197 207.945,285.538 214.975,278.508 
							218.443,281.976 						"/>
					</g>
				</g>
			</g>
			<g>
				<g>
					<g>
						
							<rect x="222.505" y="232.458" transform="matrix(-1 -4.489665e-11 4.489665e-11 -1 536.412 468.6806)" style="fill:#F2E9DA;" width="91.403" height="3.765"/>
					</g>
				</g>
				<g>
					<g>
						
							<rect x="222.505" y="239.599" transform="matrix(-1 -4.489665e-11 4.489665e-11 -1 536.412 482.9623)" style="fill:#F2E9DA;" width="91.403" height="3.765"/>
					</g>
				</g>
				<g>
					<g>
						
							<rect x="222.505" y="246.603" transform="matrix(-1 -4.489488e-11 4.489488e-11 -1 486.1342 496.9711)" style="fill:#F2E9DA;" width="41.125" height="3.765"/>
					</g>
				</g>
			</g>
			<g>
				<g>
					<g>
						
							<rect x="222.505" y="254.82" transform="matrix(-1 -4.489665e-11 4.489665e-11 -1 536.412 513.4056)" style="fill:#F2E9DA;" width="91.403" height="3.765"/>
					</g>
				</g>
				<g>
					<g>
						
							<rect x="222.505" y="261.961" transform="matrix(-1 -4.489665e-11 4.489665e-11 -1 536.412 527.6873)" style="fill:#F2E9DA;" width="91.403" height="3.765"/>
					</g>
				</g>
				<g>
					<g>
						
							<rect x="222.505" y="268.965" transform="matrix(-1 -4.489488e-11 4.489488e-11 -1 486.1342 541.6961)" style="fill:#F2E9DA;" width="41.125" height="3.765"/>
					</g>
				</g>
			</g>
			<g>
				<g>
					<g>
						
							<rect x="222.505" y="277.575" transform="matrix(-1 -4.489665e-11 4.489665e-11 -1 536.412 558.9147)" style="fill:#F2E9DA;" width="91.403" height="3.765"/>
					</g>
				</g>
				<g>
					<g>
						
							<rect x="222.505" y="284.716" transform="matrix(-1 -4.489665e-11 4.489665e-11 -1 536.412 573.1964)" style="fill:#F2E9DA;" width="91.403" height="3.765"/>
					</g>
				</g>
				<g>
					<g>
						
							<rect x="222.505" y="291.72" transform="matrix(-1 -4.489488e-11 4.489488e-11 -1 486.1342 587.2052)" style="fill:#F2E9DA;" width="41.125" height="3.765"/>
					</g>
				</g>
			</g>
		</g>
		<g>
			<g>
				<path style="fill:#F2E9DA;" d="M428.789,257.977l-6.551,19.602c-8.968,26.809-38.601,34.044-58.914,14.384l-14.847-14.377
					c-24.785-23.994-17.323-68.333,12.742-75.673l21.399-5.225C412.672,189.35,439.728,225.261,428.789,257.977z"/>
			</g>
			<g>
				
					<ellipse transform="matrix(0.9715 -0.2372 0.2372 0.9715 -38.8629 94.6195)" style="fill:#25292B;" cx="373.8" cy="208.821" rx="29.098" ry="11.416"/>
			</g>
			<g>
				<path style="fill:#F2E9DA;" d="M415.774,179.521c0,21.766-21.357,28.951-47.703,28.951c-26.346,0-47.703-7.185-47.703-28.951
					s21.357-42.19,47.703-42.19C394.417,137.332,415.774,157.756,415.774,179.521z"/>
			</g>
			<g>
				<path style="fill:#FFBD29;" d="M347.666,192.384c0,0-21.194-0.259-27.27-11.671c-0.019-0.389-0.028-0.787-0.028-1.195
					c0-10.828,5.298-21.333,13.867-29.151h53.346C387.581,150.367,406.375,192.384,347.666,192.384z"/>
			</g>
			<g>
				<ellipse style="fill:#F2E9DA;" cx="334.217" cy="165.771" rx="7.067" ry="8.03"/>
			</g>
			<g>
				<ellipse style="fill:#F2E9DA;" cx="358.966" cy="165.771" rx="7.067" ry="8.03"/>
			</g>
			<g>
				<path style="fill:#25292B;" d="M344.152,182.023c-6.576,0-6.683-5.929-6.684-5.989c-0.001-0.18,0.144-0.326,0.323-0.327
					c0.001,0,0.002,0,0.002,0c0.178,0,0.324,0.144,0.325,0.322c0.002,0.218,0.113,5.343,6.033,5.343c5.92,0,6.031-5.125,6.033-5.343
					c0.001-0.178,0.147-0.322,0.325-0.322c0,0,0.001,0,0.002,0c0.179,0.001,0.324,0.147,0.323,0.327
					C350.834,176.094,350.727,182.023,344.152,182.023z"/>
			</g>
			<g>
				<path style="fill:#25292B;" d="M399.334,201.744c-0.052,0-0.104-0.013-0.154-0.039c-0.158-0.085-0.217-0.282-0.132-0.44
					c4.627-8.596,6.587-18.675,5.519-28.379c-1.069-9.705-5.177-19.114-11.566-26.497c-0.117-0.136-0.103-0.341,0.033-0.459
					c0.135-0.118,0.34-0.104,0.459,0.033c6.474,7.481,10.636,17.017,11.72,26.851c1.083,9.834-0.903,20.048-5.593,28.759
					C399.562,201.682,399.451,201.744,399.334,201.744z"/>
			</g>
			<g>
				<path style="fill:#25292B;" d="M369.74,142.407c-0.061,0-0.124-0.018-0.179-0.054c-0.15-0.099-0.191-0.3-0.092-0.451
					c4.937-7.489,6.281-17.071,3.596-25.629c-0.054-0.171,0.042-0.354,0.213-0.407c0.17-0.052,0.354,0.042,0.407,0.213
					c2.744,8.743,1.371,18.531-3.673,26.182C369.95,142.355,369.846,142.407,369.74,142.407z"/>
			</g>
			<g>
				<circle style="fill:#FFBD29;" cx="373.35" cy="114.167" r="9.077"/>
			</g>
			<g>
				<ellipse style="fill:#FFBD29;" cx="408.092" cy="235.431" rx="13.819" ry="17.51"/>
			</g>
			<g>
				<g>
					<path style="fill:#25292B;" d="M360.983,262.211c-11.869,0-23.731-2.761-34.349-8.099c-4.117-2.069-5.777-7.085-3.708-11.202
						c2.069-4.117,7.084-5.778,11.202-3.707c11.211,5.634,24.199,7.593,36.571,5.516c12.374-2.078,24.01-8.17,32.764-17.156
						c3.215-3.301,8.497-3.37,11.799-0.153c3.3,3.215,3.369,8.498,0.154,11.799c-11.21,11.506-26.11,19.307-41.954,21.968
						C369.338,261.869,365.16,262.211,360.983,262.211z"/>
				</g>
			</g>
			<g>
				<g>
					<g>
						<g>
							<path style="fill:#FFBD29;" d="M240.751,200.944c1.942-0.313,3.963-0.336,6.009-0.03c5.184,0.775,9.756,3.522,12.875,7.736
								c3.118,4.214,4.408,9.39,3.633,14.574l-0.131,0.874c-0.358,2.397-2.591,4.052-4.989,3.692
								c-2.397-0.358-4.05-2.592-3.692-4.989l0.131-0.874c0.428-2.865-0.285-5.726-2.008-8.055c-1.723-2.329-4.25-3.848-7.116-4.276
								c-5.916-0.884-11.447,3.209-12.331,9.124l-0.131,0.875c-0.359,2.397-2.593,4.048-4.99,3.691
								c-2.397-0.359-4.05-2.593-3.691-4.99l0.131-0.874C225.744,208.766,232.538,202.267,240.751,200.944z"/>
						</g>
					</g>
				</g>
			</g>
			<g>
				<g>
					<g>
						<g>
							<path style="fill:#FFBD29;" d="M330.177,238.434c-0.064,1.821-0.405,3.661-1.05,5.467c-1.633,4.573-4.95,8.235-9.338,10.314
								c-4.388,2.078-9.323,2.323-13.896,0.689l-0.771-0.275c-2.114-0.755-3.218-3.081-2.461-5.196
								c0.755-2.114,3.082-3.216,5.196-2.461l0.771,0.275c2.527,0.903,5.255,0.767,7.68-0.381c2.425-1.149,4.259-3.173,5.162-5.7
								c1.864-5.218-0.864-10.978-6.081-12.842l-0.771-0.276c-2.114-0.756-3.214-3.082-2.46-5.197
								c0.756-2.114,3.082-3.216,5.197-2.46l0.771,0.275C325.759,223.394,330.447,230.733,330.177,238.434z"/>
						</g>
					</g>
				</g>
			</g>
		</g>
		<g>
			<g>
				<rect x="199.565" y="329.391" style="fill:#FFBD29;" width="57.544" height="57.544"/>
			</g>
			<g>
				<path style="fill:#FFBD29;" d="M383.868,321.719H192.016v-9.385c0-2.516,2.039-4.555,4.555-4.555h182.743
					c2.516,0,4.555,2.039,4.555,4.555V321.719z"/>
			</g>
			<g>
				<path style="fill:#25292B;" d="M379.313,429.734H196.571c-2.812,0-5.099-2.287-5.099-5.099V312.335c0-2.813,2.288-5.1,5.099-5.1
					h182.743c2.812,0,5.1,2.287,5.1,5.1v112.301C384.413,427.447,382.125,429.734,379.313,429.734z M196.571,308.323
					c-2.211,0-4.01,1.8-4.01,4.012v112.301c0,2.211,1.799,4.011,4.01,4.011h182.743c2.211,0,4.011-1.8,4.011-4.011V312.335
					c0-2.212-1.799-4.012-4.011-4.012H196.571z"/>
			</g>
			<g>
				<path style="fill:#F2E9DA;" d="M376.867,314.694c0,0.62-0.25,1.19-0.66,1.6c-0.41,0.41-0.98,0.66-1.6,0.66h-10.98
					c-1.24,0-2.26-1.01-2.26-2.26c0-0.62,0.26-1.19,0.66-1.6c0.42-0.41,0.98-0.66,1.6-0.66h10.98
					C375.857,312.434,376.867,313.444,376.867,314.694z"/>
			</g>
			<g>
				<path style="fill:#25292B;" d="M358.607,314.694c0,0.62-0.25,1.19-0.67,1.6c-0.4,0.41-0.97,0.66-1.59,0.66h-10.98
					c-1.25,0-2.26-1.01-2.26-2.26c0-0.62,0.25-1.19,0.66-1.6c0.41-0.41,0.97-0.66,1.6-0.66h10.98
					C357.587,312.434,358.607,313.444,358.607,314.694z"/>
			</g>
			<g>
				<path style="fill:#FFA727;" d="M340.036,314.694c0,0.62-0.25,1.19-0.67,1.6c-0.4,0.41-0.97,0.66-1.59,0.66h-10.98
					c-1.25,0-2.26-1.01-2.26-2.26c0-0.62,0.25-1.19,0.66-1.6c0.41-0.41,0.97-0.66,1.6-0.66h10.98
					C339.016,312.434,340.036,313.444,340.036,314.694z"/>
			</g>
			<g>
				<g>
					<g>
						<polygon style="fill:#F2E9DA;" points="221.369,379.509 202.407,360.547 211.468,351.487 221.369,361.388 245.939,336.817 
							255,345.878 						"/>
					</g>
				</g>
			</g>
			<g>
				<path style="fill:#F2E9DA;" d="M373.716,398.121H200.862c-0.714,0-1.297-0.584-1.297-1.297v-0.73
					c0-0.714,0.584-1.297,1.297-1.297h172.854c0.714,0,1.297,0.584,1.297,1.297v0.73
					C375.013,397.538,374.43,398.121,373.716,398.121z"/>
			</g>
			<g>
				<path style="fill:#F2E9DA;" d="M373.904,409.876H201.05c-0.714,0-1.297-0.584-1.297-1.297v-0.73
					c0-0.714,0.584-1.297,1.297-1.297h172.854c0.714,0,1.297,0.584,1.297,1.297v0.73
					C375.201,409.292,374.617,409.876,373.904,409.876z"/>
			</g>
			<g>
				<path style="fill:#F2E9DA;" d="M321.549,420.917H200.956c-0.714,0-1.297-0.584-1.297-1.297v-0.73
					c0-0.714,0.584-1.297,1.297-1.297h120.593c0.714,0,1.297,0.584,1.297,1.297v0.73
					C322.846,420.333,322.262,420.917,321.549,420.917z"/>
			</g>
			<g>
				<g>
					<g>
						<g>
							<path style="fill:#F2E9DA;" d="M336.272,375.218c-5.927,0-10.748-4.821-10.748-10.747v-22.968c0-4.793-3.9-8.693-8.693-8.693
								s-8.693,3.9-8.693,8.693v18.8c0,5.218-4.245,9.463-9.463,9.463h-0.335c-5.218,0-9.463-4.245-9.463-9.463v-20.794
								c0-4.332-3.524-7.855-7.855-7.855c-4.331,0-7.854,3.524-7.854,7.855v38.94c0,0.444-0.359,0.804-0.804,0.804
								s-0.804-0.36-0.804-0.804v-38.94c0-5.218,4.244-9.463,9.462-9.463c5.218,0,9.463,4.245,9.463,9.463v20.794
								c0,4.332,3.524,7.855,7.855,7.855h0.335c4.332,0,7.855-3.524,7.855-7.855v-18.8c0-5.68,4.62-10.3,10.3-10.3
								c5.679,0,10.3,4.621,10.3,10.3v22.968c0,5.04,4.1,9.14,9.14,9.14c5.04,0,9.139-4.1,9.139-9.14v-5.527
								c0-5.762,4.688-10.45,10.45-10.45s10.45,4.688,10.45,10.45v22.595c0,0.444-0.359,0.804-0.804,0.804s-0.804-0.36-0.804-0.804
								v-22.595c0-4.875-3.966-8.842-8.842-8.842s-8.842,3.966-8.842,8.842v5.527C347.019,370.396,342.198,375.218,336.272,375.218z
								"/>
						</g>
					</g>
				</g>
				<g>
					<g>
						<circle style="fill:#FFBD29;" cx="280.328" cy="330.712" r="4.929"/>
					</g>
				</g>
				<g>
					<g>
						<circle style="fill:#FFBD29;" cx="306.887" cy="350.438" r="4.929"/>
					</g>
				</g>
				<g>
					<g>
						<circle style="fill:#FFBD29;" cx="327.134" cy="339.9" r="4.929"/>
					</g>
				</g>
				<g>
					<g>
						<circle style="fill:#FFBD29;" cx="335.787" cy="373.787" r="4.929"/>
					</g>
				</g>
				<g>
					<g>
						<circle style="fill:#FFBD29;" cx="365.507" cy="379.985" r="4.929"/>
					</g>
				</g>
				<g>
					<g>
						<circle style="fill:#FFBD29;" cx="272.326" cy="378.775" r="4.929"/>
					</g>
				</g>
			</g>
		</g>
	</g>
	<g>
		<g>
			<path style="fill:#25292B;" d="M196.455,158.242c-0.276,0-0.5-0.224-0.5-0.5v-6c0-0.276,0.224-0.5,0.5-0.5s0.5,0.224,0.5,0.5v6
				C196.955,158.018,196.731,158.242,196.455,158.242z M295.599,152.338c-0.268,0-0.49-0.212-0.499-0.483
				c-0.01-0.276,0.206-0.507,0.482-0.517c1.953-0.068,3.823-0.548,5.557-1.426c0.247-0.128,0.547-0.026,0.672,0.22
				c0.125,0.247,0.026,0.547-0.22,0.672c-1.865,0.945-3.875,1.461-5.974,1.534C295.61,152.338,295.604,152.338,295.599,152.338z
				 M289.68,151.617c-0.053,0-0.107-0.008-0.16-0.026c-1.951-0.661-3.776-1.764-5.277-3.191c-0.2-0.19-0.208-0.506-0.018-0.707
				c0.189-0.2,0.506-0.209,0.707-0.018c1.397,1.327,3.095,2.354,4.909,2.968c0.262,0.089,0.402,0.373,0.313,0.634
				C290.083,151.486,289.889,151.617,289.68,151.617z M305.972,147.091c-0.109,0-0.218-0.035-0.31-0.108
				c-0.216-0.172-0.253-0.486-0.082-0.703c1.214-1.531,2.059-3.267,2.513-5.157c0.064-0.269,0.333-0.437,0.603-0.37
				c0.269,0.064,0.434,0.334,0.37,0.603c-0.488,2.033-1.396,3.898-2.701,5.544C306.266,147.026,306.12,147.091,305.972,147.091z
				 M196.455,146.242c-0.276,0-0.5-0.224-0.5-0.5v-6c0-0.276,0.224-0.5,0.5-0.5s0.5,0.224,0.5,0.5v6
				C196.955,146.018,196.731,146.242,196.455,146.242z M281.25,143.609c-0.199,0-0.387-0.119-0.465-0.315
				c-0.67-1.686-1.01-3.469-1.01-5.299v-0.762c0-0.276,0.224-0.5,0.5-0.5s0.5,0.224,0.5,0.5v0.762c0,1.703,0.316,3.362,0.94,4.93
				c0.102,0.256-0.023,0.547-0.28,0.649C281.374,143.598,281.311,143.609,281.25,143.609z M238.477,142.581h-0.466
				c-1.466,0-2.913-0.22-4.298-0.655c-0.264-0.083-0.41-0.363-0.328-0.626c0.082-0.264,0.361-0.413,0.626-0.328
				c1.289,0.404,2.635,0.609,4,0.609h0.466c0.428,0,0.852-0.02,1.27-0.06c0.273-0.024,0.519,0.177,0.544,0.452
				c0.025,0.275-0.177,0.519-0.452,0.544C239.391,142.56,238.936,142.581,238.477,142.581z M245.459,140.696
				c-0.172,0-0.339-0.088-0.432-0.248c-0.139-0.238-0.059-0.544,0.179-0.684c1.658-0.969,3.117-2.314,4.219-3.89
				c0.158-0.227,0.47-0.282,0.696-0.123c0.226,0.158,0.281,0.47,0.123,0.696c-1.184,1.693-2.751,3.138-4.533,4.18
				C245.632,140.674,245.545,140.696,245.459,140.696z M228.7,138.986c-0.12,0-0.24-0.043-0.336-0.13
				c-1.532-1.391-2.768-3.129-3.572-5.027c-0.108-0.254,0.011-0.548,0.265-0.656c0.254-0.107,0.547,0.011,0.656,0.265
				c0.749,1.766,1.897,3.383,3.323,4.677c0.205,0.186,0.22,0.502,0.034,0.706C228.972,138.93,228.836,138.986,228.7,138.986z
				 M308.962,135.772c-0.276,0-0.5-0.224-0.5-0.5v-6c0-0.276,0.224-0.5,0.5-0.5s0.5,0.224,0.5,0.5v6
				C309.462,135.548,309.238,135.772,308.962,135.772z M196.455,134.242c-0.276,0-0.5-0.224-0.5-0.5v-6c0-0.276,0.224-0.5,0.5-0.5
				s0.5,0.224,0.5,0.5v6C196.955,134.018,196.731,134.242,196.455,134.242z M280.275,131.733c-0.276,0-0.5-0.224-0.5-0.5v-6
				c0-0.276,0.224-0.5,0.5-0.5s0.5,0.224,0.5,0.5v6C280.775,131.51,280.551,131.733,280.275,131.733z M252.116,131.163
				c-0.029,0-0.058-0.002-0.088-0.008c-0.272-0.048-0.453-0.308-0.405-0.58c0.137-0.771,0.206-1.56,0.205-2.346v-3.553
				c0-0.276,0.224-0.5,0.5-0.5s0.5,0.224,0.5,0.5v3.552c0,0.845-0.074,1.693-0.221,2.521
				C252.565,130.993,252.354,131.163,252.116,131.163z M224.159,128.282c-0.276,0-0.5-0.224-0.5-0.5v-6c0-0.276,0.224-0.5,0.5-0.5
				s0.5,0.224,0.5,0.5v6C224.659,128.058,224.435,128.282,224.159,128.282z M308.962,123.772c-0.276,0-0.5-0.224-0.5-0.5v-6
				c0-0.276,0.224-0.5,0.5-0.5s0.5,0.224,0.5,0.5v6C309.462,123.548,309.238,123.772,308.962,123.772z M196.455,122.242
				c-0.276,0-0.5-0.224-0.5-0.5v-6c0-0.276,0.224-0.5,0.5-0.5s0.5,0.224,0.5,0.5v6C196.955,122.018,196.731,122.242,196.455,122.242
				z M280.275,119.733c-0.276,0-0.5-0.224-0.5-0.5v-6c0-0.276,0.224-0.5,0.5-0.5s0.5,0.224,0.5,0.5v6
				C280.775,119.51,280.551,119.733,280.275,119.733z M252.328,119.177c-0.276,0-0.5-0.224-0.5-0.5v-6c0-0.276,0.224-0.5,0.5-0.5
				s0.5,0.224,0.5,0.5v6C252.828,118.953,252.605,119.177,252.328,119.177z M224.159,116.282c-0.276,0-0.5-0.224-0.5-0.5v-6
				c0-0.276,0.224-0.5,0.5-0.5s0.5,0.224,0.5,0.5v6C224.659,116.058,224.435,116.282,224.159,116.282z M308.962,111.772
				c-0.276,0-0.5-0.224-0.5-0.5v-6c0-0.276,0.224-0.5,0.5-0.5s0.5,0.224,0.5,0.5v6C309.462,111.548,309.238,111.772,308.962,111.772
				z M196.455,110.242c-0.276,0-0.5-0.224-0.5-0.5v-6c0-0.276,0.224-0.5,0.5-0.5s0.5,0.224,0.5,0.5v6
				C196.955,110.018,196.731,110.242,196.455,110.242z M280.275,107.733c-0.276,0-0.5-0.224-0.5-0.5v-5.39
				c0-0.197-0.004-0.393-0.013-0.588c-0.012-0.276,0.202-0.509,0.478-0.521c0.277-0.007,0.509,0.202,0.521,0.478
				c0.009,0.209,0.014,0.42,0.014,0.631v5.39C280.775,107.51,280.551,107.733,280.275,107.733z M252.328,107.177
				c-0.276,0-0.5-0.224-0.5-0.5v-4.833c0-0.406,0.017-0.809,0.05-1.207c0.022-0.275,0.266-0.48,0.54-0.456
				c0.275,0.023,0.479,0.265,0.456,0.54c-0.031,0.37-0.046,0.745-0.046,1.123v4.833
				C252.828,106.953,252.605,107.177,252.328,107.177z M224.159,104.282c-0.276,0-0.5-0.224-0.5-0.5v-6c0-0.276,0.224-0.5,0.5-0.5
				s0.5,0.224,0.5,0.5v6C224.659,104.058,224.435,104.282,224.159,104.282z M308.962,99.772c-0.276,0-0.5-0.224-0.5-0.5v-6
				c0-0.276,0.224-0.5,0.5-0.5s0.5,0.224,0.5,0.5v6C309.462,99.548,309.238,99.772,308.962,99.772z M196.455,98.242
				c-0.276,0-0.5-0.224-0.5-0.5v-6c0-0.276,0.224-0.5,0.5-0.5s0.5,0.224,0.5,0.5v6C196.955,98.018,196.731,98.242,196.455,98.242z
				 M368.578,98.107c-0.166,0-0.328-0.082-0.423-0.232c-1.009-1.592-2.64-2.727-4.476-3.113c-0.27-0.057-0.443-0.322-0.386-0.592
				c0.057-0.27,0.322-0.442,0.592-0.386c2.098,0.441,3.962,1.737,5.114,3.556c0.148,0.233,0.079,0.542-0.155,0.69
				C368.762,98.082,368.669,98.107,368.578,98.107z M278.731,95.983c-0.181,0-0.355-0.099-0.444-0.27
				c-0.882-1.704-2.15-3.229-3.669-4.411c-0.218-0.169-0.257-0.484-0.087-0.702c0.169-0.218,0.484-0.259,0.702-0.087
				c1.632,1.271,2.995,2.91,3.942,4.74c0.127,0.246,0.031,0.547-0.214,0.674C278.887,95.965,278.808,95.983,278.731,95.983z
				 M254.138,95.493c-0.084,0-0.169-0.021-0.247-0.065c-0.24-0.137-0.324-0.442-0.187-0.682c1.022-1.792,2.45-3.376,4.13-4.579
				c0.225-0.162,0.537-0.109,0.697,0.115c0.161,0.224,0.109,0.537-0.115,0.697c-1.563,1.12-2.893,2.594-3.843,4.262
				C254.48,95.403,254.311,95.493,254.138,95.493z M357.794,94.611h-6c-0.276,0-0.5-0.224-0.5-0.5s0.224-0.5,0.5-0.5h6
				c0.276,0,0.5,0.224,0.5,0.5S358.071,94.611,357.794,94.611z M345.964,93.434c-0.069,0-0.139-0.014-0.206-0.044
				c-1.882-0.854-3.579-2.148-4.906-3.743c-0.177-0.212-0.148-0.527,0.064-0.704c0.211-0.177,0.527-0.147,0.704,0.064
				c1.231,1.479,2.805,2.68,4.551,3.471c0.251,0.114,0.363,0.411,0.249,0.662C346.336,93.325,346.154,93.434,345.964,93.434z
				 M224.159,92.282c-0.276,0-0.5-0.224-0.5-0.5v-2.253c0-1.212-0.163-2.412-0.482-3.567c-0.074-0.266,0.083-0.542,0.349-0.615
				c0.264-0.07,0.542,0.083,0.615,0.349c0.343,1.241,0.518,2.531,0.518,3.833v2.253C224.659,92.058,224.435,92.282,224.159,92.282z
				 M269.553,88.846c-0.037,0-0.075-0.004-0.113-0.013c-0.982-0.227-1.997-0.342-3.017-0.342h-0.242
				c-0.838,0-1.677,0.078-2.492,0.232c-0.268,0.051-0.532-0.127-0.584-0.398c-0.051-0.271,0.127-0.533,0.398-0.584
				c0.876-0.166,1.777-0.25,2.677-0.25h0.242c1.095,0,2.186,0.124,3.242,0.368c0.269,0.063,0.437,0.331,0.375,0.6
				C269.986,88.69,269.78,88.846,269.553,88.846z M308.962,87.772c-0.276,0-0.5-0.224-0.5-0.5v-6c0-0.276,0.224-0.5,0.5-0.5
				s0.5,0.224,0.5,0.5v6C309.462,87.548,309.238,87.772,308.962,87.772z M196.966,86.289c-0.045,0-0.09-0.006-0.135-0.019
				c-0.266-0.074-0.421-0.35-0.347-0.616c0.563-2.013,1.54-3.843,2.904-5.44c0.18-0.21,0.496-0.234,0.705-0.056
				c0.21,0.18,0.235,0.495,0.056,0.705c-1.269,1.486-2.178,3.188-2.702,5.061C197.386,86.145,197.184,86.289,196.966,86.289z
				 M338.552,84.518c-0.225,0-0.429-0.153-0.485-0.381c-0.263-1.071-0.396-2.179-0.396-3.292c0-0.9-0.094-1.798-0.28-2.669
				c-0.057-0.27,0.115-0.536,0.385-0.593c0.269-0.057,0.535,0.115,0.593,0.385c0.2,0.939,0.301,1.908,0.301,2.877
				c0,1.033,0.124,2.061,0.367,3.054c0.066,0.268-0.098,0.539-0.366,0.604C338.631,84.514,338.591,84.518,338.552,84.518z
				 M220.871,81.07c-0.142,0-0.282-0.06-0.381-0.176c-1.246-1.468-2.824-2.671-4.563-3.479c-0.25-0.117-0.359-0.414-0.243-0.665
				c0.116-0.25,0.413-0.36,0.665-0.243c1.869,0.869,3.564,2.162,4.904,3.739c0.179,0.21,0.153,0.526-0.058,0.705
				C221.1,81.031,220.986,81.07,220.871,81.07z M204.512,77.444c-0.189,0-0.37-0.107-0.455-0.291
				c-0.116-0.251-0.006-0.548,0.245-0.664c1.889-0.871,3.909-1.313,6.005-1.313c0.276,0,0.509,0.224,0.509,0.5s-0.214,0.5-0.49,0.5
				c-1.969,0-3.849,0.411-5.605,1.221C204.653,77.43,204.582,77.444,204.512,77.444z M310.111,75.935
				c-0.068,0-0.137-0.014-0.204-0.043c-0.252-0.113-0.365-0.409-0.252-0.661c0.844-1.887,2.129-3.59,3.718-4.926
				c0.211-0.177,0.525-0.15,0.705,0.061c0.178,0.211,0.15,0.527-0.061,0.705c-1.474,1.239-2.666,2.819-3.448,4.569
				C310.485,75.825,310.302,75.935,310.111,75.935z M335.363,73.183c-0.149,0-0.296-0.066-0.395-0.192
				c-1.185-1.516-2.721-2.765-4.442-3.611c-0.248-0.122-0.35-0.421-0.228-0.669c0.121-0.248,0.418-0.351,0.669-0.228
				c1.856,0.912,3.512,2.258,4.789,3.892c0.17,0.218,0.131,0.532-0.086,0.702C335.579,73.148,335.471,73.183,335.363,73.183z
				 M318.989,68.477c-0.224,0-0.427-0.151-0.484-0.378c-0.067-0.268,0.095-0.539,0.363-0.606c1.091-0.274,2.22-0.413,3.354-0.413
				c0.002,0,0.004,0,0.006,0h2.676c0.276,0,0.526,0.224,0.526,0.5s-0.198,0.5-0.475,0.5h-2.728c-0.002,0-0.004,0-0.006,0
				c-1.053,0-2.099,0.129-3.111,0.383C319.07,68.472,319.029,68.477,318.989,68.477z"/>
		</g>
		<g>
			<g>
				<circle style="fill:#FFBD29;" cx="266.336" cy="87.992" r="16.762"/>
			</g>
			<g>
				<g>
					<g>
						<g>
							<g>
								<path style="fill:#F2E9DA;" d="M260.197,95.278c-0.202,0-0.405-0.066-0.575-0.202l-8.018-6.404
									c-0.219-0.175-0.347-0.441-0.347-0.721s0.128-0.546,0.347-0.721l7.915-6.322c0.398-0.318,0.979-0.253,1.297,0.145
									c0.318,0.398,0.253,0.979-0.145,1.297l-7.012,5.601l7.115,5.683c0.398,0.318,0.463,0.899,0.145,1.297
									C260.737,95.159,260.468,95.278,260.197,95.278z"/>
							</g>
						</g>
					</g>
				</g>
				<g>
					<g>
						<g>
							<g>
								<path style="fill:#F2E9DA;" d="M272.475,95.278c-0.271,0-0.539-0.119-0.722-0.347c-0.318-0.398-0.253-0.979,0.145-1.297
									l7.115-5.683l-7.012-5.601c-0.398-0.318-0.463-0.899-0.145-1.297c0.318-0.398,0.899-0.463,1.297-0.145l7.915,6.322
									c0.219,0.175,0.347,0.441,0.347,0.721s-0.128,0.546-0.347,0.721l-8.018,6.404C272.881,95.212,272.677,95.278,272.475,95.278
									z"/>
							</g>
						</g>
					</g>
				</g>
				<g>
					<g>
						<g>
							<g>
								<path style="fill:#F2E9DA;" d="M264.535,96.971c-0.129,0.018-0.263,0.008-0.396-0.033c-0.487-0.15-0.761-0.666-0.611-1.154
									l4.962-16.13c0.15-0.487,0.666-0.761,1.154-0.611c0.487,0.15,0.761,0.666,0.611,1.154l-4.962,16.13
									C265.184,96.683,264.88,96.924,264.535,96.971z"/>
							</g>
						</g>
					</g>
				</g>
			</g>
		</g>
		<g>
			<g>
				<path style="fill:#FFBD29;" d="M270.111,171.91h2.591c0-2.167-0.494-4.349-1.438-6.309l-2.333,1.126
					c-0.783-1.624-1.923-3.043-3.317-4.154l1.616-2.023c-0.85-0.678-1.773-1.26-2.754-1.737c-0.98-0.469-2.015-0.831-3.077-1.071
					l-0.573,2.523c-0.853-0.195-1.743-0.297-2.657-0.297c-0.914,0-1.805,0.102-2.659,0.299l-0.573-2.525
					c-1.062,0.24-2.097,0.602-3.077,1.071c-0.978,0.477-1.904,1.06-2.754,1.737l1.616,2.023c-1.395,1.111-2.534,2.53-3.317,4.154
					l-2.333-1.126c-0.942,1.961-1.436,4.143-1.438,6.309h2.593c0,1.856,0.424,3.615,1.179,5.183l-2.333,1.126
					c0.954,1.955,2.331,3.702,4.035,5.051l1.616-2.025c1.38,1.103,3.007,1.906,4.788,2.309l-0.573,2.525
					c2.125,0.486,4.337,0.486,6.463,0l-0.573-2.523c1.781-0.405,3.408-1.207,4.788-2.311l1.616,2.025
					c1.703-1.349,3.083-3.096,4.035-5.051l-2.333-1.126C269.687,175.525,270.111,173.767,270.111,171.91z M258.166,180.103
					c-4.423,0-8.009-3.586-8.009-8.011c0-4.423,3.586-8.009,8.009-8.009c4.425,0,8.011,3.586,8.011,8.009
					C266.176,176.517,262.59,180.103,258.166,180.103z"/>
			</g>
			<g>
				<path style="fill:#FFBD29;" d="M307.926,194.508h5.03c-0.008-1.168-0.096-2.339-0.276-3.501
					c-0.182-1.16-0.463-2.306-0.821-3.424c-0.355-1.121-0.818-2.207-1.35-3.253c-0.534-1.044-1.143-2.052-1.84-2.997l-4.063,2.956
					c-2.135-2.934-5.165-5.174-8.692-6.317l1.551-4.782c-4.482-1.46-9.369-1.46-13.852,0l1.554,4.782
					c-3.526,1.143-6.559,3.383-8.694,6.32l-4.063-2.959c-0.694,0.945-1.306,1.953-1.838,2.997c-0.534,1.047-0.995,2.132-1.35,3.253
					c-0.361,1.118-0.642,2.265-0.824,3.424c-0.176,1.163-0.267,2.333-0.273,3.501h5.028c0,3.821,1.231,7.353,3.32,10.221
					l-4.063,2.956c2.747,3.804,6.727,6.692,11.204,8.143l1.554-4.78c1.691,0.548,3.496,0.846,5.372,0.846s3.683-0.298,5.375-0.849
					l1.551,4.782c4.477-1.452,8.457-4.339,11.204-8.143l-4.063-2.956C306.695,201.861,307.926,198.329,307.926,194.508z
					 M290.543,203.896c-5.49,0-9.937-4.449-9.937-9.937c0-5.488,4.446-9.937,9.937-9.937c5.488,0,9.934,4.449,9.934,9.937
					C300.477,199.447,296.031,203.896,290.543,203.896z"/>
			</g>
			<g>
				<circle style="fill:#FFBD29;" cx="279.96" cy="163.69" r="5.948"/>
			</g>
		</g>
	</g>
	<g>
		<g>
			<path style="fill:#25292B;" d="M485.181,465.491H14.818c-0.223,0-0.403-0.181-0.403-0.403s0.18-0.403,0.403-0.403h470.363
				c0.223,0,0.403,0.181,0.403,0.403S485.404,465.491,485.181,465.491z"/>
		</g>
	</g>
</g>
</svg>
