<?xml version="1.0" encoding="utf-8"?>
<!-- Generator: Adobe Illustrator 27.5.0, SVG Export Plug-In . SVG Version: 6.00 Build 0)  -->
<svg version="1.1" xmlns="http://www.w3.org/2000/svg" xmlns:xlink="http://www.w3.org/1999/xlink" x="0px" y="0px"
	 viewBox="0 0 3710 3710" style="enable-background:new 0 0 3710 3710;" xml:space="preserve">
<g id="Illustration">
	<g>
		<path style="fill:#F4F7FA;" d="M1153.077,549.893c-95.756,137.08,16.52,359.319-125.565,462.414
			c-138.309,100.356-308.217-64.141-438.564,22.245c-193.363,128.148-158.051,714.527,124.656,1078.857
			c85.02,109.566,156.059,152.198,187.521,276.112c67.56,266.076-169.879,424.354-124.695,555.951
			c101.739,296.307,1666.406,544.944,2294.22-345.558c293.215-415.901,337.086-1016.466,75.108-1472.598
			C2672.367,303.09,1367.936,242.311,1153.077,549.893z"/>
		<g>
			<linearGradient id="SVGID_1_" gradientUnits="userSpaceOnUse" x1="1429.8121" y1="2294.8687" x2="-76.3478" y2="1382.3787">
				<stop  offset="0" style="stop-color:#FF9085"/>
				<stop  offset="1" style="stop-color:#FB6FBB"/>
			</linearGradient>
			<path style="fill:url(#SVGID_1_);" d="M1364.048,1952.665l-45.515-0.381c-3.665-20.6-9.011-40.638-16.07-59.889l39.481-22.361
				c10.772-6.101,14.462-19.822,8.244-30.65l-38.924-67.793c-6.232-10.852-20.039-14.724-30.843-8.641l-39.999,22.52
				c-13.334-15.912-28.009-30.69-43.886-44.134l23.203-39.697c6.256-10.704,2.543-24.562-8.296-30.957l-67.913-40.067
				c-10.88-6.419-24.8-2.938-31.088,7.786l-23.354,39.818c-19.335-7.253-39.49-12.837-60.249-16.752v-46.641
				c0-12.521-10.24-22.844-22.879-23.057l-79.206-1.334c-12.692-0.213-22.988,9.794-22.988,22.352v46.779
				c-20.903,3.296-41.236,8.294-60.779,15.005l-23.652-40.794c-6.377-11.001-20.51-14.962-31.57-8.844l-69.285,38.333
				c-11.1,6.141-14.907,20.059-8.495,31.078l23.741,40.809c-16.243,13.17-31.273,27.742-44.951,43.517l-41.132-23.866
				c-11.137-6.462-25.387-2.896-31.823,7.97l-40.298,68.03c-6.453,10.89-2.624,24.948,8.547,31.391l40.841,23.559
				c-7.291,19.425-12.815,39.696-16.603,60.577l-47.169-0.396c-12.912-0.108-23.387,10.072-23.387,22.74v79.214
				c0,12.666,10.475,22.991,23.387,23.062l46.795,0.256c3.681,21.054,9.147,41.508,16.369,61.151l-40.232,22.652
				c-11.171,6.289-15,20.292-8.547,31.272l40.298,68.588c6.437,10.955,20.686,14.718,31.823,8.41l39.927-22.613
				c13.764,16.229,28.954,31.219,45.354,44.824l-22.939,39.112c-6.412,10.93-2.606,24.901,8.495,31.195l69.285,39.292
				c11.06,6.272,25.192,2.504,31.57-8.407l22.65-38.752c19.848,7.153,40.524,12.531,61.781,16.176v44.735
				c0,12.558,10.296,22.709,22.988,22.671l79.206-0.237c12.639-0.038,22.879-10.22,22.879-22.741v-44.603
				c21.111-3.689,41.604-9.096,61.239-16.253l22.364,38.438c6.288,10.809,20.208,14.486,31.088,8.217l67.913-39.127
				c10.84-6.246,14.553-20.052,8.296-30.843l-22.418-38.665c16.033-13.432,30.86-28.213,44.278-44.202l38.823,22.396
				c10.804,6.232,24.611,2.552,30.843-8.214l38.924-67.254c6.218-10.742,2.528-24.514-8.244-30.764l-38.891-22.566
				c6.992-19.268,12.281-39.337,15.841-60.006l45.153,0.247c12.424,0.067,22.492-9.942,22.492-22.357v-77.644
				C1386.54,1962.918,1376.472,1952.769,1364.048,1952.665z M966.395,1782.974c127.519,1.57,230.332,104.936,230.332,230.884
				c0,125.947-102.813,227.894-230.332,227.704c-128.291-0.191-232.863-103.569-232.863-230.9
				C733.532,1883.33,838.104,1781.395,966.395,1782.974z"/>
			<g>
				
					<linearGradient id="SVGID_00000070086604787449921910000017159486712021491078_" gradientUnits="userSpaceOnUse" x1="1561.9849" y1="715.1578" x2="1338.4625" y2="2014.3782">
					<stop  offset="0" style="stop-color:#FF9085"/>
					<stop  offset="1" style="stop-color:#FB6FBB"/>
				</linearGradient>
				<path style="fill:url(#SVGID_00000070086604787449921910000017159486712021491078_);" d="M1863.221,1055.994l-41.19-1.128
					c-3.319-18.227-8.16-35.99-14.555-53.091l35.748-18.995c9.748-5.18,13.086-17.202,7.46-26.861l-35.237-60.502
					c-5.644-9.691-18.153-13.375-27.944-8.222l-36.274,19.092c-12.101-14.304-25.422-27.636-39.842-39.819l21.07-34.583
					c5.679-9.322,2.309-21.63-7.532-27.498l-61.718-36.807c-9.898-5.903-22.565-3.119-28.29,6.226l-21.264,34.717
					c-17.615-6.813-35.987-12.171-54.92-16.067v-41.273c0-11.08-9.343-20.437-20.877-20.899l-72.371-2.896
					c-11.611-0.465-21.032,8.182-21.032,19.313v41.461c-19.135,2.485-37.758,6.493-55.667,12.038l-21.686-36.688
					c-5.85-9.897-18.816-13.715-28.965-8.522l-63.654,32.575c-10.209,5.224-13.709,17.511-7.813,27.435l21.83,36.739
					c-14.932,11.374-28.757,24.021-41.341,37.771l-37.871-22.033c-10.261-5.97-23.394-3.084-29.328,6.455l-37.173,59.75
					c-5.955,9.571-2.421,22.156,7.887,28.101l37.665,21.722c-6.722,17.145-11.814,35.079-15.308,53.589l-43.522-1.192
					c-11.924-0.326-21.599,8.553-21.599,19.833v70.54c0,11.28,9.675,20.647,21.599,20.922l43.177,0.994
					c3.395,18.791,8.435,37.075,15.092,54.663l-37.104,19.529c-10.308,5.425-13.843,17.833-7.887,27.704l37.173,61.623
					c5.934,9.838,19.067,13.385,29.328,7.933l36.762-19.535c12.665,14.621,26.635,28.154,41.714,40.469l-21.093,34.435
					c-5.896,9.626-2.396,22.09,7.813,27.828l63.654,35.783c10.149,5.705,23.115,2.54,28.965-7.062l20.768-34.088
					c18.188,6.604,37.126,11.642,56.585,15.148v39.65c0,11.131,9.421,20.253,21.032,20.373l72.371,0.752
					c11.535,0.12,20.877-8.766,20.877-19.846v-39.469c19.253-2.993,37.934-7.51,55.821-13.585l20.363,34.271
					c5.725,9.633,18.392,13.055,28.29,7.652l61.718-33.696c9.841-5.373,13.211-17.511,7.532-27.119l-20.357-34.439
					c14.56-11.638,28.02-24.479,40.196-38.402l35.207,20.306c9.792,5.647,22.301,2.594,27.944-6.813l35.237-58.726
					c5.625-9.376,2.287-21.566-7.46-27.237l-35.213-20.486c6.333-16.883,11.123-34.496,14.348-52.661l40.862,0.941
					c11.237,0.258,20.339-8.398,20.339-19.335v-68.395C1883.56,1065.417,1874.458,1056.302,1863.221,1055.994z M1501.723,898.764
					c116.326,3.869,209.838,97.135,209.838,208.349c0,111.214-93.512,199.774-209.838,197.787
					c-117.413-2.005-213.404-95.334-213.404-208.439S1384.31,894.859,1501.723,898.764z"/>
				<g>
					<path style="opacity:0.74;fill:#FFFFFF;" d="M1501.723,485.595c-359.192-17.856-658.006,250.003-658.006,598.749
						c0,348.746,298.815,631.667,658.006,631.916c349.201,0.243,625.235-268.199,625.235-599.575S1850.924,502.954,1501.723,485.595
						z M1501.723,1569.118c-272.368-1.785-497.541-217.031-497.541-480.729s225.173-467.594,497.541-455.651
						c266.585,11.69,478.573,226.606,478.573,480.251S1768.307,1570.865,1501.723,1569.118z"/>
					<g>
						
							<linearGradient id="SVGID_00000106861101449640742840000007132821734743226242_" gradientUnits="userSpaceOnUse" x1="879.9344" y1="432.2652" x2="1169.578" y2="1904.2251">
							<stop  offset="0" style="stop-color:#FFC444"/>
							<stop  offset="0.9964" style="stop-color:#F36F56"/>
						</linearGradient>
						<path style="fill:url(#SVGID_00000106861101449640742840000007132821734743226242_);" d="M1065.36,1317.114l-138.216,73.017
							c53.832,92.225,130.866,170.319,223.136,226.955l78.741-128.715C1161.228,1444.915,1104.755,1386.107,1065.36,1317.114z"/>
						
							<linearGradient id="SVGID_00000013180893201958869590000012322269489982894475_" gradientUnits="userSpaceOnUse" x1="1796.0126" y1="300.1544" x2="2079.2109" y2="1739.36">
							<stop  offset="0" style="stop-color:#FFC444"/>
							<stop  offset="0.9964" style="stop-color:#F36F56"/>
						</linearGradient>
						<path style="fill:url(#SVGID_00000013180893201958869590000012322269489982894475_);" d="M1895.323,846.961l128.455-67.696
							c-52.681-79.145-123.337-146.851-206.569-197.297l-75.056,122.857C1803.175,741.346,1855.446,789.986,1895.323,846.961z"/>
						
							<linearGradient id="SVGID_00000110436705404438920910000014688148722173437621_" gradientUnits="userSpaceOnUse" x1="1048.038" y1="412.6332" x2="1330.8463" y2="1849.8568">
							<stop  offset="0" style="stop-color:#FFC444"/>
							<stop  offset="0.9964" style="stop-color:#F36F56"/>
						</linearGradient>
						<path style="fill:url(#SVGID_00000110436705404438920910000014688148722173437621_);" d="M1095.382,818.259
							c42.362-55.634,97.472-101.328,161.216-133.523l-78.495-132.458c-88.178,44.011-163.985,107.696-221.088,185.575
							L1095.382,818.259z"/>
						
							<linearGradient id="SVGID_00000129912861720642210540000001940660938202423445_" gradientUnits="userSpaceOnUse" x1="793.9" y1="435.0923" x2="1086.6018" y2="1922.594">
							<stop  offset="0" style="stop-color:#FFC444"/>
							<stop  offset="0.9964" style="stop-color:#F36F56"/>
						</linearGradient>
						<path style="fill:url(#SVGID_00000129912861720642210540000001940660938202423445_);" d="M1004.182,1088.389
							c0-5.641,0.246-11.219,0.452-16.807l-160.671-4.155c-0.159,5.62-0.246,11.258-0.246,16.918
							c0,100.278,25.013,195.514,69.332,280.277l138.802-73.148C1021.348,1229.558,1004.182,1160.706,1004.182,1088.389z"/>
						
							<linearGradient id="SVGID_00000091723725049509332720000009144644029160378497_" gradientUnits="userSpaceOnUse" x1="1853.2308" y1="298.3177" x2="2132.7771" y2="1718.9634">
							<stop  offset="0" style="stop-color:#FFC444"/>
							<stop  offset="0.9964" style="stop-color:#F36F56"/>
						</linearGradient>
						<path style="opacity:0.25;fill:url(#SVGID_00000091723725049509332720000009144644029160378497_);" d="M1980.296,1112.989
							c0,69.56-15.903,135.15-44.264,193.782l127.998,74.381c40.302-79.509,62.927-169.184,62.927-264.468
							c0-5.378-0.079-10.739-0.222-16.087l-146.857-3.798C1980.069,1102.186,1980.296,1107.563,1980.296,1112.989z"/>
						
							<linearGradient id="SVGID_00000150075347606742353210000011111677734008399795_" gradientUnits="userSpaceOnUse" x1="1690.3999" y1="333.9364" x2="1968.3739" y2="1746.5924">
							<stop  offset="0" style="stop-color:#FFC444"/>
							<stop  offset="0.9964" style="stop-color:#F36F56"/>
						</linearGradient>
						<path style="opacity:0.25;fill:url(#SVGID_00000150075347606742353210000011111677734008399795_);" d="M1923.427,1331.108
							c-36.905,65.654-90.201,121.433-154.802,162.479l74.969,126.675c86.693-53.897,158.133-127.895,207.559-215.093
							L1923.427,1331.108z"/>
						
							<linearGradient id="SVGID_00000144307421075091979330000000352610963626454400_" gradientUnits="userSpaceOnUse" x1="1887.1117" y1="294.6466" x2="2167.1257" y2="1717.6699">
							<stop  offset="0" style="stop-color:#FFC444"/>
							<stop  offset="0.9964" style="stop-color:#F36F56"/>
						</linearGradient>
						<path style="fill:url(#SVGID_00000144307421075091979330000000352610963626454400_);" d="M1910.852,870.455
							c36.72,59.571,60.401,127.155,67.286,198.941l147.227,3.971c-7.051-97.54-37.719-189.536-86.592-270.491L1910.852,870.455z"/>
						
							<linearGradient id="SVGID_00000060713523503266753720000010019177499680471189_" gradientUnits="userSpaceOnUse" x1="1094.6432" y1="396.7547" x2="1383.2543" y2="1863.4677">
							<stop  offset="0" style="stop-color:#FFC444"/>
							<stop  offset="0.9964" style="stop-color:#F36F56"/>
						</linearGradient>
						<path style="opacity:0.25;fill:url(#SVGID_00000060713523503266753720000010019177499680471189_);" d="M1487.186,1568.67
							c-84.267-2.924-163.677-26.258-232.937-65.21l-78.493,128.481c92.697,51.426,198.965,81.655,311.429,84.133V1568.67z"/>
						
							<linearGradient id="SVGID_00000037682516012261848170000006366801302704664728_" gradientUnits="userSpaceOnUse" x1="1413.0927" y1="380.6699" x2="1692.3629" y2="1799.9133">
							<stop  offset="0" style="stop-color:#FFC444"/>
							<stop  offset="0.9964" style="stop-color:#F36F56"/>
						</linearGradient>
						<path style="opacity:0.25;fill:url(#SVGID_00000037682516012261848170000006366801302704664728_);" d="M1744.413,1507.911
							c-66.97,37.178-144.655,59.146-228.167,60.95v147.233c111.208-2.298,214.492-31.81,303.193-81.577L1744.413,1507.911z"/>
						
							<linearGradient id="SVGID_00000132785323133392958270000016146529866384030854_" gradientUnits="userSpaceOnUse" x1="1317.9384" y1="371.3119" x2="1596.8273" y2="1788.6173">
							<stop  offset="0" style="stop-color:#FFC444"/>
							<stop  offset="0.9964" style="stop-color:#F36F56"/>
						</linearGradient>
						<path style="fill:url(#SVGID_00000132785323133392958270000016146529866384030854_);" d="M1282.686,672.495
							c62.247-26.884,131.558-41.188,204.5-40.042V485.049c-101.092-2.868-197.185,16.936-282.924,54.934L1282.686,672.495z"/>
						
							<linearGradient id="SVGID_00000176759433791894386510000005379350783557879179_" gradientUnits="userSpaceOnUse" x1="861.5174" y1="428.7232" x2="1153.9115" y2="1914.6614">
							<stop  offset="0" style="stop-color:#FFC444"/>
							<stop  offset="0.9964" style="stop-color:#F36F56"/>
						</linearGradient>
						<path style="fill:url(#SVGID_00000176759433791894386510000005379350783557879179_);" d="M1006.514,1043.191
							c7.435-74.182,32.942-142.759,72.297-201.817l-138.141-80.097c-53.557,80.946-87.388,175.404-95.191,277.572
							L1006.514,1043.191z"/>
						
							<linearGradient id="SVGID_00000019648554072304425770000015984103354980908178_" gradientUnits="userSpaceOnUse" x1="1598.4757" y1="317.1126" x2="1893.5704" y2="1816.7754">
							<stop  offset="0" style="stop-color:#FFC444"/>
							<stop  offset="0.9964" style="stop-color:#F36F56"/>
						</linearGradient>
						<path style="fill:url(#SVGID_00000019648554072304425770000015984103354980908178_);" d="M1516.247,633.727
							c72.352,5.209,140.333,25.307,200.757,56.967l75.295-123.08c-82.364-45.199-175.999-74.01-276.052-81.12V633.727z"/>
					</g>
				</g>
			</g>
			
				<linearGradient id="SVGID_00000061466121030420047820000009881829613666168234_" gradientUnits="userSpaceOnUse" x1="689.1552" y1="1180.5416" x2="581.5521" y2="1805.983">
				<stop  offset="0" style="stop-color:#FFC444"/>
				<stop  offset="0.9964" style="stop-color:#F36F56"/>
			</linearGradient>
			<path style="fill:url(#SVGID_00000061466121030420047820000009881829613666168234_);" d="M833.783,1338.393l-20.092,0.165
				c-1.616-8.743-3.976-17.234-7.09-25.376l17.424-9.811c4.755-2.678,6.385-8.547,3.639-13.112l-17.18-28.566
				c-2.75-4.572-8.842-6.113-13.607-3.441l-17.639,9.89c-5.878-6.669-12.347-12.843-19.344-18.439l10.226-17.069
				c2.758-4.603,1.122-10.469-3.657-13.103l-29.918-16.501c-4.791-2.641-10.92-1.049-13.688,3.559l-10.278,17.114
				c-8.508-2.93-17.374-5.145-26.504-6.643v-19.819c0-5.321-4.502-9.625-10.059-9.612l-34.803,0.076
				c-5.575,0.012-10.095,4.345-10.095,9.678v19.862c-9.177,1.565-18.1,3.848-26.676,6.851l-10.376-17.126
				c-2.798-4.617-8.995-6.185-13.844-3.501l-30.365,16.813c-4.863,2.691-6.529,8.624-3.721,13.246l10.401,17.125
				c-7.115,5.712-13.699,12.006-19.689,18.801l-18.008-9.806c-4.875-2.655-11.11-1.034-13.927,3.622l-17.627,29.135
				c-2.821,4.663-1.147,10.591,3.738,13.239l17.865,9.686c-3.19,8.287-5.606,16.919-7.264,25.796l-20.63,0.17
				c-5.645,0.046-10.224,4.434-10.224,9.801v33.559c0,5.367,4.579,9.67,10.224,9.612l20.466-0.211
				c1.611,8.898,4.002,17.531,7.162,25.809l-17.599,9.867c-4.885,2.739-6.559,8.698-3.738,13.309l17.627,28.808
				c2.817,4.604,9.052,6.108,13.927,3.363l17.479-9.843c6.028,6.795,12.681,13.056,19.867,18.724l-10.05,16.731
				c-2.808,4.676-1.142,10.577,3.721,13.178l30.365,16.25c4.849,2.594,11.046,0.911,13.844-3.758l9.937-16.585
				c8.708,2.915,17.783,5.072,27.115,6.49v18.995c0,5.333,4.52,9.582,10.095,9.49l34.803-0.569
				c5.557-0.091,10.059-4.478,10.059-9.799v-18.953c9.284-1.697,18.3-4.12,26.939-7.283l9.843,16.205
				c2.768,4.558,8.897,6.037,13.688,3.307l29.918-17.056c4.778-2.723,6.415-8.62,3.657-13.172l-9.88-16.308
				c7.066-5.815,13.6-12.198,19.516-19.088l17.121,9.281c4.766,2.584,10.858,0.93,13.607-3.693l17.18-28.885
				c2.745-4.615,1.116-10.454-3.639-13.044l-17.164-9.346c3.085-8.249,5.419-16.829,6.991-25.651l19.931-0.205
				c5.487-0.057,9.933-4.389,9.933-9.677v-33.066C843.716,1342.598,839.27,1338.348,833.783,1338.393z M658.626,1269.169
				c56.076-0.304,101.352,42.882,101.352,96.458c0,53.575-45.276,97.602-101.352,98.34c-56.327,0.741-102.174-42.44-102.174-96.449
				C556.451,1313.507,602.298,1269.474,658.626,1269.169z"/>
		</g>
		<g>
			<g>
				
					<linearGradient id="SVGID_00000136390872197683042240000006892571111556769720_" gradientUnits="userSpaceOnUse" x1="1837.9813" y1="2836.1943" x2="2611.2639" y2="2836.1943">
					<stop  offset="0" style="stop-color:#444B8C"/>
					<stop  offset="0.9964" style="stop-color:#26264F"/>
				</linearGradient>
				<path style="fill:url(#SVGID_00000136390872197683042240000006892571111556769720_);" d="M2460.172,2941.694
					c-35.697-11.84-62.378-42.136-69.902-79.373l-51.956-257.148l-444.45,15.783l-54.699,267.89
					c-7.661,37.518,23.005,75.158,58.322,88.976l185.948,72.755c34.585,13.532,71.761,18.922,108.711,15.761l392.975-33.618
					c11.488-0.983,20.702-10.013,22.039-21.598c1.337-11.585,9.386-24.593-1.568-28.227L2460.172,2941.694z"/>
				
					<linearGradient id="SVGID_00000026138322522983826960000009877511516814278575_" gradientUnits="userSpaceOnUse" x1="2224.5005" y1="3601.0781" x2="2230.8994" y2="3057.1558">
					<stop  offset="0.0036" style="stop-color:#E38DDD"/>
					<stop  offset="1" style="stop-color:#9571F6"/>
				</linearGradient>
				<path style="fill:url(#SVGID_00000026138322522983826960000009877511516814278575_);" d="M2464.57,2926.055
					c-35.661-11.692-62.315-41.607-69.831-78.376l-51.904-253.915l-433.615,15.601l-54.644,264.522
					c-7.653,37.046,12.596,74.196,47.877,87.841l185.761,71.84c34.551,13.362,71.689,18.684,108.602,15.563l392.579-33.196
					c11.476-0.97,20.682-9.887,22.017-21.327c1.336-11.439-5.568-22.237-16.512-25.825L2464.57,2926.055z"/>
			</g>
			<g>
				<g>
					
						<linearGradient id="SVGID_00000146475267294803392860000016327736353542322822_" gradientUnits="userSpaceOnUse" x1="898.0661" y1="1961.0503" x2="3278.6704" y2="1961.0503">
						<stop  offset="0" style="stop-color:#444B8C"/>
						<stop  offset="0.9964" style="stop-color:#26264F"/>
					</linearGradient>
					<path style="fill:url(#SVGID_00000146475267294803392860000016327736353542322822_);" d="M985.694,2776.086
						c-48.197,2.874-87.628-28.394-87.628-69.715V1217.07c0-41.321,39.43-73.23,87.628-71.142l2238.605,154.977
						c35.385,1.533,54.372-27.032,54.372,8.111v1266.64c0,35.143-28.653,65.443-64.038,67.553L985.694,2776.086z"/>
					
						<linearGradient id="SVGID_00000134217624084816685020000013726325235026083981_" gradientUnits="userSpaceOnUse" x1="918.0976" y1="1961.0503" x2="3298.7021" y2="1961.0503">
						<stop  offset="0.0036" style="stop-color:#E38DDD"/>
						<stop  offset="1" style="stop-color:#9571F6"/>
					</linearGradient>
					<path style="fill:url(#SVGID_00000134217624084816685020000013726325235026083981_);" d="M1005.725,2776.086
						c-48.197,2.874-87.628-28.394-87.628-69.715V1217.07c0-41.321,39.43-73.23,87.628-71.142l2228.939,96.578
						c35.385,1.533,64.038,31.367,64.038,66.509v1266.64c0,35.143-28.652,65.443-64.038,67.553L1005.725,2776.086z"/>
					<path style="opacity:0.3;fill:#D8DEE8;" d="M3234.665,1272.315l-2228.939-91.695c-25.767-1.06-46.716,15.965-46.716,38.03
						v1158.284v327.19c0,22.065,20.95,38.748,46.716,37.269l2228.939-127.995c18.966-1.089,34.303-17.255,34.303-36.111v-289.549
						v-979.871C3268.968,1289.012,3253.631,1273.095,3234.665,1272.315z"/>
				</g>
				<g>
					
						<linearGradient id="SVGID_00000172435981444129867070000017835687407942872238_" gradientUnits="userSpaceOnUse" x1="1553.0275" y1="911.101" x2="2606.5029" y2="2843.3037">
						<stop  offset="0" style="stop-color:#444B8C"/>
						<stop  offset="0.9964" style="stop-color:#26264F"/>
					</linearGradient>
					<path style="fill:url(#SVGID_00000172435981444129867070000017835687407942872238_);" d="M3218.102,2506.22l-2188.219,108.016
						c-22.968,1.134-41.634-14.049-41.634-33.914V1238.16c0-19.865,18.667-35.276,41.634-34.424l2188.219,81.224
						c17.173,0.638,31.064,15.03,31.064,32.149v1156.582C3249.166,2490.809,3235.275,2505.372,3218.102,2506.22z"/>
					<polygon style="opacity:0.6;fill:#FFFFFF;" points="1575.765,1345.479 1076.027,1330.781 1076.027,1283.134 1575.765,1299.297 
											"/>
					<polygon style="opacity:0.36;fill:#FFFFFF;" points="1811.109,1339.22 1695.665,1335.727 1695.665,1303.174 1811.109,1306.908 
											"/>
					<polygon style="opacity:0.36;fill:#FFFFFF;" points="1811.109,1384.115 1695.665,1380.955 1695.665,1348.403 
						1811.109,1351.803 					"/>
					
						<linearGradient id="SVGID_00000045586164306023261800000017860523393024203699_" gradientUnits="userSpaceOnUse" x1="2114.8142" y1="1087.6428" x2="2303.9199" y2="2240.2844">
						<stop  offset="0.0036" style="stop-color:#E38DDD"/>
						<stop  offset="1" style="stop-color:#9571F6"/>
					</linearGradient>
					<polygon style="fill:url(#SVGID_00000045586164306023261800000017860523393024203699_);" points="2386.416,1399.862 
						1938.543,1387.603 1938.543,1355.556 2386.416,1368.746 					"/>
					
						<linearGradient id="SVGID_00000064314926967635186250000007772113954259204780_" gradientUnits="userSpaceOnUse" x1="2016.4392" y1="1423.521" x2="2459.8582" y2="1423.521">
						<stop  offset="0" style="stop-color:#FF9085"/>
						<stop  offset="1" style="stop-color:#FB6FBB"/>
					</linearGradient>
					<polygon style="opacity:0.5;fill:url(#SVGID_00000064314926967635186250000007772113954259204780_);" points="
						2459.858,1444.891 2016.439,1434.036 2016.439,1402.151 2459.858,1413.928 					"/>
					
						<linearGradient id="SVGID_00000174580702169668576400000007525497275614936994_" gradientUnits="userSpaceOnUse" x1="2016.4392" y1="1467.1812" x2="2459.8582" y2="1467.1812">
						<stop  offset="0" style="stop-color:#FF9085"/>
						<stop  offset="1" style="stop-color:#FB6FBB"/>
					</linearGradient>
					<polygon style="opacity:0.5;fill:url(#SVGID_00000174580702169668576400000007525497275614936994_);" points="
						2459.858,1487.91 2016.439,1478.337 2016.439,1446.452 2459.858,1456.948 					"/>
					<polygon style="opacity:0.6;fill:#FFFFFF;" points="2459.858,1530.929 2016.439,1522.639 2016.439,1490.754 2459.858,1499.967 
											"/>
					<polygon style="opacity:0.36;fill:#FFFFFF;" points="1811.109,1429.01 1695.665,1426.184 1695.665,1393.631 1811.109,1396.698 
											"/>
					<polygon style="opacity:0.36;fill:#FFFFFF;" points="1811.109,1473.905 1695.665,1471.412 1695.665,1438.86 1811.109,1441.592 
											"/>
					<polygon style="opacity:0.36;fill:#FFFFFF;" points="1811.109,1518.799 1695.665,1516.641 1695.665,1484.088 
						1811.109,1486.487 					"/>
					<polygon style="opacity:0.36;fill:#FFFFFF;" points="1811.109,1563.694 1695.665,1561.87 1695.665,1529.317 1811.109,1531.382 
											"/>
					<polygon style="opacity:0.6;fill:#FFFFFF;" points="2120.46,1568.584 1836.301,1564.092 1836.301,1531.833 2120.46,1536.915 
											"/>
					<polygon style="opacity:0.36;fill:#FFFFFF;" points="1811.109,1608.589 1695.665,1607.098 1695.665,1574.545 
						1811.109,1576.277 					"/>
					<polygon style="opacity:0.36;fill:#FFFFFF;" points="1811.109,1653.484 1695.665,1652.327 1695.665,1619.774 
						1811.109,1621.171 					"/>
					<polygon style="opacity:0.36;fill:#FFFFFF;" points="1811.109,1698.379 1695.665,1697.555 1695.665,1665.002 
						1811.109,1666.066 					"/>
					
						<linearGradient id="SVGID_00000180348742108603256340000010312215537428526246_" gradientUnits="userSpaceOnUse" x1="1938.5435" y1="1596.2456" x2="2253.5952" y2="1596.2456">
						<stop  offset="0" style="stop-color:#FF9085"/>
						<stop  offset="1" style="stop-color:#FB6FBB"/>
					</linearGradient>
					<polygon style="opacity:0.5;fill:url(#SVGID_00000180348742108603256340000010312215537428526246_);" points="
						2253.595,1614.304 1938.543,1610.235 1938.543,1578.188 2253.595,1582.912 					"/>
					<polygon style="opacity:0.6;fill:#FFFFFF;" points="2417.271,1659.56 2016.439,1655.542 2016.439,1623.657 2417.271,1628.509 
											"/>
					
						<linearGradient id="SVGID_00000056412208272052554140000004795758156474384519_" gradientUnits="userSpaceOnUse" x1="2118.8423" y1="1088.3383" x2="2291.8711" y2="2142.9885">
						<stop  offset="0.0036" style="stop-color:#E38DDD"/>
						<stop  offset="1" style="stop-color:#9571F6"/>
					</linearGradient>
					<polygon style="fill:url(#SVGID_00000056412208272052554140000004795758156474384519_);" points="2417.271,1702.702 
						2016.439,1699.843 2016.439,1667.958 2417.271,1671.651 					"/>
					<polygon style="opacity:0.36;fill:#FFFFFF;" points="1811.109,1743.273 1695.665,1742.784 1695.665,1710.231 
						1811.109,1710.961 					"/>
					<polygon style="opacity:0.36;fill:#FFFFFF;" points="1811.109,1788.168 1695.665,1788.012 1695.665,1755.459 
						1811.109,1755.856 					"/>
					<polygon style="opacity:0.36;fill:#FFFFFF;" points="1811.109,1833.063 1695.665,1833.241 1695.665,1800.688 1811.109,1800.75 
											"/>
					<polygon style="opacity:0.36;fill:#FFFFFF;" points="1811.109,1877.958 1695.665,1878.469 1695.665,1845.917 
						1811.109,1845.645 					"/>
					<polygon style="opacity:0.36;fill:#FFFFFF;" points="1811.109,1922.852 1695.665,1923.698 1695.665,1891.145 1811.109,1890.54 
											"/>
					<polygon style="opacity:0.36;fill:#FFFFFF;" points="1811.109,1967.747 1695.665,1968.926 1695.665,1936.374 
						1811.109,1935.435 					"/>
					<polygon style="opacity:0.36;fill:#FFFFFF;" points="1811.109,2012.642 1695.665,2014.155 1695.665,1981.602 
						1811.109,1980.329 					"/>
					<polygon style="opacity:0.36;fill:#FFFFFF;" points="1811.109,2057.537 1695.665,2059.383 1695.665,2026.831 
						1811.109,2025.224 					"/>
					<polygon style="opacity:0.36;fill:#FFFFFF;" points="1811.109,2102.431 1695.665,2104.612 1695.665,2072.059 
						1811.109,2070.119 					"/>
					<polygon style="opacity:0.36;fill:#FFFFFF;" points="1811.109,2147.326 1695.665,2149.84 1695.665,2117.288 1811.109,2115.014 
											"/>
					<polygon style="opacity:0.36;fill:#FFFFFF;" points="1811.109,2192.221 1695.665,2195.069 1695.665,2162.516 
						1811.109,2159.908 					"/>
					<polygon style="opacity:0.36;fill:#FFFFFF;" points="1811.109,2237.115 1695.665,2240.297 1695.665,2207.745 
						1811.109,2204.803 					"/>
					<polygon style="opacity:0.36;fill:#FFFFFF;" points="1811.109,2282.01 1695.665,2285.526 1695.665,2252.973 1811.109,2249.698 
											"/>
					<polygon style="opacity:0.36;fill:#FFFFFF;" points="1811.109,2326.905 1695.665,2330.754 1695.665,2298.202 
						1811.109,2294.593 					"/>
					<polygon style="opacity:0.36;fill:#FFFFFF;" points="1811.109,2371.8 1695.665,2375.983 1695.665,2343.43 1811.109,2339.488 
											"/>
					<polygon style="opacity:0.36;fill:#FFFFFF;" points="1811.109,2416.695 1695.665,2421.211 1695.665,2388.659 
						1811.109,2384.382 					"/>
					<polygon style="opacity:0.36;fill:#FFFFFF;" points="1811.109,2461.59 1695.665,2466.44 1695.665,2433.887 1811.109,2429.277 
											"/>
					<polygon style="opacity:0.36;fill:#FFFFFF;" points="1811.109,2506.484 1695.665,2511.668 1695.665,2479.116 
						1811.109,2474.172 					"/>
					
						<linearGradient id="SVGID_00000027604148182158036850000000100985896358883494_" gradientUnits="userSpaceOnUse" x1="1835.5167" y1="1328.5922" x2="2150.363" y2="1328.5922">
						<stop  offset="0" style="stop-color:#FF9085"/>
						<stop  offset="1" style="stop-color:#FB6FBB"/>
					</linearGradient>
					<polygon style="opacity:0.5;fill:url(#SVGID_00000027604148182158036850000000100985896358883494_);" points="
						2150.363,1349.487 1835.517,1339.959 1835.517,1307.698 2150.363,1317.88 					"/>
					<polygon style="opacity:0.6;fill:#FFFFFF;" points="2386.416,2264.491 1938.543,2278.13 1938.543,2246.083 2386.416,2233.376 
											"/>
					
						<linearGradient id="SVGID_00000060716090232701954190000002321271931074738064_" gradientUnits="userSpaceOnUse" x1="2016.4392" y1="2297.1853" x2="2459.8582" y2="2297.1853">
						<stop  offset="0" style="stop-color:#FF9085"/>
						<stop  offset="1" style="stop-color:#FB6FBB"/>
					</linearGradient>
					<polygon style="opacity:0.5;fill:url(#SVGID_00000060716090232701954190000002321271931074738064_);" points="
						2459.858,2305.274 2016.439,2320.059 2016.439,2288.174 2459.858,2274.312 					"/>
					
						<linearGradient id="SVGID_00000033337849282992968800000008757420784374270636_" gradientUnits="userSpaceOnUse" x1="2016.4392" y1="2340.8455" x2="2459.8582" y2="2340.8455">
						<stop  offset="0" style="stop-color:#FF9085"/>
						<stop  offset="1" style="stop-color:#FB6FBB"/>
					</linearGradient>
					<polygon style="opacity:0.5;fill:url(#SVGID_00000033337849282992968800000008757420784374270636_);" points="
						2459.858,2348.293 2016.439,2364.36 2016.439,2332.475 2459.858,2317.331 					"/>
					
						<linearGradient id="SVGID_00000026162840262442422970000007049681862606932925_" gradientUnits="userSpaceOnUse" x1="2219.001" y1="2377.0037" x2="2650.9392" y2="2377.0037">
						<stop  offset="0" style="stop-color:#FF9085"/>
						<stop  offset="1" style="stop-color:#FB6FBB"/>
					</linearGradient>
					<polygon style="opacity:0.5;fill:url(#SVGID_00000026162840262442422970000007049681862606932925_);" points="
						2650.939,2383.836 2219.001,2400.736 2219.001,2369.272 2650.939,2353.271 					"/>
					
						<linearGradient id="SVGID_00000034800652258912734480000016544695506886815634_" gradientUnits="userSpaceOnUse" x1="2253.2981" y1="1312.7631" x2="2388.4512" y2="2136.552">
						<stop  offset="0.0036" style="stop-color:#E38DDD"/>
						<stop  offset="1" style="stop-color:#9571F6"/>
					</linearGradient>
					<polygon style="fill:url(#SVGID_00000034800652258912734480000016544695506886815634_);" points="2650.939,2426.303 
						2219.001,2444.451 2219.001,2412.988 2650.939,2395.738 					"/>
					<polygon style="opacity:0.6;fill:#FFFFFF;" points="2650.939,2468.77 2219.001,2488.167 2219.001,2456.703 2650.939,2438.205 
											"/>
					
						<linearGradient id="SVGID_00000165941633530033105020000009410904276944358813_" gradientUnits="userSpaceOnUse" x1="1835.5167" y1="2216.301" x2="2150.363" y2="2216.301">
						<stop  offset="0" style="stop-color:#FF9085"/>
						<stop  offset="1" style="stop-color:#FB6FBB"/>
					</linearGradient>
					<polygon style="opacity:0.5;fill:url(#SVGID_00000165941633530033105020000009410904276944358813_);" points="
						2150.363,2227.766 1835.517,2236.443 1835.517,2204.181 2150.363,2196.159 					"/>
					
						<linearGradient id="SVGID_00000020394406799913804710000002672066114171398325_" gradientUnits="userSpaceOnUse" x1="1938.5435" y1="1772.6189" x2="2386.416" y2="1772.6189">
						<stop  offset="0" style="stop-color:#FF9085"/>
						<stop  offset="1" style="stop-color:#FB6FBB"/>
					</linearGradient>
					<polygon style="opacity:0.5;fill:url(#SVGID_00000020394406799913804710000002672066114171398325_);" points="
						2386.416,1788.945 1938.543,1788.34 1938.543,1756.293 2386.416,1757.83 					"/>
					<polygon style="opacity:0.6;fill:#FFFFFF;" points="2459.858,1832.063 2016.439,1832.746 2016.439,1800.861 2459.858,1801.101 
											"/>
					
						<linearGradient id="SVGID_00000178883763968861990240000010018033868171679648_" gradientUnits="userSpaceOnUse" x1="2016.4392" y1="1860.5837" x2="2459.8582" y2="1860.5837">
						<stop  offset="0" style="stop-color:#FF9085"/>
						<stop  offset="1" style="stop-color:#FB6FBB"/>
					</linearGradient>
					<polygon style="opacity:0.5;fill:url(#SVGID_00000178883763968861990240000010018033868171679648_);" points="
						2459.858,1875.082 2016.439,1877.047 2016.439,1845.162 2459.858,1844.12 					"/>
					
						<linearGradient id="SVGID_00000070832423881901491560000016027787820789431950_" gradientUnits="userSpaceOnUse" x1="2016.4392" y1="1904.244" x2="2459.8582" y2="1904.244">
						<stop  offset="0" style="stop-color:#FF9085"/>
						<stop  offset="1" style="stop-color:#FB6FBB"/>
					</linearGradient>
					<polygon style="opacity:0.5;fill:url(#SVGID_00000070832423881901491560000016027787820789431950_);" points="
						2459.858,1918.102 2016.439,1921.349 2016.439,1889.464 2459.858,1887.139 					"/>
					
						<linearGradient id="SVGID_00000163771988784157272010000000115223226338640549_" gradientUnits="userSpaceOnUse" x1="1836.3011" y1="1950.2042" x2="2120.4604" y2="1950.2042">
						<stop  offset="0" style="stop-color:#FF9085"/>
						<stop  offset="1" style="stop-color:#FB6FBB"/>
					</linearGradient>
					<polygon style="opacity:0.5;fill:url(#SVGID_00000163771988784157272010000000115223226338640549_);" points="
						2120.46,1964.587 1836.301,1967.49 1836.301,1935.23 2120.46,1932.919 					"/>
					<polygon style="opacity:0.6;fill:#FFFFFF;" points="2253.595,2006.843 1938.543,2010.972 1938.543,1978.925 2253.595,1975.452 
											"/>
					
						<linearGradient id="SVGID_00000072247223216074751890000015117646510679972787_" gradientUnits="userSpaceOnUse" x1="2072.9099" y1="1158.1431" x2="2229.9783" y2="2115.5107">
						<stop  offset="0.0036" style="stop-color:#E38DDD"/>
						<stop  offset="1" style="stop-color:#9571F6"/>
					</linearGradient>
					<polygon style="fill:url(#SVGID_00000072247223216074751890000015117646510679972787_);" points="2417.271,2047.84 
						2016.439,2054.252 2016.439,2022.367 2417.271,2016.789 					"/>
					
						<linearGradient id="SVGID_00000116938228456297749230000017190814847772276405_" gradientUnits="userSpaceOnUse" x1="2016.4392" y1="2079.2422" x2="2417.2705" y2="2079.2422">
						<stop  offset="0" style="stop-color:#FF9085"/>
						<stop  offset="1" style="stop-color:#FB6FBB"/>
					</linearGradient>
					<polygon style="opacity:0.5;fill:url(#SVGID_00000116938228456297749230000017190814847772276405_);" points="
						2417.271,2090.982 2016.439,2098.553 2016.439,2066.668 2417.271,2059.931 					"/>
					
						<linearGradient id="SVGID_00000108303807169577575910000005176700751018710667_" gradientUnits="userSpaceOnUse" x1="2110.1218" y1="2121.0688" x2="2506.1304" y2="2121.0688">
						<stop  offset="0" style="stop-color:#FF9085"/>
						<stop  offset="1" style="stop-color:#FB6FBB"/>
					</linearGradient>
					<polygon style="opacity:0.5;fill:url(#SVGID_00000108303807169577575910000005176700751018710667_);" points="2506.13,2132.19 
						2110.122,2140.814 2110.122,2109.124 2506.13,2101.323 					"/>
					
						<linearGradient id="SVGID_00000034085047739439468580000011869029087272626592_" gradientUnits="userSpaceOnUse" x1="2110.1218" y1="2164.5266" x2="2506.1304" y2="2164.5266">
						<stop  offset="0" style="stop-color:#FF9085"/>
						<stop  offset="1" style="stop-color:#FB6FBB"/>
					</linearGradient>
					<polygon style="opacity:0.5;fill:url(#SVGID_00000034085047739439468580000011869029087272626592_);" points="
						2506.13,2175.075 2110.122,2184.844 2110.122,2153.154 2506.13,2144.209 					"/>
					
						<linearGradient id="SVGID_00000131331683149644440240000016081125021831058334_" gradientUnits="userSpaceOnUse" x1="1892.6459" y1="1116.9268" x2="2066.7078" y2="2177.8735">
						<stop  offset="0.0036" style="stop-color:#E38DDD"/>
						<stop  offset="1" style="stop-color:#9571F6"/>
					</linearGradient>
					<polygon style="fill:url(#SVGID_00000131331683149644440240000016081125021831058334_);" points="2150.363,1744.712 
						1835.517,1743.377 1835.517,1711.115 2150.363,1713.106 					"/>
					<polygon style="fill:#FFFFFF;" points="1575.765,1417.64 1289.725,1410.536 1289.725,1363.515 1575.765,1371.457 					"/>
					<polygon style="opacity:0.6;fill:#FFFFFF;" points="1215.741,1408.699 1269.615,1410.037 1269.615,1362.957 1215.741,1361.461 
											"/>
					<polygon style="opacity:0.6;fill:#FFFFFF;" points="1575.765,1484.028 1289.725,1478.129 1289.725,1431.108 1575.765,1437.845 
											"/>
					<polygon style="opacity:0.6;fill:#FFFFFF;" points="1215.741,1476.603 1269.615,1477.714 1269.615,1430.634 1215.741,1429.365 
											"/>
					<polygon style="opacity:0.6;fill:#FFFFFF;" points="1575.765,1550.416 1289.725,1545.721 1289.725,1498.7 1575.765,1504.233 
											"/>
					<polygon style="opacity:0.6;fill:#FFFFFF;" points="1215.741,1544.507 1269.615,1545.391 1269.615,1498.311 1215.741,1497.269 
											"/>
					<polygon style="fill:#FFFFFF;" points="1575.765,2021.653 1076.027,2028.39 1076.027,1980.743 1575.765,1975.47 					"/>
					<polygon style="opacity:0.6;fill:#FFFFFF;" points="1575.765,2093.814 1289.725,2098.979 1289.725,2051.958 1575.765,2047.631 
											"/>
					<polygon style="opacity:0.6;fill:#FFFFFF;" points="1215.741,2100.315 1269.615,2099.342 1269.615,2052.262 1215.741,2053.078 
											"/>
					<polygon style="opacity:0.6;fill:#FFFFFF;" points="1575.765,2160.201 1289.725,2166.572 1289.725,2119.551 1575.765,2114.019 
											"/>
					<polygon style="opacity:0.6;fill:#FFFFFF;" points="1215.741,2168.219 1269.615,2167.02 1269.615,2119.939 1215.741,2120.982 
											"/>
					<polygon style="opacity:0.6;fill:#FFFFFF;" points="1575.765,2226.589 1289.725,2234.164 1289.725,2187.143 1575.765,2180.406 
											"/>
					<polygon style="opacity:0.6;fill:#FFFFFF;" points="1215.741,2236.123 1269.615,2234.697 1269.615,2187.617 1215.741,2188.885 
											"/>
					<polygon style="fill:#FFFFFF;" points="1575.765,1617.253 1076.027,1611.17 1076.027,1563.523 1575.765,1571.07 					"/>
					<polygon style="opacity:0.6;fill:#FFFFFF;" points="1575.765,1689.414 1289.725,1687.241 1289.725,1640.221 1575.765,1643.231 
											"/>
					<polygon style="opacity:0.6;fill:#FFFFFF;" points="1215.741,1686.68 1269.615,1687.089 1269.615,1640.009 1215.741,1639.442 
											"/>
					<polygon style="opacity:0.6;fill:#FFFFFF;" points="1575.765,1755.802 1289.725,1754.834 1289.725,1707.813 1575.765,1709.619 
											"/>
					<polygon style="opacity:0.6;fill:#FFFFFF;" points="1215.741,1754.584 1269.615,1754.766 1269.615,1707.686 1215.741,1707.346 
											"/>
					<polygon style="opacity:0.6;fill:#FFFFFF;" points="1575.765,1889.44 1289.725,1890.897 1289.725,1843.876 1575.765,1843.257 
											"/>
					<polygon style="opacity:0.6;fill:#FFFFFF;" points="1215.741,1891.274 1269.615,1890.999 1269.615,1843.919 1215.741,1844.036 
											"/>
					<polygon style="opacity:0.6;fill:#FFFFFF;" points="1575.765,1955.827 1289.725,1958.489 1289.725,1911.468 1575.765,1909.645 
											"/>
					<polygon style="opacity:0.6;fill:#FFFFFF;" points="1215.741,1959.178 1269.615,1958.676 1269.615,1911.596 1215.741,1911.94 
											"/>
					<polygon style="opacity:0.6;fill:#FFFFFF;" points="1575.765,1822.19 1289.725,1822.426 1289.725,1775.406 1575.765,1776.007 
											"/>
					<polygon style="opacity:0.6;fill:#FFFFFF;" points="1215.741,1822.488 1269.615,1822.443 1269.615,1775.363 1215.741,1775.25 
											"/>
					<polygon style="fill:#FFFFFF;" points="1575.765,2292.955 1076.027,2308.292 1076.027,2260.645 1575.765,2246.772 					"/>
					<polygon style="opacity:0.6;fill:#FFFFFF;" points="1575.765,2365.115 1289.725,2375.204 1289.725,2328.183 1575.765,2318.932 
											"/>
					<polygon style="opacity:0.6;fill:#FFFFFF;" points="1215.741,2377.813 1269.615,2375.913 1269.615,2328.833 1215.741,2330.575 
											"/>
					<polygon style="opacity:0.6;fill:#FFFFFF;" points="1575.765,2431.503 1289.725,2442.796 1289.725,2395.775 1575.765,2385.32 
											"/>
					<polygon style="opacity:0.6;fill:#FFFFFF;" points="1215.741,2445.717 1269.615,2443.59 1269.615,2396.51 1215.741,2398.479 
											"/>
					<polygon style="opacity:0.6;fill:#FFFFFF;" points="1575.765,2497.891 1289.725,2510.388 1289.725,2463.368 1575.765,2451.708 
											"/>
					<polygon style="opacity:0.6;fill:#FFFFFF;" points="1215.741,2513.621 1269.615,2511.267 1269.615,2464.187 1215.741,2466.383 
											"/>
					<polygon style="opacity:0.6;fill:#FFFFFF;" points="1636.494,2495.467 1625.487,2495.948 1625.487,1300.905 1636.494,1301.261 
											"/>
				</g>
				<path style="opacity:0.6;fill:#FFFFFF;" d="M3001.972,2551.023c-485.208,10.145-594.323,79.425-732.195-3.587
					c-189.45-114.066-103.171-316.973-287.753-423.408c-232.058-133.81-499.61,111.255-620.725-8.221
					c-120.613-118.982,107.232-399.013-24.664-711.161c-52.931-125.267-143.058-206.628-205.318-253.275l-125.592-5.442
					c-48.198-2.089-87.628,29.821-87.628,71.141v1489.301c0,41.321,39.43,72.589,87.628,69.715l2228.939-132.878
					c35.385-2.109,64.038-32.409,64.038-67.553v-22.519C3231.898,2550.766,3128.42,2548.38,3001.972,2551.023z"/>
			</g>
		</g>
		<g>
			<g>
				
					<linearGradient id="SVGID_00000051367011618688225850000008025402866973783181_" gradientUnits="userSpaceOnUse" x1="1874.8571" y1="1722.9932" x2="2039.2277" y2="1929.7924" gradientTransform="matrix(1 0 0 1 365.4937 0)">
					<stop  offset="0" style="stop-color:#FFC444"/>
					<stop  offset="0.9964" style="stop-color:#F36F56"/>
				</linearGradient>
				<path style="fill:url(#SVGID_00000051367011618688225850000008025402866973783181_);" d="M2363.826,1831.839l-31.273-34.123
					c-5.794-6.842-14.85-16.028-27.813-23.978c-25.16-15.433-59.784-22.996-64.967-14.189c-5.882,9.995,27.006,39.607,38.201,49.377
					c15.464,11.232,30.927,22.464,46.392,33.696L2363.826,1831.839z"/>
				
					<linearGradient id="SVGID_00000057105657862387032050000011681658790346137776_" gradientUnits="userSpaceOnUse" x1="2595.0491" y1="2045.5396" x2="2706.9675" y2="1597.865" gradientTransform="matrix(1 0 0 1 365.4937 0)">
					<stop  offset="0" style="stop-color:#FFC444"/>
					<stop  offset="0.9964" style="stop-color:#F36F56"/>
				</linearGradient>
				<path style="fill:url(#SVGID_00000057105657862387032050000011681658790346137776_);" d="M3031.859,1599.916
					c8.492,3.211,138.025,54.723,164.65,189.918c2.15,10.922,22.96,127.075-55.811,209.131
					c-88.328,92.012-258.411,89.731-325.924,12.81c-15.743-17.938-24.048-37.82-28.702-54.524l0,0l17.788-47.259
					c21.705-26.203,51.258-32.412,67.041-36.301c38.908-9.59,68.285,7.741,90.568-11.022c12.331-10.38,14.779-25.322,16.967-38.669
					c7.453-45.46-18.206-73.443-20.073-101.476c-1.396-20.959-8.732-66.878,18.622-96.823
					C2994.308,1606.739,3018.3,1601.576,3031.859,1599.916z"/>
				
					<linearGradient id="SVGID_00000080893945608240285060000003629142512393215160_" gradientUnits="userSpaceOnUse" x1="2374.4456" y1="3239.8245" x2="2427.5354" y2="3287.0481" gradientTransform="matrix(0.9902 -0.14 0.14 0.9902 262.6509 206.9384)">
					<stop  offset="0" style="stop-color:#444B8C"/>
					<stop  offset="0.9964" style="stop-color:#26264F"/>
				</linearGradient>
				<path style="fill:url(#SVGID_00000080893945608240285060000003629142512393215160_);" d="M3082.33,3106.611
					c1.511-8.323,28.389-15.857,41.698-4.708c6.608,5.534,11.159,16.755,7.335,21.822c-1.39,1.844,4.306,5.086-1.152,5.149
					C3112.105,3129.085,3080.827,3114.881,3082.33,3106.611z"/>
				
					<linearGradient id="SVGID_00000165938465502344695550000007623312168284120707_" gradientUnits="userSpaceOnUse" x1="1500.3204" y1="3287.1216" x2="1500.3204" y2="3194.635" gradientTransform="matrix(0.9902 -0.14 0.14 0.9902 1178.8521 77.4224)">
					<stop  offset="0" style="stop-color:#FFC444"/>
					<stop  offset="0.9964" style="stop-color:#F36F56"/>
				</linearGradient>
				<path style="fill:url(#SVGID_00000165938465502344695550000007623312168284120707_);" d="M3110.502,3109.639l27.642-3.907
					c-12.806-15.419-10.435-64.519-10.435-64.519l-29.397,6.56c0,0,3.349,13.478,9.047,33.359
					C3109.311,3087.936,3110.182,3098.587,3110.502,3109.639z"/>
				
					<linearGradient id="SVGID_00000083061094675468915700000005309918715011563400_" gradientUnits="userSpaceOnUse" x1="2379.7832" y1="3233.825" x2="2432.873" y2="3281.0486" gradientTransform="matrix(0.9902 -0.14 0.14 0.9902 262.6509 206.9384)">
					<stop  offset="0" style="stop-color:#444B8C"/>
					<stop  offset="0.9964" style="stop-color:#26264F"/>
				</linearGradient>
				<path style="fill:url(#SVGID_00000083061094675468915700000005309918715011563400_);" d="M3108.051,3106.234
					c0,0,33.28-7.667,36.879-1.066c3.601,6.602,6.395,24.277-14.72,23.706C3109.096,3128.305,3106.175,3111.832,3108.051,3106.234z"
					/>
				
					<linearGradient id="SVGID_00000062158628879068666850000017887827941191160765_" gradientUnits="userSpaceOnUse" x1="2326.1357" y1="3111.9453" x2="2379.2283" y2="3159.1711" gradientTransform="matrix(1 0 0 1 365.4937 0)">
					<stop  offset="0" style="stop-color:#444B8C"/>
					<stop  offset="0.9964" style="stop-color:#26264F"/>
				</linearGradient>
				<path style="fill:url(#SVGID_00000062158628879068666850000017887827941191160765_);" d="M2703.047,3137.82
					c2.661-8.029,30.329-11.727,41.946,1.174c5.767,6.405,8.704,18.152,4.208,22.633c-1.635,1.633,3.551,5.64-1.862,4.94
					C2729.384,3164.241,2700.402,3145.798,2703.047,3137.82z"/>
				
					<linearGradient id="SVGID_00000006682472847971947890000004444972503119185323_" gradientUnits="userSpaceOnUse" x1="1451.9674" y1="3159.2649" x2="1451.9674" y2="3066.7737" gradientTransform="matrix(1 0 0 1 1290.804 0)">
					<stop  offset="0" style="stop-color:#FFC444"/>
					<stop  offset="0.9964" style="stop-color:#F36F56"/>
				</linearGradient>
				<path style="fill:url(#SVGID_00000006682472847971947890000004444972503119185323_);" d="M2730.518,3144.761h27.917
					c-10.523-17.06-1.301-65.345-1.301-65.345l-30.026,2.382c0,0,1.429,13.814,4.289,34.295
					C2732.375,3123.107,2731.748,3133.775,2730.518,3144.761z"/>
				
					<linearGradient id="SVGID_00000144338649634203382050000012710906877586582939_" gradientUnits="userSpaceOnUse" x1="-371.4036" y1="2670.0317" x2="-1062.8562" y2="2499.4138" gradientTransform="matrix(-1 0 0 1 2143.2136 0)">
					<stop  offset="0" style="stop-color:#FF9085"/>
					<stop  offset="1" style="stop-color:#FB6FBB"/>
				</linearGradient>
				<path style="fill:url(#SVGID_00000144338649634203382050000012710906877586582939_);" d="M2658.167,2089.052
					c-12.932,42.706-31.4,111.633-43.288,198.111c-33.91,246.663,38.163,254.532,24.704,527.866
					c-4.296,87.25,75.587,288.438,82.628,292.881c3.408,0.33,7.105,0.552,11.048,0.433c6.948-0.21,16.744-1.275,28.136-4.69
					c12.654-2.18,58.278-125.754,47.702-199.227c-7.483-52.002-5.313-107.809-0.975-219.424
					c0.703-18.086,46.975-351.863,46.975-351.863l0,0c14.076,123.544,30.262,228.519,44.297,309.909
					c45.087,261.486,191.683,419.755,199.329,422.292c1.512,0.607,15.267,5.604,26.513-1.808c5.006-3.3,6.71-7.556,6.71-7.556
					c3.921-3.071-1.156-261.064-45.871-455.228c-64.902-281.824-36.642-347.766-57.204-473.647
					C3011.082,2018.178,2658.167,2089.052,2658.167,2089.052z"/>
				
					<linearGradient id="SVGID_00000083808965708056131220000002040334181545366205_" gradientUnits="userSpaceOnUse" x1="2840.2473" y1="2120.415" x2="2097.1084" y2="1603.589" gradientTransform="matrix(1 0 0 1 365.4937 0)">
					<stop  offset="0" style="stop-color:#FFC444"/>
					<stop  offset="0.9964" style="stop-color:#F36F56"/>
				</linearGradient>
				<path style="fill:url(#SVGID_00000083808965708056131220000002040334181545366205_);" d="M2920.32,1577.918
					c-43.091-1.266-142.133-16.477-196.685,32.608c-0.95,0.852,10.227,6.823,4.725,13.271c-5.11,5.986-22.632,26.94-38.517,55.266
					c-11.507,20.516-21.893,44.431-32.37,80.073c-18.48,62.857-23.783,116.38-25.556,139.701
					c-9.971,131.145-0.084,191.649,8.888,232.796c38.96,20.01,139.349,55.819,258.963,38.027
					c54.626-8.127,98.344-26.304,129.105-42.529c-31.037-93.975-6.688-144.264,4.801-190.613
					c16.382-66.092,16.646-61.095,30.133-113.596c22.254-86.629,25.906-175.148,10.615-193.261
					C3033.19,1580.821,2958.899,1579.055,2920.32,1577.918z"/>
				
					<linearGradient id="SVGID_00000088853126983098127720000004099116086763161222_" gradientUnits="userSpaceOnUse" x1="2331.4734" y1="3105.9458" x2="2384.5654" y2="3153.1711" gradientTransform="matrix(1 0 0 1 365.4937 0)">
					<stop  offset="0" style="stop-color:#444B8C"/>
					<stop  offset="0.9964" style="stop-color:#26264F"/>
				</linearGradient>
				<path style="fill:url(#SVGID_00000088853126983098127720000004099116086763161222_);" d="M2728.567,3141.046
					c0,0,34.025-2.933,36.665,4.107c2.64,7.04,2.934,24.933-17.892,21.413C2726.513,3163.046,2725.926,3146.326,2728.567,3141.046z"
					/>
				<g>
					
						<linearGradient id="SVGID_00000079450649817859668200000006838745236075670925_" gradientUnits="userSpaceOnUse" x1="-738.0178" y1="1601.7251" x2="-627.606" y2="1386.0767" gradientTransform="matrix(-1 0 0 1 2143.2136 0)">
						<stop  offset="0" style="stop-color:#FFC444"/>
						<stop  offset="0.9964" style="stop-color:#F36F56"/>
					</linearGradient>
					<path style="fill:url(#SVGID_00000079450649817859668200000006838745236075670925_);" d="M2799.05,1528.515
						c-13.346-22.566-7.4-48.345-6.06-53.916c5.614-23.322,7.702-26.86,12.031-31.794l6.121-6.473c0,0,0.379-0.283,0.783-0.56
						c4.255-2.927,20.149-7.686,23.579-7.857c10.959-0.55,33.263,38.75,46.033,99.314c1.037,2.162,2.064,4.346,3.081,6.554
						c6.335,13.74,11.769,27.254,16.434,40.428c74.065,6.263,84.345,14.951,84.674,19.97c0.696,10.564-41.506,22.771-73.243,27.418
						c-69.217,10.134-140.365-8.121-140.04-21.027c0.142-5.619,13.898-12.942,72.574-20.626c-1.373-9.71-2.744-19.42-4.116-29.13
						C2836.132,1549.76,2808.881,1545.142,2799.05,1528.515z"/>
					
						<linearGradient id="SVGID_00000039815785153797201670000011732169873109500832_" gradientUnits="userSpaceOnUse" x1="2850.6943" y1="1384.3259" x2="2863.6797" y2="1835.1141">
						<stop  offset="0" style="stop-color:#AB316D"/>
						<stop  offset="1" style="stop-color:#792D3D"/>
					</linearGradient>
					<path style="fill:url(#SVGID_00000039815785153797201670000011732169873109500832_);" d="M2785.127,1425.098
						c4.994,18.486,18.98,35.923,24.268,37.914c0.683,0.257,4.591,1.947,8.654,5.534c0.554,0.487,1.086,1.09,1.637,1.905
						c7.162,10.579-7.72,29.244-2.75,33.51c3.606,3.096,14.855-5.328,17.226-2.457c2.232,2.7-6.539,11.867-3.954,15.125
						c1.952,2.46,7.718-1.804,12.918,1.376c2.592,1.584,2.445,3.426,6.323,9.345c2.193,3.347,4.961,6.911,6.874,8.795
						c9.291,9.159,28.459,8.299,30.785,3.024c0.646-1.469-0.457-2.266-0.55-6.597c0,0-0.086-4.013,1.374-9.069
						c2.087-7.223,9.944-14.085,17.317-23.089c13.656-16.674,15.483-28.271,15.927-32.142c0.157-1.38,0.212-2.402,0.25-3.141
						c0.758-14.809-4.563-34.847-13.978-45.532c-15.773-17.9-36.331-1.926-60.749-17.317c-28.17-17.758-23.734-53.48-36.557-53.876
						C2796.005,1347.968,2775.893,1390.914,2785.127,1425.098z"/>
					
						<linearGradient id="SVGID_00000054234382802839504470000018300058460544331923_" gradientUnits="userSpaceOnUse" x1="2390.4795" y1="1417.7817" x2="2677.9944" y2="1779.5123" gradientTransform="matrix(1 0 0 1 365.4937 0)">
						<stop  offset="0" style="stop-color:#FFC444"/>
						<stop  offset="0.9964" style="stop-color:#F36F56"/>
					</linearGradient>
					<path style="fill:url(#SVGID_00000054234382802839504470000018300058460544331923_);" d="M2822.428,1497.84
						c2.874-7.44,12.405-3.709,14.599,4.34c2.197,8.049-3.381,18.515-11.384,18.942
						C2817.64,1521.552,2818.561,1507.854,2822.428,1497.84z"/>
				</g>
				<path style="fill:#9B305E;" d="M3015.147,2067.422c-0.505,0-0.938-0.378-0.997-0.893c-5.143-46.291,4.419-79.815,12.853-109.392
					c2.061-7.222,4.006-14.042,5.695-20.859c9.311-37.564,13.387-52.065,17.702-67.419c2.802-9.972,5.698-20.278,10.186-37.501
					c0.142-0.535,0.698-0.86,1.224-0.716c0.537,0.137,0.858,0.686,0.719,1.224c-4.492,17.24-7.393,27.556-10.196,37.534
					c-4.312,15.337-8.383,29.824-17.685,67.358c-1.699,6.854-3.649,13.691-5.713,20.93c-8.384,29.399-17.889,62.719-12.788,108.619
					c0.06,0.552-0.336,1.047-0.888,1.107C3015.222,2067.422,3015.184,2067.422,3015.147,2067.422z"/>
				
					<linearGradient id="SVGID_00000103243502509270509010000015485254038942594958_" gradientUnits="userSpaceOnUse" x1="2804.9614" y1="1385.6437" x2="2817.9468" y2="1836.4309">
					<stop  offset="0" style="stop-color:#AB316D"/>
					<stop  offset="1" style="stop-color:#792D3D"/>
				</linearGradient>
				<path style="fill:url(#SVGID_00000103243502509270509010000015485254038942594958_);" d="M2822.51,1483.372l-6.871,16.49
					c0,0-6.872,19.791-15.943,12.371c-7.41-6.064-8.768-5.523-9.015-5.12c-0.047,0.077-0.04,0.172-0.056,0.172
					c-0.102,0-0.203-3.948-0.275-7.423c-1.728,4.767-3.849,12.318-3.848,21.717c0.001,9.129,0.001,18.903,7.146,26.387
					c0.413,0.433,8.198,8.351,18.691,7.972c0,0,4.126-0.148,19.792-7.419c0,0-21.44-8.247-22.541-11.27
					c-2.989-8.222,7.476-15.886,11.546-35.461C2822.705,1494.237,2822.744,1487.76,2822.51,1483.372z"/>
				
					<linearGradient id="SVGID_00000068649173130982835670000011891748521928349877_" gradientUnits="userSpaceOnUse" x1="2832.4724" y1="2208.0752" x2="1995.8563" y2="1626.2391" gradientTransform="matrix(1 0 0 1 365.4937 0)">
					<stop  offset="0" style="stop-color:#FFC444"/>
					<stop  offset="0.9964" style="stop-color:#F36F56"/>
				</linearGradient>
				<path style="fill:url(#SVGID_00000068649173130982835670000011891748521928349877_);" d="M2346.518,1807.457
					c-15.583,10.904-23.94,25.713-28.272,35.165c11.457,26.89,37.441,76.822,91.221,113.618
					c88.181,60.335,217.479,62.365,307.538-6.441c107.596-82.203,125.573-239.837,80.38-307.343
					c-5.202-7.771-22.306-33.32-48.858-36.252c-16.77-1.852-39.593,5.063-75.654,47.283
					c-75.139,87.977-48.599,142.908-92.991,168.647C2513.314,1860.729,2414.394,1759.957,2346.518,1807.457z"/>
				<path style="fill:#9B305E;" d="M2649.412,1986.794c-0.462,0-0.878-0.321-0.98-0.789c-0.117-0.542,0.228-1.077,0.769-1.194
					c1.049-0.228,105.438-24.271,152.449-153.964c0.189-0.519,0.763-0.789,1.286-0.602c0.52,0.187,0.79,0.763,0.601,1.285
					c-24.763,68.318-65.263,106.883-94.876,127.201c-32.115,22.037-58.769,27.984-59.034,28.041
					C2649.555,1986.787,2649.484,1986.794,2649.412,1986.794z"/>
			</g>
		</g>
		<g>
			
				<linearGradient id="SVGID_00000080911223353052764850000003597277141347778955_" gradientUnits="userSpaceOnUse" x1="1850.684" y1="917.3032" x2="3298.7021" y2="917.3032">
				<stop  offset="0" style="stop-color:#AA80F9"/>
				<stop  offset="0.9964" style="stop-color:#6165D7"/>
			</linearGradient>
			<path style="fill:url(#SVGID_00000080911223353052764850000003597277141347778955_);" d="M3203.983,711.283l-1248.93-65.347
				c-57.546-3.011-104.369,40.472-104.369,97.134v296.066c0,56.662,46.823,104.222,104.369,106.222l1248.93,43.404
				c52.394,1.821,94.719-40.31,94.719-94.096v-281.04C3298.702,759.84,3256.377,714.024,3203.983,711.283z"/>
			<path style="opacity:0.6;fill:#FFFFFF;" d="M1955.053,1117.003c-41.494-1.483-75.341-35.918-75.341-76.755V744.484
				c0-40.837,33.847-72.325,75.341-70.195l1248.93,64.101c37.82,1.941,68.511,35.117,68.511,73.959v281.31
				c0,38.842-30.691,69.345-68.511,67.993L1955.053,1117.003z"/>
			<g>
				<path style="fill:#FFFFFF;" d="M2241.194,1025.723l-51.896-2.043V916.494l-101.75-4.391v107.573l-52.465-2.065V766.14
					l52.465,2.53v101.714l101.75,4.542V773.577l51.896,2.503V1025.723z"/>
				<path style="fill:#FFFFFF;" d="M2468.813,828.386l-75.976-3.552v206.857l-51.338-2.021V822.434l-75.636-3.536V777.27
					l202.95,9.788V828.386z"/>
				<path style="fill:#FFFFFF;" d="M2564.133,791.655l62.962,181.613l62.342-175.57l65.726,3.17v245.083l-50.183-1.975v-67.116
					l5.01-115.62l-65.773,180.344l-34.6-1.362l-66.083-186.463l5.068,116.567v67.495l-50.767-1.998V788.458L2564.133,791.655z"/>
				<path style="fill:#FFFFFF;" d="M2848.373,1009.189l104.893,4.282v40.277l-154.572-6.084V802.968l49.678,2.396V1009.189z"/>
				<path style="fill:#FFFFFF;" d="M2983.416,935.409l13.743-122.869l132.781,6.404v40.017l-94.084-4.399l-5.87,51.887
					c11.195-5.605,23.088-8.125,35.677-7.556c22.541,1.019,40.181,8.963,52.937,23.821c12.742,14.846,19.11,35.101,19.11,60.774
					c0,15.604-3.211,29.445-9.632,41.522c-6.427,12.086-15.637,21.297-27.642,27.632c-12.014,6.343-26.208,9.195-42.584,8.552
					c-14.333-0.562-27.649-4.058-39.943-10.486c-12.306-6.436-22.033-15.194-29.174-26.274
					c-7.147-11.083-10.941-23.541-11.375-37.363l46.752,1.955c0.98,10.154,4.432,18.16,10.359,24.011
					c5.923,5.852,13.663,8.971,23.218,9.359c10.631,0.432,18.815-3.145,24.559-10.729c5.74-7.581,8.609-18.518,8.609-32.82
					c0-13.744-3.304-24.419-9.91-32.023c-6.611-7.608-15.992-11.682-28.144-12.215c-11.188-0.491-20.265,2.111-27.224,7.807
					l-4.57,4.135L2983.416,935.409z"/>
			</g>
			<g style="opacity:0.3;">
				
					<linearGradient id="SVGID_00000058576409794738581740000011887793208222994365_" gradientUnits="userSpaceOnUse" x1="2640.4487" y1="530.3827" x2="2428.6101" y2="1761.6917">
					<stop  offset="0" style="stop-color:#AA80F9"/>
					<stop  offset="0.9964" style="stop-color:#6165D7"/>
				</linearGradient>
				<path style="fill:url(#SVGID_00000058576409794738581740000011887793208222994365_);" d="M2633.203,1084.185
					c-189.494-54.808-198.735-233.98-412.513-348.976c-107.915-58.05-221.942-75.291-325.548-73.761
					c-26.862,17.167-44.457,46.922-44.457,81.621v296.066c0,56.662,46.823,104.222,104.369,106.222l1248.93,43.404
					c39.773,1.382,73.718-22.57,87.774-57.684c-61.264-60.91-121.768-92.027-178.165-105.736
					C2924.114,979.285,2828.33,1140.622,2633.203,1084.185z"/>
			</g>
		</g>
	</g>
</g>
</svg>
