<?xml version="1.0" encoding="utf-8"?>
<!-- Generator: Adobe Illustrator 27.5.0, SVG Export Plug-In . SVG Version: 6.00 Build 0)  -->
<svg version="1.1" xmlns="http://www.w3.org/2000/svg" xmlns:xlink="http://www.w3.org/1999/xlink" x="0px" y="0px"
	 viewBox="0 0 500 500" style="enable-background:new 0 0 500 500;" xml:space="preserve">
<g id="Background_Complete">
	<g>
		<rect y="382.398" style="fill:#EBEBEB;" width="500" height="0.25"/>
		<rect x="416.779" y="398.494" style="fill:#EBEBEB;" width="33.122" height="0.25"/>
		<rect x="322.527" y="401.208" style="fill:#EBEBEB;" width="8.693" height="0.25"/>
		<rect x="396.586" y="389.208" style="fill:#EBEBEB;" width="19.192" height="0.25"/>
		<rect x="52.459" y="390.888" style="fill:#EBEBEB;" width="43.193" height="0.25"/>
		<rect x="104.556" y="390.888" style="fill:#EBEBEB;" width="6.333" height="0.25"/>
		<rect x="131.471" y="395.111" style="fill:#EBEBEB;" width="93.676" height="0.25"/>
		<path style="fill:#EBEBEB;" d="M237.014,337.8H43.915c-3.147,0-5.708-2.561-5.708-5.708V60.66c0-3.147,2.561-5.708,5.708-5.708
			h193.099c3.146,0,5.707,2.561,5.707,5.708v271.432C242.721,335.239,240.16,337.8,237.014,337.8z M43.915,55.203
			c-3.01,0-5.458,2.448-5.458,5.458v271.432c0,3.01,2.448,5.458,5.458,5.458h193.099c3.009,0,5.457-2.448,5.457-5.458V60.66
			c0-3.009-2.448-5.458-5.457-5.458H43.915z"/>
		<path style="fill:#EBEBEB;" d="M453.31,337.8H260.212c-3.147,0-5.707-2.561-5.707-5.708V60.66c0-3.147,2.561-5.708,5.707-5.708
			H453.31c3.148,0,5.708,2.561,5.708,5.708v271.432C459.019,335.239,456.458,337.8,453.31,337.8z M260.212,55.203
			c-3.009,0-5.457,2.448-5.457,5.458v271.432c0,3.01,2.448,5.458,5.457,5.458H453.31c3.01,0,5.458-2.448,5.458-5.458V60.66
			c0-3.009-2.448-5.458-5.458-5.458H260.212z"/>
	</g>
	<g>
		<g>
			<rect x="203.139" y="117.176" style="fill:#E0E0E0;" width="242.281" height="233.539"/>
			<rect x="207.027" y="121.417" style="fill:#F5F5F5;" width="238.393" height="225.225"/>
			<g>
				<polygon style="fill:#E6E6E6;" points="208.786,292.095 208.786,224.352 215.824,224.352 215.824,215.404 231.661,207.997 
					231.661,198.838 234.3,198.838 234.3,224.352 236.939,224.352 236.939,292.095 240.458,292.095 240.458,256.904 
					248.376,256.904 248.376,238.428 251.016,238.428 251.016,292.095 257.174,292.095 257.174,271.86 261.573,271.86 
					261.573,266.581 271.251,266.581 271.251,248.106 276.53,248.106 276.53,235.789 282.688,235.789 282.688,217.314 
					285.327,217.314 285.327,235.789 291.486,235.789 291.486,248.106 296.765,248.106 296.765,266.581 306.442,266.581 
					306.442,271.86 310.841,271.86 310.841,292.095 316.12,292.095 316.12,266.581 325.797,266.581 325.797,210.275 
					328.437,210.275 328.437,204.117 349.552,204.117 349.552,210.275 353.951,210.275 353.951,250.745 371.546,250.745 
					371.546,255.144 377.705,255.144 377.705,257.784 371.546,257.784 371.546,273.62 390.022,273.62 390.022,220.833 
					393.541,220.833 393.541,210.275 402.339,210.275 402.339,169.805 404.978,169.805 404.978,210.275 411.137,210.275 
					411.137,220.833 445.419,220.833 445.419,346.642 207.027,346.642 207.027,292.095 				"/>
				<g>
					<rect x="424.608" y="223.591" style="fill:#F0F0F0;" width="2.493" height="2.493"/>
					<rect x="424.608" y="227.77" style="fill:#F0F0F0;" width="2.493" height="2.493"/>
					<rect x="424.608" y="244.486" style="fill:#F0F0F0;" width="2.493" height="2.493"/>
					<rect x="424.608" y="248.665" style="fill:#F0F0F0;" width="2.493" height="2.493"/>
					<rect x="424.608" y="252.844" style="fill:#F0F0F0;" width="2.493" height="2.493"/>
					<rect x="424.608" y="265.381" style="fill:#F0F0F0;" width="2.493" height="2.493"/>
					<rect x="424.608" y="269.56" style="fill:#F0F0F0;" width="2.493" height="2.493"/>
					<rect x="420.649" y="240.307" style="fill:#F0F0F0;" width="2.493" height="2.493"/>
					<rect x="420.649" y="244.486" style="fill:#F0F0F0;" width="2.493" height="2.493"/>
					<rect x="420.649" y="248.665" style="fill:#F0F0F0;" width="2.493" height="2.493"/>
					<rect x="420.649" y="252.844" style="fill:#F0F0F0;" width="2.493" height="2.493"/>
					<rect x="420.649" y="257.023" style="fill:#F0F0F0;" width="2.493" height="2.493"/>
					<rect x="420.649" y="265.381" style="fill:#F0F0F0;" width="2.493" height="2.493"/>
					<rect x="420.649" y="269.56" style="fill:#F0F0F0;" width="2.493" height="2.493"/>
					<rect x="416.69" y="223.591" style="fill:#F0F0F0;" width="2.493" height="2.493"/>
					<rect x="416.69" y="227.77" style="fill:#F0F0F0;" width="2.493" height="2.493"/>
					<rect x="416.69" y="231.949" style="fill:#F0F0F0;" width="2.493" height="2.493"/>
					<rect x="416.69" y="236.128" style="fill:#F0F0F0;" width="2.493" height="2.493"/>
					<rect x="416.69" y="240.307" style="fill:#F0F0F0;" width="2.493" height="2.493"/>
					<rect x="416.69" y="244.486" style="fill:#F0F0F0;" width="2.493" height="2.493"/>
					<rect x="416.69" y="248.665" style="fill:#F0F0F0;" width="2.493" height="2.493"/>
					<rect x="416.69" y="252.844" style="fill:#F0F0F0;" width="2.493" height="2.493"/>
					<rect x="416.69" y="257.023" style="fill:#F0F0F0;" width="2.493" height="2.493"/>
					<rect x="416.69" y="261.202" style="fill:#F0F0F0;" width="2.493" height="2.493"/>
					<rect x="416.69" y="269.56" style="fill:#F0F0F0;" width="2.493" height="2.493"/>
					<rect x="412.731" y="223.591" style="fill:#F0F0F0;" width="2.493" height="2.493"/>
					<rect x="412.731" y="227.77" style="fill:#F0F0F0;" width="2.493" height="2.493"/>
					<rect x="412.731" y="231.949" style="fill:#F0F0F0;" width="2.493" height="2.493"/>
					<rect x="412.731" y="236.128" style="fill:#F0F0F0;" width="2.493" height="2.493"/>
					<rect x="412.731" y="240.307" style="fill:#F0F0F0;" width="2.493" height="2.493"/>
					<rect x="412.731" y="244.486" style="fill:#F0F0F0;" width="2.493" height="2.493"/>
					<rect x="412.731" y="248.665" style="fill:#F0F0F0;" width="2.493" height="2.493"/>
					<rect x="412.731" y="286.276" style="fill:#F0F0F0;" width="2.493" height="2.493"/>
					<rect x="408.772" y="223.591" style="fill:#F0F0F0;" width="2.493" height="2.493"/>
					<rect x="408.772" y="227.77" style="fill:#F0F0F0;" width="2.493" height="2.493"/>
					<rect x="408.772" y="231.949" style="fill:#F0F0F0;" width="2.493" height="2.493"/>
					<rect x="408.772" y="236.128" style="fill:#F0F0F0;" width="2.493" height="2.493"/>
					<rect x="408.772" y="240.307" style="fill:#F0F0F0;" width="2.493" height="2.493"/>
					<rect x="408.772" y="244.486" style="fill:#F0F0F0;" width="2.493" height="2.493"/>
					<rect x="408.772" y="248.665" style="fill:#F0F0F0;" width="2.493" height="2.493"/>
					<rect x="408.772" y="252.844" style="fill:#F0F0F0;" width="2.493" height="2.493"/>
					<rect x="408.772" y="277.918" style="fill:#F0F0F0;" width="2.493" height="2.493"/>
					<rect x="408.772" y="282.097" style="fill:#F0F0F0;" width="2.493" height="2.493"/>
					<rect x="408.772" y="286.276" style="fill:#F0F0F0;" width="2.493" height="2.493"/>
					<rect x="408.772" y="290.455" style="fill:#F0F0F0;" width="2.493" height="2.493"/>
					<rect x="408.772" y="307.171" style="fill:#F0F0F0;" width="2.493" height="2.493"/>
					<rect x="404.813" y="223.591" style="fill:#F0F0F0;" width="2.493" height="2.493"/>
					<rect x="404.813" y="227.77" style="fill:#F0F0F0;" width="2.493" height="2.493"/>
					<rect x="404.813" y="231.949" style="fill:#F0F0F0;" width="2.493" height="2.493"/>
					<rect x="404.813" y="236.128" style="fill:#F0F0F0;" width="2.493" height="2.493"/>
					<rect x="404.813" y="240.307" style="fill:#F0F0F0;" width="2.493" height="2.493"/>
					<rect x="404.813" y="244.486" style="fill:#F0F0F0;" width="2.493" height="2.493"/>
					<rect x="404.813" y="248.665" style="fill:#F0F0F0;" width="2.493" height="2.493"/>
					<rect x="404.813" y="252.844" style="fill:#F0F0F0;" width="2.493" height="2.493"/>
					<rect x="404.813" y="257.023" style="fill:#F0F0F0;" width="2.493" height="2.493"/>
					<rect x="404.813" y="261.202" style="fill:#F0F0F0;" width="2.493" height="2.493"/>
					<rect x="404.813" y="273.739" style="fill:#F0F0F0;" width="2.493" height="2.493"/>
					<rect x="404.813" y="277.918" style="fill:#F0F0F0;" width="2.493" height="2.493"/>
					<rect x="404.813" y="282.097" style="fill:#F0F0F0;" width="2.493" height="2.493"/>
					<rect x="404.813" y="286.276" style="fill:#F0F0F0;" width="2.493" height="2.493"/>
					<rect x="404.813" y="290.455" style="fill:#F0F0F0;" width="2.493" height="2.493"/>
					<rect x="404.813" y="307.171" style="fill:#F0F0F0;" width="2.493" height="2.493"/>
					<rect x="400.853" y="223.591" style="fill:#F0F0F0;" width="2.493" height="2.493"/>
					<rect x="400.853" y="227.77" style="fill:#F0F0F0;" width="2.493" height="2.493"/>
					<rect x="400.853" y="231.949" style="fill:#F0F0F0;" width="2.493" height="2.493"/>
					<rect x="400.853" y="236.128" style="fill:#F0F0F0;" width="2.493" height="2.493"/>
					<rect x="400.853" y="240.307" style="fill:#F0F0F0;" width="2.493" height="2.493"/>
					<rect x="400.853" y="244.486" style="fill:#F0F0F0;" width="2.493" height="2.493"/>
					<rect x="400.853" y="248.665" style="fill:#F0F0F0;" width="2.493" height="2.493"/>
					<rect x="400.853" y="252.844" style="fill:#F0F0F0;" width="2.493" height="2.493"/>
					<rect x="400.853" y="257.023" style="fill:#F0F0F0;" width="2.493" height="2.493"/>
					<rect x="400.853" y="261.202" style="fill:#F0F0F0;" width="2.493" height="2.493"/>
					<rect x="400.853" y="265.381" style="fill:#F0F0F0;" width="2.493" height="2.493"/>
					<rect x="400.853" y="269.56" style="fill:#F0F0F0;" width="2.493" height="2.493"/>
					<rect x="400.853" y="273.739" style="fill:#F0F0F0;" width="2.493" height="2.493"/>
					<rect x="400.853" y="277.918" style="fill:#F0F0F0;" width="2.493" height="2.493"/>
					<rect x="400.853" y="282.097" style="fill:#F0F0F0;" width="2.493" height="2.493"/>
					<rect x="400.853" y="286.276" style="fill:#F0F0F0;" width="2.493" height="2.493"/>
					<rect x="400.853" y="290.455" style="fill:#F0F0F0;" width="2.493" height="2.493"/>
					<rect x="400.853" y="294.634" style="fill:#F0F0F0;" width="2.493" height="2.493"/>
					<rect x="396.894" y="223.591" style="fill:#F0F0F0;" width="2.493" height="2.493"/>
					<rect x="396.894" y="227.77" style="fill:#F0F0F0;" width="2.493" height="2.493"/>
					<rect x="396.894" y="231.949" style="fill:#F0F0F0;" width="2.493" height="2.493"/>
					<rect x="396.894" y="236.128" style="fill:#F0F0F0;" width="2.493" height="2.493"/>
					<rect x="396.894" y="240.307" style="fill:#F0F0F0;" width="2.493" height="2.493"/>
					<rect x="396.894" y="244.486" style="fill:#F0F0F0;" width="2.493" height="2.493"/>
					<rect x="396.894" y="248.665" style="fill:#F0F0F0;" width="2.493" height="2.493"/>
					<rect x="396.894" y="252.844" style="fill:#F0F0F0;" width="2.493" height="2.493"/>
					<rect x="396.894" y="257.023" style="fill:#F0F0F0;" width="2.493" height="2.493"/>
					<rect x="396.894" y="261.202" style="fill:#F0F0F0;" width="2.493" height="2.493"/>
					<rect x="396.894" y="273.739" style="fill:#F0F0F0;" width="2.493" height="2.493"/>
					<rect x="396.894" y="277.918" style="fill:#F0F0F0;" width="2.493" height="2.493"/>
					<rect x="396.894" y="282.097" style="fill:#F0F0F0;" width="2.493" height="2.493"/>
					<rect x="396.894" y="286.276" style="fill:#F0F0F0;" width="2.493" height="2.493"/>
					<rect x="392.935" y="223.591" style="fill:#F0F0F0;" width="2.493" height="2.493"/>
					<rect x="392.935" y="227.77" style="fill:#F0F0F0;" width="2.493" height="2.493"/>
					<rect x="392.935" y="231.949" style="fill:#F0F0F0;" width="2.493" height="2.493"/>
					<rect x="392.935" y="236.128" style="fill:#F0F0F0;" width="2.493" height="2.493"/>
					<rect x="392.935" y="240.307" style="fill:#F0F0F0;" width="2.493" height="2.493"/>
					<rect x="392.935" y="244.486" style="fill:#F0F0F0;" width="2.493" height="2.493"/>
					<rect x="392.935" y="248.665" style="fill:#F0F0F0;" width="2.493" height="2.493"/>
					<rect x="392.935" y="252.844" style="fill:#F0F0F0;" width="2.493" height="2.493"/>
					<rect x="392.935" y="257.023" style="fill:#F0F0F0;" width="2.493" height="2.493"/>
					<rect x="392.935" y="261.202" style="fill:#F0F0F0;" width="2.493" height="2.493"/>
					<rect x="392.935" y="273.739" style="fill:#F0F0F0;" width="2.493" height="2.493"/>
					<rect x="392.935" y="277.918" style="fill:#F0F0F0;" width="2.493" height="2.493"/>
					<rect x="392.935" y="282.097" style="fill:#F0F0F0;" width="2.493" height="2.493"/>
					<rect x="348.36" y="212.74" style="fill:#F0F0F0;" width="2.493" height="2.493"/>
					<rect x="348.36" y="216.919" style="fill:#F0F0F0;" width="2.493" height="2.493"/>
					<rect x="348.36" y="221.098" style="fill:#F0F0F0;" width="2.493" height="2.493"/>
					<rect x="348.36" y="225.277" style="fill:#F0F0F0;" width="2.493" height="2.493"/>
					<rect x="348.36" y="229.456" style="fill:#F0F0F0;" width="2.493" height="2.493"/>
					<rect x="348.36" y="233.635" style="fill:#F0F0F0;" width="2.493" height="2.493"/>
					<rect x="348.36" y="237.814" style="fill:#F0F0F0;" width="2.493" height="2.493"/>
					<rect x="348.36" y="241.993" style="fill:#F0F0F0;" width="2.493" height="2.493"/>
					<rect x="348.36" y="254.53" style="fill:#F0F0F0;" width="2.493" height="2.493"/>
					<rect x="348.36" y="258.709" style="fill:#F0F0F0;" width="2.493" height="2.493"/>
					<rect x="344.401" y="212.74" style="fill:#F0F0F0;" width="2.493" height="2.493"/>
					<rect x="344.401" y="216.919" style="fill:#F0F0F0;" width="2.493" height="2.493"/>
					<rect x="344.401" y="221.098" style="fill:#F0F0F0;" width="2.493" height="2.493"/>
					<rect x="344.401" y="225.277" style="fill:#F0F0F0;" width="2.493" height="2.493"/>
					<rect x="344.401" y="229.456" style="fill:#F0F0F0;" width="2.493" height="2.493"/>
					<rect x="344.401" y="233.635" style="fill:#F0F0F0;" width="2.493" height="2.493"/>
					<rect x="344.401" y="237.814" style="fill:#F0F0F0;" width="2.493" height="2.493"/>
					<rect x="344.401" y="241.993" style="fill:#F0F0F0;" width="2.493" height="2.493"/>
					<rect x="344.401" y="258.709" style="fill:#F0F0F0;" width="2.493" height="2.493"/>
					<rect x="340.442" y="212.74" style="fill:#F0F0F0;" width="2.493" height="2.493"/>
					<rect x="340.442" y="216.919" style="fill:#F0F0F0;" width="2.493" height="2.493"/>
					<rect x="340.442" y="221.098" style="fill:#F0F0F0;" width="2.493" height="2.493"/>
					<rect x="340.442" y="225.277" style="fill:#F0F0F0;" width="2.493" height="2.493"/>
					<rect x="340.442" y="229.456" style="fill:#F0F0F0;" width="2.493" height="2.493"/>
					<rect x="340.442" y="233.635" style="fill:#F0F0F0;" width="2.493" height="2.493"/>
					<rect x="340.442" y="237.814" style="fill:#F0F0F0;" width="2.493" height="2.493"/>
					<rect x="340.442" y="241.993" style="fill:#F0F0F0;" width="2.493" height="2.493"/>
					<rect x="336.483" y="212.74" style="fill:#F0F0F0;" width="2.493" height="2.493"/>
					<rect x="336.483" y="216.919" style="fill:#F0F0F0;" width="2.493" height="2.493"/>
					<rect x="336.483" y="221.098" style="fill:#F0F0F0;" width="2.493" height="2.493"/>
					<rect x="336.483" y="225.277" style="fill:#F0F0F0;" width="2.493" height="2.493"/>
					<rect x="336.483" y="229.456" style="fill:#F0F0F0;" width="2.493" height="2.493"/>
					<rect x="336.483" y="233.635" style="fill:#F0F0F0;" width="2.493" height="2.493"/>
					<rect x="336.483" y="241.993" style="fill:#F0F0F0;" width="2.493" height="2.493"/>
					<rect x="336.483" y="246.172" style="fill:#F0F0F0;" width="2.493" height="2.493"/>
					<rect x="336.483" y="258.709" style="fill:#F0F0F0;" width="2.493" height="2.493"/>
					<rect x="336.483" y="262.888" style="fill:#F0F0F0;" width="2.493" height="2.493"/>
					<rect x="336.483" y="267.067" style="fill:#F0F0F0;" width="2.493" height="2.493"/>
					<rect x="336.483" y="271.246" style="fill:#F0F0F0;" width="2.493" height="2.493"/>
					<rect x="336.483" y="275.425" style="fill:#F0F0F0;" width="2.493" height="2.493"/>
					<rect x="336.483" y="279.604" style="fill:#F0F0F0;" width="2.493" height="2.493"/>
					<rect x="336.483" y="283.783" style="fill:#F0F0F0;" width="2.493" height="2.493"/>
					<rect x="332.523" y="212.74" style="fill:#F0F0F0;" width="2.493" height="2.493"/>
					<rect x="332.523" y="216.919" style="fill:#F0F0F0;" width="2.493" height="2.493"/>
					<rect x="332.523" y="221.098" style="fill:#F0F0F0;" width="2.493" height="2.493"/>
					<rect x="332.523" y="225.277" style="fill:#F0F0F0;" width="2.493" height="2.493"/>
					<rect x="332.523" y="229.456" style="fill:#F0F0F0;" width="2.493" height="2.493"/>
					<rect x="332.523" y="233.635" style="fill:#F0F0F0;" width="2.493" height="2.493"/>
					<rect x="332.523" y="246.172" style="fill:#F0F0F0;" width="2.493" height="2.493"/>
					<rect x="332.523" y="250.351" style="fill:#F0F0F0;" width="2.493" height="2.493"/>
					<rect x="332.523" y="254.53" style="fill:#F0F0F0;" width="2.493" height="2.493"/>
					<rect x="332.523" y="258.709" style="fill:#F0F0F0;" width="2.493" height="2.493"/>
					<rect x="332.523" y="262.888" style="fill:#F0F0F0;" width="2.493" height="2.493"/>
					<rect x="332.523" y="267.067" style="fill:#F0F0F0;" width="2.493" height="2.493"/>
					<rect x="332.523" y="271.246" style="fill:#F0F0F0;" width="2.493" height="2.493"/>
					<rect x="332.523" y="275.425" style="fill:#F0F0F0;" width="2.493" height="2.493"/>
					<rect x="332.523" y="279.604" style="fill:#F0F0F0;" width="2.493" height="2.493"/>
					<rect x="332.523" y="283.783" style="fill:#F0F0F0;" width="2.493" height="2.493"/>
					<rect x="332.523" y="287.962" style="fill:#F0F0F0;" width="2.493" height="2.493"/>
					<rect x="332.523" y="296.32" style="fill:#F0F0F0;" width="2.493" height="2.493"/>
					<rect x="328.565" y="212.74" style="fill:#F0F0F0;" width="2.493" height="2.493"/>
					<rect x="328.565" y="216.919" style="fill:#F0F0F0;" width="2.493" height="2.493"/>
					<rect x="328.565" y="221.098" style="fill:#F0F0F0;" width="2.493" height="2.493"/>
					<rect x="328.565" y="225.277" style="fill:#F0F0F0;" width="2.493" height="2.493"/>
					<rect x="328.565" y="229.456" style="fill:#F0F0F0;" width="2.493" height="2.493"/>
					<rect x="328.565" y="233.635" style="fill:#F0F0F0;" width="2.493" height="2.493"/>
					<rect x="328.565" y="246.172" style="fill:#F0F0F0;" width="2.493" height="2.493"/>
					<rect x="328.565" y="250.351" style="fill:#F0F0F0;" width="2.493" height="2.493"/>
					<rect x="328.565" y="254.53" style="fill:#F0F0F0;" width="2.493" height="2.493"/>
					<rect x="328.565" y="258.709" style="fill:#F0F0F0;" width="2.493" height="2.493"/>
					<rect x="328.565" y="271.246" style="fill:#F0F0F0;" width="2.493" height="2.493"/>
					<rect x="328.565" y="275.425" style="fill:#F0F0F0;" width="2.493" height="2.493"/>
					<rect x="328.565" y="279.604" style="fill:#F0F0F0;" width="2.493" height="2.493"/>
					<rect x="328.565" y="283.783" style="fill:#F0F0F0;" width="2.493" height="2.493"/>
					<rect x="328.565" y="287.962" style="fill:#F0F0F0;" width="2.493" height="2.493"/>
					<rect x="328.565" y="296.32" style="fill:#F0F0F0;" width="2.493" height="2.493"/>
					<rect x="328.565" y="300.499" style="fill:#F0F0F0;" width="2.493" height="2.493"/>
					<rect x="292.64" y="251.598" style="fill:#F0F0F0;" width="2.493" height="2.493"/>
					<rect x="292.64" y="255.777" style="fill:#F0F0F0;" width="2.493" height="2.493"/>
					<rect x="292.64" y="259.956" style="fill:#F0F0F0;" width="2.493" height="2.493"/>
					<rect x="292.64" y="264.134" style="fill:#F0F0F0;" width="2.493" height="2.493"/>
					<rect x="292.64" y="268.314" style="fill:#F0F0F0;" width="2.493" height="2.493"/>
					<rect x="292.64" y="272.492" style="fill:#F0F0F0;" width="2.493" height="2.493"/>
					<rect x="292.64" y="276.672" style="fill:#F0F0F0;" width="2.493" height="2.493"/>
					<rect x="292.64" y="289.208" style="fill:#F0F0F0;" width="2.493" height="2.493"/>
					<rect x="292.64" y="293.387" style="fill:#F0F0F0;" width="2.493" height="2.493"/>
					<rect x="292.64" y="297.566" style="fill:#F0F0F0;" width="2.493" height="2.493"/>
					<rect x="288.681" y="251.598" style="fill:#F0F0F0;" width="2.493" height="2.493"/>
					<rect x="288.681" y="255.777" style="fill:#F0F0F0;" width="2.493" height="2.493"/>
					<rect x="288.681" y="259.956" style="fill:#F0F0F0;" width="2.493" height="2.493"/>
					<rect x="288.681" y="264.134" style="fill:#F0F0F0;" width="2.493" height="2.493"/>
					<rect x="288.681" y="268.314" style="fill:#F0F0F0;" width="2.493" height="2.493"/>
					<rect x="288.681" y="272.492" style="fill:#F0F0F0;" width="2.493" height="2.493"/>
					<rect x="288.681" y="276.672" style="fill:#F0F0F0;" width="2.493" height="2.493"/>
					<rect x="284.722" y="251.598" style="fill:#F0F0F0;" width="2.493" height="2.493"/>
					<rect x="284.722" y="255.777" style="fill:#F0F0F0;" width="2.493" height="2.493"/>
					<rect x="284.722" y="259.956" style="fill:#F0F0F0;" width="2.493" height="2.493"/>
					<rect x="284.722" y="264.134" style="fill:#F0F0F0;" width="2.493" height="2.493"/>
					<rect x="284.722" y="268.314" style="fill:#F0F0F0;" width="2.493" height="2.493"/>
					<rect x="284.722" y="272.492" style="fill:#F0F0F0;" width="2.493" height="2.493"/>
					<rect x="284.722" y="276.672" style="fill:#F0F0F0;" width="2.493" height="2.493"/>
					<rect x="280.763" y="251.598" style="fill:#F0F0F0;" width="2.493" height="2.493"/>
					<rect x="280.763" y="255.777" style="fill:#F0F0F0;" width="2.493" height="2.493"/>
					<rect x="280.763" y="259.956" style="fill:#F0F0F0;" width="2.493" height="2.493"/>
					<rect x="280.763" y="264.134" style="fill:#F0F0F0;" width="2.493" height="2.493"/>
					<rect x="280.763" y="268.314" style="fill:#F0F0F0;" width="2.493" height="2.493"/>
					<rect x="280.763" y="272.492" style="fill:#F0F0F0;" width="2.493" height="2.493"/>
					<rect x="280.763" y="276.672" style="fill:#F0F0F0;" width="2.493" height="2.493"/>
					<rect x="280.763" y="280.85" style="fill:#F0F0F0;" width="2.493" height="2.493"/>
					<rect x="280.763" y="285.029" style="fill:#F0F0F0;" width="2.493" height="2.493"/>
					<rect x="280.763" y="289.208" style="fill:#F0F0F0;" width="2.493" height="2.493"/>
					<rect x="280.763" y="293.387" style="fill:#F0F0F0;" width="2.493" height="2.493"/>
					<rect x="276.804" y="251.598" style="fill:#F0F0F0;" width="2.493" height="2.493"/>
					<rect x="276.804" y="255.777" style="fill:#F0F0F0;" width="2.493" height="2.493"/>
					<rect x="276.804" y="259.956" style="fill:#F0F0F0;" width="2.493" height="2.493"/>
					<rect x="276.804" y="264.134" style="fill:#F0F0F0;" width="2.493" height="2.493"/>
					<rect x="276.804" y="268.314" style="fill:#F0F0F0;" width="2.493" height="2.493"/>
					<rect x="276.804" y="272.492" style="fill:#F0F0F0;" width="2.493" height="2.493"/>
					<rect x="276.804" y="276.672" style="fill:#F0F0F0;" width="2.493" height="2.493"/>
					<rect x="276.804" y="280.85" style="fill:#F0F0F0;" width="2.493" height="2.493"/>
					<rect x="276.804" y="285.029" style="fill:#F0F0F0;" width="2.493" height="2.493"/>
					<rect x="276.804" y="289.208" style="fill:#F0F0F0;" width="2.493" height="2.493"/>
					<rect x="276.804" y="293.387" style="fill:#F0F0F0;" width="2.493" height="2.493"/>
					<rect x="276.804" y="297.566" style="fill:#F0F0F0;" width="2.493" height="2.493"/>
					<rect x="276.804" y="310.103" style="fill:#F0F0F0;" width="2.493" height="2.493"/>
					<rect x="276.804" y="314.282" style="fill:#F0F0F0;" width="2.493" height="2.493"/>
					<rect x="272.845" y="251.598" style="fill:#F0F0F0;" width="2.493" height="2.493"/>
					<rect x="272.845" y="255.777" style="fill:#F0F0F0;" width="2.493" height="2.493"/>
					<rect x="272.845" y="259.956" style="fill:#F0F0F0;" width="2.493" height="2.493"/>
					<rect x="272.845" y="272.492" style="fill:#F0F0F0;" width="2.493" height="2.493"/>
					<rect x="272.845" y="276.672" style="fill:#F0F0F0;" width="2.493" height="2.493"/>
					<rect x="272.845" y="280.85" style="fill:#F0F0F0;" width="2.493" height="2.493"/>
					<rect x="272.845" y="285.029" style="fill:#F0F0F0;" width="2.493" height="2.493"/>
					<rect x="272.845" y="289.208" style="fill:#F0F0F0;" width="2.493" height="2.493"/>
					<rect x="272.845" y="293.387" style="fill:#F0F0F0;" width="2.493" height="2.493"/>
					<rect x="272.845" y="297.566" style="fill:#F0F0F0;" width="2.493" height="2.493"/>
					<rect x="272.845" y="310.103" style="fill:#F0F0F0;" width="2.493" height="2.493"/>
					<rect x="272.845" y="314.282" style="fill:#F0F0F0;" width="2.493" height="2.493"/>
					<rect x="272.845" y="318.461" style="fill:#F0F0F0;" width="2.493" height="2.493"/>
					<rect x="231.348" y="226.524" style="fill:#F0F0F0;" width="2.493" height="2.493"/>
					<rect x="231.348" y="230.703" style="fill:#F0F0F0;" width="2.493" height="2.493"/>
					<rect x="231.348" y="234.882" style="fill:#F0F0F0;" width="2.493" height="2.493"/>
					<rect x="231.348" y="239.061" style="fill:#F0F0F0;" width="2.493" height="2.493"/>
					<rect x="231.348" y="243.24" style="fill:#F0F0F0;" width="2.493" height="2.493"/>
					<rect x="231.348" y="247.419" style="fill:#F0F0F0;" width="2.493" height="2.493"/>
					<rect x="231.348" y="251.598" style="fill:#F0F0F0;" width="2.493" height="2.493"/>
					<rect x="231.348" y="255.777" style="fill:#F0F0F0;" width="2.493" height="2.493"/>
					<rect x="231.348" y="259.956" style="fill:#F0F0F0;" width="2.493" height="2.493"/>
					<rect x="231.348" y="264.134" style="fill:#F0F0F0;" width="2.493" height="2.493"/>
					<rect x="231.348" y="268.314" style="fill:#F0F0F0;" width="2.493" height="2.493"/>
					<rect x="231.348" y="272.492" style="fill:#F0F0F0;" width="2.493" height="2.493"/>
					<rect x="231.348" y="276.672" style="fill:#F0F0F0;" width="2.493" height="2.493"/>
					<rect x="231.348" y="280.85" style="fill:#F0F0F0;" width="2.493" height="2.493"/>
					<rect x="231.348" y="285.029" style="fill:#F0F0F0;" width="2.493" height="2.493"/>
					<rect x="231.348" y="289.208" style="fill:#F0F0F0;" width="2.493" height="2.493"/>
					<rect x="231.348" y="293.387" style="fill:#F0F0F0;" width="2.493" height="2.493"/>
					<rect x="231.348" y="297.566" style="fill:#F0F0F0;" width="2.493" height="2.493"/>
					<rect x="231.348" y="301.745" style="fill:#F0F0F0;" width="2.493" height="2.493"/>
					<rect x="231.348" y="305.924" style="fill:#F0F0F0;" width="2.493" height="2.493"/>
					<rect x="231.348" y="310.103" style="fill:#F0F0F0;" width="2.493" height="2.493"/>
					<rect x="231.348" y="314.282" style="fill:#F0F0F0;" width="2.493" height="2.493"/>
					<rect x="231.348" y="318.461" style="fill:#F0F0F0;" width="2.493" height="2.493"/>
					<rect x="227.389" y="226.524" style="fill:#F0F0F0;" width="2.493" height="2.493"/>
					<rect x="227.389" y="230.703" style="fill:#F0F0F0;" width="2.493" height="2.493"/>
					<rect x="227.389" y="234.882" style="fill:#F0F0F0;" width="2.493" height="2.493"/>
					<rect x="227.389" y="239.061" style="fill:#F0F0F0;" width="2.493" height="2.493"/>
					<rect x="227.389" y="243.24" style="fill:#F0F0F0;" width="2.493" height="2.493"/>
					<rect x="227.389" y="247.419" style="fill:#F0F0F0;" width="2.493" height="2.493"/>
					<rect x="227.389" y="251.598" style="fill:#F0F0F0;" width="2.493" height="2.493"/>
					<rect x="227.389" y="255.777" style="fill:#F0F0F0;" width="2.493" height="2.493"/>
					<rect x="227.389" y="259.956" style="fill:#F0F0F0;" width="2.493" height="2.493"/>
					<rect x="227.389" y="264.134" style="fill:#F0F0F0;" width="2.493" height="2.493"/>
					<rect x="227.389" y="268.314" style="fill:#F0F0F0;" width="2.493" height="2.493"/>
					<rect x="227.389" y="272.492" style="fill:#F0F0F0;" width="2.493" height="2.493"/>
					<rect x="227.389" y="276.672" style="fill:#F0F0F0;" width="2.493" height="2.493"/>
					<rect x="227.389" y="280.85" style="fill:#F0F0F0;" width="2.493" height="2.493"/>
					<rect x="227.389" y="285.029" style="fill:#F0F0F0;" width="2.493" height="2.493"/>
					<rect x="227.389" y="289.208" style="fill:#F0F0F0;" width="2.493" height="2.493"/>
					<rect x="227.389" y="293.387" style="fill:#F0F0F0;" width="2.493" height="2.493"/>
					<rect x="227.389" y="297.566" style="fill:#F0F0F0;" width="2.493" height="2.493"/>
					<rect x="227.389" y="301.745" style="fill:#F0F0F0;" width="2.493" height="2.493"/>
					<rect x="223.43" y="226.524" style="fill:#F0F0F0;" width="2.493" height="2.493"/>
					<rect x="223.43" y="230.703" style="fill:#F0F0F0;" width="2.493" height="2.493"/>
					<rect x="223.43" y="234.882" style="fill:#F0F0F0;" width="2.493" height="2.493"/>
					<rect x="223.43" y="239.061" style="fill:#F0F0F0;" width="2.493" height="2.493"/>
					<rect x="223.43" y="243.24" style="fill:#F0F0F0;" width="2.493" height="2.493"/>
					<rect x="223.43" y="247.419" style="fill:#F0F0F0;" width="2.493" height="2.493"/>
					<rect x="223.43" y="251.598" style="fill:#F0F0F0;" width="2.493" height="2.493"/>
					<rect x="223.43" y="255.777" style="fill:#F0F0F0;" width="2.493" height="2.493"/>
					<rect x="223.43" y="259.956" style="fill:#F0F0F0;" width="2.493" height="2.493"/>
					<rect x="223.43" y="264.134" style="fill:#F0F0F0;" width="2.493" height="2.493"/>
					<rect x="223.43" y="268.314" style="fill:#F0F0F0;" width="2.493" height="2.493"/>
					<rect x="223.43" y="272.492" style="fill:#F0F0F0;" width="2.493" height="2.493"/>
					<rect x="223.43" y="276.672" style="fill:#F0F0F0;" width="2.493" height="2.493"/>
					<rect x="223.43" y="280.85" style="fill:#F0F0F0;" width="2.493" height="2.493"/>
					<rect x="223.43" y="285.029" style="fill:#F0F0F0;" width="2.493" height="2.493"/>
					<rect x="223.43" y="289.208" style="fill:#F0F0F0;" width="2.493" height="2.493"/>
					<rect x="223.43" y="293.387" style="fill:#F0F0F0;" width="2.493" height="2.493"/>
					<rect x="223.43" y="297.566" style="fill:#F0F0F0;" width="2.493" height="2.493"/>
					<rect x="223.43" y="301.745" style="fill:#F0F0F0;" width="2.493" height="2.493"/>
					<rect x="219.471" y="226.524" style="fill:#F0F0F0;" width="2.493" height="2.493"/>
					<rect x="219.471" y="230.703" style="fill:#F0F0F0;" width="2.493" height="2.493"/>
					<rect x="219.471" y="234.882" style="fill:#F0F0F0;" width="2.493" height="2.493"/>
					<rect x="219.471" y="239.061" style="fill:#F0F0F0;" width="2.493" height="2.493"/>
					<rect x="219.471" y="243.24" style="fill:#F0F0F0;" width="2.493" height="2.493"/>
					<rect x="219.471" y="247.419" style="fill:#F0F0F0;" width="2.493" height="2.493"/>
					<rect x="219.471" y="251.598" style="fill:#F0F0F0;" width="2.493" height="2.493"/>
					<rect x="219.471" y="255.777" style="fill:#F0F0F0;" width="2.493" height="2.493"/>
					<rect x="219.471" y="259.956" style="fill:#F0F0F0;" width="2.493" height="2.493"/>
					<rect x="219.471" y="264.134" style="fill:#F0F0F0;" width="2.493" height="2.493"/>
					<rect x="219.471" y="268.314" style="fill:#F0F0F0;" width="2.493" height="2.493"/>
					<rect x="219.471" y="272.492" style="fill:#F0F0F0;" width="2.493" height="2.493"/>
					<rect x="219.471" y="276.672" style="fill:#F0F0F0;" width="2.493" height="2.493"/>
					<rect x="219.471" y="280.85" style="fill:#F0F0F0;" width="2.493" height="2.493"/>
					<rect x="219.471" y="285.029" style="fill:#F0F0F0;" width="2.493" height="2.493"/>
					<rect x="215.512" y="226.524" style="fill:#F0F0F0;" width="2.493" height="2.493"/>
					<rect x="215.512" y="230.703" style="fill:#F0F0F0;" width="2.493" height="2.493"/>
					<rect x="215.512" y="234.882" style="fill:#F0F0F0;" width="2.493" height="2.493"/>
					<rect x="215.512" y="239.061" style="fill:#F0F0F0;" width="2.493" height="2.493"/>
					<rect x="215.512" y="243.24" style="fill:#F0F0F0;" width="2.493" height="2.493"/>
					<rect x="215.512" y="247.419" style="fill:#F0F0F0;" width="2.493" height="2.493"/>
					<rect x="215.512" y="251.598" style="fill:#F0F0F0;" width="2.493" height="2.493"/>
					<rect x="215.512" y="255.777" style="fill:#F0F0F0;" width="2.493" height="2.493"/>
					<rect x="215.512" y="259.956" style="fill:#F0F0F0;" width="2.493" height="2.493"/>
					<rect x="215.512" y="264.134" style="fill:#F0F0F0;" width="2.493" height="2.493"/>
					<rect x="215.512" y="268.314" style="fill:#F0F0F0;" width="2.493" height="2.493"/>
					<rect x="215.512" y="272.492" style="fill:#F0F0F0;" width="2.493" height="2.493"/>
					<rect x="215.512" y="276.672" style="fill:#F0F0F0;" width="2.493" height="2.493"/>
					<rect x="211.553" y="226.524" style="fill:#F0F0F0;" width="2.493" height="2.493"/>
					<rect x="211.553" y="230.703" style="fill:#F0F0F0;" width="2.493" height="2.493"/>
					<rect x="211.553" y="234.882" style="fill:#F0F0F0;" width="2.493" height="2.493"/>
					<rect x="211.553" y="239.061" style="fill:#F0F0F0;" width="2.493" height="2.493"/>
					<rect x="211.553" y="243.24" style="fill:#F0F0F0;" width="2.493" height="2.493"/>
					<rect x="211.553" y="247.419" style="fill:#F0F0F0;" width="2.493" height="2.493"/>
					<rect x="211.553" y="251.598" style="fill:#F0F0F0;" width="2.493" height="2.493"/>
					<rect x="211.553" y="255.777" style="fill:#F0F0F0;" width="2.493" height="2.493"/>
					<rect x="211.553" y="259.956" style="fill:#F0F0F0;" width="2.493" height="2.493"/>
					<rect x="211.553" y="264.134" style="fill:#F0F0F0;" width="2.493" height="2.493"/>
					<rect x="211.553" y="268.314" style="fill:#F0F0F0;" width="2.493" height="2.493"/>
					<rect x="211.553" y="272.492" style="fill:#F0F0F0;" width="2.493" height="2.493"/>
					<rect x="442.643" y="225.277" style="fill:#F0F0F0;" width="2.493" height="2.493"/>
					<rect x="442.643" y="229.456" style="fill:#F0F0F0;" width="2.493" height="2.493"/>
					<rect x="442.643" y="233.635" style="fill:#F0F0F0;" width="2.493" height="2.493"/>
					<rect x="442.643" y="237.814" style="fill:#F0F0F0;" width="2.493" height="2.493"/>
					<rect x="442.643" y="241.993" style="fill:#F0F0F0;" width="2.493" height="2.493"/>
					<rect x="442.643" y="246.172" style="fill:#F0F0F0;" width="2.493" height="2.493"/>
					<rect x="442.643" y="250.351" style="fill:#F0F0F0;" width="2.493" height="2.493"/>
					<rect x="442.643" y="254.53" style="fill:#F0F0F0;" width="2.493" height="2.493"/>
					<rect x="442.643" y="258.709" style="fill:#F0F0F0;" width="2.493" height="2.493"/>
					<rect x="442.643" y="262.888" style="fill:#F0F0F0;" width="2.493" height="2.493"/>
					<rect x="442.643" y="267.067" style="fill:#F0F0F0;" width="2.493" height="2.493"/>
					<rect x="442.643" y="271.246" style="fill:#F0F0F0;" width="2.493" height="2.493"/>
					<rect x="442.643" y="275.425" style="fill:#F0F0F0;" width="2.493" height="2.493"/>
					<rect x="442.643" y="279.604" style="fill:#F0F0F0;" width="2.493" height="2.493"/>
					<rect x="442.643" y="283.783" style="fill:#F0F0F0;" width="2.493" height="2.493"/>
					<rect x="442.643" y="287.962" style="fill:#F0F0F0;" width="2.493" height="2.493"/>
					<rect x="442.643" y="292.141" style="fill:#F0F0F0;" width="2.493" height="2.493"/>
					<rect x="442.643" y="300.499" style="fill:#F0F0F0;" width="2.493" height="2.493"/>
					<rect x="442.643" y="304.678" style="fill:#F0F0F0;" width="2.493" height="2.493"/>
					<rect x="442.643" y="308.857" style="fill:#F0F0F0;" width="2.493" height="2.493"/>
					<rect x="442.643" y="313.036" style="fill:#F0F0F0;" width="2.493" height="2.493"/>
					<rect x="442.643" y="317.215" style="fill:#F0F0F0;" width="2.493" height="2.493"/>
					<rect x="438.684" y="225.277" style="fill:#F0F0F0;" width="2.493" height="2.493"/>
					<rect x="438.684" y="229.456" style="fill:#F0F0F0;" width="2.493" height="2.493"/>
					<rect x="438.684" y="233.635" style="fill:#F0F0F0;" width="2.493" height="2.493"/>
					<rect x="438.684" y="237.814" style="fill:#F0F0F0;" width="2.493" height="2.493"/>
					<rect x="438.684" y="241.993" style="fill:#F0F0F0;" width="2.493" height="2.493"/>
					<rect x="438.684" y="246.172" style="fill:#F0F0F0;" width="2.493" height="2.493"/>
					<rect x="438.684" y="250.351" style="fill:#F0F0F0;" width="2.493" height="2.493"/>
					<rect x="438.684" y="254.53" style="fill:#F0F0F0;" width="2.493" height="2.493"/>
					<rect x="438.684" y="258.709" style="fill:#F0F0F0;" width="2.493" height="2.493"/>
					<rect x="438.684" y="262.888" style="fill:#F0F0F0;" width="2.493" height="2.493"/>
					<rect x="438.684" y="267.067" style="fill:#F0F0F0;" width="2.493" height="2.493"/>
					<rect x="438.684" y="271.246" style="fill:#F0F0F0;" width="2.493" height="2.493"/>
					<rect x="438.684" y="275.425" style="fill:#F0F0F0;" width="2.493" height="2.493"/>
					<rect x="438.684" y="279.604" style="fill:#F0F0F0;" width="2.493" height="2.493"/>
					<rect x="438.684" y="283.783" style="fill:#F0F0F0;" width="2.493" height="2.493"/>
					<rect x="438.684" y="287.962" style="fill:#F0F0F0;" width="2.493" height="2.493"/>
					<rect x="438.684" y="313.036" style="fill:#F0F0F0;" width="2.493" height="2.493"/>
					<rect x="438.684" y="317.215" style="fill:#F0F0F0;" width="2.493" height="2.493"/>
					<rect x="434.725" y="225.277" style="fill:#F0F0F0;" width="2.493" height="2.493"/>
					<rect x="434.725" y="229.456" style="fill:#F0F0F0;" width="2.493" height="2.493"/>
					<rect x="434.725" y="233.635" style="fill:#F0F0F0;" width="2.493" height="2.493"/>
					<rect x="434.725" y="237.814" style="fill:#F0F0F0;" width="2.493" height="2.493"/>
					<rect x="434.725" y="241.993" style="fill:#F0F0F0;" width="2.493" height="2.493"/>
					<rect x="434.725" y="246.172" style="fill:#F0F0F0;" width="2.493" height="2.493"/>
					<rect x="434.725" y="250.351" style="fill:#F0F0F0;" width="2.493" height="2.493"/>
					<rect x="434.725" y="254.53" style="fill:#F0F0F0;" width="2.493" height="2.493"/>
					<rect x="434.725" y="258.709" style="fill:#F0F0F0;" width="2.493" height="2.493"/>
					<rect x="434.725" y="262.888" style="fill:#F0F0F0;" width="2.493" height="2.493"/>
					<rect x="434.725" y="267.067" style="fill:#F0F0F0;" width="2.493" height="2.493"/>
					<rect x="434.725" y="271.246" style="fill:#F0F0F0;" width="2.493" height="2.493"/>
					<rect x="434.725" y="275.425" style="fill:#F0F0F0;" width="2.493" height="2.493"/>
					<rect x="434.725" y="279.604" style="fill:#F0F0F0;" width="2.493" height="2.493"/>
					<rect x="434.725" y="283.783" style="fill:#F0F0F0;" width="2.493" height="2.493"/>
					<rect x="434.725" y="287.962" style="fill:#F0F0F0;" width="2.493" height="2.493"/>
					<rect x="434.725" y="296.32" style="fill:#F0F0F0;" width="2.493" height="2.493"/>
					<rect x="434.725" y="300.499" style="fill:#F0F0F0;" width="2.493" height="2.493"/>
					<rect x="434.725" y="304.678" style="fill:#F0F0F0;" width="2.493" height="2.493"/>
					<rect x="434.725" y="308.857" style="fill:#F0F0F0;" width="2.493" height="2.493"/>
					<rect x="434.725" y="317.215" style="fill:#F0F0F0;" width="2.493" height="2.493"/>
					<rect x="365.662" y="254.53" style="fill:#F0F0F0;" width="2.493" height="2.493"/>
					<rect x="365.662" y="258.709" style="fill:#F0F0F0;" width="2.493" height="2.493"/>
					<rect x="365.662" y="262.888" style="fill:#F0F0F0;" width="2.493" height="2.493"/>
					<rect x="365.662" y="267.067" style="fill:#F0F0F0;" width="2.493" height="2.493"/>
					<rect x="365.662" y="271.246" style="fill:#F0F0F0;" width="2.493" height="2.493"/>
					<rect x="365.662" y="275.425" style="fill:#F0F0F0;" width="2.493" height="2.493"/>
					<rect x="365.662" y="279.604" style="fill:#F0F0F0;" width="2.493" height="2.493"/>
					<rect x="365.662" y="283.783" style="fill:#F0F0F0;" width="2.493" height="2.493"/>
					<rect x="365.662" y="287.962" style="fill:#F0F0F0;" width="2.493" height="2.493"/>
					<rect x="365.662" y="292.141" style="fill:#F0F0F0;" width="2.493" height="2.493"/>
					<rect x="365.662" y="296.32" style="fill:#F0F0F0;" width="2.493" height="2.493"/>
					<rect x="365.662" y="300.499" style="fill:#F0F0F0;" width="2.493" height="2.493"/>
					<rect x="365.662" y="304.678" style="fill:#F0F0F0;" width="2.493" height="2.493"/>
					<rect x="365.662" y="313.036" style="fill:#F0F0F0;" width="2.493" height="2.493"/>
					<rect x="365.662" y="317.215" style="fill:#F0F0F0;" width="2.493" height="2.493"/>
					<rect x="365.662" y="321.394" style="fill:#F0F0F0;" width="2.493" height="2.493"/>
					<rect x="365.662" y="325.573" style="fill:#F0F0F0;" width="2.493" height="2.493"/>
					<rect x="365.662" y="333.931" style="fill:#F0F0F0;" width="2.493" height="2.493"/>
					<rect x="365.662" y="338.11" style="fill:#F0F0F0;" width="2.493" height="2.493"/>
					<rect x="365.662" y="342.289" style="fill:#F0F0F0;" width="2.493" height="2.493"/>
					<rect x="361.703" y="254.53" style="fill:#F0F0F0;" width="2.493" height="2.493"/>
					<rect x="361.703" y="258.709" style="fill:#F0F0F0;" width="2.493" height="2.493"/>
					<rect x="361.703" y="262.888" style="fill:#F0F0F0;" width="2.493" height="2.493"/>
					<rect x="361.703" y="267.067" style="fill:#F0F0F0;" width="2.493" height="2.493"/>
					<rect x="361.703" y="271.246" style="fill:#F0F0F0;" width="2.493" height="2.493"/>
					<rect x="361.703" y="275.425" style="fill:#F0F0F0;" width="2.493" height="2.493"/>
					<rect x="361.703" y="279.604" style="fill:#F0F0F0;" width="2.493" height="2.493"/>
					<rect x="361.703" y="283.783" style="fill:#F0F0F0;" width="2.493" height="2.493"/>
					<rect x="361.703" y="287.962" style="fill:#F0F0F0;" width="2.493" height="2.493"/>
					<rect x="361.703" y="292.141" style="fill:#F0F0F0;" width="2.493" height="2.493"/>
					<rect x="361.703" y="296.32" style="fill:#F0F0F0;" width="2.493" height="2.493"/>
					<rect x="361.703" y="300.499" style="fill:#F0F0F0;" width="2.493" height="2.493"/>
					<rect x="361.703" y="304.678" style="fill:#F0F0F0;" width="2.493" height="2.493"/>
					<rect x="361.703" y="317.215" style="fill:#F0F0F0;" width="2.493" height="2.493"/>
					<rect x="361.703" y="321.394" style="fill:#F0F0F0;" width="2.493" height="2.493"/>
					<rect x="361.703" y="329.752" style="fill:#F0F0F0;" width="2.493" height="2.493"/>
					<rect x="361.703" y="333.931" style="fill:#F0F0F0;" width="2.493" height="2.493"/>
					<rect x="361.703" y="338.11" style="fill:#F0F0F0;" width="2.493" height="2.493"/>
					<rect x="361.703" y="342.289" style="fill:#F0F0F0;" width="2.493" height="2.493"/>
					<rect x="357.744" y="254.53" style="fill:#F0F0F0;" width="2.493" height="2.493"/>
					<rect x="357.744" y="258.709" style="fill:#F0F0F0;" width="2.493" height="2.493"/>
					<rect x="357.744" y="262.888" style="fill:#F0F0F0;" width="2.493" height="2.493"/>
					<rect x="357.744" y="267.067" style="fill:#F0F0F0;" width="2.493" height="2.493"/>
					<rect x="357.744" y="271.246" style="fill:#F0F0F0;" width="2.493" height="2.493"/>
					<rect x="357.744" y="275.425" style="fill:#F0F0F0;" width="2.493" height="2.493"/>
					<rect x="357.744" y="279.604" style="fill:#F0F0F0;" width="2.493" height="2.493"/>
					<rect x="357.744" y="283.783" style="fill:#F0F0F0;" width="2.493" height="2.493"/>
					<rect x="357.744" y="287.962" style="fill:#F0F0F0;" width="2.493" height="2.493"/>
					<rect x="357.744" y="292.141" style="fill:#F0F0F0;" width="2.493" height="2.493"/>
					<rect x="357.744" y="296.32" style="fill:#F0F0F0;" width="2.493" height="2.493"/>
					<rect x="357.744" y="300.499" style="fill:#F0F0F0;" width="2.493" height="2.493"/>
					<rect x="357.744" y="304.678" style="fill:#F0F0F0;" width="2.493" height="2.493"/>
					<rect x="357.744" y="308.857" style="fill:#F0F0F0;" width="2.493" height="2.493"/>
					<rect x="357.744" y="317.215" style="fill:#F0F0F0;" width="2.493" height="2.493"/>
					<rect x="357.744" y="325.573" style="fill:#F0F0F0;" width="2.493" height="2.493"/>
					<rect x="357.744" y="329.752" style="fill:#F0F0F0;" width="2.493" height="2.493"/>
					<rect x="357.744" y="333.931" style="fill:#F0F0F0;" width="2.493" height="2.493"/>
					<rect x="357.744" y="338.11" style="fill:#F0F0F0;" width="2.493" height="2.493"/>
					<rect x="357.744" y="342.289" style="fill:#F0F0F0;" width="2.493" height="2.493"/>
					<rect x="381.791" y="278.358" style="fill:#F0F0F0;" width="2.493" height="2.493"/>
					<rect x="381.791" y="282.537" style="fill:#F0F0F0;" width="2.493" height="2.493"/>
					<rect x="381.791" y="286.716" style="fill:#F0F0F0;" width="2.493" height="2.493"/>
					<rect x="381.791" y="290.895" style="fill:#F0F0F0;" width="2.493" height="2.493"/>
					<rect x="381.791" y="295.074" style="fill:#F0F0F0;" width="2.493" height="2.493"/>
					<rect x="381.791" y="299.253" style="fill:#F0F0F0;" width="2.493" height="2.493"/>
					<rect x="381.791" y="311.79" style="fill:#F0F0F0;" width="2.493" height="2.493"/>
					<rect x="381.791" y="315.969" style="fill:#F0F0F0;" width="2.493" height="2.493"/>
					<rect x="381.791" y="320.147" style="fill:#F0F0F0;" width="2.493" height="2.493"/>
					<rect x="381.791" y="324.327" style="fill:#F0F0F0;" width="2.493" height="2.493"/>
					<rect x="381.791" y="328.505" style="fill:#F0F0F0;" width="2.493" height="2.493"/>
					<rect x="381.791" y="332.684" style="fill:#F0F0F0;" width="2.493" height="2.493"/>
					<rect x="381.791" y="336.863" style="fill:#F0F0F0;" width="2.493" height="2.493"/>
					<rect x="377.832" y="278.358" style="fill:#F0F0F0;" width="2.493" height="2.493"/>
					<rect x="377.832" y="282.537" style="fill:#F0F0F0;" width="2.493" height="2.493"/>
					<rect x="377.832" y="286.716" style="fill:#F0F0F0;" width="2.493" height="2.493"/>
					<rect x="377.832" y="290.895" style="fill:#F0F0F0;" width="2.493" height="2.493"/>
					<rect x="377.832" y="295.074" style="fill:#F0F0F0;" width="2.493" height="2.493"/>
					<rect x="377.832" y="299.253" style="fill:#F0F0F0;" width="2.493" height="2.493"/>
					<rect x="377.832" y="311.79" style="fill:#F0F0F0;" width="2.493" height="2.493"/>
					<rect x="377.832" y="315.969" style="fill:#F0F0F0;" width="2.493" height="2.493"/>
					<rect x="377.832" y="320.147" style="fill:#F0F0F0;" width="2.493" height="2.493"/>
					<rect x="377.832" y="324.327" style="fill:#F0F0F0;" width="2.493" height="2.493"/>
					<rect x="377.832" y="328.505" style="fill:#F0F0F0;" width="2.493" height="2.493"/>
					<rect x="377.832" y="332.684" style="fill:#F0F0F0;" width="2.493" height="2.493"/>
					<rect x="377.832" y="341.042" style="fill:#F0F0F0;" width="2.493" height="2.493"/>
					<rect x="246.305" y="259.956" style="fill:#F0F0F0;" width="2.493" height="2.493"/>
					<rect x="246.305" y="264.134" style="fill:#F0F0F0;" width="2.493" height="2.493"/>
					<rect x="246.305" y="268.314" style="fill:#F0F0F0;" width="2.493" height="2.493"/>
					<rect x="246.305" y="272.492" style="fill:#F0F0F0;" width="2.493" height="2.493"/>
					<rect x="246.305" y="276.672" style="fill:#F0F0F0;" width="2.493" height="2.493"/>
					<rect x="246.305" y="280.85" style="fill:#F0F0F0;" width="2.493" height="2.493"/>
					<rect x="246.305" y="285.029" style="fill:#F0F0F0;" width="2.493" height="2.493"/>
					<rect x="246.305" y="289.208" style="fill:#F0F0F0;" width="2.493" height="2.493"/>
					<rect x="246.305" y="293.387" style="fill:#F0F0F0;" width="2.493" height="2.493"/>
					<rect x="246.305" y="297.566" style="fill:#F0F0F0;" width="2.493" height="2.493"/>
					<rect x="246.305" y="301.745" style="fill:#F0F0F0;" width="2.493" height="2.493"/>
					<rect x="246.305" y="310.103" style="fill:#F0F0F0;" width="2.493" height="2.493"/>
					<rect x="246.305" y="314.282" style="fill:#F0F0F0;" width="2.493" height="2.493"/>
					<rect x="246.305" y="318.461" style="fill:#F0F0F0;" width="2.493" height="2.493"/>
					<rect x="246.305" y="322.64" style="fill:#F0F0F0;" width="2.493" height="2.493"/>
					<rect x="246.305" y="326.819" style="fill:#F0F0F0;" width="2.493" height="2.493"/>
					<rect x="246.305" y="330.998" style="fill:#F0F0F0;" width="2.493" height="2.493"/>
					<rect x="246.305" y="335.177" style="fill:#F0F0F0;" width="2.493" height="2.493"/>
					<rect x="246.305" y="339.356" style="fill:#F0F0F0;" width="2.493" height="2.493"/>
					<rect x="242.346" y="259.956" style="fill:#F0F0F0;" width="2.493" height="2.493"/>
					<rect x="242.346" y="264.134" style="fill:#F0F0F0;" width="2.493" height="2.493"/>
					<rect x="242.346" y="268.314" style="fill:#F0F0F0;" width="2.493" height="2.493"/>
					<rect x="242.346" y="272.492" style="fill:#F0F0F0;" width="2.493" height="2.493"/>
					<rect x="242.346" y="276.672" style="fill:#F0F0F0;" width="2.493" height="2.493"/>
					<rect x="242.346" y="280.85" style="fill:#F0F0F0;" width="2.493" height="2.493"/>
					<rect x="242.346" y="285.029" style="fill:#F0F0F0;" width="2.493" height="2.493"/>
					<rect x="242.346" y="289.208" style="fill:#F0F0F0;" width="2.493" height="2.493"/>
					<rect x="242.346" y="293.387" style="fill:#F0F0F0;" width="2.493" height="2.493"/>
					<rect x="242.346" y="297.566" style="fill:#F0F0F0;" width="2.493" height="2.493"/>
					<rect x="242.346" y="301.745" style="fill:#F0F0F0;" width="2.493" height="2.493"/>
					<rect x="242.346" y="305.924" style="fill:#F0F0F0;" width="2.493" height="2.493"/>
					<rect x="242.346" y="310.103" style="fill:#F0F0F0;" width="2.493" height="2.493"/>
					<rect x="242.346" y="314.282" style="fill:#F0F0F0;" width="2.493" height="2.493"/>
					<rect x="242.346" y="318.461" style="fill:#F0F0F0;" width="2.493" height="2.493"/>
					<rect x="242.346" y="322.64" style="fill:#F0F0F0;" width="2.493" height="2.493"/>
					<rect x="242.346" y="326.819" style="fill:#F0F0F0;" width="2.493" height="2.493"/>
					<rect x="242.346" y="330.998" style="fill:#F0F0F0;" width="2.493" height="2.493"/>
					<rect x="242.346" y="335.177" style="fill:#F0F0F0;" width="2.493" height="2.493"/>
					<rect x="242.346" y="339.356" style="fill:#F0F0F0;" width="2.493" height="2.493"/>
					<rect x="265.806" y="276.232" style="fill:#F0F0F0;" width="2.493" height="2.493"/>
					<rect x="265.806" y="280.41" style="fill:#F0F0F0;" width="2.493" height="2.493"/>
					<rect x="265.806" y="284.59" style="fill:#F0F0F0;" width="2.493" height="2.493"/>
					<rect x="265.806" y="288.768" style="fill:#F0F0F0;" width="2.493" height="2.493"/>
					<rect x="265.806" y="292.948" style="fill:#F0F0F0;" width="2.493" height="2.493"/>
					<rect x="265.806" y="297.126" style="fill:#F0F0F0;" width="2.493" height="2.493"/>
					<rect x="265.806" y="301.305" style="fill:#F0F0F0;" width="2.493" height="2.493"/>
					<rect x="265.806" y="305.484" style="fill:#F0F0F0;" width="2.493" height="2.493"/>
					<rect x="265.806" y="309.663" style="fill:#F0F0F0;" width="2.493" height="2.493"/>
					<rect x="265.806" y="313.842" style="fill:#F0F0F0;" width="2.493" height="2.493"/>
					<rect x="261.848" y="276.232" style="fill:#F0F0F0;" width="2.493" height="2.493"/>
					<rect x="261.848" y="280.41" style="fill:#F0F0F0;" width="2.493" height="2.493"/>
					<rect x="261.848" y="284.59" style="fill:#F0F0F0;" width="2.493" height="2.493"/>
					<rect x="261.848" y="288.768" style="fill:#F0F0F0;" width="2.493" height="2.493"/>
					<rect x="261.848" y="292.948" style="fill:#F0F0F0;" width="2.493" height="2.493"/>
					<rect x="261.848" y="297.126" style="fill:#F0F0F0;" width="2.493" height="2.493"/>
					<rect x="261.848" y="301.305" style="fill:#F0F0F0;" width="2.493" height="2.493"/>
					<rect x="261.848" y="305.484" style="fill:#F0F0F0;" width="2.493" height="2.493"/>
					<rect x="261.848" y="309.663" style="fill:#F0F0F0;" width="2.493" height="2.493"/>
				</g>
			</g>
			<g>
				<rect x="283.713" y="117.639" style="fill:#E0E0E0;" width="4.184" height="233.076"/>
				<rect x="362.416" y="117.639" style="fill:#E0E0E0;" width="4.184" height="233.076"/>
				<rect x="441.119" y="117.639" style="fill:#E0E0E0;" width="4.184" height="233.076"/>
			</g>
		</g>
		<g>
			<path style="fill:#F0F0F0;" d="M178.007,382.281h-34.59v-49.83c0-2.433,1.972-4.406,4.406-4.406h25.779
				c2.433,0,4.406,1.972,4.406,4.406V382.281z"/>
			<rect x="143.418" y="335.377" style="fill:#E6E6E6;" width="34.59" height="3.885"/>
			<path style="fill:#E0E0E0;" d="M171.703,375.712h-8.617c-1.311,0-2.374,1.063-2.374,2.374v4.196h13.365v-4.196
				C174.077,376.774,173.014,375.712,171.703,375.712z"/>
			<path style="fill:#E6E6E6;" d="M174.122,382.281h-9.586c-0.849,0-1.537-0.688-1.537-1.537l0,0c0-0.849,0.688-1.537,1.537-1.537
				h9.586c0.849,0,1.537,0.688,1.537,1.537l0,0C175.659,381.593,174.971,382.281,174.122,382.281z"/>
		</g>
		<g>
			
				<ellipse transform="matrix(0.9732 -0.2298 0.2298 0.9732 -10.6237 76.2904)" style="fill:#E0E0E0;" cx="322.3" cy="83.766" rx="23.554" ry="23.554"/>
			
				<ellipse transform="matrix(0.9871 -0.1602 0.1602 0.9871 -9.2562 52.7085)" style="fill:#F0F0F0;" cx="322.3" cy="83.766" rx="20.027" ry="20.027"/>
			
				<polyline style="fill:#F0F0F0;stroke:#E0E0E0;stroke-width:2;stroke-linecap:round;stroke-linejoin:round;stroke-miterlimit:10;" points="
				323.245,70.028 323.245,84.028 332.523,78.778 			"/>
		</g>
		<g>
			<g>
				<path style="fill:#E0E0E0;" d="M96.931,313.641c-1.8-2.964-4.764-0.386-4.764-0.386c0.423-5.68-4.802-9.565-4.802-9.565
					s6.072,0,6.919-5.794c0.847-5.794-2.117-3.099-4.898-3.138c-2.781-0.04-5.688,8.085-2.021,12.655
					c3.667,4.569,2.685,12.369-5.785,19.87c-2.066,1.83-3.471,4.266-4.42,6.902c0.639-6.892,1-16.602-1.028-23.085
					c-3.445-11.01,3.119-13.974,5.025-19.479c1.906-5.505-5.025-10.163-5.025-10.163s6.507-2.964,3.331-6.352
					c-3.176-3.388-9.74-2.927-9.74,1.501c0,4.427,4.446,6.121,4.446,6.121s5.081,5.293,5.081,8.046c0,2.753-5.081,8.681-5.081,8.681
					s2.329-5.074-2.329-5.289c-4.658-0.216-6.14,5.924-4.235,8.677c1.905,2.753,5.081,0.423,5.081,0.423s0.37,5.928,1.455,9.528
					c0.477,1.583,0.253,7.793-0.148,14.255c-0.938-2.333-2.265-4.47-4.124-6.118c-8.469-7.502-9.452-15.301-5.785-19.87
					c3.667-4.569,0.76-12.694-2.021-12.654c-2.781,0.039-5.745-2.656-4.898,3.138s6.919,5.794,6.919,5.794s-5.225,3.885-4.802,9.565
					c0,0-2.964-2.578-4.764,0.387c-3.213,5.292,4.234,8.575,5.486,5.97c0,0,15.793,11.18,11.982,27.271l0.885,1.307
					c-0.114,1.299-0.185,2.081-0.185,2.081l1.235-0.532l1.405,2.075c-0.073,4.022,0.36,6.995,0.36,6.995l3.776-5.574
					c-3.811-16.091,11.981-27.271,11.981-27.271C92.697,322.215,100.144,318.933,96.931,313.641z"/>
				<path style="opacity:0.2;fill:#E0E0E0;enable-background:new    ;" d="M96.931,313.641c-1.8-2.964-4.764-0.386-4.764-0.386
					c0.423-5.68-4.802-9.565-4.802-9.565s6.072,0,6.919-5.794c0.847-5.794-2.117-3.099-4.898-3.138
					c-2.781-0.04-5.688,8.085-2.021,12.655c3.667,4.569,2.685,12.369-5.785,19.87c-2.066,1.83-3.471,4.266-4.42,6.902
					c0.639-6.892,1-16.602-1.028-23.085c-3.445-11.01,3.119-13.974,5.025-19.479c1.906-5.505-5.025-10.163-5.025-10.163
					s6.507-2.964,3.331-6.352c-3.176-3.388-9.74-2.927-9.74,1.501c0,4.427,4.446,6.121,4.446,6.121s5.081,5.293,5.081,8.046
					c0,2.753-5.081,8.681-5.081,8.681s2.329-5.074-2.329-5.289c-4.658-0.216-6.14,5.924-4.235,8.677
					c1.905,2.753,5.081,0.423,5.081,0.423s0.37,5.928,1.455,9.528c0.477,1.583,0.253,7.793-0.148,14.255
					c-0.938-2.333-2.265-4.47-4.124-6.118c-8.469-7.502-9.452-15.301-5.785-19.87c3.667-4.569,0.76-12.694-2.021-12.654
					c-2.781,0.039-5.745-2.656-4.898,3.138s6.919,5.794,6.919,5.794s-5.225,3.885-4.802,9.565c0,0-2.964-2.578-4.764,0.387
					c-3.213,5.292,4.234,8.575,5.486,5.97c0,0,15.793,11.18,11.982,27.271l0.885,1.307c-0.114,1.299-0.185,2.081-0.185,2.081
					l1.235-0.532l1.405,2.075c-0.073,4.022,0.36,6.995,0.36,6.995l3.776-5.574c-3.811-16.091,11.981-27.271,11.981-27.271
					C92.697,322.215,100.144,318.933,96.931,313.641z"/>
			</g>
			<polygon style="fill:#E6E6E6;" points="93.842,382.281 57.667,382.281 53.765,342.675 97.745,342.675 			"/>
			<rect x="51.833" y="338.305" style="fill:#F0F0F0;" width="47.843" height="8.74"/>
		</g>
	</g>
</g>
<g id="Backgorund_Simple" style="display:none;">
	<g style="display:inline;">
		<path style="fill:#407BFF;" d="M308.637,92.572c7.991-2.797,16.504-4.041,24.683-3.523c41.562,2.632,67.716,39.051,75.365,77.144
			c11.091,55.24-17.027,111.758-56.493,149.1c-1.284,1.215-2.585,2.411-3.906,3.586c-41.075,36.557-96.067,55.265-150.607,56.82
			c-34.298,0.978-74.981-10.606-97.629-37.83c-23.665-28.448-18.417-92.737,26.655-95.74c18.353-1.223,35.48,5.444,53.152,9.105
			c24.516,5.079,51.199,0.154,71.307-15.089c39.96-30.294,3.986-85.666,28.463-122.022
			C286.399,104.061,296.96,96.659,308.637,92.572z"/>
		<path style="opacity:0.9;fill:#FFFFFF;enable-background:new    ;" d="M308.637,92.572c7.991-2.797,16.504-4.041,24.683-3.523
			c41.562,2.632,67.716,39.051,75.365,77.144c11.091,55.24-17.027,111.758-56.493,149.1c-1.284,1.215-2.585,2.411-3.906,3.586
			c-41.075,36.557-96.067,55.265-150.607,56.82c-34.298,0.978-74.981-10.606-97.629-37.83
			c-23.665-28.448-18.417-92.737,26.655-95.74c18.353-1.223,35.48,5.444,53.152,9.105c24.516,5.079,51.199,0.154,71.307-15.089
			c39.96-30.294,3.986-85.666,28.463-122.022C286.399,104.061,296.96,96.659,308.637,92.572z"/>
	</g>
</g>
<g id="Shadow_1_">
	<ellipse id="_x3C_Path_x3E__359_" style="fill:#F5F5F5;" cx="250" cy="416.238" rx="193.889" ry="11.323"/>
</g>
<g id="Plant">
	<g>
		<g>
			<path style="fill:#407BFF;" d="M410.447,384.717c0.152-1.024,3.652-25.172-3.359-33.509c-1.552-1.845-3.51-2.81-5.821-2.867
				c-14.153-0.331-16.089,11.036-16.106,11.152l1.669,0.257c0.065-0.407,1.743-10.027,14.396-9.721
				c1.831,0.044,3.326,0.786,4.57,2.265c6.527,7.761,3.018,31.93,2.981,32.173L410.447,384.717z"/>
		</g>
		<g>
			<path style="fill:#407BFF;" d="M411.304,383.616l1.688-0.053c-0.007-0.222-0.561-22.25,10.293-26.801
				c10.637-4.456,15.422,4.706,15.62,5.099l1.509-0.759c-0.055-0.11-5.67-10.976-17.782-5.897
				C410.709,360.204,411.274,382.663,411.304,383.616z"/>
		</g>
		<g>
			<path style="fill:#407BFF;" d="M411.254,385.347c0.001-0.351,0.102-35.19,6.894-45.38c6.522-9.783,17.043-5.177,17.487-4.975
				l0.698-1.538c-0.122-0.055-12.263-5.415-19.59,5.576c-7.075,10.613-7.177,44.862-7.178,46.315L411.254,385.347z"/>
		</g>
		<path style="fill:#407BFF;" d="M399.242,349.178c0,0,6.179,2.278,4.342,7.656s-21.378,14.23-21.378,14.23s-8.184-7.501-0.668-19.7
			C389.054,339.165,399.075,345.329,399.242,349.178z"/>
		<path style="fill:#407BFF;" d="M418.455,338.133c0,0-4.387-0.471-4.034-3.143c0.353-2.672,17.054-9.55,26.908,1.572
			c0,0-6.309,10.838-15.43,10.98C416.778,347.682,418.455,338.133,418.455,338.133z"/>
		<path style="fill:#407BFF;" d="M422.958,355.984c0,0-3.028-2.445,0.24-3.638c3.268-1.193,19.301-0.854,19.468,15.028
			c0,0-18.673,3.103-20.985-2.946S422.958,355.984,422.958,355.984z"/>
		<path style="opacity:0.2;enable-background:new    ;" d="M399.242,349.178c0,0,6.179,2.278,4.342,7.656
			s-21.378,14.23-21.378,14.23s-8.184-7.501-0.668-19.7C389.054,339.165,399.075,345.329,399.242,349.178z"/>
		<path style="opacity:0.2;enable-background:new    ;" d="M418.455,338.133c0,0-4.387-0.471-4.034-3.143
			c0.353-2.672,17.054-9.55,26.908,1.572c0,0-6.309,10.838-15.43,10.98C416.778,347.682,418.455,338.133,418.455,338.133z"/>
		<path style="opacity:0.2;enable-background:new    ;" d="M422.958,355.984c0,0-3.028-2.445,0.24-3.638
			c3.268-1.193,19.301-0.854,19.468,15.028c0,0-18.673,3.103-20.985-2.946S422.958,355.984,422.958,355.984z"/>
		<polygon style="fill:#407BFF;" points="395.921,417.072 424.899,417.072 428.025,385.346 392.795,385.346 		"/>
		<polygon style="opacity:0.5;fill:#FFFFFF;enable-background:new    ;" points="395.921,417.072 424.899,417.072 428.025,385.346 
			392.795,385.346 		"/>
		
			<rect x="391.248" y="381.845" transform="matrix(-1 -1.224647e-16 1.224647e-16 -1 820.8201 770.6912)" style="fill:#407BFF;" width="38.324" height="7.001"/>
		
			<rect x="391.248" y="381.845" transform="matrix(-1 -1.224647e-16 1.224647e-16 -1 820.8201 770.6912)" style="opacity:0.2;fill:#FFFFFF;enable-background:new    ;" width="38.324" height="7.001"/>
	</g>
</g>
<g id="Chair">
	<g>
		<path style="fill:#263238;" d="M363.124,394.33l-28.813-2.832v-40.492h-11.419v40.481l-28.929,2.843
			c-2.872,0.282-5.061,2.697-5.061,5.583v4.327h38.583h2.116h38.583v-4.327C368.185,397.027,365.995,394.612,363.124,394.33z"/>
		<path style="opacity:0.2;fill:#FFFFFF;enable-background:new    ;" d="M363.124,394.33l-28.813-2.832v-40.492h-11.419v40.481
			l-28.929,2.843c-2.872,0.282-5.061,2.697-5.061,5.583v4.327h38.583h2.116h38.583v-4.327
			C368.185,397.027,365.995,394.612,363.124,394.33z"/>
		<circle style="fill:#263238;" cx="291.951" cy="409.606" r="7.466"/>
		<circle style="fill:#263238;" cx="365.135" cy="409.606" r="7.466"/>
		<path style="fill:#263238;" d="M332.144,359.709h-7.086c-2.283,0-4.133-1.85-4.133-4.133v-31.933h15.352v31.933
			C336.277,357.859,334.427,359.709,332.144,359.709z"/>
		<path style="opacity:0.3;fill:#FFFFFF;enable-background:new    ;" d="M332.144,359.709h-7.086c-2.283,0-4.133-1.85-4.133-4.133
			v-31.933h15.352v31.933C336.277,357.859,334.427,359.709,332.144,359.709z"/>
		<path style="fill:#263238;" d="M355.901,260.35c0,0,2.176,53.997-12.857,63.293h17.163c0,0,13.298-18.396,9.54-63.293H355.901z"/>
		<path style="opacity:0.3;fill:#FFFFFF;enable-background:new    ;" d="M355.901,260.35c0,0,2.176,53.997-12.857,63.293h17.163
			c0,0,13.298-18.396,9.54-63.293H355.901z"/>
		<path style="fill:#263238;" d="M294.132,316.092h66.921c2.762,0,5,2.239,5,5v6.689h-76.921v-6.689
			C289.132,318.33,291.371,316.092,294.132,316.092z"/>
		<g>
			<path style="fill:#263238;" d="M287.937,321.937h79.311c1.111,0,2.011,0.9,2.011,2.011v1.822c0,1.111-0.9,2.011-2.011,2.011
				h-79.311c-1.111,0-2.011-0.9-2.011-2.011v-1.822C285.926,322.837,286.826,321.937,287.937,321.937z"/>
			<path style="opacity:0.6;fill:#FFFFFF;enable-background:new    ;" d="M287.937,321.937h79.311c1.111,0,2.011,0.9,2.011,2.011
				v1.822c0,1.111-0.9,2.011-2.011,2.011h-79.311c-1.111,0-2.011-0.9-2.011-2.011v-1.822
				C285.926,322.837,286.826,321.937,287.937,321.937z"/>
		</g>
		<path style="fill:#263238;" d="M373.954,271.321H346.46c-8.055,0-14.584-6.529-14.584-14.584v-10.752
			c0-8.055,6.529-14.584,14.584-14.584h27.495c8.055,0,14.584,6.529,14.584,14.584v10.752
			C388.539,264.792,382.009,271.321,373.954,271.321z"/>
	</g>
</g>
<g id="Character">
	<g>
		<path style="fill:#E4897B;" d="M263.051,187.279l-5.486-14.47c0,0,2.353-2.178,0.739-4.387c-1.614-2.209-11.74-8.426-13.586-7.333
			c-1.846,1.092-5.944,5.213-3.728,7.499c2.215,2.286,12.025,6.102,12.025,6.102l4.853,18.985L263.051,187.279z"/>
		<g>
			<path style="fill:#407BFF;" d="M301.383,214.791c0,0-24.97-5.133-27.678-6.358c-2.707-1.225-12.76-30.664-12.76-30.664
				l-7.704,3.6c0,0,6.202,29.541,12.543,36.566c6.342,7.025,33.391,12.966,33.391,12.966L301.383,214.791z"/>
			<path style="opacity:0.2;enable-background:new    ;" d="M299.172,230.897c0,0-0.156-0.033-0.458-0.106
				c-1.366-0.307-5.63-1.313-10.704-2.796c-8.235-2.391-18.605-6.047-22.23-10.056c-6.332-7.029-12.542-36.572-12.542-36.572
				l7.702-3.596c0,0,10.052,29.439,12.769,30.663c2.707,1.221,27.675,6.355,27.675,6.355L299.172,230.897z"/>
			<polygon style="fill:#407BFF;" points="261.067,177.191 262.659,180.26 252.759,183.669 253.141,179.918 			"/>
		</g>
		<path style="opacity:0.2;enable-background:new    ;" d="M299.363,230.494c-1.386-0.2-5.715-0.873-10.889-1.958
			c2.95-5.093,11.589-7.712,11.589-7.712L299.363,230.494z"/>
		<path style="fill:#263238;" d="M336.583,194.413c0,0,1.469,13.83-3.656,17.226c-5.125,3.396-30.326-0.582-33.186-6.145
			c-2.859-5.563,7.899-20.672,7.899-20.672L336.583,194.413z"/>
		<polygon style="fill:#E4897B;" points="234.593,376.395 241.169,377.979 244.497,368.901 247.519,360.644 240.029,357.449 
			237.149,367.47 		"/>
		<polygon style="opacity:0.2;enable-background:new    ;" points="237.149,367.47 244.497,368.901 247.519,360.644 
			240.029,357.449 		"/>
		<g>
			<path style="fill:#407BFF;" d="M237.81,362.678l9.12,3.39c0,0,24.33-60.83,29.33-61.04s55.91,23.19,68.67,10.21
				c12.76-12.97-5.69-44.24-5.69-44.24s-30.69-4.38-33,2.55c-0.45,1.34-0.94,3.97-1.3,6.22c-0.35,2.12-0.59,3.9-0.59,3.9
				s-0.01,0-0.02-0.01c-0.95-0.24-31.76-8.19-43.9,0.01C248.1,292.008,237.81,362.678,237.81,362.678z"/>
			<path style="opacity:0.6;fill:#FFFFFF;enable-background:new    ;" d="M237.81,362.678l9.12,3.39c0,0,24.33-60.83,29.33-61.04
				s55.91,23.19,68.67,10.21c12.76-12.97-5.69-44.24-5.69-44.24s-30.69-4.38-33,2.55c-0.45,1.34-0.94,3.97-1.3,6.22
				c-0.35,2.12-0.59,3.9-0.59,3.9s-0.01,0-0.02-0.01c-0.95-0.24-31.76-8.19-43.9,0.01C248.1,292.008,237.81,362.678,237.81,362.678z
				"/>
		</g>
		<polygon style="fill:#E4897B;" points="290.267,402.344 296.819,400.665 295.558,391.266 294.388,382.644 286.285,383.371 
			288.389,393.417 		"/>
		<polygon style="opacity:0.2;enable-background:new    ;" points="288.441,393.619 295.604,391.445 294.411,382.734 
			286.297,383.416 		"/>
		<polygon style="fill:#407BFF;" points="250.696,362.694 237.413,358.179 236.845,363.621 246.921,367.183 		"/>
		<g>
			<path style="fill:#407BFF;" d="M322.89,318.359c0,0-2.078,0.049-34.269-1.451c0,0,4.811,40.245,7.435,70.373l-9.626,1.641
				c0,0-23-64.513-22.75-74.763s12-13.25,12-13.25S298.614,314.158,322.89,318.359z"/>
			<path style="opacity:0.6;fill:#FFFFFF;enable-background:new    ;" d="M322.89,318.359c0,0-2.078,0.049-34.269-1.451
				c0,0,4.811,40.245,7.435,70.373l-9.626,1.641c0,0-23-64.513-22.75-74.763s12-13.25,12-13.25S298.614,314.158,322.89,318.359z"/>
			<path style="opacity:0.1;enable-background:new    ;" d="M322.89,318.359c0,0-2.078,0.049-34.269-1.451
				c0,0,4.811,40.245,7.435,70.373l-9.626,1.641c0,0-23-64.513-22.75-74.763s12-13.25,12-13.25S298.614,314.158,322.89,318.359z"/>
		</g>
		<polygon style="fill:#407BFF;" points="297.464,384.361 284.234,385.866 286.786,391.052 297.496,389.679 		"/>
		<path style="opacity:0.1;enable-background:new    ;" d="M304.35,283.668l17.95,3.74c0,0-9.92-5.48-17.36-7.64
			C304.59,281.888,304.35,283.668,304.35,283.668z"/>
		<g>
			<g>
				<polygon style="fill:#263238;" points="338.499,266.227 339.237,271.001 306.238,273.546 305.365,267.9 				"/>
				<polygon style="opacity:0.2;enable-background:new    ;" points="338.499,266.227 339.237,271.001 306.238,273.546 
					305.365,267.9 				"/>
			</g>
			
				<rect x="327.663" y="265.807" transform="matrix(-0.9948 0.1023 -0.1023 -0.9948 682.8523 504.955)" style="fill:#407BFF;" width="1.639" height="8.348"/>
			
				<rect x="313.254" y="267.659" transform="matrix(-0.9979 0.0641 -0.0641 -0.9979 650.441 519.9342)" style="fill:#FFFFFF;" width="7.245" height="5.494"/>
			
				<rect x="307.401" y="266.702" transform="matrix(-0.9947 0.1023 -0.1023 -0.9947 642.5431 508.7874)" style="fill:#407BFF;" width="1.639" height="8.348"/>
			
				<rect x="327.663" y="265.807" transform="matrix(-0.9948 0.1023 -0.1023 -0.9948 682.8523 504.955)" style="opacity:0.6;fill:#FFFFFF;enable-background:new    ;" width="1.639" height="8.348"/>
			
				<rect x="307.401" y="266.702" transform="matrix(-0.9947 0.1023 -0.1023 -0.9947 642.5431 508.7874)" style="opacity:0.6;fill:#FFFFFF;enable-background:new    ;" width="1.639" height="8.348"/>
		</g>
		<path style="fill:#407BFF;" d="M300.784,214.335c0,0,8.425,2.643,19.013,2.099c10.588-0.544,23.247,4.599,23.247,4.599
			l-4.545,45.194l-33.134,1.673C305.365,267.9,294.232,230.16,300.784,214.335z"/>
		<path style="fill:#263238;" d="M306.107,188.814c0,0,1.863-21.948,20.208-13.973c23.027,10.01,4.716,36.742-6.533,31.254
			S306.107,188.814,306.107,188.814z"/>
		<path style="opacity:0.2;enable-background:new    ;" d="M311.25,217.66l0.527,12.401l4.115-5.834c0,0-1.468,13.716-0.609,21.184
			c0,0,0.786-13.392,2.65-21.184l4.367,5.834l6.275-12.325C328.575,217.736,318.422,214.089,311.25,217.66z"/>
		<path style="fill:#E4897B;" d="M316.932,219.967l9.486-2.68c-5.845-4.023-2.898-13.018-2.898-13.018l-9.397,3.304
			c0.502,1.559,0.818,2.884,1.008,4.015c0.982,5.862-1.665,6.33-1.665,6.33L316.932,219.967z"/>
		<path style="opacity:0.2;enable-background:new    ;" d="M314.124,207.573c0.502,1.559,0.818,2.884,1.008,4.015
			c4.498-1.803,8.389-7.319,8.389-7.319L314.124,207.573z"/>
		<g>
			<path style="fill:#E4897B;" d="M320.256,179.449c-8.323-1.842-11.988,2.021-14.496,10.463c-3.134,10.55-2.443,18.691,8.47,18.705
				C329.052,208.635,334.078,182.508,320.256,179.449z"/>
			<path style="fill:#DE5753;" d="M311.243,190.638c0,0-1.634,1.919-3.186,2.916c0,0,0.462,1.29,1.986,1.427L311.243,190.638z"/>
			<g>
				<path style="fill:#263238;" d="M316.488,191.085c-0.167,0.68,0.065,1.322,0.518,1.433c0.453,0.111,0.957-0.349,1.124-1.029
					c0.167-0.68-0.065-1.322-0.518-1.434C317.159,189.943,316.656,190.404,316.488,191.085z"/>
				<path style="fill:#263238;" d="M317.793,190.134l-1.337-0.944C316.457,189.19,316.887,190.616,317.793,190.134z"/>
			</g>
			<g>
				<path style="fill:#263238;" d="M308.068,188.863c-0.167,0.68,0.065,1.322,0.518,1.434c0.454,0.112,0.957-0.349,1.124-1.029
					c0.167-0.68-0.065-1.322-0.518-1.433C308.738,187.722,308.235,188.183,308.068,188.863z"/>
				<path style="fill:#263238;" d="M309.373,187.913l-1.336-0.944C308.036,186.969,308.467,188.395,309.373,187.913z"/>
			</g>
			
				<path style="fill:none;stroke:#263238;stroke-width:0.7247;stroke-linecap:round;stroke-linejoin:round;stroke-miterlimit:10;" d="
				M317.844,185.356c0,0,2.406,0.214,3.331,2.057"/>
			
				<path style="fill:none;stroke:#263238;stroke-width:0.7247;stroke-linecap:round;stroke-linejoin:round;stroke-miterlimit:10;" d="
				M311.872,183.665c0,0-1.35-0.87-3.468-0.05"/>
			<path style="fill:#263238;" d="M326.248,195.49c0,0-2.378-7.699-0.62-12.848c0,0-15.002-10.388-19.521,6.173
				c0,0,1.678-15.222,16.059-12.387c14.358,2.831,9.687,23.753,0.918,28.354C323.084,204.782,327.709,200.299,326.248,195.49z"/>
			<path style="fill:#E4897B;" d="M324.5,196.946c0.352-1.328,2.237-3.29,4.669-2.466c2.517,0.852,2.574,6.419-4.123,6.272
				C324.085,200.731,323.765,199.716,324.5,196.946z"/>
			<g>
				<path style="fill:#263238;" d="M308.554,198.143c0.295,1.101,0.431,3.093,0.431,3.093c0.183,0.02,0.366,0.04,0.549,0.051
					c2.485,0.211,3.707-0.512,4.309-1.377c0.327-0.475,0.464-0.999,0.518-1.432c0.068-0.499,0.002-0.871,0.002-0.871
					c-1.384,0.675-3.716,0.657-4.961,0.594C308.881,198.181,308.554,198.143,308.554,198.143z"/>
				<path style="fill:#FFFFFF;" d="M309.402,198.201l0.151,0.909c2.341,0.193,4.015,0.015,4.808-0.632
					c0.068-0.499,0.002-0.871,0.002-0.871C312.979,198.282,310.647,198.263,309.402,198.201z"/>
				<path style="fill:#DE5753;" d="M309.534,201.286c2.485,0.211,3.707-0.512,4.309-1.377c-0.849-0.039-1.878,0.008-2.806,0.312
					C310.327,200.452,309.859,200.86,309.534,201.286z"/>
			</g>
			<path style="fill:#263238;" d="M320.289,180.115c0,0,0.322,14.437,8.984,16.17c8.662,1.733-0.807-18.552-0.807-18.552
				s-12.897-8.424-21.494-2.487c-8.597,5.937-0.865,13.569-0.865,13.569S307.923,178.091,320.289,180.115z"/>
			<path style="fill:none;stroke:#263238;stroke-width:0.5;stroke-linecap:round;stroke-linejoin:round;stroke-miterlimit:10;" d="
				M320.588,179.161c0,0-3.087,9.126,3.009,13.917"/>
		</g>
		<g>
			<path style="fill:#407BFF;" d="M331.802,199.255c-1.102,2.936-3.931,4.588-6.32,3.692c-2.388-0.897-3.431-4.003-2.329-6.938
				c1.102-2.936,3.931-4.588,6.32-3.692C331.861,193.213,332.904,196.319,331.802,199.255z"/>
			<path style="opacity:0.4;enable-background:new    ;" d="M331.802,199.255c-1.102,2.936-3.931,4.588-6.32,3.692
				c-2.388-0.897-3.431-4.003-2.329-6.938c1.102-2.936,3.931-4.588,6.32-3.692C331.861,193.213,332.904,196.319,331.802,199.255z"/>
			<path style="fill:#407BFF;" d="M329.044,194.441c0,0,3.586-16.07-4.462-20.282c0,0,1.677,0.226,2.717,0.529
				c1.04,0.303,7.469,6.82,4.22,21.263L329.044,194.441z"/>
			<path style="opacity:0.2;enable-background:new    ;" d="M329.044,194.441c0,0,3.586-16.07-4.462-20.282
				c0,0,1.677,0.226,2.717,0.529c1.04,0.303,7.469,6.82,4.22,21.263L329.044,194.441z"/>
			<g>
				<g>
					<path style="fill:#407BFF;" d="M313.949,203.638c-0.199-0.026-0.399-0.056-0.601-0.09l0.162-0.986
						c7.247,1.18,12.639-2.655,12.693-2.695l0.591,0.807C326.569,200.839,321.325,204.608,313.949,203.638z"/>
				</g>
				<g style="opacity:0.2;enable-background:new    ;">
					<path d="M313.949,203.638c-0.199-0.026-0.399-0.056-0.601-0.09l0.162-0.986c7.247,1.18,12.639-2.655,12.693-2.695l0.591,0.807
						C326.569,200.839,321.325,204.608,313.949,203.638z"/>
				</g>
			</g>
			<path style="fill:#407BFF;" d="M331.464,198.853c-0.729,1.941-2.599,3.033-4.178,2.441c-1.579-0.593-2.268-2.646-1.54-4.587
				c0.729-1.941,2.599-3.033,4.178-2.441C331.503,194.859,332.192,196.912,331.464,198.853z"/>
			<g>
				<path style="fill:#407BFF;" d="M313.055,203.966l-0.803-0.106c-0.596-0.078-1.015-0.625-0.937-1.221l0,0
					c0.078-0.596,0.625-1.015,1.22-0.937l0.803,0.106c0.596,0.078,1.015,0.625,0.937,1.221l0,0
					C314.198,203.625,313.651,204.044,313.055,203.966z"/>
				<path style="opacity:0.4;enable-background:new    ;" d="M313.055,203.966l-0.803-0.106c-0.596-0.078-1.015-0.625-0.937-1.221
					l0,0c0.078-0.596,0.625-1.015,1.22-0.937l0.803,0.106c0.596,0.078,1.015,0.625,0.937,1.221l0,0
					C314.198,203.625,313.651,204.044,313.055,203.966z"/>
			</g>
		</g>
		<polygon style="fill:#407BFF;" points="323.875,213.848 317.933,219.684 320.309,226.835 328.575,217.736 		"/>
		<polygon style="fill:#407BFF;" points="315.283,215.068 316.244,219.56 313.167,225.912 311.25,217.66 		"/>
		<path style="fill:#E4897B;" d="M322.603,218.914l3.451-12.63c0,0-1.672-3.146-1.311-3.805c0.361-0.658,2.157-9.138,3.438-10.062
			c1.28-0.923,6.544,0.653,7.077,1.513c0.533,0.86-5.045,12.353-5.045,12.353l-2.033,13.683L322.603,218.914z"/>
		<g>
			<path style="fill:#407BFF;" d="M343.044,221.033c9.495,9.719-9.536,31.737-20.441,30.799
				c-10.905-0.938,0.272-40.863,0.272-40.863l6.983,1.149c0,0-2.45,17.278-1.678,18.634
				C328.954,232.107,339.853,217.766,343.044,221.033z"/>
			<path style="opacity:0.2;enable-background:new    ;" d="M343.044,221.033c9.495,9.719-9.536,31.737-20.441,30.799
				c-10.905-0.938,0.272-40.863,0.272-40.863l6.983,1.149c0,0-2.45,17.278-1.678,18.634
				C328.954,232.107,339.853,217.766,343.044,221.033z"/>
			<polygon style="fill:#407BFF;" points="322.301,209.692 321.267,212.989 330.997,213.848 330.997,210.969 			"/>
		</g>
		<g>
			<path style="opacity:0.6;fill:#FFFFFF;enable-background:new    ;" d="M307.558,244.824h-3.942c-0.437,0-0.791-0.354-0.791-0.791
				v-7.439c0-0.437,0.354-0.791,0.791-0.791h3.942c0.437,0,0.791,0.354,0.791,0.791v7.439
				C308.349,244.47,307.995,244.824,307.558,244.824z"/>
			<rect x="303.154" y="236.396" style="opacity:0.2;enable-background:new    ;" width="4.484" height="6.132"/>
			<rect x="305" y="233.626" style="fill:#263238;" width="0.989" height="3.614"/>
		</g>
		<path style="fill:#407BFF;" d="M223.705,389.168c1-0.46,2.075-0.733,3.174-0.806l0,0c0,0,3.798-2.236,7.562-10.92l4.233-0.025
			c1.465,0.017,2.765,0.947,3.252,2.329c0.07,0.188,0.11,0.386,0.12,0.586c-0.043,1.023-0.151,2.042-0.325,3.051
			c-0.381,3.166-2.475,9.959-2.475,9.959l-0.717-0.183l1.304-6.316c0.434-2.146-1.821-0.073-2.867,2.091
			c-1.046,2.164-2.65,4.342-7.325,3.273C224.193,390.932,221.997,390.148,223.705,389.168z"/>
		<path style="fill:#E4897B;" d="M235.207,375.166c0,0-5.285,11.061-8.329,13.195c0,0,4.08,2.433,8.329-2.982
			c5.494-7.003,6.838-5.047,6.838-5.047s-0.233-2.396-0.662-3.569C240.559,374.503,235.207,375.166,235.207,375.166z"/>
		<path style="fill:#407BFF;" d="M281.926,415.521c0.862-0.684,1.842-1.205,2.892-1.536l0,0c0,0,3.159-3.073,4.757-12.402
			l4.106-1.028c1.428-0.331,2.91,0.265,3.711,1.492c0.112,0.166,0.198,0.349,0.255,0.541c0.201,1.004,0.337,2.019,0.407,3.041
			c0.381,3.166-0.042,10.262-0.042,10.262l-0.74-0.007l-0.231-6.445c-0.088-2.188-1.787,0.361-2.29,2.711
			c-0.503,2.35-1.545,4.847-6.34,4.917C282.819,417.119,280.5,416.877,281.926,415.521z"/>
		<path style="fill:#E4897B;" d="M289.78,399.19c0,0-2.512,11.999-4.962,14.794c0,0,4.541,1.396,7.384-4.872
			c3.676-8.106,5.446-6.525,5.446-6.525s-0.794-2.273-1.489-3.311C294.821,397.277,289.78,399.19,289.78,399.19z"/>
	</g>
</g>
<g id="Speech_bubble">
	<g>
		<path style="fill:#407BFF;" d="M382.76,182.219h-34.916c-2.797,0-5.065-2.268-5.065-5.065v-14.941
			c0-2.797,2.268-5.065,5.065-5.065h34.916c2.797,0,5.065,2.268,5.065,5.065v14.941C387.825,179.951,385.557,182.219,382.76,182.219
			z"/>
		<polygon style="fill:#407BFF;" points="354.851,179.361 344.332,193.659 361.303,180.32 		"/>
		<g>
			<path style="fill:#FFFFFF;" d="M355.244,169.683c0,0.815-0.66,1.475-1.475,1.475c-0.815,0-1.475-0.661-1.475-1.475
				c0-0.815,0.66-1.475,1.475-1.475C354.583,168.208,355.244,168.868,355.244,169.683z"/>
			<path style="fill:#FFFFFF;" d="M362.933,169.683c0,0.815-0.661,1.475-1.475,1.475s-1.475-0.661-1.475-1.475
				c0-0.815,0.661-1.475,1.475-1.475S362.933,168.868,362.933,169.683z"/>
			<path style="fill:#FFFFFF;" d="M370.622,169.683c0,0.815-0.66,1.475-1.475,1.475c-0.815,0-1.475-0.661-1.475-1.475
				c0-0.815,0.661-1.475,1.475-1.475C369.962,168.208,370.622,168.868,370.622,169.683z"/>
			<path style="fill:#FFFFFF;" d="M378.311,169.683c0,0.815-0.661,1.475-1.475,1.475c-0.815,0-1.475-0.661-1.475-1.475
				c0-0.815,0.66-1.475,1.475-1.475C377.651,168.208,378.311,168.868,378.311,169.683z"/>
		</g>
	</g>
</g>
<g id="Bird">
	<g>
		<g>
			<path style="fill:#407BFF;" d="M242.431,162.505l-24.9-13.411c-0.673-0.363-0.925-1.202-0.562-1.876l7.941-14.745
				c0.363-0.673,1.202-0.925,1.876-0.563l24.9,13.411c0.673,0.363,0.925,1.202,0.563,1.876l-7.941,14.745
				C243.944,162.615,243.104,162.867,242.431,162.505z"/>
			<path style="opacity:0.7;fill:#FFFFFF;enable-background:new    ;" d="M242.431,162.505l-24.9-13.411
				c-0.673-0.363-0.925-1.202-0.562-1.876l7.941-14.745c0.363-0.673,1.202-0.925,1.876-0.563l24.9,13.411
				c0.673,0.363,0.925,1.202,0.563,1.876l-7.941,14.745C243.944,162.615,243.104,162.867,242.431,162.505z"/>
			<path style="opacity:0.2;enable-background:new    ;" d="M224.253,133.692l7.79,14.547c0.607,1.133,1.835,1.789,3.114,1.662
				l16.214-1.603l-16.505,2.43c-1.48,0.218-2.927-0.562-3.56-1.917L224.253,133.692z"/>
		</g>
		<g>
			<path style="fill:#407BFF;" d="M205.342,130.982c0.265-5.564,4.383-16.774,9.394-20.202c5.011-3.429,1.714,1.319,1.714,1.319
				s4.747-4.615,7.253-4.483c2.506,0.132,0,3.033,0,3.033s5.143-3.17,7.517-3.036c2.374,0.135,0,2.904,0,2.904
				s4.22-3.033,5.934-1.582c1.714,1.451-21.89,17.011-24.527,23.341C209.989,138.604,205.074,136.613,205.342,130.982z"/>
			<path style="opacity:0.4;fill:#FFFFFF;enable-background:new    ;" d="M205.342,130.982c0.265-5.564,4.383-16.774,9.394-20.202
				c5.011-3.429,1.714,1.319,1.714,1.319s4.747-4.615,7.253-4.483c2.506,0.132,0,3.033,0,3.033s5.143-3.17,7.517-3.036
				c2.374,0.135,0,2.904,0,2.904s4.22-3.033,5.934-1.582c1.714,1.451-21.89,17.011-24.527,23.341
				C209.989,138.604,205.074,136.613,205.342,130.982z"/>
		</g>
		<g>
			<path style="fill:#407BFF;" d="M225.615,130.161l3.153,2.019c0.227,0.145,0.109,0.497-0.16,0.476l-3.312-0.258l0.285,2.542
				c0.031,0.276-0.312,0.428-0.496,0.22l-1.91-2.163L225.615,130.161z"/>
			<path style="opacity:0.3;fill:#FFFFFF;enable-background:new    ;" d="M225.615,130.161l3.153,2.019
				c0.227,0.145,0.109,0.497-0.16,0.476l-3.312-0.258l0.285,2.542c0.031,0.276-0.312,0.428-0.496,0.22l-1.91-2.163L225.615,130.161z
				"/>
		</g>
		<g>
			<path style="fill:#407BFF;" d="M181.374,117.639c0,0,4.352-3.035,10.945-1.057c0,0,1.896,8.703,7.08,11.604
				c2.847,1.593,9.822,1.456,15.338-0.33c6.551-2.121,9.758-2.121,10.945,0.33c1.124,2.321-0.132,5.011-5.143,6.198
				s-8.967,9.89-18.066,10.022c-9.099,0.132-13.888-8.991-11.604-17.011C190.868,127.396,188.099,121.417,181.374,117.639z"/>
			<path style="opacity:0.5;fill:#FFFFFF;enable-background:new    ;" d="M181.374,117.639c0,0,4.352-3.035,10.945-1.057
				c0,0,1.896,8.703,7.08,11.604c2.847,1.593,9.822,1.456,15.338-0.33c6.551-2.121,9.758-2.121,10.945,0.33
				c1.124,2.321-0.132,5.011-5.143,6.198s-8.967,9.89-18.066,10.022c-9.099,0.132-13.888-8.991-11.604-17.011
				C190.868,127.396,188.099,121.417,181.374,117.639z"/>
		</g>
		<path style="fill:#263238;" d="M223.176,129.835c0,0.246-0.199,0.445-0.445,0.445c-0.246,0-0.445-0.199-0.445-0.445
			c0-0.246,0.199-0.445,0.445-0.445C222.977,129.39,223.176,129.589,223.176,129.835z"/>
		<path style="fill:#407BFF;" d="M200.361,137.159c-5.374,1.465-17.307,1.008-22.115-2.7c-4.808-3.708,0.725-2.038,0.725-2.038
			s-5.855-3.091-6.503-5.515c-0.648-2.424,2.885-0.936,2.885-0.936s-4.603-3.913-5.208-6.212c-0.605-2.299,2.762-0.896,2.762-0.896
			s-4.187-3.078-3.337-5.156c0.85-2.078,22.937,15.571,29.772,16.125C206.177,130.387,205.8,135.676,200.361,137.159z"/>
		<path style="opacity:0.4;fill:#FFFFFF;enable-background:new    ;" d="M200.361,137.159c-5.374,1.465-17.307,1.008-22.115-2.7
			c-4.808-3.708,0.725-2.038,0.725-2.038s-5.855-3.091-6.503-5.515c-0.648-2.424,2.885-0.936,2.885-0.936s-4.603-3.913-5.208-6.212
			c-0.605-2.299,2.762-0.896,2.762-0.896s-4.187-3.078-3.337-5.156c0.85-2.078,22.937,15.571,29.772,16.125
			C206.177,130.387,205.8,135.676,200.361,137.159z"/>
		<g>
			<g>
				<path style="fill:none;stroke:#407BFF;stroke-width:0.75;stroke-linecap:round;stroke-linejoin:round;" d="M165.163,112.459
					c-0.94-0.335-1.891-0.647-2.85-0.938"/>
				
					<path style="fill:none;stroke:#407BFF;stroke-width:0.75;stroke-linecap:round;stroke-linejoin:round;stroke-dasharray:6.0301,6.0301;" d="
					M156.467,110.03c-3.505-0.734-7.068-1.21-10.607-1.456c-9.723-0.677-24.965-1.64-30.921,8.049
					c-5.427,8.829,3.91,23.893,7.224,32.09c4.059,10.039,8.885,22.453,4.089,33.081c-9.856,21.839-52.046,10.499-66.278-9.615"/>
				<path style="fill:none;stroke:#407BFF;stroke-width:0.75;stroke-linecap:round;stroke-linejoin:round;" d="M58.356,169.639
					c-0.501-0.882-0.947-1.778-1.334-2.686"/>
			</g>
		</g>
	</g>
</g>
<g id="Desk">
	<g>
		<g>
			<rect x="141.85" y="249.042" style="fill:#FFFFFF;" width="37.958" height="7.785"/>
			<rect x="141.85" y="249.042" style="opacity:0.1;enable-background:new    ;" width="37.958" height="7.785"/>
			<rect x="141.85" y="249.042" style="opacity:0.1;enable-background:new    ;" width="15.987" height="7.785"/>
			<polygon style="opacity:0.1;enable-background:new    ;" points="141.85,250.163 175.639,250.163 141.85,251.119 			"/>
			<polygon style="opacity:0.1;enable-background:new    ;" points="179.808,251.515 150.518,252.24 179.808,252.24 			"/>
			<polygon style="opacity:0.1;enable-background:new    ;" points="143.397,253.691 157.837,253.097 179.067,253.691 
				157.837,254.02 			"/>
			<polygon style="opacity:0.1;enable-background:new    ;" points="141.85,255.339 166.87,255.339 141.85,255.932 			"/>
			<polygon style="opacity:0.1;enable-background:new    ;" points="179.754,255.932 163.045,256.242 179.808,256.242 			"/>
		</g>
		<g>
			<rect x="136.567" y="241.257" style="fill:#FFFFFF;" width="37.958" height="7.785"/>
			<rect x="136.567" y="241.257" style="opacity:0.1;enable-background:new    ;" width="37.958" height="7.785"/>
			<rect x="136.567" y="241.257" style="opacity:0.1;enable-background:new    ;" width="15.987" height="7.785"/>
			<polygon style="opacity:0.1;enable-background:new    ;" points="136.567,242.378 170.356,242.378 136.567,243.334 			"/>
			<polygon style="opacity:0.1;enable-background:new    ;" points="174.526,243.73 145.235,244.455 174.526,244.455 			"/>
			<polygon style="opacity:0.1;enable-background:new    ;" points="138.115,245.906 152.554,245.312 173.785,245.906 
				152.554,246.235 			"/>
			<polygon style="opacity:0.1;enable-background:new    ;" points="136.567,247.554 161.587,247.554 136.567,248.147 			"/>
			<polygon style="opacity:0.1;enable-background:new    ;" points="174.471,248.147 157.763,248.457 174.526,248.457 			"/>
		</g>
		<g>
			<rect x="140.901" y="233.472" style="fill:#FFFFFF;" width="37.958" height="7.785"/>
			<rect x="140.901" y="233.472" style="opacity:0.1;enable-background:new    ;" width="37.958" height="7.785"/>
			<rect x="140.901" y="233.472" style="opacity:0.1;enable-background:new    ;" width="15.987" height="7.785"/>
			<polygon style="opacity:0.1;enable-background:new    ;" points="140.901,234.593 174.69,234.593 140.901,235.549 			"/>
			<polygon style="opacity:0.1;enable-background:new    ;" points="178.86,235.945 149.569,236.67 178.86,236.67 			"/>
			<polygon style="opacity:0.1;enable-background:new    ;" points="142.449,238.12 156.888,237.527 178.119,238.12 156.888,238.45 
							"/>
			<polygon style="opacity:0.1;enable-background:new    ;" points="140.901,239.769 165.921,239.769 140.901,240.362 			"/>
			<polygon style="opacity:0.1;enable-background:new    ;" points="178.805,240.362 162.097,240.672 178.86,240.672 			"/>
		</g>
		<g>
			<polygon style="fill:#263238;" points="204.146,256.664 205.133,252.934 245.685,252.934 264.359,254.799 265.069,256.664 			"/>
			<polygon style="opacity:0.4;enable-background:new    ;" points="245.685,252.934 245.685,256.664 204.146,256.664 
				205.133,252.934 			"/>
		</g>
		<g>
			<path style="fill:#263238;" d="M237.538,235.079c0.18,1.97-1.26,3.57-3.22,3.57h-62.12c-1.97,0-3.71-1.6-3.89-3.57l-3.69-39.77
				c-0.04-0.41-0.01-0.8,0.08-1.16c0.35-1.4,1.58-2.41,3.14-2.41h62.12c1.97,0,3.71,1.6,3.89,3.57L237.538,235.079z"/>
			<path style="opacity:0.4;enable-background:new    ;" d="M234.099,238.649h-61.9c-1.97,0-3.71-1.6-3.89-3.57l-3.69-39.77
				c-0.04-0.41-0.01-0.8,0.08-1.16h61.9c1.96,0,3.7,1.6,3.89,3.57l3.69,39.77C234.219,237.899,234.188,238.289,234.099,238.649z"/>
			<polygon style="fill:#263238;" points="191.421,214.257 204.272,214.257 200.846,251.05 221.168,254.101 221.168,256.664 
				178.368,256.664 178.368,254.101 187.136,251.05 			"/>
			<polygon style="opacity:0.1;fill:#FFFFFF;enable-background:new    ;" points="204.272,214.257 194.751,256.079 187.136,255.853 
				191.421,214.257 			"/>
		</g>
		<g>
			<g>
				<polygon style="fill:#263238;" points="204.213,417.072 198.087,417.072 187.08,263.825 195.208,263.825 				"/>
				<polygon style="opacity:0.4;fill:#FFFFFF;enable-background:new    ;" points="204.217,417.072 198.087,417.072 
					187.617,271.437 187.077,264.072 195.207,264.072 195.647,271.437 				"/>
				<polygon style="opacity:0.2;enable-background:new    ;" points="195.647,271.072 187.617,271.072 187.077,264.072 
					195.207,264.072 				"/>
			</g>
			<g>
				<polygon style="fill:#263238;" points="249.172,417.072 243.046,417.072 242.046,263.825 250.173,263.825 				"/>
				<polygon style="opacity:0.5;fill:#FFFFFF;enable-background:new    ;" points="250.177,264.072 250.017,288.797 
					249.177,417.072 243.047,417.072 242.207,288.797 242.047,264.072 				"/>
				<polygon style="opacity:0.2;enable-background:new    ;" points="250.177,264.072 250.017,289.072 242.207,289.072 
					242.047,264.072 				"/>
			</g>
			<g>
				<polygon style="fill:#263238;" points="314.213,417.072 308.087,417.072 297.08,263.825 305.208,263.825 				"/>
				<polygon style="opacity:0.5;fill:#FFFFFF;enable-background:new    ;" points="314.217,417.072 308.087,417.072 
					297.617,271.437 297.077,264.072 305.207,264.072 305.647,271.437 				"/>
				<polygon style="opacity:0.2;enable-background:new    ;" points="305.647,271.072 297.617,271.072 297.077,264.072 
					305.207,264.072 				"/>
			</g>
			<g>
				<polygon style="fill:#263238;" points="134.132,417.072 128.005,417.072 137.011,263.825 145.138,263.825 				"/>
				<polygon style="opacity:0.5;fill:#FFFFFF;enable-background:new    ;" points="145.137,264.072 144.597,271.437 
					134.127,417.072 128.007,417.072 136.567,271.437 137.007,264.072 				"/>
				<polygon style="opacity:0.2;enable-background:new    ;" points="137.007,264.072 145.137,264.072 144.597,271.072 
					136.567,271.072 				"/>
			</g>
			<g>
				<path style="fill:#407BFF;" d="M309.488,267.663H132.731c-1.194,0-2.162-0.968-2.162-2.162v-5.514H311.65v5.513
					C311.65,266.695,310.682,267.663,309.488,267.663z"/>
				<path style="opacity:0.6;fill:#FFFFFF;enable-background:new    ;" d="M309.488,267.663H132.731
					c-1.194,0-2.162-0.968-2.162-2.162v-5.514H311.65v5.513C311.65,266.695,310.682,267.663,309.488,267.663z"/>
			</g>
			<rect x="130.569" y="259.987" style="opacity:0.2;enable-background:new    ;" width="181.081" height="3.838"/>
			<g>
				<path style="fill:#407BFF;" d="M315.447,260.988H126.772c-1.194,0-2.162-0.968-2.162-2.162l0,0c0-1.194,0.968-2.162,2.162-2.162
					h188.676c1.194,0,2.162,0.968,2.162,2.162l0,0C317.609,260.02,316.641,260.988,315.447,260.988z"/>
				<path style="opacity:0.6;fill:#FFFFFF;enable-background:new    ;" d="M315.447,260.988H126.772
					c-1.194,0-2.162-0.968-2.162-2.162l0,0c0-1.194,0.968-2.162,2.162-2.162h188.676c1.194,0,2.162,0.968,2.162,2.162l0,0
					C317.609,260.02,316.641,260.988,315.447,260.988z"/>
			</g>
		</g>
		<g>
			<path style="fill:#407BFF;" d="M270.806,250.003l2.324-3.479c0.463-0.694,1.242-1.11,2.077-1.11h2.943
				c0.245,0,0.49,0.036,0.724,0.107l10.488,3.179c0.596,0.181,1.104,0.578,1.422,1.113l1.505,2.53L270.806,250.003z"/>
			<path style="opacity:0.2;enable-background:new    ;" d="M292.289,252.344l-15.27-1.66l-6.21-0.68l2.32-3.48
				c0.46-0.69,1.24-1.11,2.08-1.11h2.94c0.25,0,0.49,0.04,0.73,0.11l0.23,0.07l10.25,3.11c0.6,0.18,1.11,0.57,1.43,1.11
				L292.289,252.344z"/>
			<path style="opacity:0.2;enable-background:new    ;" d="M292.289,252.344l-15.27-1.66l2.09-5.09l10.25,3.11
				c0.6,0.18,1.11,0.57,1.43,1.11L292.289,252.344z"/>
			<path style="fill:#407BFF;" d="M299.548,256.333v0.33h-13.31h-19.11l1.2-4.69c0.47-1.76,2.07-2.99,3.89-2.99h14.38
				c0.48,0,0.95,0.08,1.4,0.25l1.8,0.67l7.14,2.66C298.509,253.154,299.548,254.654,299.548,256.333z"/>
			<path style="opacity:0.2;enable-background:new    ;" d="M299.548,256.333v0.33h-13.31l0,0l0.71-5.07
				c0.19-1.34,1.58-2.16,2.85-1.69l7.14,2.66C298.509,253.154,299.548,254.654,299.548,256.333z"/>
			<path style="fill:#263238;" d="M288.311,253.217l4.234-12.708c0.183-0.549,0.812-0.804,1.326-0.539l0,0
				c0.392,0.202,0.591,0.65,0.479,1.076l-3.566,13.567C290.784,254.613,288.41,255.573,288.311,253.217z"/>
			<polygon style="opacity:0.2;enable-background:new    ;" points="270.806,255.608 268.927,255.608 269.289,253.762 
				271.168,253.762 			"/>
			<polygon style="opacity:0.2;enable-background:new    ;" points="273.608,255.536 271.729,255.536 272.091,253.69 
				273.971,253.69 			"/>
		</g>
	</g>
</g>
</svg>
