<?xml version="1.0" encoding="utf-8"?>
<!-- Generator: Adobe Illustrator 27.5.0, SVG Export Plug-In . SVG Version: 6.00 Build 0)  -->
<svg version="1.1" xmlns="http://www.w3.org/2000/svg" xmlns:xlink="http://www.w3.org/1999/xlink" x="0px" y="0px"
	 viewBox="0 0 500 500" style="enable-background:new 0 0 500 500;" xml:space="preserve">
<g id="Background_Complete">
	<g>
		<g>
			<path style="fill:#EBEBEB;" d="M426.269,139.259c0,0-7.248-5.573-17.821,11.961c-10.572,17.534-14.835,27.777-14.835,27.777
				s-2.723,3.638-5.164,0.959c-2.441-2.679-5.523-10.004-10.065-9.049c-4.711,0.991-6.599,6.034-6.259,13.668
				s0.471,24.386,0.477,25.901c0.006,1.487-0.997,3.606-2.952,2.047c-1.955-1.558-12.843-15.575-19.185-10.01
				c-6.342,5.564-1.9,26.675-1.459,28.992c0.441,2.317-0.073,3.257-1.193,3.742c-1.121,0.486-4.336-4.571-7.596-8.43
				c-3.26-3.86-7.717-7.764-11.107-4.247c-3.39,3.517-5.497,18.969,7.477,45.237l6.808,11.778l13.663,0.216
				c29.268-1.319,41.783-10.624,43.226-15.291c1.444-4.667-4.127-6.685-9.081-7.677c-4.954-0.992-10.934-1.367-11.05-2.583
				c-0.116-1.216,0.459-2.12,2.701-2.852c2.242-0.732,22.874-7.034,24.686-15.274c1.812-8.24-15.719-11.009-18.028-11.969
				c-2.309-0.96-0.937-2.861,0.368-3.574c1.329-0.726,16.064-8.698,22.913-12.086c6.849-3.387,10.355-7.476,8.948-12.079
				c-1.356-4.439-9.259-3.602-12.784-4.446c-3.524-0.845-1.653-4.986-1.653-4.986s6.913-8.678,17.165-26.401
				c10.252-17.723,1.643-21.431,1.643-21.431"/>
		</g>
		<g>
			<g>
				<path style="fill:#E0E0E0;" d="M416.774,154.946c0,0-0.06,0.133-0.196,0.382c-0.146,0.262-0.35,0.628-0.613,1.1
					c-0.556,0.978-1.36,2.394-2.392,4.21c-2.081,3.654-5.131,8.919-8.923,15.411c-7.58,12.987-18.202,30.838-29.996,50.516
					c-11.798,19.684-22.461,37.512-30.106,50.459c-3.809,6.466-6.895,11.704-9.038,15.341c-1.061,1.798-1.889,3.201-2.46,4.169
					c-0.278,0.463-0.494,0.821-0.649,1.079c-0.148,0.242-0.234,0.36-0.234,0.36s0.06-0.133,0.196-0.382
					c0.146-0.263,0.35-0.628,0.613-1.1c0.556-0.978,1.36-2.393,2.392-4.209c2.081-3.653,5.13-8.918,8.923-15.41
					c7.58-12.987,18.203-30.84,30.002-50.525c11.794-19.678,22.456-37.503,30.101-50.45c3.81-6.466,6.895-11.704,9.039-15.342
					c1.061-1.799,1.889-3.201,2.461-4.17c0.278-0.463,0.494-0.822,0.649-1.079C416.688,155.064,416.774,154.946,416.774,154.946z"/>
			</g>
		</g>
		<g>
			<g>
				<path style="fill:#E0E0E0;" d="M382.283,181.328c0.029-0.006,0.125,0.331,0.276,0.945c0.154,0.614,0.35,1.507,0.582,2.613
					c0.46,2.214,1.017,5.287,1.571,8.689c0.533,3.357,1.016,6.393,1.385,8.715c0.173,1.046,0.319,1.928,0.436,2.637
					c0.106,0.622,0.151,0.97,0.122,0.976c-0.028,0.006-0.128-0.329-0.284-0.943c-0.152-0.614-0.349-1.508-0.569-2.617
					c-0.438-2.219-0.955-5.298-1.508-8.7c-0.557-3.351-1.062-6.383-1.447-8.702c-0.178-1.045-0.329-1.927-0.45-2.636
					C382.297,181.682,382.254,181.334,382.283,181.328z"/>
			</g>
		</g>
		<g>
			<g>
				<path style="fill:#E0E0E0;" d="M387.885,206.234c-0.024-0.114,6.261-1.542,14.037-3.188c7.778-1.647,14.102-2.889,14.126-2.775
					c0.024,0.114-6.26,1.542-14.038,3.189C394.233,205.105,387.909,206.348,387.885,206.234z"/>
			</g>
		</g>
		<g>
			<g>
				<path style="fill:#E0E0E0;" d="M368.407,235.641c0.003-0.029,0.361-0.019,1.005,0.025c0.73,0.055,1.641,0.123,2.723,0.204
					c2.298,0.169,5.474,0.388,8.986,0.502c3.513,0.122,6.696,0.122,9,0.103c1.085-0.008,1.998-0.014,2.73-0.02
					c0.645-0.001,1.003,0.012,1.004,0.041c0.001,0.029-0.354,0.072-0.997,0.123c-0.644,0.051-1.576,0.109-2.729,0.154
					c-2.306,0.095-5.499,0.143-9.022,0.021c-3.522-0.114-6.703-0.382-8.999-0.627c-1.147-0.127-2.074-0.241-2.713-0.338
					C368.755,235.735,368.404,235.669,368.407,235.641z"/>
			</g>
		</g>
		<g>
			<g>
				<path style="fill:#E0E0E0;" d="M358.382,214.229c0.026-0.013,0.195,0.272,0.477,0.797c0.315,0.61,0.703,1.359,1.16,2.242
					c0.963,1.902,2.266,4.541,3.682,7.467c1.417,2.927,2.678,5.588,3.571,7.522c0.409,0.907,0.756,1.675,1.039,2.301
					c0.237,0.547,0.355,0.856,0.329,0.869c-0.026,0.013-0.195-0.272-0.477-0.797c-0.315-0.61-0.703-1.359-1.16-2.242
					c-0.963-1.901-2.266-4.541-3.683-7.469c-1.416-2.926-2.677-5.587-3.571-7.521c-0.409-0.907-0.756-1.675-1.039-2.301
					C358.474,214.55,358.355,214.241,358.382,214.229z"/>
			</g>
		</g>
		<g>
			<g>
				<path style="fill:#E0E0E0;" d="M337.888,238.004c0.026-0.013,0.239,0.353,0.6,1.026c0.39,0.747,0.893,1.711,1.497,2.868
					c1.247,2.43,2.944,5.8,4.795,9.533c1.851,3.735,3.506,7.126,4.685,9.59c0.555,1.181,1.018,2.165,1.376,2.928
					c0.317,0.695,0.479,1.086,0.453,1.099c-0.026,0.013-0.238-0.353-0.6-1.026c-0.39-0.747-0.893-1.711-1.497-2.868
					c-1.247-2.43-2.944-5.8-4.796-9.535c-1.851-3.733-3.505-7.124-4.684-9.588c-0.555-1.181-1.018-2.165-1.376-2.928
					C338.025,238.408,337.862,238.017,337.888,238.004z"/>
			</g>
		</g>
		<g>
			<g>
				<path style="fill:#E0E0E0;" d="M351.156,264.311c0.002-0.029,0.455-0.028,1.273,0c0.893,0.035,2.058,0.08,3.461,0.134
					c2.922,0.11,6.959,0.246,11.419,0.271c4.462,0.031,8.5-0.047,11.423-0.124c1.404-0.036,2.569-0.066,3.462-0.088
					c0.818-0.018,1.271-0.014,1.273,0.015c0.002,0.029-0.449,0.081-1.264,0.149c-0.816,0.068-1.998,0.148-3.46,0.223
					c-2.923,0.153-6.968,0.279-11.438,0.248c-4.468-0.024-8.51-0.208-11.431-0.395c-1.46-0.097-2.642-0.187-3.456-0.268
					C351.604,264.397,351.154,264.34,351.156,264.311z"/>
			</g>
		</g>
	</g>
	<g>
		<g>
			
				<rect x="58.265" y="172.789" transform="matrix(1 -0.0054 0.0054 1 -1.6096 0.3319)" style="fill:#E0E0E0;" width="5.748" height="255.519"/>
		</g>
		<g>
			
				<rect x="72.031" y="172.715" transform="matrix(1 -0.0054 0.0054 1 -1.609 0.4057)" style="fill:#E0E0E0;" width="5.748" height="255.519"/>
		</g>
		<g>
			
				<rect x="192.3" y="172.071" transform="matrix(1 -0.0054 0.0054 1 -1.6038 1.0501)" style="fill:#E0E0E0;" width="5.748" height="255.519"/>
		</g>
		<g>
			
				<rect x="206.066" y="171.997" transform="matrix(1 -0.0053 0.0053 1 -1.598 1.1202)" style="fill:#E0E0E0;" width="5.748" height="255.519"/>
		</g>
		<g>
			
				<rect x="57.595" y="172.395" transform="matrix(1 -0.0054 0.0054 1 -0.9372 0.7224)" style="fill:#E0E0E0;" width="153.551" height="5.831"/>
		</g>
		<g>
			
				<rect x="57.865" y="224.854" transform="matrix(1 -0.0054 0.0054 1 -1.2073 0.7245)" style="fill:#E0E0E0;" width="153.551" height="1.741"/>
		</g>
		<g>
			
				<rect x="58.13" y="274.299" transform="matrix(1 -0.0054 0.0054 1 -1.4722 0.7267)" style="fill:#E0E0E0;" width="153.551" height="1.742"/>
		</g>
		<g>
			
				<rect x="58.395" y="323.744" transform="matrix(1 -0.0054 0.0054 1 -1.7371 0.7288)" style="fill:#E0E0E0;" width="153.551" height="1.742"/>
		</g>
		<g>
			
				<rect x="58.66" y="373.189" transform="matrix(1 -0.0054 0.0054 1 -2.002 0.7309)" style="fill:#E0E0E0;" width="153.551" height="1.741"/>
		</g>
		<g>
			<g>
				
					<rect x="120.914" y="344.339" transform="matrix(1 -0.0054 0.0054 1 -1.9197 0.7257)" style="fill:#EBEBEB;" width="27.201" height="28.855"/>
			</g>
			<g>
				
					<rect x="147.987" y="344.194" transform="matrix(1 -0.0054 0.0054 1 -1.9199 0.8713)" style="fill:#F5F5F5;" width="27.202" height="28.855"/>
			</g>
			<g>
				<g>
					<path style="fill:#E0E0E0;" d="M120.88,352.314c18.074,0.178,36.201,0.028,54.274-0.261c0.272-0.004,0.271-0.422-0.002-0.424
						c-18.074-0.095-36.203-0.051-54.273,0.321C120.644,351.956,120.646,352.312,120.88,352.314L120.88,352.314z"/>
				</g>
			</g>
		</g>
		<g>
			<g>
				
					<rect x="120.312" y="235.701" transform="matrix(1 -0.0054 0.0054 1 -1.3171 0.7012)" style="fill:#EBEBEB;" width="19.923" height="21.134"/>
			</g>
			<g>
				
					<rect x="140.14" y="235.595" transform="matrix(1 -0.0054 0.0054 1 -1.3162 0.8074)" style="fill:#F5F5F5;" width="19.923" height="21.134"/>
			</g>
			<g>
				<g>
					<path style="fill:#E0E0E0;" d="M120.286,241.591c13.24,0.109,26.512,0.032,39.751-0.183c0.272-0.004,0.271-0.422-0.002-0.423
						c-13.24-0.073-26.513-0.008-39.751,0.243C120.051,241.232,120.052,241.589,120.286,241.591L120.286,241.591z"/>
				</g>
			</g>
		</g>
		<g>
			<g>
				
					<rect x="107.88" y="256.526" transform="matrix(1 -0.0054 0.0054 1 -1.4185 0.6787)" style="fill:#EBEBEB;" width="36.197" height="17.223"/>
			</g>
			<g>
				
					<rect x="143.904" y="256.333" transform="matrix(1 -0.0054 0.0054 1 -1.4169 0.8716)" style="fill:#F5F5F5;" width="36.197" height="17.223"/>
			</g>
			<g>
				<g>
					<path style="fill:#E0E0E0;" d="M107.859,261.413c24.046,0.272,48.176,0.028,72.221-0.357c0.272-0.004,0.271-0.422-0.002-0.423
						c-24.048-0.127-48.179-0.113-72.221,0.417C107.624,261.055,107.626,261.41,107.859,261.413L107.859,261.413z"/>
				</g>
			</g>
		</g>
		<g>
			
				<rect x="108.915" y="189.607" transform="matrix(1 -0.0054 0.0054 1 -1.109 0.6107)" style="fill:#EBEBEB;" width="9.092" height="35.452"/>
		</g>
		<g>
			
				<rect x="99.672" y="199.241" transform="matrix(1 -0.0054 0.0054 1 -1.1348 0.5613)" style="fill:#E0E0E0;" width="9.092" height="25.776"/>
		</g>
		<g>
			
				<rect x="118.138" y="196.186" transform="matrix(1 -0.0054 0.0054 1 -1.1265 0.6739)" style="fill:#E0E0E0;" width="14.127" height="28.73"/>
		</g>
		<g>
			
				<rect x="132.052" y="196.137" transform="matrix(1 -0.0053 0.0053 1 -1.1238 0.7212)" style="fill:#EBEBEB;" width="4.488" height="28.73"/>
		</g>
		<g>
			
				<rect x="136.557" y="202.752" transform="matrix(1 -0.0054 0.0054 1 -1.1461 0.7485)" style="fill:#E0E0E0;" width="4.488" height="22.091"/>
		</g>
		<g>
			<g>
				
					<rect x="100.935" y="290.432" transform="matrix(0.9252 0.3794 -0.3794 0.9252 124.3716 -17.0625)" style="fill:#E0E0E0;" width="9.092" height="33.239"/>
			</g>
			<g>
				
					<rect x="114.867" y="288.591" transform="matrix(1 -0.0054 0.0054 1 -1.6391 0.644)" style="fill:#EBEBEB;" width="9.092" height="35.452"/>
			</g>
			<g>
				
					<rect x="128.636" y="295.146" transform="matrix(1 -0.0054 0.0054 1 -1.6566 0.7316)" style="fill:#E0E0E0;" width="14.127" height="28.73"/>
			</g>
			<g>
				
					<rect x="125.517" y="284.548" transform="matrix(1 -0.0054 0.0054 1 -1.6322 0.6868)" style="fill:#EBEBEB;" width="3.091" height="39.374"/>
			</g>
			<g>
				
					<rect x="123.988" y="290.695" transform="matrix(1 -0.0054 0.0054 1 -1.6487 0.6745)" style="fill:#F5F5F5;" width="1.545" height="33.239"/>
			</g>
			<g>
				
					<rect x="158.828" y="306.436" transform="matrix(-0.0054 -1 1 -0.0054 -162.5919 484.3899)" style="fill:#F5F5F5;" width="1.545" height="33.239"/>
			</g>
			<g>
				
					<rect x="142.807" y="313.084" transform="matrix(1 -0.0054 0.0054 1 -1.6996 0.8667)" style="fill:#EBEBEB;" width="36.232" height="9.191"/>
			</g>
			<g>
				
					<rect x="142.757" y="303.843" transform="matrix(1 -0.0054 0.0054 1 -1.6504 0.8473)" style="fill:#E0E0E0;" width="29.096" height="9.191"/>
			</g>
		</g>
	</g>
	<g>
		<g>
			<g>
				<path style="fill:#E0E0E0;" d="M249.929,42.995c1.287-6.109,0.515-13.063,0.578-19.289c0.063-6.229,0.864-13.164-0.247-19.305
					c-0.147-0.813-1.494-0.812-1.642,0c-1.122,6.151-0.456,13.056-0.521,19.305c-0.064,6.208-0.971,13.188,0.304,19.289
					C248.559,43.751,249.77,43.75,249.929,42.995L249.929,42.995z"/>
			</g>
		</g>
		<g>
			<path style="fill:#F5F5F5;" d="M194.938,91.45h110.125c0,0-10.168-48.666-55.897-48.666
				C208.491,42.784,194.938,91.45,194.938,91.45z"/>
		</g>
	</g>
</g>
<g id="Background_Simple" style="display:none;">
	<path style="display:inline;fill:#EBEBEB;" d="M405.866,121.758c24.503,48.824,16.753,110.453-13.873,155.688
		s-81.576,74.523-135.153,85.188c-38.245,7.613-79.388,6.063-114.333-11.243s-62.423-52.123-64.518-91.062
		c-0.791-14.708,2.328-30.325,12.143-41.308c15.672-17.536,42.426-18.153,65.934-17.429c23.507,0.724,50.244,0.175,65.992-17.292
		c12.101-13.421,13.882-32.889,20.259-49.797c10.842-28.75,37-51.199,67.063-57.553c4.175-0.883,8.407-1.451,12.658-1.716
		c33.064-2.065,64.425,14.95,81.771,43.175L405.866,121.758z"/>
</g>
<g id="Floor">
	<g>
		<g>
			<path style="fill:#263238;" d="M478.439,428.367c0,0.144-101.341,0.26-226.323,0.26c-125.025,0-226.344-0.117-226.344-0.26
				s101.319-0.26,226.344-0.26C377.098,428.106,478.439,428.223,478.439,428.367z"/>
		</g>
	</g>
</g>
<g id="Device">
	<g>
		<g>
			<g>
				<g>
					<path style="fill:#455A64;" d="M332.269,428.039H167.731c-6.378,0-11.549-5.171-11.549-11.549V149.966
						c0-6.379,5.171-11.549,11.549-11.549h164.539c6.379,0,11.549,5.171,11.549,11.549V416.49
						C343.819,422.869,338.648,428.039,332.269,428.039z"/>
				</g>
			</g>
			<g>
				<g>
					<path style="fill:#263238;" d="M255.75,414.573c0,4.277-3.223,7.744-7.2,7.744c-3.976,0-7.2-3.467-7.2-7.744
						c0-4.277,3.223-7.744,7.2-7.744C252.526,406.829,255.75,410.296,255.75,414.573z"/>
				</g>
			</g>
			<g>
				<g>
					<path style="fill:#263238;" d="M277.042,149.958h-54.083c-0.671,0-1.215-0.544-1.215-1.215v-0.769
						c0-0.671,0.544-1.215,1.215-1.215h54.083c0.671,0,1.215,0.544,1.215,1.215v0.769
						C278.257,149.413,277.713,149.958,277.042,149.958z"/>
				</g>
			</g>
		</g>
		<g>
			<rect x="162.58" y="155.037" style="fill:#263238;" width="175.803" height="244.35"/>
		</g>
		<g>
			<g>
				<g>
					<path style="fill:#FFFFFF;" d="M292.743,374.171c0,0,0.22-0.029,0.647-0.059c0.43-0.007,1.059-0.103,1.88-0.247
						c0.807-0.2,1.813-0.46,2.902-1.01c1.093-0.525,2.296-1.288,3.411-2.408c1.117-1.108,2.169-2.56,2.856-4.353
						c0.703-1.784,1.012-3.886,0.814-6.121c-0.211-2.214-1.027-4.56-2.596-6.55c-1.538-2.001-3.82-3.632-6.525-4.381
						c-0.673-0.2-1.374-0.306-2.084-0.404c-0.715-0.041-1.437-0.079-2.186-0.064c-1.488,0.003-3.008,0.005-4.56,0.008
						c-3.103,0.005-6.332,0.01-9.674,0.015c-6.686,0.008-13.829,0.016-21.345,0.024c-15.035,0.006-31.562,0.013-48.91,0.02
						c-2.124,0.022-4.233,0.554-6.066,1.578c-1.814,1.044-3.404,2.493-4.481,4.264c-1.1,1.751-1.766,3.761-1.873,5.799
						c-0.141,2.047,0.145,4.087,0.907,5.947c0.772,1.851,1.998,3.481,3.49,4.761c1.504,1.272,3.304,2.146,5.177,2.593
						c1.87,0.484,3.826,0.305,5.756,0.341c1.925,0.002,3.828,0.003,5.707,0.005c15.032,0.021,28.57,0.04,39.946,0.056
						c11.358,0.035,20.554,0.063,26.931,0.083c3.165,0.021,5.63,0.038,7.322,0.049c0.824,0.011,1.457,0.02,1.904,0.026
						C292.524,374.153,292.743,374.171,292.743,374.171s-0.22,0.018-0.649,0.027c-0.447,0.006-1.08,0.015-1.904,0.026
						c-1.693,0.011-4.155,0.028-7.322,0.049c-6.376,0.02-15.573,0.048-26.931,0.083c-11.376,0.016-24.914,0.035-39.946,0.056
						c-1.88,0.002-3.782,0.003-5.707,0.005c-0.963,0.001-1.93,0.001-2.904,0.002c-0.494-0.029-0.994-0.034-1.489-0.089
						c-0.49-0.09-0.995-0.116-1.477-0.26c-1.949-0.462-3.823-1.371-5.389-2.692c-1.555-1.329-2.831-3.024-3.637-4.951
						c-0.797-1.93-1.095-4.076-0.95-6.176c0.111-2.122,0.803-4.217,1.948-6.042c1.122-1.845,2.775-3.356,4.666-4.443
						c1.909-1.068,4.108-1.623,6.319-1.645c17.348,0.007,33.875,0.014,48.91,0.02c7.516,0.008,14.659,0.017,21.345,0.024
						c3.342,0.005,6.571,0.01,9.674,0.015c1.552,0.003,3.072,0.005,4.56,0.008c0.74-0.013,1.488,0.028,2.225,0.075
						c0.732,0.103,1.452,0.216,2.145,0.424c2.783,0.783,5.119,2.471,6.687,4.533c1.601,2.05,2.423,4.461,2.624,6.727
						c0.188,2.27-0.143,4.427-0.873,6.238c-0.715,1.823-1.799,3.291-2.944,4.406c-1.144,1.127-2.374,1.887-3.487,2.404
						c-1.109,0.543-2.13,0.789-2.947,0.974c-0.832,0.129-1.466,0.207-1.898,0.197C292.963,374.178,292.743,374.171,292.743,374.171z
						"/>
				</g>
			</g>
			<g>
				<path style="fill:#FFFFFF;" d="M227.934,359.583l-0.621,0.774c-0.46-0.495-1.117-0.802-1.756-0.802
					c-1.261,0-2.251,0.973-2.251,2.215c0,1.242,0.99,2.224,2.251,2.224c0.63,0,1.278-0.288,1.756-0.747l0.63,0.702
					c-0.64,0.63-1.549,1.035-2.439,1.035c-1.846,0-3.277-1.396-3.277-3.205c0-1.791,1.449-3.169,3.313-3.169
					C226.43,358.611,227.322,358.98,227.934,359.583z"/>
				<path style="fill:#FFFFFF;" d="M235.045,361.788c0,1.801-1.459,3.196-3.34,3.196c-1.882,0-3.341-1.396-3.341-3.196
					c0-1.81,1.459-3.178,3.341-3.178C233.586,358.611,235.045,359.989,235.045,361.788z M229.445,361.788
					c0,1.252,1.035,2.242,2.268,2.242c1.233,0,2.241-0.99,2.241-2.242c0-1.251-1.008-2.224-2.241-2.224
					C230.471,359.565,229.445,360.537,229.445,361.788z"/>
				<path style="fill:#FFFFFF;" d="M240.597,364.94l-3.358-4.52v4.52h-1.063v-6.302h1.044l3.377,4.528v-4.528h1.044v6.302H240.597z"
					/>
				<path style="fill:#FFFFFF;" d="M244.367,359.592v1.818h2.863v0.945h-2.863v2.584h-1.063v-6.302h4.232l-0.009,0.954H244.367z"/>
				<path style="fill:#FFFFFF;" d="M248.479,364.94v-6.302h1.063v6.302H248.479z"/>
				<path style="fill:#FFFFFF;" d="M254.042,363.032c-0.09,0.009-0.188,0.009-0.288,0.009h-1.494v1.899h-1.063v-6.302h2.557
					c1.611,0,2.539,0.783,2.539,2.151c0,1.009-0.468,1.72-1.306,2.044l1.414,2.106h-1.207L254.042,363.032z M253.754,362.086
					c0.973,0,1.53-0.414,1.53-1.27c0-0.828-0.558-1.225-1.53-1.225h-1.494v2.494H253.754z"/>
				<path style="fill:#FFFFFF;" d="M263.384,364.94l-0.009-4.708l-1.989,4.051h-0.693l-1.99-4.051v4.708h-0.999v-6.302h1.261
					l2.079,4.186l2.071-4.186h1.251v6.302H263.384z"/>
				<path style="fill:#FFFFFF;" d="M267.091,359.592v1.701h3.079v0.955h-3.079v1.737h3.547v0.954h-4.609v-6.302h4.502v0.954H267.091
					z"/>
				<path style="fill:#FFFFFF;" d="M274.517,358.638c1.891,0,3.259,1.323,3.259,3.15c0,1.819-1.377,3.151-3.286,3.151h-2.557v-6.302
					H274.517z M272.996,363.986h1.549c1.224,0,2.16-0.909,2.16-2.188c0-1.288-0.963-2.206-2.206-2.206h-1.503V363.986z"/>
			</g>
		</g>
	</g>
</g>
<g id="Envelope">
	<g>
		<g>
			<g>
				<g>
					<g>
						<g>
							<polygon style="fill:#E8505B;" points="182.551,240.225 315.711,239.258 319.422,329.79 181.54,328.512 							"/>
						</g>
					</g>
					<g>
						<g>
							<polyline style="fill:#E8505B;" points="182.551,240.225 250.154,185.523 315.711,239.258 							"/>
						</g>
					</g>
					<g style="opacity:0.3;">
						<g>
							<polyline points="182.551,240.225 250.154,185.523 315.711,239.258 							"/>
						</g>
					</g>
					<g>
						<g>
							<g>
								<path style="fill:#263238;" d="M181.54,328.512c-0.166-0.156,10.494-11.795,23.808-25.994
									c13.318-14.204,24.245-25.588,24.411-25.432c0.166,0.156-10.492,11.793-23.81,25.996
									C192.636,317.281,181.707,328.668,181.54,328.512z"/>
							</g>
						</g>
					</g>
					<g>
						<g>
							<g>
								<path style="fill:#263238;" d="M319.422,329.79c-0.17,0.151-10.552-11.253-23.185-25.469
									c-12.638-14.221-22.741-25.868-22.571-26.019c0.17-0.151,10.55,11.251,23.187,25.471
									C309.487,317.99,319.593,329.639,319.422,329.79z"/>
							</g>
						</g>
					</g>
					<g style="opacity:0.5;">
						<g>
							<polyline points="315.711,239.258 248.845,292.674 182.551,240.225 							"/>
						</g>
					</g>
				</g>
				<g>
					<g>
						<polygon style="fill:#EBEBEB;" points="189.257,245.172 189.063,206.436 305.689,203.583 306.962,245.963 248.838,291.975 
													"/>
					</g>
				</g>
			</g>
		</g>
		<g>
			<g>
				<path style="fill:#E8505B;" d="M250.466,278.059c-1.102,0-2.212-0.063-3.324-0.189c-7.701-0.872-14.601-4.691-19.428-10.754
					c-4.828-6.061-7.006-13.641-6.134-21.341c1.801-15.897,16.2-27.368,32.096-25.562c7.7,0.872,14.6,4.691,19.428,10.753
					c4.828,6.062,7.006,13.641,6.134,21.342l0,0c-0.872,7.7-4.691,14.6-10.754,19.428C263.297,275.867,257,278.059,250.466,278.059z
					 M250.389,221.027c-14.047,0-26.196,10.579-27.815,24.861c-0.842,7.435,1.261,14.753,5.923,20.607
					c4.662,5.852,11.323,9.54,18.758,10.382c7.433,0.847,14.753-1.261,20.607-5.922c5.852-4.662,9.54-11.323,10.382-18.759l0,0
					c0.843-7.435-1.26-14.753-5.922-20.606c-4.661-5.853-11.323-9.54-18.759-10.383
					C252.498,221.086,251.437,221.027,250.389,221.027z"/>
			</g>
			<g>
				<g>
					<polygon style="fill:#E8505B;" points="230.689,253.071 235.537,247.129 246.88,255.323 265.312,233.598 270.869,238.485 
						247.164,265.806 					"/>
				</g>
			</g>
		</g>
	</g>
</g>
<g id="Character">
	<g>
		<g>
			<path style="fill:#263238;" d="M375.928,292.339c0.096,0.746,1.119,1.096,1.767,0.715s0.895-1.23,0.786-1.974
				c-0.109-0.744-0.505-1.41-0.892-2.055c1.167,0.659,2.867-0.055,3.214-1.348c0.348-1.294-0.766-2.763-2.106-2.778
				c0.937-0.193,1.897-0.465,2.619-1.092c0.722-0.628,1.137-1.7,0.744-2.572c-0.393-0.872-1.754-1.208-2.35-0.46
				c0.494-0.323,1.003-0.659,1.329-1.151c0.326-0.492,0.424-1.186,0.073-1.661c-0.406-0.549-1.237-0.592-1.875-0.346
				s-1.165,0.71-1.764,1.038c-1.427,0.78-3.28,0.71-4.644-0.176l-3.733,3.086L375.928,292.339z"/>
		</g>
		<g>
			<path style="fill:#263238;" d="M355.991,275.414c-2.076,0.642-3.676,2.605-3.886,4.767c-0.077,0.791,0.039,1.649,0.556,2.253
				c0.619,0.725,1.695,0.923,2.627,0.718s1.749-0.749,2.517-1.314c1.082-0.796,2.196-1.793,2.352-3.128
				c0.153-1.309-0.75-2.604-1.96-3.125c-1.21-0.522-2.64-0.355-3.828,0.216"/>
		</g>
		<g>
			<path style="fill:#263238;" d="M359.234,293.882c-0.387,1.307-0.848,2.617-1.654,3.716c-0.806,1.099-2.011,1.971-3.368,2.095
				s-2.826-0.65-3.246-1.946c-0.226,0.776-0.868,1.436-1.658,1.607c-0.79,0.171-1.688-0.202-2.059-0.919
				c-0.372-0.717-0.119-1.717,0.586-2.112c-0.802,0.452-1.8,0.908-2.594,0.441c-0.344-0.203-0.582-0.556-0.704-0.936
				c-0.404-1.256,0.378-2.574,1.241-3.572c0.863-0.998,1.891-1.983,2.107-3.285c0.173-1.045-0.218-2.088-0.474-3.115
				c-0.286-1.146-0.406-2.356-0.145-3.508s0.941-2.242,1.97-2.821c1.029-0.579,2.417-0.561,3.328,0.19l0.17,1.703L359.234,293.882"
				/>
		</g>
		<g>
			<g>
				<path style="fill:#EB996E;" d="M374.779,313.699c0,0,2.335,24.65,0.374,27.861c-1.961,3.211-25.958,36.763-25.958,36.763
					l0.056,0.04c-0.466,0.192-0.962,0.389-1.525,0.594c-0.835,0.303-1.717,0.454-2.605,0.461c-1.077,0.008-2.509-0.04-3.284-0.31
					c-0.96-0.334-1.826,0.673-1.302,1.432c0.524,0.76,3.147,1.743,6.403,1.426c3.256-0.317-0.404,3.303-1.714,4.647
					c-1.31,1.343-5.169,5.689-5.075,6.419c0.138,1.07,1.31,1.12,2.587-0.252c1.293-1.389,5.397-5.216,6.073-4.49
					c0.666,0.715-6.098,7.462-6.098,7.462s-1.679,1.208-0.926,2.074c1.359,1.561,8.02-6.142,8.636-6.89
					c0.428-0.52,1.191,0.242,0.701,0.776c-0.504,0.55-6.903,6.573-5.535,8.175c1.049,1.229,5.539-6.284,7.56-6.796
					c2.022-0.512-3.983,5.352-2.932,6.485c0.391,0.422,0.742,0.682,3.704-3.183c1.662-2.169,4.355-6.767,6.451-10.484
					c3.153-3.408,34.197-37.125,34.435-43.42c0.251-6.633,1.439-29.067,1.439-29.067L374.779,313.699z"/>
			</g>
			<g>
				<g>
					<g>
						<g>
							<g>
								<g>
									<g>
										<path style="fill:#E8505B;" d="M337.745,423.418l-0.284-9.151l17.138-0.641l0.557,13.383l-1.06,0.108
											c-4.719,0.439-24.026,1.901-27.223,1.061C323.307,427.242,337.745,423.418,337.745,423.418z"/>
									</g>
								</g>
							</g>
						</g>
						<g style="opacity:0.4;">
							<g>
								<g>
									<path style="fill:#FFFFFF;" d="M330.7,425.54c0,0-5.048,1.663-4.38,2.48c0.668,0.817,20.234,0.073,28.836-1.01
										l-0.042-0.382l-22.815,1.062C332.299,427.69,331.699,425.545,330.7,425.54z"/>
								</g>
							</g>
						</g>
						<g>
							<g>
								<g>
									<g>
										<path style="fill:#263238;" d="M355.383,426.608c0,0.007-0.101,0.022-0.293,0.043c-0.254,0.025-0.531,0.052-0.844,0.083
											c-0.845,0.069-1.884,0.153-3.11,0.252c-2.627,0.195-6.26,0.415-10.277,0.571c-4.018,0.155-7.658,0.216-10.292,0.226
											c-1.23-0.004-2.272-0.008-3.12-0.011c-0.315-0.007-0.593-0.012-0.848-0.018c-0.194-0.006-0.296-0.013-0.296-0.02
											c0-0.007,0.102-0.015,0.295-0.022c0.255-0.007,0.533-0.013,0.848-0.021c0.847-0.015,1.889-0.033,3.118-0.055
											c2.633-0.047,6.27-0.131,10.286-0.286c4.014-0.156,7.647-0.353,10.275-0.51c1.227-0.073,2.267-0.136,3.113-0.186
											c0.314-0.017,0.593-0.031,0.847-0.044C355.28,426.601,355.382,426.6,355.383,426.608z"/>
									</g>
								</g>
							</g>
						</g>
						<g>
							<g>
								<g>
									<g>
										<path style="fill:#263238;" d="M332.314,427.956c-0.063,0.01-0.14-0.732-0.638-1.465
											c-0.486-0.742-1.141-1.098-1.107-1.152c0.01-0.052,0.757,0.243,1.28,1.037
											C332.38,427.164,332.366,427.966,332.314,427.956z"/>
									</g>
								</g>
							</g>
						</g>
						<g>
							<g>
								<g>
									<g>
										<path style="fill:#263238;" d="M337.273,425.198c-0.047,0.033-0.3-0.253-0.565-0.637
											c-0.265-0.384-0.441-0.722-0.394-0.755c0.047-0.033,0.3,0.253,0.565,0.637
											C337.143,424.828,337.32,425.166,337.273,425.198z"/>
									</g>
								</g>
							</g>
						</g>
						<g>
							<g>
								<g>
									<g>
										<path style="fill:#263238;" d="M338.632,424.412c-0.037,0.044-0.314-0.126-0.619-0.38
											c-0.305-0.254-0.523-0.496-0.487-0.54c0.037-0.044,0.314,0.126,0.62,0.38
											C338.451,424.126,338.669,424.368,338.632,424.412z"/>
									</g>
								</g>
							</g>
						</g>
						<g>
							<g>
								<g>
									<g>
										<path style="fill:#263238;" d="M339.448,422.761c0.003,0.057-0.396,0.124-0.89,0.148c-0.494,0.024-0.897-0.003-0.9-0.06
											c-0.003-0.057,0.396-0.123,0.89-0.148C339.042,422.677,339.445,422.704,339.448,422.761z"/>
									</g>
								</g>
							</g>
						</g>
						<g>
							<g>
								<g>
									<g>
										<path style="fill:#263238;" d="M339.706,421.609c0.021,0.05-0.408,0.264-0.987,0.328
											c-0.579,0.068-1.045-0.044-1.036-0.098c0.007-0.06,0.462-0.044,1.012-0.108
											C339.246,421.67,339.685,421.553,339.706,421.609z"/>
									</g>
								</g>
							</g>
						</g>
						<g>
							<g>
								<g>
									<g>
										<path style="fill:#263238;" d="M336.635,423.726c0.002,0.023-0.419,0.091-1.102,0.035
											c-0.341-0.028-0.745-0.093-1.182-0.214c-0.217-0.068-0.444-0.117-0.682-0.251c-0.112-0.069-0.237-0.166-0.286-0.332
											c-0.052-0.163,0.029-0.352,0.15-0.446c1.032-0.585,2.108-0.033,2.52,0.496c0.226,0.27,0.334,0.536,0.387,0.721
											c0.051,0.187,0.052,0.294,0.04,0.296c-0.038,0.016-0.091-0.431-0.537-0.92c-0.22-0.24-0.548-0.469-0.964-0.576
											c-0.393-0.1-0.948-0.111-1.309,0.139c-0.17,0.136-0.094,0.339,0.105,0.448c0.186,0.11,0.423,0.172,0.629,0.241
											c0.422,0.128,0.814,0.206,1.145,0.252C336.213,423.707,336.633,423.692,336.635,423.726z"/>
									</g>
								</g>
							</g>
						</g>
						<g>
							<g>
								<g>
									<g>
										<path style="fill:#263238;" d="M336.351,423.791c-0.015,0.013-0.188-0.262-0.156-0.76c0.018-0.244,0.096-0.536,0.27-0.816
											c0.185-0.252,0.422-0.598,0.896-0.596c0.257,0.023,0.392,0.309,0.359,0.496c-0.013,0.194-0.093,0.363-0.169,0.499
											c-0.153,0.281-0.33,0.511-0.495,0.686c-0.333,0.35-0.6,0.49-0.613,0.47c-0.02-0.026,0.212-0.206,0.502-0.566
											c0.144-0.18,0.3-0.407,0.436-0.678c0.143-0.238,0.23-0.66-0.048-0.7c-0.277-0.016-0.548,0.269-0.708,0.495
											c-0.164,0.245-0.25,0.505-0.284,0.728C336.274,423.5,336.388,423.781,336.351,423.791z"/>
									</g>
								</g>
							</g>
						</g>
						<g>
							<g>
								<g>
									<g>
										<path style="fill:#263238;" d="M354.855,421.932c-0.002,0.039-0.493-0.028-1.264,0.093
											c-0.764,0.115-1.819,0.47-2.719,1.243c-0.899,0.775-1.407,1.766-1.634,2.505c-0.234,0.745-0.24,1.239-0.279,1.236
											c-0.013,0-0.023-0.123-0.014-0.346c0.009-0.222,0.05-0.544,0.152-0.931c0.196-0.769,0.701-1.813,1.639-2.621
											c0.938-0.807,2.045-1.152,2.835-1.232c0.398-0.043,0.722-0.036,0.943-0.012
											C354.736,421.891,354.856,421.919,354.855,421.932z"/>
									</g>
								</g>
							</g>
						</g>
						<g>
							<g>
								<g>
									<g>
										<path style="fill:#263238;" d="M352.808,414.868c0.057-0.003,0.184,1.57,0.282,3.514c0.099,1.944,0.132,3.522,0.075,3.525
											c-0.057,0.003-0.184-1.57-0.282-3.514C352.784,416.449,352.751,414.871,352.808,414.868z"/>
									</g>
								</g>
							</g>
						</g>
						<g>
							<g>
								<g>
									<g>
										<path style="fill:#263238;" d="M346.717,425.519c0.009,0.053-1.1,0.279-2.492,0.343c-1.392,0.068-2.518-0.051-2.514-0.106
											c0.003-0.06,1.125-0.034,2.504-0.102C345.594,425.591,346.708,425.459,346.717,425.519z"/>
									</g>
								</g>
							</g>
						</g>
						<g>
							<g>
								<g>
									<g>
										<path style="fill:#263238;" d="M350.076,425.387c0.043,0.04-0.083,0.241-0.187,0.502c-0.108,0.26-0.158,0.491-0.218,0.49
											c-0.056,0.002-0.099-0.267,0.025-0.568C349.818,425.509,350.037,425.346,350.076,425.387z"/>
									</g>
								</g>
							</g>
						</g>
						<g>
							<g>
								<g>
									<g>
										<path style="fill:#263238;" d="M351.282,423.763c0.042,0.039-0.062,0.221-0.232,0.408
											c-0.17,0.186-0.343,0.306-0.385,0.267c-0.042-0.039,0.061-0.221,0.232-0.408
											C351.067,423.844,351.239,423.724,351.282,423.763z"/>
									</g>
								</g>
							</g>
						</g>
						<g>
							<g>
								<g>
									<g>
										<path style="fill:#263238;" d="M353.066,422.975c-0.01,0.059-0.238,0.065-0.486,0.163
											c-0.251,0.092-0.425,0.239-0.471,0.202c-0.047-0.03,0.088-0.279,0.397-0.396
											C352.814,422.825,353.081,422.921,353.066,422.975z"/>
									</g>
								</g>
							</g>
						</g>
						<g>
							<g>
								<g>
									<g>
										<path style="fill:#263238;" d="M354.342,422.586c0.023,0.053-0.072,0.144-0.212,0.205
											c-0.14,0.061-0.272,0.067-0.295,0.014c-0.023-0.053,0.072-0.144,0.212-0.205
											C354.187,422.54,354.319,422.534,354.342,422.586z"/>
									</g>
								</g>
							</g>
						</g>
					</g>
				</g>
				<g style="opacity:0.3;">
					<polygon points="354.814,421.474 337.684,421.839 337.632,419.775 354.909,420.384 					"/>
				</g>
			</g>
			<g>
				<g>
					<g>
						<g>
							<path style="fill:#263238;" d="M402.275,361.341l-54.183-0.741c0,0-15.085,1.442-15.085,21.037l1.912,38.674h23.083
								l-1.575-37.061c1.295,0.016,18.775,0.582,18.775,0.582L402.275,361.341z"/>
						</g>
					</g>
				</g>
			</g>
			<g>
				<g>
					<path style="fill:#455A64;" d="M334.919,420.311c-0.018,0-0.043-0.23-0.073-0.669c-0.028-0.493-0.064-1.13-0.108-1.921
						c-0.1-1.73-0.238-4.128-0.407-7.063c-0.355-5.963-1.032-14.19-1.48-23.303c-0.161-4.551-0.507-8.914,0.035-12.883
						c0.147-0.988,0.312-1.941,0.595-2.86c0.288-0.911,0.672-1.755,1.103-2.536c0.892-1.547,1.998-2.814,3.143-3.799
						c1.146-0.989,2.329-1.692,3.4-2.225c1.092-0.493,2.064-0.838,2.878-1.046c0.4-0.096,0.761-0.183,1.085-0.261
						c0.305-0.047,0.573-0.088,0.807-0.124c0.437-0.064,0.666-0.088,0.669-0.071s-0.222,0.077-0.65,0.174
						c-0.23,0.05-0.493,0.107-0.792,0.172c-0.317,0.091-0.671,0.192-1.063,0.305c-0.797,0.235-1.746,0.604-2.806,1.112
						c-1.039,0.548-2.183,1.258-3.286,2.24c-1.101,0.979-2.16,2.225-3.009,3.734c-0.41,0.761-0.773,1.581-1.042,2.458
						c-0.262,0.873-0.422,1.826-0.558,2.791c-0.508,3.887-0.153,8.245,0.009,12.794c0.447,9.1,1.066,17.334,1.327,23.307
						c0.143,2.986,0.21,5.404,0.242,7.076c0.004,0.793,0.008,1.432,0.01,1.925C334.947,420.079,334.937,420.31,334.919,420.311z"/>
				</g>
			</g>
			<g>
				<g>
					<g>
						<g>
							<g>
								<g>
									<g>
										<path style="fill:#E8505B;" d="M438.326,423.435l-9.135,0.606l-1.244-17.104l13.355-1.028l0.145,1.056
											c0.605,4.701,2.746,23.944,2.019,27.169C442.656,437.729,438.326,423.435,438.326,423.435z"/>
									</g>
								</g>
							</g>
						</g>
						<g style="opacity:0.4;">
							<g>
								<g>
									<path style="fill:#FFFFFF;" d="M440.695,430.401c0,0,1.84,4.987,2.632,4.29c0.793-0.696-0.639-20.224-2.025-28.783
										l-0.38,0.055l1.864,22.764C442.787,428.727,440.664,429.402,440.695,430.401z"/>
								</g>
							</g>
						</g>
						<g>
							<g>
								<g>
									<g>
										<path style="fill:#263238;" d="M440.892,405.696c0.007-0.001,0.025,0.1,0.053,0.292c0.034,0.252,0.071,0.529,0.113,0.841
											c0.098,0.842,0.219,1.877,0.362,3.099c0.287,2.619,0.635,6.242,0.933,10.25c0.297,4.01,0.486,7.645,0.588,10.278
											c0.039,1.229,0.072,2.271,0.099,3.118c0.004,0.315,0.009,0.593,0.012,0.848c0.001,0.194-0.003,0.296-0.01,0.296
											c-0.007,0-0.018-0.101-0.032-0.294c-0.016-0.254-0.032-0.533-0.051-0.847c-0.045-0.846-0.1-1.887-0.165-3.114
											c-0.14-2.63-0.352-6.261-0.648-10.269c-0.298-4.007-0.623-7.63-0.872-10.251c-0.117-1.224-0.216-2.261-0.296-3.105
											c-0.028-0.314-0.052-0.591-0.074-0.845C440.89,405.799,440.885,405.697,440.892,405.696z"/>
									</g>
								</g>
							</g>
						</g>
						<g>
							<g>
								<g>
									<g>
										<path style="fill:#263238;" d="M443.052,428.703c0.013,0.063-0.726,0.166-1.441,0.69
											c-0.724,0.511-1.057,1.179-1.112,1.147c-0.052-0.009,0.216-0.765,0.991-1.316
											C442.258,428.665,443.061,428.651,443.052,428.703z"/>
									</g>
								</g>
							</g>
						</g>
						<g>
							<g>
								<g>
									<g>
										<path style="fill:#263238;" d="M440.122,423.844c0.034,0.046-0.242,0.309-0.617,0.587
											c-0.375,0.278-0.706,0.467-0.741,0.42c-0.034-0.046,0.242-0.309,0.616-0.587
											C439.756,423.987,440.088,423.798,440.122,423.844z"/>
									</g>
								</g>
							</g>
						</g>
						<g>
							<g>
								<g>
									<g>
										<path style="fill:#263238;" d="M439.288,422.513c0.045,0.035-0.115,0.318-0.358,0.632
											c-0.243,0.314-0.477,0.54-0.522,0.505c-0.045-0.035,0.115-0.318,0.358-0.632
											C439.009,422.704,439.243,422.478,439.288,422.513z"/>
									</g>
								</g>
							</g>
						</g>
						<g>
							<g>
								<g>
									<g>
										<path style="fill:#263238;" d="M437.61,421.756c0.057-0.005,0.137,0.391,0.179,0.884c0.042,0.493,0.029,0.897-0.028,0.901
											c-0.057,0.005-0.137-0.391-0.179-0.884C437.54,422.165,437.552,421.761,437.61,421.756z"/>
									</g>
								</g>
							</g>
						</g>
						<g>
							<g>
								<g>
									<g>
										<path style="fill:#263238;" d="M436.449,421.539c0.05-0.023,0.278,0.398,0.363,0.974c0.088,0.577-0.008,1.046-0.062,1.038
											c-0.06-0.005-0.06-0.46-0.144-1.008C436.526,421.996,436.393,421.561,436.449,421.539z"/>
									</g>
								</g>
							</g>
						</g>
						<g>
							<g>
								<g>
									<g>
										<path style="fill:#263238;" d="M438.672,424.534c0.023-0.003,0.106,0.415,0.074,1.1c-0.016,0.341-0.067,0.748-0.172,1.189
											c-0.061,0.22-0.101,0.448-0.227,0.69c-0.065,0.114-0.158,0.242-0.322,0.297c-0.161,0.057-0.353-0.017-0.451-0.134
											c-0.621-1.011-0.108-2.106,0.407-2.536c0.262-0.235,0.524-0.353,0.707-0.412c0.185-0.058,0.292-0.062,0.295-0.05
											c0.017,0.038-0.427,0.106-0.901,0.569c-0.232,0.229-0.45,0.565-0.541,0.984c-0.087,0.396-0.077,0.951,0.185,1.303
											c0.142,0.165,0.342,0.082,0.444-0.12c0.103-0.19,0.157-0.429,0.218-0.637c0.113-0.426,0.177-0.82,0.212-1.154
											C438.668,424.956,438.639,424.536,438.672,424.534z"/>
									</g>
								</g>
							</g>
						</g>
						<g>
							<g>
								<g>
									<g>
										<path style="fill:#263238;" d="M438.748,424.815c0.013,0.015-0.256,0.198-0.754,0.183
											c-0.245-0.009-0.539-0.077-0.825-0.241c-0.258-0.176-0.613-0.401-0.627-0.874c0.014-0.257,0.295-0.403,0.483-0.376
											c0.194,0.006,0.366,0.08,0.505,0.151c0.286,0.143,0.522,0.312,0.703,0.47c0.362,0.32,0.511,0.583,0.491,0.596
											c-0.025,0.021-0.213-0.205-0.583-0.482c-0.185-0.138-0.418-0.285-0.693-0.412c-0.243-0.134-0.668-0.206-0.698,0.073
											c-0.006,0.277,0.288,0.538,0.52,0.69c0.25,0.155,0.514,0.232,0.737,0.258
											C438.459,424.902,438.737,424.779,438.748,424.815z"/>
									</g>
								</g>
							</g>
						</g>
						<g>
							<g>
								<g>
									<g>
										<path style="fill:#263238;" d="M436.238,406.388c0.039,0.001-0.011,0.493,0.137,1.26c0.141,0.759,0.533,1.801,1.338,2.674
											c0.807,0.871,1.815,1.344,2.561,1.544c0.752,0.207,1.247,0.196,1.245,0.235c0,0.013-0.122,0.028-0.345,0.026
											c-0.223-0.002-0.546-0.031-0.936-0.119c-0.775-0.168-1.836-0.637-2.677-1.546c-0.839-0.909-1.223-2.004-1.331-2.79
											c-0.057-0.396-0.061-0.721-0.045-0.942C436.201,406.508,436.226,406.387,436.238,406.388z"/>
									</g>
								</g>
							</g>
						</g>
						<g>
							<g>
								<g>
									<g>
										<path style="fill:#263238;" d="M429.251,408.683c-0.005-0.057,1.563-0.239,3.502-0.406c1.94-0.167,3.516-0.256,3.52-0.199
											c0.005,0.057-1.563,0.239-3.502,0.406C430.832,408.651,429.256,408.74,429.251,408.683z"/>
									</g>
								</g>
							</g>
						</g>
						<g>
							<g>
								<g>
									<g>
										<path style="fill:#263238;" d="M440.11,414.394c0.053-0.011,0.318,1.09,0.431,2.478c0.117,1.389,0.037,2.518-0.017,2.516
											c-0.06-0.001-0.074-1.123-0.19-2.499C440.222,415.514,440.05,414.405,440.11,414.394z"/>
									</g>
								</g>
							</g>
						</g>
						<g>
							<g>
								<g>
									<g>
										<path style="fill:#263238;" d="M439.859,411.043c0.039-0.045,0.243,0.074,0.508,0.169c0.263,0.099,0.496,0.141,0.497,0.2
											c0.004,0.055-0.264,0.108-0.569-0.005C439.99,411.296,439.82,411.082,439.859,411.043z"/>
									</g>
								</g>
							</g>
						</g>
						<g>
							<g>
								<g>
									<g>
										<path style="fill:#263238;" d="M438.194,409.895c0.037-0.044,0.223,0.054,0.416,0.217
											c0.192,0.164,0.318,0.332,0.281,0.376c-0.037,0.044-0.223-0.054-0.416-0.217
											C438.283,410.107,438.157,409.938,438.194,409.895z"/>
									</g>
								</g>
							</g>
						</g>
						<g>
							<g>
								<g>
									<g>
										<path style="fill:#263238;" d="M437.343,408.14c0.059,0.008,0.074,0.235,0.18,0.48c0.101,0.247,0.254,0.416,0.218,0.464
											c-0.028,0.048-0.282-0.078-0.41-0.383C437.203,408.396,437.289,408.126,437.343,408.14z"/>
									</g>
								</g>
							</g>
						</g>
						<g>
							<g>
								<g>
									<g>
										<path style="fill:#263238;" d="M436.91,406.878c0.052-0.025,0.147,0.067,0.212,0.205c0.065,0.138,0.076,0.27,0.025,0.294
											c-0.052,0.025-0.147-0.067-0.212-0.205C436.869,407.034,436.858,406.902,436.91,406.878z"/>
									</g>
								</g>
							</g>
						</g>
					</g>
				</g>
				<g style="opacity:0.3;">
					<polygon points="435.782,406.445 436.75,423.552 434.689,423.676 434.689,406.388 					"/>
				</g>
			</g>
			<g>
				<g>
					<g>
						<g>
							<path style="fill:#263238;" d="M382.299,406.521l0.012,0.016c0,0,46.164-25.208,51.395-33.412
								c5.394-8.459,1.546-16.401,1.546-16.401l-38.85,5.184l-27.627,27.674l0,0c-6.023,4.774-16.875,14.739-16.875,24.566
								c0,16.823,21.747,14.074,37.359,14.11c21.346,0.048,45.295,0.147,45.295,0.147l0.06-22.931L382.299,406.521z"/>
						</g>
					</g>
					<g>
						<g>
							<g>
								<path style="fill:#455A64;" d="M371.335,411.318c0.049,0.113,2.595-0.885,5.686-2.231c3.091-1.346,5.557-2.529,5.507-2.642
									c-0.049-0.113-2.595,0.885-5.686,2.231C373.751,410.022,371.285,411.204,371.335,411.318z"/>
							</g>
						</g>
					</g>
					<g>
						<g>
							<g>
								<path style="fill:#455A64;" d="M374.965,405.696c-0.004,0.124,1.804,0.283,4.037,0.356c2.234,0.073,4.048,0.031,4.052-0.092
									c0.004-0.124-1.803-0.283-4.038-0.355C376.784,405.531,374.969,405.572,374.965,405.696z"/>
							</g>
						</g>
					</g>
				</g>
				<g>
					<g>
						<path style="fill:#455A64;" d="M393.352,365.779c0.012,0.013-0.138,0.178-0.435,0.481c-0.34,0.337-0.776,0.769-1.317,1.305
							c-1.206,1.161-2.872,2.765-4.91,4.728c-4.222,3.995-9.976,9.439-16.333,15.454c-3.186,3.021-6.292,5.833-8.983,8.506
							c-2.679,2.682-4.884,5.311-6.363,7.759c-1.518,2.429-2.254,4.655-2.624,6.204c-0.083,0.383-0.158,0.729-0.225,1.04
							c-0.041,0.291-0.077,0.547-0.109,0.773c-0.063,0.418-0.104,0.638-0.122,0.637c-0.018-0.001-0.012-0.224,0.018-0.648
							c0.018-0.229,0.038-0.489,0.06-0.785c0.042-0.308,0.112-0.661,0.18-1.059c0.312-1.58,1.007-3.864,2.506-6.351
							c1.46-2.507,3.662-5.19,6.338-7.907c2.69-2.709,5.78-5.525,8.967-8.548c6.398-5.972,12.188-11.377,16.437-15.343
							c2.085-1.912,3.789-3.475,5.023-4.607c0.568-0.506,1.027-0.915,1.384-1.233C393.166,365.905,393.34,365.766,393.352,365.779z"
							/>
					</g>
				</g>
			</g>
			<g>
				<g>
					<g>
						<g>
							<g>
								<g>
									<g>
										<g>
											<g>
												<path style="fill:#FFBE9D;" d="M379.486,315.686L379.486,315.686c-4.13,2.229-9.282,0.391-11.069-3.948
													c-0.971-2.359-1.754-4.284-1.754-4.284s-5.963,2.114-8.999-3.349c-1.707-3.07-4.113-8.315-5.894-12.321
													c-1.506-3.388-1.142-7.313,0.964-10.364l0,0c4.89-6.173,8.767-5.138,16.54-3.875l1.154,0.188l12.511,27.746
													C384.644,309.259,383.137,313.716,379.486,315.686z"/>
											</g>
										</g>
									</g>
									<g>
										<g>
											<g>
												<g>
													<path style="fill:#263238;" d="M355.583,294.487c0.167-0.473-0.081-0.991-0.554-1.158
														c-0.473-0.167-0.991,0.081-1.158,0.554c-0.167,0.473,0.081,0.991,0.554,1.158
														C354.898,295.208,355.417,294.96,355.583,294.487z"/>
												</g>
											</g>
										</g>
										<g>
											<g>
												<g>
													<g>
														<path style="fill:#263238;" d="M353.121,293.573c0.138,0.049,0.453-0.658,1.209-1.071
															c0.75-0.424,1.517-0.318,1.548-0.461c0.018-0.065-0.161-0.191-0.499-0.244c-0.333-0.054-0.832-0.011-1.301,0.25
															c-0.469,0.26-0.769,0.661-0.899,0.973C353.044,293.335,353.056,293.553,353.121,293.573z"/>
													</g>
												</g>
											</g>
										</g>
									</g>
									<g>
										<g>
											<g>
												<g>
													<path style="fill:#263238;" d="M362.156,290.028c-0.251,0.434-0.103,0.989,0.331,1.24
														c0.434,0.251,0.989,0.103,1.24-0.331c0.251-0.434,0.103-0.989-0.331-1.24
														C362.963,289.446,362.408,289.595,362.156,290.028z"/>
												</g>
											</g>
										</g>
										<g>
											<g>
												<g>
													<g>
														<path style="fill:#263238;" d="M361.4,289.823c0.138,0.049,0.453-0.658,1.209-1.071
															c0.75-0.424,1.517-0.318,1.548-0.461c0.018-0.065-0.161-0.191-0.499-0.244c-0.333-0.054-0.832-0.011-1.301,0.25
															c-0.469,0.26-0.769,0.661-0.899,0.972C361.324,289.585,361.336,289.803,361.4,289.823z"/>
													</g>
												</g>
											</g>
										</g>
									</g>
									<g>
										<g>
											<g>
												<g>
													<path style="fill:#263238;" d="M362.045,297.845c-0.027-0.062-0.547,0.096-1.365,0.402
														c-0.21,0.085-0.389,0.124-0.461,0.026c-0.1-0.101-0.138-0.354-0.164-0.644c-0.075-0.606-0.152-1.22-0.232-1.863
														c-0.356-2.64-0.753-4.764-0.887-4.746c-0.134,0.018,0.046,2.172,0.402,4.812c0.093,0.641,0.182,1.253,0.27,1.857
														c0.051,0.268,0.058,0.61,0.336,0.882c0.143,0.134,0.363,0.168,0.512,0.132c0.153-0.031,0.265-0.091,0.362-0.138
														C361.6,298.178,362.071,297.908,362.045,297.845z"/>
												</g>
											</g>
										</g>
									</g>
									<g>
										<g>
											<g>
												<path style="fill:#EB996E;" d="M366.612,307.38c0,0,3.629-1.594,6.07-5.908c0,0,0.442,4.873-5.314,7.34L366.612,307.38z
													"/>
											</g>
										</g>
									</g>
								</g>
							</g>
							<g>
								<g>
									<g>
										<g>
											<path style="fill:#FFBE9D;" d="M372.927,283.888c0.093-0.094,4.399-2.652,5.681,2.055
												c1.108,4.069-3.492,4.769-3.548,4.641C375.003,290.456,372.927,283.888,372.927,283.888z"/>
										</g>
									</g>
								</g>
								<g>
									<g>
										<g>
											<g>
												<path style="fill:#EB996E;" d="M375.888,288.194c0.013-0.019,0.085,0.022,0.219,0.033c0.13,0.01,0.335-0.026,0.51-0.176
													c0.355-0.302,0.46-1.082,0.22-1.789c-0.12-0.358-0.319-0.667-0.547-0.9c-0.224-0.241-0.481-0.371-0.701-0.332
													c-0.223,0.028-0.324,0.206-0.331,0.333c-0.012,0.128,0.041,0.196,0.023,0.21c-0.007,0.014-0.107-0.034-0.135-0.206
													c-0.012-0.083-0.001-0.192,0.063-0.3c0.065-0.11,0.188-0.199,0.338-0.237c0.307-0.09,0.679,0.086,0.93,0.342
													c0.268,0.251,0.499,0.595,0.634,0.997c0.264,0.792,0.134,1.673-0.368,2.043c-0.247,0.172-0.506,0.174-0.657,0.126
													C375.93,288.285,375.877,288.206,375.888,288.194z"/>
											</g>
										</g>
									</g>
								</g>
							</g>
						</g>
					</g>
				</g>
				<g>
					<g>
						<g>
							<path style="fill:#E8505B;" d="M370.93,315.013c0,0,10.752-18.039,27.373-2.857c10.845,9.906,28.544,30.322,34.867,38.323
								c1.418,1.794,3.635,4.517,2.082,6.196c-4.739,5.128-17.658,16.605-41.573,8.042l-22.662-31.59
								C367.14,327.722,367.105,320.456,370.93,315.013L370.93,315.013z"/>
						</g>
					</g>
					<g>
						<g>
							<polygon style="fill:#E8505B;" points="384.715,306.427 381.682,301.471 366.201,313.789 369.093,318.441 							"/>
						</g>
					</g>
					<g style="opacity:0.3;">
						<g>
							<path d="M384.051,307.066c0,0-12.188,10.541-12.365,10.367c-0.177-0.174-4.868-3.563-4.868-3.563l4.296,2.408
								L384.051,307.066z"/>
						</g>
					</g>
					<g>
						<g>
							<g>
								<path style="fill:#263238;" d="M384.84,306.369c-0.017-0.026-0.293,0.126-0.777,0.424c-0.483,0.299-1.17,0.75-2.006,1.325
									c-1.674,1.148-3.926,2.818-6.408,4.658c-1.689,1.251-3.281,2.4-4.642,3.342l0.199-0.009
									c-1.446-0.783-2.655-1.425-3.507-1.862c-0.852-0.437-1.347-0.669-1.366-0.633c-0.019,0.036,0.441,0.336,1.261,0.831
									c0.82,0.495,2.002,1.185,3.428,2.002l0.099,0.057l0.1-0.066c1.389-0.913,3.003-2.048,4.694-3.301
									c2.424-1.824,4.616-3.474,6.327-4.762c0.747-0.559,1.386-1.039,1.92-1.438C384.615,306.596,384.857,306.395,384.84,306.369z
									"/>
							</g>
						</g>
					</g>
				</g>
				<g>
					<g>
						<g>
							<g>
								<g>
									<path style="fill:#FFBE9D;" d="M318.747,353.692l-2.941-1.197c0,0-1.895-0.437-4.984-1.912
										c-0.802-0.383-1.528-0.906-2.155-1.535c-0.76-0.763-1.73-1.817-2.081-2.559c-0.435-0.918-1.76-0.83-1.934,0.076
										c-0.174,0.906,0.962,3.466,3.471,5.566c2.508,2.1-2.639,2.027-4.516,2.034c-1.876,0.007-7.681,0.301-8.136,0.88
										c-0.667,0.848,0.119,1.72,1.993,1.669c1.897-0.051,7.504,0.193,7.46,1.184c-0.043,0.976-9.596,0.882-9.596,0.882
										s-2.039-0.351-2.128,0.793c-0.161,2.063,10.002,1.415,10.968,1.33c0.671-0.059,0.662,1.019-0.062,1.044
										c-0.745,0.026-9.527-0.316-9.71,1.783c-0.141,1.61,8.364-0.455,10.146,0.628c1.782,1.083-6.609,0.91-6.681,2.454
										c-0.027,0.575,0.033,1.007,4.866,0.411c4.95-0.611,18.091-4.449,18.091-4.449l-2.216-9.205"/>
								</g>
							</g>
						</g>
						<g>
							<g>
								<path style="fill:#FFBE9D;" d="M376.193,321.281c0,0-15.81,21.8-19.475,22.652c-3.665,0.852-44.415,7.254-44.415,7.254
									l2.038,13.301c0,0,50.584-1.415,55.491-5.885c4.906-4.47,19.7-27.201,19.7-27.201L376.193,321.281z"/>
							</g>
						</g>
						<g>
							<g>
								<g>
									<path style="fill:#EB996E;" d="M365.063,358.219c-0.017,0.019,0.108,0.18,0.42,0.366c0.311,0.177,0.83,0.37,1.495,0.318
										c0.655-0.04,1.463-0.416,1.949-1.173c0.498-0.721,0.671-1.85,0.133-2.773c-0.258-0.454-0.675-0.822-1.165-0.974
										c-0.483-0.149-1.002-0.112-1.421,0.109c-0.882,0.465-1.013,1.568-0.595,2.145c0.449,0.611,1.141,0.574,1.466,0.438
										c0.357-0.149,0.44-0.371,0.42-0.377c-0.028-0.028-0.156,0.135-0.473,0.211c-0.291,0.076-0.862,0.023-1.146-0.443
										c-0.287-0.442-0.137-1.301,0.516-1.606c0.316-0.158,0.726-0.181,1.099-0.06c0.37,0.12,0.699,0.407,0.911,0.779
										c0.442,0.754,0.318,1.69-0.091,2.326c-0.402,0.66-1.059,1.004-1.638,1.081C365.74,358.741,365.091,358.138,365.063,358.219
										z"/>
								</g>
							</g>
						</g>
					</g>
					<g>
						<g>
							<g>
								<path style="fill:#E8505B;" d="M394.241,327.918l-15.014,25.752l-17.293-14.324c0,0,11.976-19.613,17.641-25.697
									L394.241,327.918z"/>
							</g>
						</g>
					</g>
				</g>
			</g>
			<g>
				<g>
					<g>
						<path style="fill:#455A64;" d="M351.217,377.079c0.023-0.129,1.997,0.578,3.502,2.565c1.527,1.971,1.695,4.061,1.564,4.05
							c-0.156,0.04-0.539-1.885-1.977-3.733C352.896,378.091,351.137,377.219,351.217,377.079z"/>
					</g>
				</g>
			</g>
		</g>
		<g>
			<path style="fill:#263238;" d="M369.129,286.229c0.179,0.423,0.633,0.667,1.081,0.766c0.448,0.099,0.914,0.088,1.365,0.173
				c0.71,0.135,1.37,0.519,1.838,1.069c0.204,0.24,0.376,0.513,0.628,0.702c0.252,0.188,0.623,0.27,0.878,0.086
				c0.403-0.291,0.219-0.92-0.004-1.364c-0.933-1.861-1.866-3.723-2.799-5.584l-5.299,1.151l2.278,2.653"/>
		</g>
		<g>
			<g>
				<path style="fill:#263238;" d="M351.816,279.9c0.614-0.735,1.526-1.331,2.243-0.697c0.717,0.634,1.026,1.604,1.245,2.535
					c0.219,0.932,0.392,1.906,0.931,2.698c0.678,0.997,1.927,1.574,3.125,1.445c1.199-0.129,2.296-0.958,2.747-2.076
					c0.721,1.084,1.462,2.19,2.504,2.971c1.041,0.782,2.457,1.191,3.669,0.714c1.211-0.477,1.991-2.03,1.364-3.171
					c0.697,0.527,1.531,0.927,2.405,0.923c0.874-0.004,1.78-0.484,2.104-1.297c0.323-0.812-0.123-1.898-0.975-2.094
					c0.974,0.639,2.353,0.646,3.273-0.069c0.92-0.714,1.241-2.135,0.634-3.129c-0.607-0.994-2.111-1.334-3.035-0.625
					c0.654-0.398,1.34-0.828,1.696-1.506c0.357-0.678,0.223-1.676-0.472-1.998c-0.835-0.387-1.726,0.384-2.631,0.551
					c-1.477,0.271-2.686-1.059-3.882-1.967c-2.16-1.642-5.085-2.084-7.743-1.544c-2.659,0.54-5.069,1.983-7.109,3.771
					C352.572,276.505,351.276,278.208,351.816,279.9"/>
			</g>
		</g>
		<g>
			<g>
				<path style="fill:#263238;" d="M354.954,290.679c0.01,0.435-0.417,0.8-0.91,1.004c-0.499,0.191-1.059,0.22-1.351-0.103
					c-0.291-0.313-0.007-1.037,0.773-1.348C354.246,289.921,354.95,290.252,354.954,290.679z"/>
			</g>
		</g>
		<g>
			<g>
				<path style="fill:#263238;" d="M362.876,286.883c-0.084,0.43-0.617,0.698-1.147,0.952c-0.543,0.225-1.099,0.443-1.475,0.218
					c-0.174-0.121-0.236-0.39-0.105-0.724c0.126-0.331,0.462-0.706,0.943-0.92c0.481-0.215,0.984-0.214,1.315-0.087
					C362.743,286.447,362.902,286.673,362.876,286.883z"/>
			</g>
		</g>
		<g>
			<g>
				<path style="fill:#263238;" d="M365.173,296.098c0.13-0.053,0.465,0.963-0.038,2.099c-0.493,1.141-1.467,1.584-1.516,1.453
					c-0.084-0.126,0.625-0.685,1.039-1.661C365.095,297.022,365.024,296.122,365.173,296.098z"/>
			</g>
		</g>
		<g>
			<g>
				<path style="fill:#455A64;" d="M376.709,280.119c0.007,0.014-0.068,0.066-0.228,0.141c-0.162,0.065-0.416,0.147-0.759,0.159
					c-0.645,0.025-1.809-0.242-2.422-1.435l0.274,0.056c-0.749,0.714-1.925,1.28-3.299,1.313c-1.35,0.043-2.938-0.435-4.036-1.674
					l0.444-0.176c0.041,0.687-0.383,1.344-0.942,1.701c-0.559,0.369-1.247,0.553-1.942,0.467c-1.171-0.176-2.035-0.937-2.721-1.663
					c-0.692-0.745-1.243-1.525-1.882-2.14c-0.626-0.623-1.342-1.08-2.092-1.21c-0.749-0.138-1.485,0.015-2.099,0.258
					c-1.24,0.506-2.026,1.343-2.566,1.872c-0.535,0.551-0.825,0.867-0.855,0.841c-0.025-0.021,0.21-0.378,0.705-0.977
					c0.503-0.576,1.256-1.481,2.574-2.076c0.65-0.282,1.452-0.48,2.313-0.344c0.866,0.129,1.683,0.641,2.353,1.29
					c0.687,0.644,1.256,1.432,1.921,2.136c0.655,0.695,1.464,1.359,2.413,1.496c1.101,0.151,2.37-0.629,2.314-1.63l-0.041-0.735
					l0.486,0.559c0.96,1.105,2.397,1.574,3.644,1.559c1.267-0.004,2.357-0.492,3.073-1.12l0.177-0.155l0.097,0.211
					c0.474,1.036,1.51,1.363,2.11,1.389C376.362,280.259,376.693,280.073,376.709,280.119z"/>
			</g>
		</g>
		<g>
			<g>
				<path style="fill:#263238;" d="M396.752,323.941c-0.05,0.001-0.045-0.597-0.232-1.646c-0.192-1.041-0.613-2.552-1.634-4.152
					c-1.003-1.585-2.636-3.279-4.943-4.237c-2.28-0.96-5.177-1.194-7.9-0.275c-1.356,0.457-2.568,1.195-3.638,2.038
					c-1.071,0.839-1.993,1.786-2.799,2.749c-1.612,1.932-2.779,3.906-3.797,5.529c-1.004,1.636-1.823,2.96-2.429,3.85
					c-0.296,0.449-0.545,0.785-0.711,1.015c-0.168,0.228-0.264,0.342-0.279,0.332c-0.032-0.022,0.271-0.533,0.819-1.455
					c0.584-1.005,1.354-2.33,2.284-3.931c0.98-1.65,2.118-3.655,3.743-5.646c1.625-1.957,3.768-3.982,6.64-4.975
					c2.855-0.963,5.88-0.702,8.254,0.327c2.407,1.029,4.074,2.825,5.068,4.485c1.012,1.677,1.387,3.245,1.521,4.315
					c0.064,0.538,0.084,0.959,0.07,1.244C396.783,323.793,396.77,323.941,396.752,323.941z"/>
			</g>
		</g>
		<g>
			<g>
				<path style="fill:#FAFAFA;" d="M392.339,333.358c-0.046,0.009,0.077-0.411-0.403-0.814c-0.228-0.202-0.568-0.335-1.01-0.38
					c-0.431-0.062-0.984-0.033-1.561-0.282c-1.181-0.486-1.949-1.86-2.345-3.33c-0.206-0.739-0.368-1.515-0.645-2.264
					c-0.271-0.747-0.686-1.466-1.351-1.937c-0.66-0.477-1.473-0.691-2.262-0.786c-0.795-0.095-1.578-0.063-2.338-0.042
					c-1.506,0.057-2.967-0.004-4.04-0.598c-1.061-0.575-1.625-1.461-1.769-2.11c-0.085-0.325-0.065-0.589-0.049-0.759
					c0.033-0.171,0.06-0.257,0.077-0.254c0.053,0.003-0.035,0.369,0.166,0.956c0.189,0.578,0.751,1.353,1.744,1.839
					c0.985,0.497,2.354,0.531,3.853,0.446c1.475-0.058,3.331-0.202,4.922,0.886c0.778,0.551,1.246,1.389,1.525,2.184
					c0.288,0.802,0.44,1.591,0.629,2.315c0.356,1.422,1.041,2.671,2.031,3.118c0.476,0.234,0.997,0.24,1.457,0.331
					c0.461,0.072,0.873,0.266,1.103,0.52c0.242,0.246,0.335,0.521,0.331,0.701C392.404,333.279,392.351,333.362,392.339,333.358z"/>
			</g>
		</g>
		<g>
			<g>
				<path style="fill:#FAFAFA;" d="M386.368,341.914c-0.053,0.014-0.08-0.337-0.428-0.799c-0.333-0.465-1.038-0.972-2.039-1.265
					c-0.984-0.329-2.281-0.294-3.686-0.752c-0.694-0.226-1.426-0.661-1.9-1.35c-0.476-0.671-0.732-1.446-1.164-2.079
					c-0.878-1.278-2.465-1.709-3.796-2.037c-1.365-0.319-2.663-0.663-3.562-1.352c-0.897-0.676-1.326-1.542-1.418-2.154
					c-0.094-0.623,0.059-0.954,0.08-0.944c0.048,0.005-0.029,0.341,0.118,0.901c0.143,0.551,0.586,1.315,1.435,1.899
					c0.846,0.592,2.076,0.889,3.457,1.183c0.691,0.155,1.434,0.34,2.164,0.664c0.725,0.321,1.459,0.814,1.952,1.547
					c0.484,0.721,0.734,1.49,1.151,2.079c0.403,0.592,1.004,0.966,1.642,1.191c1.283,0.452,2.6,0.463,3.643,0.855
					c1.042,0.354,1.784,0.956,2.093,1.502c0.163,0.267,0.227,0.505,0.256,0.663C386.385,341.828,386.386,341.911,386.368,341.914z"
					/>
			</g>
		</g>
		<g>
			<g>
				<path style="fill:#FAFAFA;" d="M413.971,328.362c0.016,0.002,0.013,0.146-0.034,0.417c-0.055,0.268-0.172,0.664-0.434,1.121
					c-0.507,0.925-1.67,2.006-3.367,2.786c-0.84,0.397-1.79,0.745-2.768,1.178c-0.974,0.434-1.985,0.971-2.805,1.82
					c-1.705,1.678-2.537,4.277-3.731,6.822c-0.602,1.275-1.313,2.515-2.321,3.455c-0.252,0.233-0.5,0.465-0.789,0.644
					c-0.274,0.197-0.552,0.384-0.854,0.521c-0.592,0.293-1.209,0.487-1.813,0.626c-2.431,0.515-4.641,0.386-6.372,0.935
					c-1.749,0.475-2.869,1.557-3.35,2.425c-0.499,0.881-0.452,1.489-0.515,1.476c-0.014,0-0.034-0.144-0.008-0.418
					c0.024-0.273,0.107-0.681,0.344-1.153c0.445-0.943,1.601-2.139,3.421-2.682c1.792-0.613,4.05-0.526,6.37-1.05
					c0.577-0.14,1.155-0.329,1.702-0.605c0.279-0.128,0.533-0.303,0.785-0.488c0.266-0.165,0.495-0.383,0.727-0.601
					c0.932-0.876,1.613-2.058,2.203-3.31c1.177-2.492,2.03-5.159,3.863-6.938c0.889-0.899,1.973-1.451,2.97-1.875
					c1.006-0.425,1.956-0.75,2.788-1.118c1.666-0.716,2.811-1.707,3.347-2.557C413.88,328.943,413.915,328.346,413.971,328.362z"/>
			</g>
		</g>
		<g>
			<g>
				<path style="fill:#FAFAFA;" d="M424.047,340.735c0,0-0.02,0.638-0.636,1.56c-0.593,0.929-1.856,1.995-3.651,2.767
					c-1.781,0.815-4.098,1.19-6.299,2.376c-1.097,0.59-2.074,1.475-2.727,2.659c-0.674,1.172-1.103,2.542-1.688,3.909
					c-1.163,2.777-3.263,4.93-5.506,6.216c-2.255,1.308-4.643,1.74-6.586,1.685c-1.958-0.048-3.499-0.5-4.497-0.918
					c-0.504-0.203-0.878-0.399-1.125-0.542c-0.246-0.144-0.371-0.227-0.362-0.243c0.022-0.041,0.549,0.241,1.559,0.595
					c1.004,0.354,2.525,0.74,4.429,0.74c1.893,0.006,4.183-0.45,6.341-1.732c2.15-1.264,4.152-3.336,5.27-6.008
					c0.572-1.332,1.007-2.722,1.724-3.958c0.695-1.253,1.784-2.225,2.938-2.825c2.322-1.213,4.643-1.541,6.386-2.294
					c1.769-0.711,3.009-1.688,3.629-2.545C423.888,341.329,423.987,340.711,424.047,340.735z"/>
			</g>
		</g>
		<g>
			<g>
				<path style="fill:#FAFAFA;" d="M433.121,350.511c0.054,0.106-1.781,0.567-4.025,2.44c-1.101,0.939-2.278,2.242-3.17,3.934
					c-0.455,0.838-0.779,1.792-1.198,2.784c-0.416,0.975-0.995,2.037-2.006,2.712c-1,0.671-2.157,0.888-3.213,1.01
					c-1.067,0.119-2.082,0.154-3.025,0.311c-1.896,0.298-3.542,0.892-4.849,1.526c-2.622,1.292-3.91,2.636-3.977,2.549
					c-0.02-0.02,0.278-0.37,0.904-0.914c0.625-0.542,1.592-1.266,2.907-1.964c1.314-0.691,2.99-1.338,4.938-1.671
					c0.975-0.175,2.007-0.22,3.043-0.344c1.03-0.124,2.1-0.341,2.98-0.934c0.883-0.587,1.418-1.536,1.83-2.485
					c0.412-0.954,0.756-1.938,1.243-2.807c0.95-1.745,2.197-3.064,3.359-3.993c1.175-0.922,2.258-1.475,3.027-1.782
					c0.387-0.151,0.69-0.257,0.902-0.31C433.003,350.516,433.115,350.493,433.121,350.511z"/>
			</g>
		</g>
		<g>
			<g>
				<path style="fill:#FAFAFA;" d="M392.968,331.995c-0.038-0.095,1.102-0.224,2.286-1.441c0.586-0.595,1.156-1.432,1.599-2.45
					c0.445-1.017,0.748-2.223,1.07-3.494c0.324-1.273,0.664-2.502,1.187-3.552c0.521-1.046,1.193-1.885,1.878-2.45
					c0.686-0.567,1.364-0.858,1.845-0.967c0.483-0.111,0.758-0.083,0.76-0.059c0.033,0.098-1.12,0.145-2.362,1.303
					c-0.613,0.565-1.218,1.379-1.689,2.382c-0.472,1.003-0.792,2.203-1.115,3.472c-0.323,1.27-0.645,2.501-1.137,3.562
					c-0.49,1.058-1.125,1.921-1.781,2.518c-0.657,0.599-1.316,0.928-1.788,1.067C393.248,332.027,392.971,332.02,392.968,331.995z"
					/>
			</g>
		</g>
		<g>
			<g>
				<path style="fill:#FAFAFA;" d="M390.106,314.036c-0.132-0.022,0.194-1.51,1.43-2.85c1.225-1.352,2.678-1.807,2.712-1.678
					c0.067,0.141-1.194,0.773-2.328,2.03C390.77,312.778,390.252,314.09,390.106,314.036z"/>
			</g>
		</g>
		<g>
			<g>
				<path style="fill:#FAFAFA;" d="M383.089,303.756c0.057,0.044-0.546,0.939-1.568,2.351c-0.526,0.697-1.084,1.561-1.882,2.444
					c-0.406,0.43-0.899,0.857-1.521,1.129c-0.626,0.277-1.332,0.331-2.003,0.328c-0.675-0.002-1.314-0.043-1.903,0.035
					c-0.586,0.077-1.135,0.274-1.611,0.543c-0.963,0.536-1.597,1.358-1.925,2.123c-0.656,1.574-0.304,2.702-0.409,2.698
					c-0.029,0.008-0.142-0.247-0.202-0.744c-0.056-0.492-0.047-1.24,0.27-2.092c0.308-0.846,0.976-1.786,2.026-2.4
					c0.519-0.309,1.125-0.54,1.782-0.633c0.656-0.093,1.32-0.052,1.973-0.051c0.652,0.003,1.27-0.047,1.801-0.276
					c0.534-0.226,0.986-0.596,1.375-0.992c0.767-0.809,1.377-1.671,1.936-2.335C382.325,304.529,383.032,303.713,383.089,303.756z"
					/>
			</g>
		</g>
		<g style="opacity:0.2;">
			<polygon points="396.369,327.173 388.779,357.923 382.141,348.671 			"/>
		</g>
		<g>
			<g>
				<path style="fill:#455A64;" d="M429.294,428.398c-0.144,0-0.26-5.11-0.26-11.413c0-6.305,0.116-11.414,0.26-11.414
					c0.144,0,0.26,5.109,0.26,11.414C429.554,423.288,429.437,428.398,429.294,428.398z"/>
			</g>
		</g>
	</g>
</g>
<g id="Plant">
	<g>
		<g>
			<path style="fill:#E8505B;" d="M91.193,371.727c3.011,0.132,5.824,1.791,7.792,4.075c1.967,2.284,3.161,5.144,3.915,8.062
				c1.459,5.646,0.476,12.286-1.179,17.878c-6.08-2.232-9.785-8.768-11.456-12.202C87.623,384.113,86.145,372.7,91.193,371.727"/>
		</g>
		<g>
			<path style="fill:#E8505B;" d="M110.438,408.646c-1.901-2.779-1.913-6.622-0.366-9.613c1.547-2.991,4.488-5.132,7.715-6.093
				c1.492-0.444,3.221-0.621,4.508,0.254c1.203,0.819,1.713,2.409,1.544,3.855c-0.168,1.446-0.913,2.763-1.788,3.927
				C119.051,404.966,115.415,408.276,110.438,408.646"/>
		</g>
		<g>
			<g>
				<path style="fill:#263238;" d="M110.947,427.476c-0.03,0.004-0.118-0.414-0.263-1.173c-0.156-0.837-0.357-1.918-0.6-3.216
					c-0.458-2.704-1.189-6.549-0.575-10.788c0.591-4.22,2.304-7.818,4.086-9.96c0.877-1.084,1.715-1.849,2.334-2.318
					c0.299-0.247,0.563-0.399,0.73-0.515c0.172-0.111,0.265-0.163,0.274-0.151c0.066,0.076-1.434,0.983-3.102,3.169
					c-1.689,2.15-3.321,5.686-3.903,9.836c-0.604,4.152,0.067,7.962,0.451,10.68c0.206,1.365,0.373,2.471,0.467,3.239
					C110.942,427.045,110.975,427.472,110.947,427.476z"/>
			</g>
		</g>
		<g>
			<g>
				<path style="fill:#263238;" d="M93.086,380.319c0.014-0.006,0.096,0.154,0.242,0.464c0.159,0.352,0.364,0.804,0.617,1.363
					c0.529,1.187,1.272,2.914,2.172,5.055c1.801,4.282,4.206,10.233,6.713,16.864c2.506,6.634,4.639,12.688,6.121,17.091
					c0.742,2.201,1.326,3.988,1.715,5.227c0.18,0.587,0.325,1.061,0.439,1.43c0.096,0.328,0.14,0.503,0.126,0.508
					c-0.014,0.004-0.085-0.161-0.207-0.481c-0.133-0.363-0.303-0.828-0.514-1.405c-0.452-1.273-1.077-3.031-1.841-5.182
					c-1.553-4.376-3.729-10.41-6.234-17.04c-2.506-6.626-4.865-12.59-6.594-16.9c-0.849-2.118-1.544-3.85-2.047-5.105
					c-0.223-0.572-0.403-1.034-0.544-1.394C93.13,380.496,93.073,380.324,93.086,380.319z"/>
			</g>
		</g>
		<g>
			<path style="fill:#E8505B;" d="M103.815,414.959c-3.544-6.151-10.223-10.38-17.299-10.955c-1.802-0.146-3.973,0.139-4.791,1.75
				c-0.819,1.615,0.241,3.543,1.458,4.884c5.063,5.579,13.691,7.583,20.694,4.806"/>
		</g>
		<g>
			<g>
				<path style="fill:#263238;" d="M89.22,408.854c0.002-0.029,0.403-0.009,1.128,0.051c0.363,0.028,0.808,0.064,1.316,0.164
					c0.507,0.099,1.098,0.159,1.725,0.34c0.632,0.161,1.329,0.322,2.05,0.588c0.736,0.224,1.49,0.546,2.283,0.89
					c1.565,0.727,3.225,1.675,4.802,2.902c1.565,1.242,2.885,2.626,3.956,3.982c0.515,0.695,1.006,1.353,1.388,2.021
					c0.423,0.642,0.735,1.287,1.029,1.869c0.315,0.572,0.499,1.137,0.704,1.612c0.207,0.475,0.335,0.902,0.437,1.252
					c0.21,0.697,0.312,1.085,0.284,1.093c-0.09,0.031-0.51-1.53-1.692-3.822c-0.307-0.566-0.63-1.193-1.059-1.818
					c-0.389-0.65-0.883-1.29-1.397-1.967c-1.07-1.319-2.373-2.67-3.91-3.89c-1.549-1.205-3.172-2.146-4.704-2.882
					c-0.776-0.348-1.514-0.678-2.234-0.913c-0.706-0.277-1.389-0.452-2.009-0.63C90.821,409.046,89.209,408.946,89.22,408.854z"/>
			</g>
		</g>
	</g>
</g>
</svg>
