<?xml version="1.0" encoding="utf-8"?>
<!-- Generator: Adobe Illustrator 27.3.1, SVG Export Plug-In . SVG Version: 6.00 Build 0)  -->
<svg version="1.1" id="Layer_1" xmlns="http://www.w3.org/2000/svg" xmlns:xlink="http://www.w3.org/1999/xlink" x="0px" y="0px"
	 viewBox="0 0 750 500" style="enable-background:new 0 0 750 500;" xml:space="preserve">
<style type="text/css">
	.st0{opacity:0.15;fill:#6FCECC;enable-background:new    ;}
	.st1{fill:#0BB3B7;}
	.st2{fill:#156F93;}
	.st3{fill:none;stroke:#0BB3B7;stroke-width:0.5;stroke-miterlimit:10;}
	.st4{fill:#2573AD;}
	.st5{fill:#1BA4CE;}
	.st6{fill:#068484;}
	.st7{fill:#04B6BA;}
	.st8{fill:#94E1EB;}
	.st9{fill:none;stroke:#6FCECC;stroke-miterlimit:10;}
	.st10{fill:none;stroke:#6FCECC;stroke-miterlimit:10;stroke-dasharray:5.0968,5.0968;}
	.st11{fill:none;stroke:#6FCECC;stroke-miterlimit:10;stroke-dasharray:5.0795,5.0795;}
	.st12{fill:#00BFCD;}
	.st13{fill:#1ECCDE;}
	.st14{fill:#5CEFF7;}
	.st15{opacity:0.35;}
	.st16{fill:#FFFFFF;}
	.st17{fill:#67D7E0;}
	.st18{fill:#DCFDFF;}
	.st19{fill:none;stroke:#6FCECC;stroke-miterlimit:10;stroke-dasharray:4.9213,4.9213;}
	.st20{fill:none;stroke:#6FCECC;stroke-miterlimit:10;stroke-dasharray:5.1751,5.1751;}
	.st21{fill:none;stroke:#6FCECC;stroke-miterlimit:10;stroke-dasharray:4.8045,4.8045;}
	.st22{fill:none;stroke:#6FCECC;stroke-miterlimit:10;stroke-dasharray:5.3141,5.3141;}
	.st23{fill:none;stroke:#FFFFFF;stroke-width:1.5;stroke-linecap:round;stroke-linejoin:round;stroke-miterlimit:10;}
	.st24{fill:#FCA424;}
	.st25{fill:#FCFCFC;}
	.st26{fill:#E2DED0;}
	.st27{fill:#FECB22;}
	.st28{fill:none;stroke:#028E8E;stroke-linecap:round;stroke-miterlimit:10;}
	.st29{fill:#222B70;}
	.st30{fill:#3E89CC;}
	.st31{fill:#FFCCB0;}
	.st32{fill:#FCB424;}
	.st33{fill:#3B2E7A;}
	.st34{fill:#1BB9C1;}
	.st35{opacity:0.5;fill:#FFFFFF;enable-background:new    ;}
	.st36{fill:#F2A181;}
	.st37{fill:none;}
	.st38{fill:#256EA5;}
	.st39{fill:#65739B;}
	.st40{fill:#35416D;}
	.st41{fill:none;stroke:#222B54;stroke-width:2;stroke-linecap:round;stroke-miterlimit:10;}
	.st42{fill:#0E627C;}
	.st43{fill:#64E2E2;}
	.st44{fill:#222B54;}
	.st45{fill:#3B4772;}
	.st46{fill:#2A8EAD;}
	.st47{fill:none;stroke:#94E1EB;stroke-miterlimit:10;}
	.st48{fill:none;stroke:#156F93;stroke-width:2;stroke-miterlimit:10;}
</style>
<g id="OBJECTS">
	<path class="st0" d="M108,423.5c0,0-47-49.2-23.5-123.6s119-102.8,132-128.1c13-25.3,15.9-83.8,57.7-114.3
		c49.1-35.8,119.9-23.4,152.8,22s62.6,102.6,104.8,107.3c42.2,4.7,84.2,0.1,118.2,65.6s-8.5,156.1-21.5,171.6"/>
	<g>
		<path class="st1" d="M568.6,134.3c0-0.4-0.1-0.7-0.3-1c0,0,0,0,0,0c-0.1-0.2-0.2-0.4-0.3-0.6c-0.1-0.2-0.3-0.4-0.4-0.5
			c-0.1-0.1-0.2-0.2-0.2-0.2c-0.1-0.1-0.2-0.1-0.2-0.2c0,0,0,0,0,0c-0.1-0.1-0.2-0.2-0.3-0.2c-0.3-0.2-0.6-0.3-0.9-0.4
			c-0.1,0-0.2-0.1-0.3-0.1c-0.4-0.1-0.8-0.1-1.2,0l-0.1,0c-0.3,0-0.6,0-0.8,0c-0.7-0.1-1.3-0.3-1.9-0.7c-0.1-0.1-0.2-0.1-0.3-0.2
			c-0.1-0.1-0.2-0.2-0.3-0.3c-0.1-0.1-0.2-0.3-0.3-0.4c-0.1-0.1-0.2-0.3-0.3-0.5c0-0.1-0.1-0.2-0.1-0.3c0-0.1-0.1-0.1-0.1-0.2
			c-0.2-0.7-0.5-1.4-0.8-2c0,0,0,0,0,0c-0.1-0.1-0.1-0.2-0.1-0.4c-0.2-0.5-0.2-1-0.2-1.5c0,0,0,0,0,0c0.1-0.4,0.2-0.8,0.4-1.2
			s0.4-0.7,0.8-1c0.1-0.1,0.2-0.2,0.3-0.3l0.1-0.1c0.1-0.1,0.2-0.2,0.3-0.3c0.3-0.3,0.5-0.6,0.7-0.9c0.1-0.2,0.2-0.3,0.2-0.5v0
			c0.1-0.2,0.1-0.3,0.2-0.5c0.2-1,0-2.1-0.7-3c-0.8-0.9-1.6-1.9-2.4-2.7c-0.9-0.9-1.8-1.7-2.8-2.4c-0.9-0.7-2.1-0.9-3.1-0.7
			c-0.1,0-0.3,0.1-0.4,0.1c-0.5,0.2-1,0.5-1.4,0.9c-0.1,0.1-0.2,0.2-0.3,0.3l-0.1,0.1c-0.4,0.6-1,1-1.7,1.3
			c-0.2,0.1-0.5,0.2-0.8,0.2c0,0-0.1,0-0.1,0c-0.1,0-0.1,0-0.2,0c-0.3,0-0.5,0-0.8,0c-0.2,0-0.4-0.1-0.6-0.1c-0.1,0-0.2-0.1-0.4-0.1
			c-0.2-0.1-0.3-0.2-0.5-0.2c-0.2-0.1-0.5-0.2-0.7-0.3c-0.4-0.2-0.8-0.3-1.2-0.4c0,0,0,0,0,0c-1.5-0.6-2.4-2.1-2.3-3.7l0-0.1l0-0.3
			v0c0.3-1.9-1-3.7-2.8-4.1c-0.1,0-0.3-0.1-0.4-0.1c-1.2-0.1-2.4-0.2-3.7-0.2c-1.2,0-2.5,0.1-3.7,0.2c-2,0.2-3.4,2-3.2,4
			c0,0.1,0,0.2,0,0.3c0,0.2,0,0.4,0,0.5c0,1.4-0.8,2.7-2.1,3.3c-0.1,0-0.2,0.1-0.3,0.1c-0.4,0.1-0.8,0.3-1.1,0.4
			c-0.3,0.1-0.6,0.3-0.9,0.4c-0.1,0-0.2,0.1-0.2,0.1c-1.6,0.7-3.4,0.2-4.5-1.2l0,0c-1.2-1.6-3.3-1.9-5-0.9c-0.1,0.1-0.2,0.2-0.3,0.2
			c-0.9,0.7-1.8,1.6-2.7,2.4c-0.9,0.9-1.7,1.8-2.4,2.7c-0.8,1-1,2.2-0.6,3.4c0.1,0.3,0.2,0.7,0.4,1c0.2,0.2,0.3,0.5,0.5,0.7
			c0.1,0.1,0.2,0.2,0.4,0.3l0,0c1.4,1,1.9,2.9,1.2,4.5c-0.3,0.7-0.6,1.5-0.9,2.2c-0.2,0.5-0.4,0.9-0.7,1.2c-0.2,0.2-0.4,0.4-0.6,0.5
			c-0.2,0.1-0.5,0.3-0.7,0.4c-0.2,0.1-0.4,0.1-0.5,0.2c-0.5,0.1-0.9,0.1-1.4,0.1c-0.2,0-0.4,0-0.5,0c-0.2,0-0.5,0-0.7,0.1
			c-1.6,0.3-2.9,1.6-3,3.2c-0.1,1.2-0.2,2.4-0.2,3.6c0,1.2,0.1,2.4,0.2,3.6c0.2,1.7,1.5,2.9,3,3.2c0.4,0.1,0.8,0.1,1.2,0
			c0.2,0,0.4,0,0.5,0c0.8,0,1.5,0.2,2.1,0.6c0.1,0.1,0.3,0.2,0.4,0.4c0.4,0.4,0.7,0.8,0.9,1.4c0.3,0.8,0.6,1.5,0.9,2.2
			c0.7,1.4,0.3,3.1-0.8,4.2c-0.1,0.1-0.2,0.2-0.3,0.3v0l0,0c-0.1,0.1-0.2,0.2-0.4,0.3c-0.2,0.2-0.4,0.4-0.5,0.7
			c-0.2,0.3-0.4,0.6-0.4,1c0,0.1,0,0.2-0.1,0.3c0,0.1,0,0.2,0,0.3c0,0.1,0,0.2,0,0.4c0,0,0,0,0,0c0,0,0,0.1,0,0.1c0,0.2,0,0.4,0,0.5
			s0.1,0.3,0.1,0.5c0,0,0,0,0,0.1c0,0,0,0,0,0.1c0,0.1,0,0.1,0.1,0.2c0,0.1,0.1,0.2,0.2,0.4c0,0,0,0,0,0.1s0,0.1,0,0.1
			c0.1,0.1,0.2,0.3,0.3,0.4c0.7,0.9,1.5,1.8,2.4,2.7c0.9,0.9,1.8,1.7,2.7,2.4c0.8,0.6,1.7,0.9,2.6,0.8c0.3,0,0.6-0.1,0.9-0.2
			c0.7-0.2,1.3-0.7,1.7-1.3l0.3-0.3c0.4-0.4,0.9-0.8,1.4-0.9l1.3-0.2c0.5,0,1,0.1,1.5,0.3c0.7,0.4,1.5,0.7,2.2,0.9
			c0.7,0.3,1.3,0.8,1.8,1.4c0.2,0.2,0.3,0.5,0.4,0.7c0.2,0.6,0.3,1.2,0.2,1.9v0c-0.3,1.9,1,3.8,2.9,4.1c0,0,0,0,0,0
			c0.1,0,0.2,0.1,0.3,0.1c1.2,0.1,2.4,0.2,3.6,0.2c1.2,0,2.4-0.1,3.6-0.2c0.9-0.1,1.7-0.5,2.2-1.1c0.2-0.2,0.4-0.5,0.6-0.8
			c0.1-0.1,0.2-0.3,0.2-0.4c0.2-0.6,0.3-1.2,0.2-1.9c0-0.2,0-0.4,0-0.5c0-1.5,0.9-2.9,2.4-3.5c0.8-0.3,1.5-0.6,2.2-0.9l0,0
			c1-0.5,2.2-0.4,3.2,0.1c0.2,0.1,0.5,0.3,0.7,0.5c0.1,0.1,0.2,0.2,0.3,0.3c0.1,0.1,0.2,0.2,0.3,0.3l0,0c1.2,1.6,3.3,1.9,4.9,0.9
			c0.1-0.1,0.2-0.1,0.3-0.2c0.9-0.8,1.8-1.6,2.7-2.4c0.9-0.9,1.7-1.8,2.4-2.7c0.8-1,1-2.3,0.6-3.4c0-0.2-0.1-0.3-0.2-0.5
			c-0.1-0.2-0.2-0.3-0.3-0.5c-0.2-0.2-0.3-0.5-0.5-0.7c-0.1-0.1-0.2-0.2-0.3-0.3l0,0v0c-0.1-0.1-0.2-0.2-0.3-0.3
			c-1.1-1.1-1.5-2.8-0.8-4.2c0.3-0.7,0.7-1.5,0.9-2.2c0.6-1.6,2.3-2.6,4-2.3c0.9,0.1,1.8-0.1,2.5-0.5c0.2-0.1,0.4-0.2,0.5-0.4
			c0.1-0.1,0.2-0.1,0.2-0.2c0.1-0.1,0.1-0.1,0.2-0.2c0.4-0.5,0.7-1.2,0.8-1.9c0.1-1.2,0.2-2.4,0.2-3.6
			C568.8,136.7,568.7,135.5,568.6,134.3z M552.8,139.8c0,0.1,0,0.1,0,0.2c0,0.3-0.1,0.6-0.1,0.9c0,0.3-0.1,0.6-0.2,0.9c0,0,0,0,0,0
			c-0.1,0.6-0.3,1.2-0.5,1.8c-0.1,0.3-0.2,0.7-0.4,1c-0.1,0.3-0.2,0.6-0.4,0.9c-0.1,0.2-0.2,0.4-0.3,0.6c-0.3,0.6-0.6,1.1-1,1.7
			c-0.1,0.1-0.2,0.3-0.3,0.4c0,0.1-0.1,0.1-0.1,0.2c-0.1,0.2-0.2,0.3-0.4,0.5c-0.1,0.2-0.3,0.4-0.5,0.6c-0.3,0.4-0.7,0.8-1,1.1
			c-0.2,0.2-0.3,0.3-0.5,0.5c-0.2,0.1-0.3,0.3-0.5,0.4c-0.2,0.2-0.5,0.4-0.7,0.6c-0.6,0.5-1.2,0.9-1.9,1.3c-0.2,0.1-0.4,0.2-0.6,0.4
			c-0.2,0.1-0.5,0.2-0.7,0.4c-0.2,0.1-0.5,0.2-0.7,0.3c-0.4,0.2-0.8,0.3-1.2,0.4c-0.2,0.1-0.4,0.2-0.7,0.2c-0.5,0.1-1,0.3-1.5,0.4
			c-0.2,0.1-0.5,0.1-0.7,0.1c-0.2,0.1-0.5,0.1-0.8,0.1c-1.2,0.1-2.5,0.2-3.8,0.1c-0.2,0-0.5,0-0.8-0.1c-0.2,0-0.5-0.1-0.8-0.1
			c-0.2,0-0.5-0.1-0.8-0.1c-0.8-0.2-1.7-0.4-2.5-0.7c-0.2-0.1-0.4-0.2-0.7-0.3c0,0,0,0-0.1,0c-0.2-0.1-0.5-0.2-0.7-0.3
			c0,0,0,0-0.1,0c-0.2-0.1-0.5-0.2-0.7-0.4c-0.5-0.3-1-0.6-1.5-0.9c0,0,0,0,0,0c-0.2-0.1-0.5-0.3-0.7-0.5c-0.2-0.1-0.4-0.3-0.6-0.5
			c-0.3-0.2-0.5-0.5-0.8-0.7c-0.3-0.2-0.5-0.5-0.8-0.7c-0.2-0.2-0.4-0.4-0.6-0.6c-0.7-0.8-1.3-1.6-1.9-2.5c-0.2-0.2-0.3-0.5-0.4-0.8
			c-0.2-0.3-0.3-0.6-0.4-0.9c-0.1-0.2-0.2-0.3-0.2-0.5c0-0.1-0.1-0.2-0.1-0.3c-0.1-0.1-0.1-0.3-0.2-0.4c-0.1-0.2-0.1-0.4-0.2-0.6
			c0-0.1-0.1-0.1-0.1-0.2c-0.1-0.2-0.2-0.5-0.2-0.7c-0.1-0.4-0.2-0.7-0.3-1.1c0-0.2-0.1-0.4-0.1-0.7c-0.1-0.4-0.1-0.8-0.2-1.3
			c-0.1-0.6-0.1-1.2-0.1-1.8c0,0,0,0,0,0c0-0.6,0-1.2,0.1-1.8c0-0.1,0-0.1,0-0.2c0-0.3,0.1-0.6,0.1-0.9c0-0.3,0.1-0.6,0.2-0.9
			c0,0,0,0,0,0c0.1-0.6,0.3-1.2,0.5-1.8c0.1-0.2,0.2-0.5,0.3-0.7c0.1-0.2,0.1-0.4,0.2-0.6c0-0.1,0.1-0.2,0.2-0.4
			c0.1-0.2,0.1-0.3,0.2-0.5c0.2-0.5,0.5-0.9,0.7-1.3c0.1-0.2,0.2-0.4,0.4-0.6c0,0,0,0,0-0.1c0.1-0.2,0.3-0.4,0.4-0.6
			c0.2-0.3,0.4-0.5,0.6-0.8c0.2-0.2,0.4-0.5,0.6-0.7c0.2-0.2,0.4-0.5,0.6-0.7c1.1-1.1,2.4-2.1,3.7-2.9c0.2-0.1,0.4-0.2,0.7-0.4
			s0.5-0.2,0.7-0.3c0.2-0.1,0.4-0.2,0.7-0.3c0.4-0.2,0.8-0.3,1.3-0.5c0.2-0.1,0.4-0.1,0.6-0.2c0.2-0.1,0.5-0.1,0.7-0.2
			s0.5-0.1,0.7-0.2c0.2-0.1,0.5-0.1,0.7-0.1c0.2-0.1,0.5-0.1,0.8-0.1c0.2,0,0.5-0.1,0.8-0.1c1-0.1,2-0.1,3,0c0.2,0,0.5,0,0.8,0.1
			c0.2,0,0.5,0.1,0.8,0.1c0.2,0,0.5,0.1,0.8,0.1c0.6,0.1,1.2,0.3,1.8,0.5c0.2,0.1,0.3,0.1,0.5,0.2c0.8,0.3,1.7,0.7,2.5,1.1
			c0.3,0.1,0.5,0.3,0.8,0.4c0.2,0.1,0.5,0.3,0.7,0.4c0.2,0.2,0.5,0.3,0.7,0.5c0,0,0.1,0.1,0.1,0.1c0.2,0.2,0.4,0.3,0.7,0.5
			c0.2,0.2,0.4,0.3,0.6,0.5c0.5,0.4,0.9,0.8,1.3,1.3c0.2,0.2,0.3,0.3,0.5,0.5c0.3,0.3,0.5,0.6,0.7,0.9c0.1,0.2,0.2,0.3,0.3,0.5
			c0.4,0.6,0.7,1.1,1,1.7c0.1,0.2,0.2,0.5,0.4,0.7c0,0.1,0,0.1,0.1,0.1c0.1,0.2,0.2,0.5,0.3,0.8c0,0,0,0.1,0,0.1
			c0.1,0.2,0.2,0.4,0.2,0.7c0,0.1,0.1,0.3,0.1,0.4c0.2,0.6,0.3,1.2,0.5,1.8c0,0.2,0.1,0.4,0.1,0.5c0.1,0.5,0.2,0.9,0.2,1.4
			c0.1,0.6,0.1,1.2,0.1,1.8C552.9,138.5,552.9,139.1,552.8,139.8z"/>
		<path class="st2" d="M508.7,106.1c0-0.2-0.1-0.4-0.2-0.6c0,0,0,0,0,0c-0.1-0.1-0.1-0.2-0.2-0.4c-0.1-0.1-0.2-0.2-0.3-0.3
			c0-0.1-0.1-0.1-0.1-0.1c0-0.1-0.1-0.1-0.2-0.1c0,0,0,0,0,0c-0.1-0.1-0.1-0.1-0.2-0.1c-0.2-0.1-0.4-0.2-0.5-0.2c-0.1,0-0.1,0-0.2,0
			c-0.2,0-0.5-0.1-0.8,0l0,0c-0.2,0-0.4,0-0.5,0c-0.4,0-0.8-0.2-1.2-0.4c-0.1,0-0.1-0.1-0.2-0.1c-0.1-0.1-0.1-0.1-0.2-0.2
			c-0.1-0.1-0.2-0.2-0.2-0.3c-0.1-0.1-0.1-0.2-0.2-0.3c0-0.1,0-0.1-0.1-0.2c0-0.1,0-0.1-0.1-0.1c-0.2-0.4-0.3-0.9-0.5-1.3
			c0,0,0,0,0,0c0-0.1-0.1-0.2-0.1-0.2c-0.1-0.3-0.1-0.6-0.1-1c0,0,0,0,0,0c0-0.3,0.1-0.5,0.2-0.8c0.1-0.2,0.3-0.5,0.5-0.6
			c0.1-0.1,0.1-0.1,0.2-0.2l0,0c0.1-0.1,0.1-0.1,0.2-0.2c0.2-0.2,0.3-0.4,0.4-0.6c0.1-0.1,0.1-0.2,0.1-0.3v0c0-0.1,0.1-0.2,0.1-0.3
			c0.1-0.6,0-1.3-0.4-1.9c-0.5-0.6-1-1.2-1.5-1.7c-0.6-0.6-1.1-1.1-1.7-1.5c-0.6-0.5-1.3-0.6-1.9-0.4c-0.1,0-0.2,0.1-0.2,0.1
			c-0.3,0.1-0.6,0.3-0.9,0.6c-0.1,0.1-0.1,0.1-0.2,0.2l0,0.1c-0.3,0.4-0.6,0.6-1.1,0.8c-0.1,0.1-0.3,0.1-0.5,0.1c0,0,0,0-0.1,0
			c0,0-0.1,0-0.1,0c-0.2,0-0.3,0-0.5,0c-0.1,0-0.2,0-0.4-0.1c-0.1,0-0.1-0.1-0.2-0.1c-0.1,0-0.2-0.1-0.3-0.1
			c-0.1-0.1-0.3-0.1-0.4-0.2c-0.2-0.1-0.5-0.2-0.7-0.3c0,0,0,0,0,0c-0.9-0.4-1.5-1.3-1.4-2.3l0,0l0-0.2v0c0.2-1.2-0.6-2.3-1.7-2.6
			c-0.1,0-0.2,0-0.3-0.1c-0.8-0.1-1.5-0.1-2.3-0.1c-0.8,0-1.5,0-2.3,0.1c-1.2,0.1-2.1,1.3-2,2.5c0,0.1,0,0.1,0,0.2
			c0,0.1,0,0.2,0,0.3c0,0.9-0.5,1.7-1.3,2.1c-0.1,0-0.1,0.1-0.2,0.1c-0.2,0.1-0.5,0.2-0.7,0.3c-0.2,0.1-0.4,0.2-0.6,0.2
			c0,0-0.1,0-0.1,0.1c-1,0.5-2.2,0.1-2.8-0.7l0,0c-0.7-1-2.1-1.2-3.1-0.6c-0.1,0-0.1,0.1-0.2,0.1c-0.6,0.5-1.2,1-1.7,1.5
			c-0.5,0.5-1.1,1.1-1.5,1.7c-0.5,0.6-0.6,1.4-0.4,2.1c0.1,0.2,0.1,0.4,0.3,0.6c0.1,0.2,0.2,0.3,0.3,0.4c0.1,0.1,0.1,0.1,0.2,0.2
			l0,0c0.9,0.6,1.2,1.8,0.7,2.8c-0.2,0.5-0.4,0.9-0.6,1.4c-0.1,0.3-0.3,0.5-0.5,0.8c-0.1,0.1-0.2,0.2-0.4,0.3
			c-0.1,0.1-0.3,0.2-0.5,0.2c-0.1,0-0.2,0.1-0.3,0.1c-0.3,0.1-0.6,0.1-0.9,0c-0.1,0-0.2,0-0.3,0c-0.1,0-0.3,0-0.4,0
			c-1,0.2-1.8,1-1.9,2c-0.1,0.7-0.1,1.5-0.1,2.3c0,0.8,0,1.5,0.1,2.3c0.1,1,0.9,1.8,1.9,2c0.2,0,0.5,0.1,0.8,0c0.1,0,0.2,0,0.3,0
			c0.5,0,0.9,0.1,1.3,0.4c0.1,0.1,0.2,0.1,0.3,0.2c0.2,0.2,0.5,0.5,0.6,0.9c0.2,0.5,0.4,0.9,0.6,1.4c0.4,0.9,0.2,2-0.5,2.6
			c-0.1,0.1-0.1,0.1-0.2,0.2v0l0,0c-0.1,0.1-0.1,0.1-0.2,0.2c-0.1,0.1-0.2,0.3-0.3,0.4c-0.1,0.2-0.2,0.4-0.3,0.6c0,0.1,0,0.1,0,0.2
			c0,0.1,0,0.1,0,0.2c0,0.1,0,0.2,0,0.2c0,0,0,0,0,0c0,0,0,0,0,0.1c0,0.1,0,0.2,0,0.3c0,0.1,0,0.2,0.1,0.3c0,0,0,0,0,0c0,0,0,0,0,0
			c0,0,0,0.1,0,0.1c0,0.1,0.1,0.2,0.1,0.2c0,0,0,0,0,0c0,0,0,0,0,0c0,0.1,0.1,0.2,0.2,0.3c0.5,0.6,1,1.2,1.5,1.7
			c0.5,0.5,1.1,1,1.7,1.5c0.5,0.4,1.1,0.5,1.6,0.5c0.2,0,0.4-0.1,0.6-0.1c0.4-0.1,0.8-0.4,1.1-0.8l0.2-0.2c0.3-0.3,0.6-0.5,0.9-0.6
			l0.8-0.1c0.3,0,0.6,0.1,0.9,0.2c0.5,0.2,0.9,0.4,1.4,0.6c0.5,0.2,0.8,0.5,1.1,0.9c0.1,0.1,0.2,0.3,0.2,0.5
			c0.1,0.4,0.2,0.8,0.1,1.2v0c-0.2,1.2,0.6,2.3,1.8,2.6c0,0,0,0,0,0c0.1,0,0.1,0,0.2,0c0.7,0.1,1.5,0.1,2.3,0.1c0.8,0,1.5,0,2.3-0.1
			c0.6-0.1,1-0.3,1.4-0.7c0.1-0.1,0.3-0.3,0.4-0.5c0-0.1,0.1-0.2,0.1-0.3c0.1-0.4,0.2-0.8,0.1-1.2c0-0.1,0-0.2,0-0.3
			c0-1,0.6-1.8,1.5-2.2c0.5-0.2,0.9-0.4,1.4-0.6l0,0c0.6-0.3,1.4-0.3,2,0c0.2,0.1,0.3,0.2,0.5,0.3c0.1,0.1,0.1,0.1,0.2,0.2
			c0.1,0.1,0.1,0.1,0.2,0.2l0,0c0.7,1,2.1,1.2,3.1,0.6c0.1,0,0.1-0.1,0.2-0.2c0.6-0.5,1.2-1,1.7-1.5c0.5-0.5,1-1.1,1.5-1.7
			c0.5-0.6,0.6-1.4,0.4-2.1c0-0.1-0.1-0.2-0.1-0.3c0-0.1-0.1-0.2-0.2-0.3c-0.1-0.2-0.2-0.3-0.3-0.4c-0.1-0.1-0.1-0.1-0.2-0.2l0,0v0
			c-0.1-0.1-0.1-0.1-0.2-0.2c-0.7-0.7-0.9-1.7-0.5-2.6c0.2-0.5,0.4-0.9,0.6-1.4c0.4-1,1.4-1.6,2.5-1.5c0.6,0.1,1.1,0,1.6-0.3
			c0.1-0.1,0.2-0.2,0.3-0.2c0-0.1,0.1-0.1,0.1-0.1c0,0,0.1-0.1,0.1-0.1c0.3-0.3,0.5-0.7,0.5-1.2c0.1-0.7,0.1-1.5,0.1-2.3
			C508.8,107.6,508.8,106.9,508.7,106.1z M498.8,109.5c0,0,0,0.1,0,0.1c0,0.2,0,0.4-0.1,0.6c0,0.2-0.1,0.4-0.1,0.6c0,0,0,0,0,0
			c-0.1,0.4-0.2,0.7-0.3,1.1c-0.1,0.2-0.1,0.4-0.2,0.6c-0.1,0.2-0.2,0.4-0.2,0.6c-0.1,0.1-0.1,0.3-0.2,0.4c-0.2,0.4-0.4,0.7-0.6,1.1
			c-0.1,0.1-0.1,0.2-0.2,0.3c0,0,0,0.1-0.1,0.1c-0.1,0.1-0.1,0.2-0.2,0.3c-0.1,0.1-0.2,0.2-0.3,0.4c-0.2,0.2-0.4,0.5-0.6,0.7
			c-0.1,0.1-0.2,0.2-0.3,0.3c-0.1,0.1-0.2,0.2-0.3,0.3c-0.1,0.1-0.3,0.2-0.5,0.4c-0.4,0.3-0.8,0.6-1.2,0.8c-0.1,0.1-0.3,0.2-0.4,0.2
			c-0.1,0.1-0.3,0.2-0.5,0.2c-0.1,0.1-0.3,0.1-0.4,0.2c-0.2,0.1-0.5,0.2-0.7,0.3c-0.1,0.1-0.3,0.1-0.4,0.1c-0.3,0.1-0.6,0.2-0.9,0.2
			c-0.1,0-0.3,0.1-0.5,0.1c-0.2,0-0.3,0.1-0.5,0.1c-0.8,0.1-1.6,0.1-2.4,0.1c-0.2,0-0.3,0-0.5-0.1c-0.2,0-0.3,0-0.5-0.1
			c-0.2,0-0.3-0.1-0.5-0.1c-0.5-0.1-1.1-0.3-1.6-0.5c-0.1-0.1-0.3-0.1-0.4-0.2c0,0,0,0,0,0c-0.1-0.1-0.3-0.1-0.4-0.2c0,0,0,0,0,0
			c-0.2-0.1-0.3-0.2-0.5-0.2c-0.3-0.2-0.6-0.4-0.9-0.6c0,0,0,0,0,0c-0.1-0.1-0.3-0.2-0.4-0.3c-0.1-0.1-0.2-0.2-0.4-0.3
			c-0.2-0.1-0.3-0.3-0.5-0.4c-0.2-0.1-0.3-0.3-0.5-0.5c-0.1-0.1-0.3-0.3-0.4-0.4c-0.4-0.5-0.8-1-1.2-1.6c-0.1-0.2-0.2-0.3-0.3-0.5
			c-0.1-0.2-0.2-0.4-0.3-0.5c0-0.1-0.1-0.2-0.1-0.3c0-0.1-0.1-0.1-0.1-0.2c0-0.1-0.1-0.2-0.1-0.3c0-0.1-0.1-0.2-0.1-0.4
			c0,0,0-0.1,0-0.1c0-0.2-0.1-0.3-0.1-0.5c-0.1-0.2-0.1-0.5-0.2-0.7c0-0.1-0.1-0.3-0.1-0.4c0-0.3-0.1-0.5-0.1-0.8
			c0-0.4-0.1-0.8-0.1-1.2c0,0,0,0,0,0c0-0.4,0-0.8,0.1-1.1c0,0,0-0.1,0-0.1c0-0.2,0-0.4,0.1-0.6c0-0.2,0.1-0.4,0.1-0.6c0,0,0,0,0,0
			c0.1-0.4,0.2-0.7,0.3-1.1c0-0.2,0.1-0.3,0.2-0.5c0-0.1,0.1-0.2,0.1-0.3c0-0.1,0.1-0.2,0.1-0.2c0-0.1,0.1-0.2,0.1-0.3
			c0.1-0.3,0.3-0.6,0.5-0.8c0.1-0.1,0.2-0.3,0.2-0.4c0,0,0,0,0,0c0.1-0.1,0.2-0.2,0.3-0.4c0.1-0.2,0.2-0.3,0.4-0.5
			c0.1-0.2,0.2-0.3,0.4-0.5c0.1-0.2,0.3-0.3,0.4-0.4c0.7-0.7,1.5-1.3,2.3-1.8c0.1-0.1,0.3-0.2,0.4-0.2c0.1-0.1,0.3-0.1,0.4-0.2
			c0.1-0.1,0.3-0.1,0.4-0.2c0.3-0.1,0.5-0.2,0.8-0.3c0.1-0.1,0.2-0.1,0.4-0.1c0.2,0,0.3-0.1,0.5-0.1s0.3-0.1,0.5-0.1
			c0.2,0,0.3-0.1,0.5-0.1c0.2,0,0.3-0.1,0.5-0.1c0.2,0,0.3,0,0.5-0.1c0.6-0.1,1.3-0.1,1.9,0c0.2,0,0.3,0,0.5,0.1
			c0.2,0,0.3,0,0.5,0.1c0.2,0,0.3,0.1,0.5,0.1c0.4,0.1,0.8,0.2,1.2,0.3c0.1,0,0.2,0.1,0.3,0.1c0.5,0.2,1,0.4,1.5,0.7
			c0.2,0.1,0.3,0.2,0.5,0.3c0.1,0.1,0.3,0.2,0.4,0.3c0.1,0.1,0.3,0.2,0.4,0.3c0,0,0,0,0.1,0c0.1,0.1,0.3,0.2,0.4,0.3
			c0.1,0.1,0.3,0.2,0.4,0.3c0.3,0.3,0.6,0.5,0.8,0.8c0.1,0.1,0.2,0.2,0.3,0.3c0.2,0.2,0.3,0.4,0.5,0.6c0.1,0.1,0.1,0.2,0.2,0.3
			c0.2,0.3,0.5,0.7,0.6,1.1c0.1,0.1,0.2,0.3,0.2,0.4c0,0,0,0.1,0,0.1c0.1,0.2,0.1,0.3,0.2,0.5c0,0,0,0.1,0,0.1
			c0.1,0.1,0.1,0.3,0.1,0.4c0,0.1,0.1,0.2,0.1,0.2c0.1,0.4,0.2,0.7,0.3,1.1c0,0.1,0,0.2,0.1,0.3c0,0.3,0.1,0.6,0.1,0.9
			c0,0.4,0.1,0.8,0.1,1.2C498.9,108.8,498.8,109.2,498.8,109.5z"/>
		<path class="st3" d="M545.3,80.6c0-0.2-0.1-0.4-0.2-0.6c0,0,0,0,0,0c-0.1-0.1-0.1-0.2-0.2-0.4c-0.1-0.1-0.2-0.2-0.3-0.3
			c0-0.1-0.1-0.1-0.1-0.1c0-0.1-0.1-0.1-0.2-0.1c0,0,0,0,0,0c-0.1-0.1-0.1-0.1-0.2-0.1c-0.2-0.1-0.3-0.2-0.5-0.2c-0.1,0-0.1,0-0.2,0
			c-0.2,0-0.5-0.1-0.8,0l0,0c-0.2,0-0.4,0-0.5,0c-0.4,0-0.8-0.2-1.2-0.4c-0.1,0-0.1-0.1-0.2-0.1c-0.1-0.1-0.1-0.1-0.2-0.2
			c-0.1-0.1-0.2-0.2-0.2-0.3c-0.1-0.1-0.1-0.2-0.2-0.3c0-0.1,0-0.1-0.1-0.2c0-0.1,0-0.1-0.1-0.1c-0.2-0.4-0.3-0.9-0.5-1.3
			c0,0,0,0,0,0c0-0.1-0.1-0.2-0.1-0.2c-0.1-0.3-0.1-0.6-0.1-1c0,0,0,0,0,0c0-0.3,0.1-0.5,0.2-0.8c0.1-0.2,0.3-0.5,0.5-0.6
			c0.1-0.1,0.1-0.1,0.2-0.2l0,0c0.1-0.1,0.1-0.1,0.2-0.2c0.2-0.2,0.3-0.4,0.4-0.6c0.1-0.1,0.1-0.2,0.1-0.3v0c0-0.1,0.1-0.2,0.1-0.3
			c0.1-0.6,0-1.3-0.4-1.9c-0.5-0.6-1-1.2-1.5-1.7c-0.6-0.6-1.1-1.1-1.7-1.5c-0.6-0.5-1.3-0.6-1.9-0.4c-0.1,0-0.2,0.1-0.2,0.1
			c-0.3,0.1-0.6,0.3-0.9,0.6c-0.1,0.1-0.1,0.1-0.2,0.2l0,0.1c-0.3,0.4-0.6,0.6-1.1,0.8c-0.2,0.1-0.3,0.1-0.5,0.1c0,0,0,0-0.1,0
			c0,0-0.1,0-0.1,0c-0.2,0-0.3,0-0.5,0c-0.1,0-0.2,0-0.4-0.1c-0.1,0-0.2-0.1-0.2-0.1c-0.1,0-0.2-0.1-0.3-0.1
			c-0.1-0.1-0.3-0.1-0.4-0.2c-0.2-0.1-0.5-0.2-0.7-0.3c0,0,0,0,0,0c-0.9-0.4-1.5-1.3-1.4-2.3l0,0l0-0.2v0c0.2-1.2-0.6-2.3-1.7-2.6
			c-0.1,0-0.2,0-0.3,0c-0.8-0.1-1.5-0.1-2.3-0.1c-0.8,0-1.5,0-2.3,0.1c-1.2,0.1-2.1,1.3-2,2.5c0,0.1,0,0.1,0,0.2c0,0.1,0,0.2,0,0.3
			c0,0.9-0.5,1.7-1.3,2.1c-0.1,0-0.1,0.1-0.2,0.1c-0.2,0.1-0.5,0.2-0.7,0.3c-0.2,0.1-0.4,0.2-0.6,0.2c0,0-0.1,0-0.1,0.1
			c-1,0.5-2.2,0.1-2.8-0.7l0,0c-0.7-1-2.1-1.2-3.1-0.6c-0.1,0-0.1,0.1-0.2,0.1c-0.6,0.5-1.2,1-1.7,1.5c-0.5,0.5-1.1,1.1-1.5,1.7
			c-0.5,0.6-0.6,1.4-0.4,2.1c0.1,0.2,0.1,0.4,0.3,0.6c0.1,0.2,0.2,0.3,0.3,0.4c0.1,0.1,0.1,0.1,0.2,0.2l0,0c0.9,0.6,1.2,1.8,0.7,2.8
			c-0.2,0.5-0.4,0.9-0.6,1.4c-0.1,0.3-0.3,0.5-0.5,0.8c-0.1,0.1-0.2,0.2-0.4,0.3c-0.1,0.1-0.3,0.2-0.5,0.2c-0.1,0-0.2,0.1-0.3,0.1
			c-0.3,0.1-0.6,0.1-0.9,0c-0.1,0-0.2,0-0.3,0c-0.1,0-0.3,0-0.4,0c-1,0.2-1.8,1-1.9,2c-0.1,0.7-0.1,1.5-0.1,2.3c0,0.8,0,1.5,0.1,2.3
			c0.1,1,0.9,1.8,1.9,2c0.2,0,0.5,0.1,0.8,0c0.1,0,0.2,0,0.3,0c0.5,0,0.9,0.1,1.3,0.4c0.1,0.1,0.2,0.1,0.3,0.2
			c0.2,0.2,0.5,0.5,0.6,0.9c0.2,0.5,0.4,0.9,0.6,1.4c0.4,0.9,0.2,2-0.5,2.6c-0.1,0.1-0.1,0.1-0.2,0.2v0l0,0
			c-0.1,0.1-0.1,0.1-0.2,0.2c-0.1,0.1-0.2,0.3-0.3,0.4c-0.1,0.2-0.2,0.4-0.3,0.6c0,0.1,0,0.1,0,0.2s0,0.1,0,0.2c0,0.1,0,0.2,0,0.2
			c0,0,0,0,0,0c0,0,0,0,0,0.1c0,0.1,0,0.2,0,0.3c0,0.1,0,0.2,0.1,0.3c0,0,0,0,0,0c0,0,0,0,0,0c0,0,0,0.1,0,0.1
			c0,0.1,0.1,0.2,0.1,0.2c0,0,0,0,0,0c0,0,0,0,0,0c0,0.1,0.1,0.2,0.2,0.3c0.5,0.6,1,1.2,1.5,1.7c0.5,0.5,1.1,1,1.7,1.5
			c0.5,0.4,1.1,0.5,1.6,0.5c0.2,0,0.4-0.1,0.6-0.1c0.4-0.1,0.8-0.4,1.1-0.8l0.2-0.2c0.3-0.3,0.6-0.5,0.9-0.6l0.8-0.1
			c0.3,0,0.6,0.1,0.9,0.2c0.5,0.2,0.9,0.4,1.4,0.6c0.5,0.2,0.8,0.5,1.1,0.9c0.1,0.1,0.2,0.3,0.2,0.5c0.1,0.4,0.2,0.8,0.1,1.2v0
			c-0.2,1.2,0.6,2.3,1.8,2.6c0,0,0,0,0,0c0.1,0,0.1,0,0.2,0c0.7,0.1,1.5,0.1,2.3,0.1c0.8,0,1.5,0,2.3-0.1c0.6-0.1,1-0.3,1.4-0.7
			c0.1-0.2,0.3-0.3,0.4-0.5c0-0.1,0.1-0.2,0.1-0.3c0.1-0.4,0.2-0.8,0.1-1.2c0-0.1,0-0.2,0-0.3c0-1,0.6-1.8,1.5-2.2
			c0.5-0.2,0.9-0.4,1.4-0.6l0,0c0.6-0.3,1.4-0.3,2,0c0.2,0.1,0.3,0.2,0.5,0.3c0.1,0.1,0.1,0.1,0.2,0.2c0.1,0.1,0.1,0.1,0.2,0.2l0,0
			c0.7,1,2.1,1.2,3.1,0.6c0.1,0,0.1-0.1,0.2-0.2c0.6-0.5,1.2-1,1.7-1.5c0.5-0.5,1-1.1,1.5-1.7c0.5-0.6,0.6-1.4,0.4-2.1
			c0-0.1-0.1-0.2-0.1-0.3c0-0.1-0.1-0.2-0.2-0.3c-0.1-0.2-0.2-0.3-0.3-0.4c-0.1-0.1-0.1-0.1-0.2-0.2l0,0v0c-0.1-0.1-0.1-0.1-0.2-0.2
			c-0.7-0.7-0.9-1.7-0.5-2.6c0.2-0.5,0.4-0.9,0.6-1.4c0.4-1,1.4-1.6,2.5-1.5c0.6,0.1,1.1,0,1.6-0.3c0.1-0.1,0.2-0.2,0.3-0.2
			c0-0.1,0.1-0.1,0.2-0.1c0,0,0.1-0.1,0.1-0.1c0.3-0.3,0.5-0.7,0.5-1.2c0.1-0.7,0.1-1.5,0.1-2.3C545.4,82.1,545.4,81.4,545.3,80.6z
			 M535.4,84.1c0,0,0,0.1,0,0.1c0,0.2,0,0.4-0.1,0.6c0,0.2-0.1,0.4-0.1,0.6c0,0,0,0,0,0c-0.1,0.4-0.2,0.7-0.3,1.1
			c-0.1,0.2-0.2,0.4-0.2,0.6c-0.1,0.2-0.2,0.4-0.2,0.6c-0.1,0.1-0.1,0.3-0.2,0.4c-0.2,0.4-0.4,0.7-0.6,1.1c-0.1,0.1-0.1,0.2-0.2,0.3
			c0,0,0,0.1-0.1,0.1c-0.1,0.1-0.1,0.2-0.2,0.3c-0.1,0.1-0.2,0.2-0.3,0.4c-0.2,0.2-0.4,0.5-0.6,0.7c-0.1,0.1-0.2,0.2-0.3,0.3
			c-0.1,0.1-0.2,0.2-0.3,0.3c-0.2,0.1-0.3,0.2-0.5,0.4c-0.4,0.3-0.8,0.6-1.2,0.8c-0.1,0.1-0.3,0.2-0.4,0.2c-0.2,0.1-0.3,0.2-0.5,0.2
			c-0.1,0.1-0.3,0.1-0.4,0.2c-0.2,0.1-0.5,0.2-0.7,0.3c-0.1,0.1-0.3,0.1-0.4,0.1c-0.3,0.1-0.6,0.2-0.9,0.2c-0.2,0-0.3,0.1-0.5,0.1
			c-0.2,0-0.3,0.1-0.5,0.1c-0.8,0.1-1.6,0.1-2.4,0.1c-0.2,0-0.3,0-0.5-0.1c-0.2,0-0.3,0-0.5-0.1c-0.2,0-0.3-0.1-0.5-0.1
			c-0.5-0.1-1.1-0.3-1.6-0.5c-0.1-0.1-0.3-0.1-0.4-0.2c0,0,0,0,0,0c-0.2-0.1-0.3-0.1-0.4-0.2c0,0,0,0,0,0c-0.2-0.1-0.3-0.2-0.5-0.2
			c-0.3-0.2-0.6-0.4-0.9-0.6c0,0,0,0,0,0c-0.1-0.1-0.3-0.2-0.4-0.3c-0.1-0.1-0.2-0.2-0.4-0.3c-0.2-0.1-0.3-0.3-0.5-0.4
			c-0.2-0.1-0.3-0.3-0.5-0.5c-0.1-0.1-0.3-0.3-0.4-0.4c-0.4-0.5-0.8-1-1.2-1.6c-0.1-0.2-0.2-0.3-0.3-0.5c-0.1-0.2-0.2-0.4-0.3-0.5
			c0-0.1-0.1-0.2-0.1-0.3c0-0.1-0.1-0.1-0.1-0.2c0-0.1-0.1-0.2-0.1-0.3c0-0.1-0.1-0.2-0.1-0.4c0,0,0-0.1,0-0.1
			c0-0.2-0.1-0.3-0.1-0.5c-0.1-0.2-0.1-0.5-0.2-0.7c0-0.1-0.1-0.3-0.1-0.4c0-0.3-0.1-0.5-0.1-0.8c0-0.4-0.1-0.8-0.1-1.2c0,0,0,0,0,0
			c0-0.4,0-0.8,0.1-1.1c0,0,0-0.1,0-0.1c0-0.2,0-0.4,0.1-0.6c0-0.2,0.1-0.4,0.1-0.6c0,0,0,0,0,0c0.1-0.4,0.2-0.7,0.3-1.1
			c0-0.2,0.1-0.3,0.2-0.5c0-0.1,0.1-0.2,0.1-0.3c0-0.1,0.1-0.2,0.1-0.2c0-0.1,0.1-0.2,0.1-0.3c0.1-0.3,0.3-0.6,0.5-0.8
			c0.1-0.1,0.2-0.3,0.2-0.4c0,0,0,0,0,0c0.1-0.1,0.2-0.2,0.3-0.4c0.1-0.2,0.2-0.3,0.4-0.5c0.1-0.2,0.2-0.3,0.4-0.5
			c0.1-0.2,0.3-0.3,0.4-0.4c0.7-0.7,1.5-1.3,2.3-1.8c0.1-0.1,0.3-0.2,0.4-0.2c0.1-0.1,0.3-0.1,0.4-0.2c0.1-0.1,0.3-0.1,0.4-0.2
			c0.3-0.1,0.5-0.2,0.8-0.3c0.1-0.1,0.2-0.1,0.4-0.1c0.2,0,0.3-0.1,0.5-0.1s0.3-0.1,0.5-0.1c0.2,0,0.3-0.1,0.5-0.1
			c0.2,0,0.3-0.1,0.5-0.1c0.2,0,0.3,0,0.5-0.1c0.6-0.1,1.3-0.1,1.9,0c0.2,0,0.3,0,0.5,0.1c0.2,0,0.3,0,0.5,0.1
			c0.2,0,0.3,0.1,0.5,0.1c0.4,0.1,0.8,0.2,1.2,0.3c0.1,0,0.2,0.1,0.3,0.1c0.5,0.2,1,0.4,1.5,0.7c0.2,0.1,0.3,0.2,0.5,0.3
			c0.2,0.1,0.3,0.2,0.4,0.3c0.1,0.1,0.3,0.2,0.4,0.3c0,0,0,0,0.1,0c0.1,0.1,0.3,0.2,0.4,0.3c0.1,0.1,0.3,0.2,0.4,0.3
			c0.3,0.3,0.6,0.5,0.8,0.8c0.1,0.1,0.2,0.2,0.3,0.3c0.2,0.2,0.3,0.4,0.5,0.6c0.1,0.1,0.1,0.2,0.2,0.3c0.2,0.3,0.5,0.7,0.6,1.1
			c0.1,0.1,0.2,0.3,0.2,0.4c0,0,0,0.1,0,0.1c0.1,0.2,0.1,0.3,0.2,0.5c0,0,0,0.1,0,0.1c0.1,0.1,0.1,0.3,0.2,0.4
			c0,0.1,0.1,0.2,0.1,0.2c0.1,0.4,0.2,0.7,0.3,1.1c0,0.1,0,0.2,0.1,0.3c0,0.3,0.1,0.6,0.1,0.9c0,0.4,0.1,0.8,0.1,1.2
			C535.5,83.3,535.5,83.7,535.4,84.1z"/>
		<path class="st3" d="M293.9,111.8c0-0.2-0.1-0.4-0.2-0.6c0,0,0,0,0,0c-0.1-0.1-0.1-0.2-0.2-0.4c-0.1-0.1-0.2-0.2-0.3-0.3
			c0-0.1-0.1-0.1-0.1-0.1c0-0.1-0.1-0.1-0.2-0.1c0,0,0,0,0,0c-0.1-0.1-0.1-0.1-0.2-0.1c-0.2-0.1-0.4-0.2-0.5-0.2c-0.1,0-0.1,0-0.2,0
			c-0.2,0-0.5-0.1-0.8,0l0,0c-0.2,0-0.4,0-0.5,0c-0.4,0-0.8-0.2-1.2-0.4c-0.1,0-0.1-0.1-0.2-0.1c-0.1-0.1-0.1-0.1-0.2-0.2
			c-0.1-0.1-0.2-0.2-0.2-0.3c-0.1-0.1-0.1-0.2-0.2-0.3c0-0.1,0-0.1-0.1-0.2c0-0.1,0-0.1-0.1-0.1c-0.2-0.4-0.3-0.9-0.5-1.3
			c0,0,0,0,0,0c0-0.1-0.1-0.2-0.1-0.2c-0.1-0.3-0.1-0.6-0.1-1c0,0,0,0,0,0c0-0.3,0.1-0.5,0.2-0.8c0.1-0.2,0.3-0.5,0.5-0.6
			c0.1-0.1,0.1-0.1,0.2-0.2l0,0c0.1-0.1,0.1-0.1,0.2-0.2c0.2-0.2,0.3-0.4,0.4-0.6c0.1-0.1,0.1-0.2,0.1-0.3v0c0-0.1,0.1-0.2,0.1-0.3
			c0.1-0.6,0-1.3-0.4-1.9c-0.5-0.6-1-1.2-1.5-1.7c-0.6-0.6-1.1-1.1-1.7-1.5c-0.6-0.5-1.3-0.6-1.9-0.4c-0.1,0-0.2,0.1-0.2,0.1
			c-0.3,0.1-0.6,0.3-0.9,0.6c-0.1,0.1-0.1,0.1-0.2,0.2l0,0.1c-0.3,0.4-0.6,0.6-1.1,0.8c-0.1,0.1-0.3,0.1-0.5,0.1c0,0,0,0-0.1,0
			c0,0-0.1,0-0.1,0c-0.2,0-0.3,0-0.5,0c-0.1,0-0.2,0-0.4-0.1c-0.1,0-0.1-0.1-0.2-0.1c-0.1,0-0.2-0.1-0.3-0.1
			c-0.1-0.1-0.3-0.1-0.4-0.2c-0.2-0.1-0.5-0.2-0.7-0.3c0,0,0,0,0,0c-0.9-0.4-1.5-1.3-1.4-2.3l0,0l0-0.2v0c0.2-1.2-0.6-2.3-1.7-2.6
			c-0.1,0-0.2,0-0.3-0.1c-0.8-0.1-1.5-0.1-2.3-0.1c-0.8,0-1.5,0-2.3,0.1c-1.2,0.1-2.1,1.3-2,2.5c0,0.1,0,0.1,0,0.2
			c0,0.1,0,0.2,0,0.3c0,0.9-0.5,1.7-1.3,2.1c-0.1,0-0.1,0.1-0.2,0.1c-0.2,0.1-0.5,0.2-0.7,0.3c-0.2,0.1-0.4,0.2-0.6,0.2
			c0,0-0.1,0-0.1,0.1c-1,0.5-2.2,0.1-2.8-0.7l0,0c-0.7-1-2.1-1.2-3.1-0.6c-0.1,0-0.1,0.1-0.2,0.1c-0.6,0.5-1.2,1-1.7,1.5
			c-0.5,0.5-1.1,1.1-1.5,1.7c-0.5,0.6-0.6,1.4-0.4,2.1c0.1,0.2,0.1,0.4,0.3,0.6c0.1,0.2,0.2,0.3,0.3,0.4c0.1,0.1,0.1,0.1,0.2,0.2
			l0,0c0.9,0.6,1.2,1.8,0.7,2.8c-0.2,0.5-0.4,0.9-0.6,1.4c-0.1,0.3-0.3,0.5-0.5,0.8c-0.1,0.1-0.2,0.2-0.4,0.3
			c-0.1,0.1-0.3,0.2-0.5,0.2c-0.1,0-0.2,0.1-0.3,0.1c-0.3,0.1-0.6,0.1-0.9,0c-0.1,0-0.2,0-0.3,0c-0.1,0-0.3,0-0.4,0
			c-1,0.2-1.8,1-1.9,2c-0.1,0.7-0.1,1.5-0.1,2.3c0,0.8,0.1,1.5,0.1,2.3c0.1,1,0.9,1.8,1.9,2c0.2,0,0.5,0.1,0.8,0c0.1,0,0.2,0,0.3,0
			c0.5,0,0.9,0.1,1.3,0.4c0.1,0.1,0.2,0.1,0.3,0.2c0.2,0.2,0.5,0.5,0.6,0.9c0.2,0.5,0.4,0.9,0.6,1.4c0.4,0.9,0.2,2-0.5,2.6
			c-0.1,0.1-0.1,0.1-0.2,0.2v0l0,0c-0.1,0.1-0.1,0.1-0.2,0.2c-0.1,0.1-0.2,0.3-0.3,0.4c-0.1,0.2-0.2,0.4-0.3,0.6c0,0.1,0,0.1,0,0.2
			c0,0.1,0,0.1,0,0.2c0,0.1,0,0.2,0,0.2c0,0,0,0,0,0c0,0,0,0,0,0.1c0,0.1,0,0.2,0,0.3c0,0.1,0.1,0.2,0.1,0.3c0,0,0,0,0,0
			c0,0,0,0,0,0c0,0,0,0.1,0,0.1c0,0.1,0.1,0.2,0.1,0.2c0,0,0,0,0,0c0,0,0,0,0,0c0,0.1,0.1,0.2,0.2,0.3c0.5,0.6,1,1.2,1.5,1.7
			c0.5,0.5,1.1,1,1.7,1.5c0.5,0.4,1.1,0.5,1.6,0.5c0.2,0,0.4-0.1,0.6-0.1c0.4-0.1,0.8-0.4,1.1-0.8l0.2-0.2c0.3-0.3,0.6-0.5,0.9-0.6
			l0.8-0.1c0.3,0,0.6,0.1,0.9,0.2c0.5,0.2,0.9,0.4,1.4,0.6c0.5,0.2,0.8,0.5,1.1,0.9c0.1,0.1,0.2,0.3,0.2,0.5
			c0.1,0.4,0.2,0.8,0.1,1.2v0c-0.2,1.2,0.6,2.3,1.8,2.6c0,0,0,0,0,0c0.1,0,0.1,0,0.2,0c0.7,0.1,1.5,0.1,2.3,0.1c0.8,0,1.5,0,2.3-0.1
			c0.6-0.1,1-0.3,1.4-0.7c0.1-0.1,0.3-0.3,0.4-0.5c0-0.1,0.1-0.2,0.1-0.3c0.1-0.4,0.2-0.8,0.1-1.2c0-0.1,0-0.2,0-0.3
			c0-1,0.6-1.8,1.5-2.2c0.5-0.2,0.9-0.4,1.4-0.6l0,0c0.6-0.3,1.4-0.3,2,0c0.2,0.1,0.3,0.2,0.5,0.3c0.1,0.1,0.1,0.1,0.2,0.2
			c0.1,0.1,0.1,0.1,0.2,0.2l0,0c0.7,1,2.1,1.2,3.1,0.6c0.1,0,0.1-0.1,0.2-0.1c0.6-0.5,1.2-1,1.7-1.5c0.5-0.5,1-1.1,1.5-1.7
			c0.5-0.6,0.6-1.4,0.4-2.1c0-0.1-0.1-0.2-0.1-0.3c0-0.1-0.1-0.2-0.2-0.3c-0.1-0.2-0.2-0.3-0.3-0.4c-0.1-0.1-0.1-0.1-0.2-0.2l0,0v0
			c-0.1-0.1-0.1-0.1-0.2-0.2c-0.7-0.7-0.9-1.7-0.5-2.6c0.2-0.5,0.4-0.9,0.6-1.4c0.4-1,1.4-1.6,2.5-1.5c0.6,0.1,1.1,0,1.6-0.3
			c0.1-0.1,0.2-0.2,0.3-0.2c0-0.1,0.1-0.1,0.1-0.1c0,0,0.1-0.1,0.1-0.1c0.3-0.3,0.5-0.7,0.5-1.2c0.1-0.7,0.1-1.5,0.1-2.3
			C294,113.3,294,112.5,293.9,111.8z M284,115.2c0,0,0,0.1,0,0.1c0,0.2,0,0.4-0.1,0.6c0,0.2-0.1,0.4-0.1,0.6c0,0,0,0,0,0
			c-0.1,0.4-0.2,0.7-0.3,1.1c-0.1,0.2-0.1,0.4-0.2,0.6c-0.1,0.2-0.2,0.4-0.2,0.6c-0.1,0.1-0.1,0.3-0.2,0.4c-0.2,0.4-0.4,0.7-0.6,1.1
			c-0.1,0.1-0.1,0.2-0.2,0.3c0,0,0,0.1-0.1,0.1c-0.1,0.1-0.1,0.2-0.2,0.3c-0.1,0.1-0.2,0.2-0.3,0.4c-0.2,0.2-0.4,0.5-0.6,0.7
			c-0.1,0.1-0.2,0.2-0.3,0.3c-0.1,0.1-0.2,0.2-0.3,0.3c-0.1,0.1-0.3,0.2-0.5,0.4c-0.4,0.3-0.8,0.6-1.2,0.8c-0.1,0.1-0.3,0.2-0.4,0.2
			c-0.1,0.1-0.3,0.2-0.5,0.2c-0.1,0.1-0.3,0.1-0.4,0.2c-0.2,0.1-0.5,0.2-0.7,0.3c-0.1,0.1-0.3,0.1-0.4,0.1c-0.3,0.1-0.6,0.2-0.9,0.2
			c-0.1,0-0.3,0.1-0.5,0.1c-0.2,0-0.3,0.1-0.5,0.1c-0.8,0.1-1.6,0.1-2.4,0.1c-0.2,0-0.3,0-0.5-0.1c-0.2,0-0.3,0-0.5-0.1
			c-0.2,0-0.3-0.1-0.5-0.1c-0.5-0.1-1.1-0.3-1.6-0.5c-0.1-0.1-0.3-0.1-0.4-0.2c0,0,0,0,0,0c-0.1-0.1-0.3-0.1-0.4-0.2c0,0,0,0,0,0
			c-0.2-0.1-0.3-0.2-0.5-0.2c-0.3-0.2-0.6-0.4-0.9-0.6c0,0,0,0,0,0c-0.1-0.1-0.3-0.2-0.4-0.3c-0.1-0.1-0.2-0.2-0.4-0.3
			c-0.2-0.1-0.3-0.3-0.5-0.4c-0.2-0.1-0.3-0.3-0.5-0.5c-0.1-0.1-0.3-0.3-0.4-0.4c-0.4-0.5-0.8-1-1.2-1.6c-0.1-0.2-0.2-0.3-0.3-0.5
			c-0.1-0.2-0.2-0.4-0.3-0.5c0-0.1-0.1-0.2-0.1-0.3c0-0.1-0.1-0.1-0.1-0.2c0-0.1-0.1-0.2-0.1-0.3c0-0.1-0.1-0.2-0.1-0.4
			c0,0,0-0.1,0-0.1c0-0.2-0.1-0.3-0.1-0.5c-0.1-0.2-0.1-0.5-0.2-0.7c0-0.1-0.1-0.3-0.1-0.4c0-0.3-0.1-0.5-0.1-0.8
			c0-0.4-0.1-0.8-0.1-1.2c0,0,0,0,0,0c0-0.4,0-0.8,0.1-1.1c0,0,0-0.1,0-0.1c0-0.2,0-0.4,0.1-0.6c0-0.2,0.1-0.4,0.1-0.6c0,0,0,0,0,0
			c0.1-0.4,0.2-0.7,0.3-1.1c0-0.2,0.1-0.3,0.2-0.5c0-0.1,0.1-0.2,0.1-0.3c0-0.1,0.1-0.2,0.1-0.2c0-0.1,0.1-0.2,0.1-0.3
			c0.1-0.3,0.3-0.6,0.5-0.8c0.1-0.1,0.2-0.3,0.2-0.4c0,0,0,0,0,0c0.1-0.1,0.2-0.2,0.3-0.4c0.1-0.2,0.2-0.3,0.4-0.5
			c0.1-0.2,0.2-0.3,0.4-0.5c0.1-0.2,0.3-0.3,0.4-0.4c0.7-0.7,1.5-1.3,2.3-1.8c0.1-0.1,0.3-0.2,0.4-0.2c0.1-0.1,0.3-0.1,0.4-0.2
			c0.1-0.1,0.3-0.1,0.4-0.2c0.3-0.1,0.5-0.2,0.8-0.3c0.1-0.1,0.2-0.1,0.4-0.1c0.2,0,0.3-0.1,0.5-0.1s0.3-0.1,0.5-0.1
			c0.2,0,0.3-0.1,0.5-0.1c0.2,0,0.3-0.1,0.5-0.1c0.2,0,0.3,0,0.5-0.1c0.6-0.1,1.3-0.1,1.9,0c0.2,0,0.3,0,0.5,0.1
			c0.2,0,0.3,0,0.5,0.1c0.2,0,0.3,0.1,0.5,0.1c0.4,0.1,0.8,0.2,1.2,0.3c0.1,0,0.2,0.1,0.3,0.1c0.5,0.2,1,0.4,1.5,0.7
			c0.2,0.1,0.3,0.2,0.5,0.3c0.1,0.1,0.3,0.2,0.4,0.3c0.1,0.1,0.3,0.2,0.4,0.3c0,0,0,0,0.1,0c0.1,0.1,0.3,0.2,0.4,0.3
			c0.1,0.1,0.3,0.2,0.4,0.3c0.3,0.3,0.6,0.5,0.8,0.8c0.1,0.1,0.2,0.2,0.3,0.3c0.2,0.2,0.3,0.4,0.5,0.6c0.1,0.1,0.1,0.2,0.2,0.3
			c0.2,0.4,0.5,0.7,0.6,1.1c0.1,0.1,0.2,0.3,0.2,0.4c0,0,0,0.1,0,0.1c0.1,0.2,0.1,0.3,0.2,0.5c0,0,0,0.1,0,0.1
			c0.1,0.1,0.1,0.3,0.1,0.4c0,0.1,0.1,0.2,0.1,0.2c0.1,0.4,0.2,0.7,0.3,1.1c0,0.1,0,0.2,0.1,0.3c0,0.3,0.1,0.6,0.1,0.9
			c0,0.4,0.1,0.8,0.1,1.2C284.1,114.4,284,114.8,284,115.2z"/>
	</g>
	<g>
		<rect x="566.3" y="351.1" class="st4" width="59.4" height="69.6"/>
		<rect x="566.3" y="351.1" class="st5" width="59.4" height="20.6"/>
		<rect x="566.3" y="375.5" class="st5" width="59.4" height="20.6"/>
		<rect x="566.3" y="400" class="st5" width="59.4" height="20.6"/>
		<rect x="566.3" y="420.6" class="st6" width="5.4" height="3.4"/>
		<rect x="620.3" y="420.6" class="st6" width="5.4" height="3.4"/>
		<rect x="569.7" y="353.9" class="st7" width="2" height="15.5"/>
		<rect x="573.8" y="353.9" class="st7" width="2" height="15.5"/>
		<rect x="577.9" y="353.9" class="st7" width="2" height="15.5"/>
		<rect x="582" y="353.9" class="st7" width="2" height="15.5"/>
		<rect x="586.6" y="353.9" class="st8" width="35.8" height="15.5"/>
		<rect x="569.7" y="378.1" class="st7" width="2" height="15.5"/>
		<rect x="573.8" y="378.1" class="st7" width="2" height="15.5"/>
		<rect x="577.9" y="378.1" class="st7" width="2" height="15.5"/>
		<rect x="582" y="378.1" class="st7" width="2" height="15.5"/>
		<rect x="586.1" y="378.1" class="st7" width="2" height="15.5"/>
		<rect x="590.1" y="378.1" class="st7" width="2" height="15.5"/>
		<rect x="594.2" y="378.1" class="st7" width="2" height="15.5"/>
		<rect x="598.7" y="378.1" class="st8" width="23.6" height="15.5"/>
		<rect x="569.7" y="402.3" class="st7" width="2" height="15.5"/>
		<rect x="573.8" y="402.3" class="st7" width="2" height="15.5"/>
		<rect x="577.9" y="402.3" class="st7" width="2" height="15.5"/>
		<rect x="582" y="402.3" class="st7" width="2" height="15.5"/>
		<rect x="612.2" y="402.3" class="st7" width="2" height="15.5"/>
		<rect x="616.3" y="402.3" class="st7" width="2" height="15.5"/>
		<rect x="620.3" y="402.3" class="st7" width="2" height="15.5"/>
		<rect x="586.6" y="402.3" class="st8" width="23.1" height="15.5"/>
	</g>
	<g>
		<g>
			<line class="st9" x1="535.2" y1="208.9" x2="537.7" y2="208.9"/>
			<line class="st10" x1="542.8" y1="208.9" x2="591.2" y2="208.9"/>
			<polyline class="st9" points="593.7,208.9 596.2,208.9 596.2,211.4 			"/>
			<line class="st11" x1="596.2" y1="216.5" x2="596.2" y2="346"/>
			<line class="st9" x1="596.2" y1="348.6" x2="596.2" y2="351.1"/>
		</g>
	</g>
	<g>
		<g>
			<g>
				<rect x="333.9" y="354.4" class="st12" width="62.2" height="58.8"/>
				<path class="st13" d="M464.6,423.9H265.3v-7.3c0-4,3.3-7.3,7.3-7.3h184.7c4,0,7.3,3.3,7.3,7.3L464.6,423.9L464.6,423.9z"/>
				<path class="st13" d="M527.8,376.7H202.2c-4.1,0-7.4-3.3-7.4-7.4v-224c0-4.1,3.3-7.4,7.4-7.4h325.5c4.1,0,7.4,3.3,7.4,7.4v224
					C535.2,373.4,531.8,376.7,527.8,376.7z"/>
				<path class="st8" d="M524.6,149.5v195.3c0,1.5-1.2,2.6-2.6,2.6H206.9c-1.5,0-2.6-1.2-2.6-2.6V149.5c0-1.5,1.2-2.6,2.6-2.6H522
					C523.5,146.9,524.6,148,524.6,149.5z"/>
				<path class="st14" d="M513.2,362.5c0,3.5-2.9,6.4-6.4,6.4s-6.4-2.9-6.4-6.4s2.9-6.4,6.4-6.4C510.3,356.2,513.2,359,513.2,362.5z
					"/>
			</g>
			<g class="st15">
				<g>
					<g>
						<path class="st16" d="M507.4,302.9H303.8c-5.7,0-10.2-4.6-10.2-10.2V162.5c0-5.6,4.6-10.2,10.2-10.2h203.7
							c5.7,0,10.2,4.6,10.2,10.2v130.2C517.7,298.3,513.1,302.9,507.4,302.9z"/>
					</g>
				</g>
			</g>
			<g>
				<g>
					<g>
						<path class="st17" d="M480.2,146.9v175.9c0,8.8-7.1,15.9-15.9,15.9H235.9c-8.8,0-15.9-7.1-15.9-15.9V146.9H480.2z"/>
					</g>
				</g>
			</g>
			<g>
				<g>
					<g>
						<g>
							<path class="st16" d="M481.5,328.8H236.9c-6.2,0-11.1-5-11.1-11.1V125.2c0-6.2,5-11.1,11.1-11.1h244.6
								c6.2,0,11.1,5,11.1,11.1v192.5C492.6,323.9,487.6,328.8,481.5,328.8z"/>
						</g>
					</g>
				</g>
				<path class="st13" d="M481.5,114H236.9c-6.2,0-11.1,5-11.1,11.1v9.8h266.9v-9.8C492.6,119,487.6,114,481.5,114z"/>
				<path class="st16" d="M459.9,124.9c0,1.8-1.4,3.2-3.2,3.2s-3.2-1.4-3.2-3.2c0-1.8,1.4-3.2,3.2-3.2
					C458.5,121.7,459.9,123.1,459.9,124.9z"/>
				<path class="st16" d="M473,124.9c0,1.8-1.4,3.2-3.2,3.2s-3.2-1.4-3.2-3.2c0-1.8,1.4-3.2,3.2-3.2
					C471.6,121.7,473,123.1,473,124.9z"/>
				<path class="st16" d="M486.1,124.9c0,1.8-1.4,3.2-3.2,3.2s-3.2-1.4-3.2-3.2c0-1.8,1.4-3.2,3.2-3.2
					C484.7,121.7,486.1,123.1,486.1,124.9z"/>
			</g>
		</g>
		<g>
			<rect x="398.8" y="147" class="st18" width="82.3" height="4.5"/>
			<g>
				<g>
					<polyline class="st9" points="481.1,314 481.1,316.5 478.6,316.5 					"/>
					<line class="st19" x1="473.7" y1="316.5" x2="239.9" y2="316.5"/>
					<polyline class="st9" points="237.4,316.5 234.9,316.5 234.9,314 					"/>
					<line class="st20" x1="234.9" y1="308.8" x2="234.9" y2="239"/>
					<polyline class="st9" points="234.9,236.4 234.9,233.9 237.4,233.9 					"/>
					<line class="st19" x1="242.4" y1="233.9" x2="476.1" y2="233.9"/>
					<polyline class="st9" points="478.6,233.9 481.1,233.9 481.1,236.4 					"/>
					<line class="st20" x1="481.1" y1="241.6" x2="481.1" y2="311.4"/>
				</g>
			</g>
			<rect x="398.8" y="157" class="st18" width="82.3" height="4.5"/>
			<rect x="339.3" y="166.9" class="st18" width="141.8" height="4.5"/>
			<rect x="339.3" y="176.8" class="st18" width="141.8" height="4.5"/>
			<rect x="339.3" y="186.8" class="st18" width="141.8" height="4.5"/>
			<rect x="339.3" y="196.7" class="st18" width="141.8" height="4.5"/>
			<rect x="339.3" y="206.7" class="st18" width="141.8" height="4.5"/>
			<rect x="339.3" y="216.6" class="st18" width="94.3" height="4.5"/>
			<g>
				<g>
					<polyline class="st9" points="331.9,218.6 331.9,221.1 329.4,221.1 					"/>
					<line class="st21" x1="324.6" y1="221.1" x2="240.5" y2="221.1"/>
					<polyline class="st9" points="238.1,221.1 235.6,221.1 235.6,218.6 					"/>
					<line class="st22" x1="235.6" y1="213.3" x2="235.6" y2="152.2"/>
					<polyline class="st9" points="235.6,149.5 235.6,147 238.1,147 					"/>
					<line class="st21" x1="242.9" y1="147" x2="327" y2="147"/>
					<polyline class="st9" points="329.4,147 331.9,147 331.9,149.5 					"/>
					<line class="st22" x1="331.9" y1="154.8" x2="331.9" y2="215.9"/>
				</g>
			</g>
		</g>
		<g>
			<g>
				<path class="st2" d="M352.4,161.2h-11.9c-0.6,0-1.1-0.5-1.1-1.1v-11.9c0-0.6,0.5-1.1,1.1-1.1h11.9c0.6,0,1.1,0.5,1.1,1.1v11.9
					C353.5,160.7,353,161.2,352.4,161.2z"/>
				<polyline class="st23" points="348,157.6 344.5,154.1 348,150.6 				"/>
			</g>
			<g>
				<path class="st2" d="M391.6,161.2h-11.9c-0.6,0-1.1-0.5-1.1-1.1v-11.9c0-0.6,0.5-1.1,1.1-1.1h11.9c0.6,0,1.1,0.5,1.1,1.1v11.9
					C392.8,160.7,392.3,161.2,391.6,161.2z"/>
				<polyline class="st23" points="384.5,157.6 388,154.1 384.5,150.6 				"/>
			</g>
			<g>
				<path class="st2" d="M371.7,161.2h-11.9c-0.6,0-1.1-0.5-1.1-1.1v-11.9c0-0.6,0.5-1.1,1.1-1.1h11.9c0.6,0,1.1,0.5,1.1,1.1v11.9
					C372.9,160.7,372.4,161.2,371.7,161.2z"/>
				<line class="st23" x1="367.6" y1="150.6" x2="364.2" y2="157.6"/>
			</g>
		</g>
		<g>
			<g>
				<rect x="233.8" y="145.1" class="st13" width="5.2" height="5.2"/>
				<rect x="329.3" y="145.1" class="st13" width="5.2" height="5.2"/>
				<rect x="233.8" y="182.5" class="st13" width="5.2" height="5.2"/>
				<rect x="329.3" y="182.5" class="st13" width="5.2" height="5.2"/>
				<rect x="281.5" y="145.1" class="st13" width="5.2" height="5.2"/>
			</g>
			<g>
				<rect x="233.8" y="218.5" class="st13" width="5.2" height="5.2"/>
				<rect x="329.3" y="218.5" class="st13" width="5.2" height="5.2"/>
				<rect x="281.5" y="218.5" class="st13" width="5.2" height="5.2"/>
			</g>
		</g>
		<g>
			<g>
				<rect x="232.4" y="231.1" class="st13" width="5.2" height="5.2"/>
				<rect x="478.5" y="231.1" class="st13" width="5.2" height="5.2"/>
				<rect x="232.4" y="268.5" class="st13" width="5.2" height="5.2"/>
				<rect x="478.5" y="268.5" class="st13" width="5.2" height="5.2"/>
				<rect x="359.4" y="231.1" class="st13" width="5.2" height="5.2"/>
			</g>
			<g>
				<rect x="232.4" y="313.9" class="st13" width="5.2" height="5.2"/>
				<rect x="478.5" y="313.9" class="st13" width="5.2" height="5.2"/>
				<rect x="359.4" y="313.9" class="st13" width="5.2" height="5.2"/>
			</g>
		</g>
		<g>
			<circle class="st8" cx="359.2" cy="276.4" r="21.7"/>
			<polygon class="st2" points="353.3,289 353.3,263.8 370.7,276.4 			"/>
		</g>
	</g>
	<g>
		<path class="st24" d="M210.4,358.2v62.5c0,1.6-1.3,2.9-2.9,2.9h-70v-57.7c0-1.6,1.3-2.9,2.9-2.9H185c1.6,0,2.9-1.3,2.9-2.9v-1.8
			c0-1.6,1.3-2.9,2.9-2.9h16.6C209.1,355.2,210.4,356.6,210.4,358.2z"/>
		<path class="st25" d="M207.3,417.2h-64.5c-0.8,0-1.5-0.7-1.5-1.5V366c0-0.8,0.7-1.5,1.5-1.5h64.5c0.8,0,1.5,0.7,1.5,1.5v49.8
			C208.8,416.6,208.1,417.2,207.3,417.2z"/>
		<path class="st26" d="M205.5,419.2H141c-0.8,0-1.5-0.7-1.5-1.5V368c0-0.8,0.7-1.5,1.5-1.5h64.5c0.8,0,1.5,0.7,1.5,1.5v49.8
			C207,418.6,206.3,419.2,205.5,419.2z"/>
		<path class="st27" d="M207.7,423.5H137c-1.3,0-2.4-0.9-2.7-2.2l-9.1-47.9c-0.3-1.7,1-3.2,2.7-3.2h70.7c1.3,0,2.4,0.9,2.7,2.2
			l9.1,47.9C210.7,421.9,209.4,423.5,207.7,423.5z"/>
	</g>
	<g>
		<line class="st28" x1="97.5" y1="423.5" x2="653" y2="423.5"/>
		<line class="st28" x1="93.5" y1="423.5" x2="82" y2="423.5"/>
		<line class="st28" x1="657.4" y1="423.5" x2="683.2" y2="423.5"/>
	</g>
	<g>
		<g>
			<g>
				<path class="st29" d="M530,426.2c-0.4,0.7-2,2.3-4.4,3.3c-2.3,1-7.3,1.5-4.5,2.5c2.7,0.9,6,0.4,7.6,0.1c1.6-0.3,3.1,0.2,5,0.2
					c2.5,0,2.6-0.7,2.3-3.6C535.5,424.8,531.2,423.9,530,426.2z"/>
				<path class="st29" d="M575.3,423.5c-0.1,0.8,1,3.2-1,4.9c-2,1.8-6.6,3.6-3.5,3.7c3,0.1,5.9-0.6,7.5-1.4c1.5-0.8,0.3-2,2.2-2.6
					c2.5-0.8,2-2.6,0.7-3.8C579.5,420.6,575.8,420.9,575.3,423.5z"/>
				<path class="st30" d="M566.1,345c0,0,6-17.7-11.1-32.3c0,0-9.2,3.6-16.5,4.1c-5.8,0.3-9.2-0.4-9.2-0.4s-1.4,15.8-1.4,24.3
					L566.1,345z"/>
				<path class="st30" d="M531.7,326.3c-1.3,0.5-3,2.5-3.7,14.4c-0.2,2.8-1.3,24.2-1.7,29.4c-0.1,0.9-0.1,1.7,0,2.4
					c-0.1,0.5-0.1,1-0.1,1.5c0.4,8.5,3.9,35.5,3.7,51.9c0,0,0.5,0.7,1.4,1.1c1.2,0.6,3.2,0.5,4.5,0c1.2-13.2,9.9-40.8,3.8-53.2
					c2.4-7.8,7.8-24.5,8.9-30.9C550.3,332.5,538.5,323.8,531.7,326.3z"/>
				<path class="st30" d="M566.3,376.1c-0.5-8.3,1-29.3-0.5-35.8c-2.3-10.3-14.2-14.6-19.4-9.7c-1.1,1-1.8,6.7-1,9.3
					c0.9,2.6,5.7,32.4,7.3,37.4c0.2,0.7,0.9,2.8,1.1,3.3c2.8,8,16.2,29,20.8,44.7c0,0,0.8,0.3,1.7,0.3c2,0.1,3.7-0.5,5-1.7
					C578.7,410.9,577.4,387,566.3,376.1z"/>
				<path class="st31" d="M491.1,270.4c0,0-2.2-2.4-2.8-3.3c-0.6-0.9-3.6-1.1-4.5-2.8s-2.6-4.2-0.7-5.1c1.9-0.9,1.8-1,2.3-1.7
					c0.5-0.7-3.1-3.3-3.8-5.4c-0.6-2,5,2.7,5.9,3.9c0.8,1.2,2.2,0.1,3,2.2c0.8,2.1,1,4.7,3.1,7.7"/>
				<path class="st27" d="M525.9,263.1c-4.1,3.5-11,13.3-14.3,17.9c-6.2-7.5-18.4-17.3-18.4-17.3s-5.6,4.2-4.7,5
					s18.1,25.6,22.4,25.9c0.5,0,1.1-0.1,1.6-0.4c0,0,6.2-2.4,15.2-12.4c2.4-2.7,4.6-0.3,4.6-0.3l2.7-21.2
					C535,260.2,529.2,260.7,525.9,263.1z"/>
				<g>
					<path class="st27" d="M525.1,265.1c2.4-2,7.5-5.6,15.4-5.4c5.4,0.2,20.2,1.1,21.8,4.7c0.8,1.9,1.8,20.8,0.5,27.4
						c-0.9,4.9-3.3,17.1-3.3,20.1c0,2.9,1.6,4.2,0.8,5.1c-1.7,1.9-13,2.7-18.3,2.7c-4.7,0-12.8-1.3-13.2-2.8c-0.2-0.7,0.2-4.6,0-9.8
						c-0.5-11.1-1.6-27.8-2.5-30.1C525.5,274.5,522.9,266.9,525.1,265.1z"/>
					<g>
						<path class="st32" d="M526.6,272.2c0,0,0.3,2.1,0.6,5.2c0.1,1.6,0.3,3.4,0.5,5.3c0.2,1.9,0.3,4,0.5,6.1
							c0.1,2.1,0.3,4.2,0.4,6.1c0.1,2,0.1,3.8,0.2,5.3c0.1,3.1,0.1,5.2,0.1,5.2s-0.2-2.1-0.5-5.2c-0.2-3.1-0.6-7.3-0.9-11.4
							c-0.1-2.1-0.3-4.2-0.4-6.1c-0.1-1.9-0.2-3.8-0.3-5.3C526.7,274.3,526.6,272.2,526.6,272.2z"/>
					</g>
					<path class="st31" d="M549.4,260.6c0,0-5.7,3.9-9.5,3.7c-1.8-0.9-3-3.7-3-3.7s1.2-0.6,1.5-0.8c0.1-0.1,0.2-2.2,0.3-4
						c0-0.5,0-1.1,0-1.5c0-0.6,0-1,0-1l11.3-4.8c0,0-1.3,2.7-1.6,4.8c-0.3,2.8-0.3,6.1-0.3,6.3C548.1,260.1,549.4,260.6,549.4,260.6
						z"/>
					<path class="st33" d="M535.2,231.4c0,0-1.3,3.6-1.5,5.1c-0.1,1.6,0.9,2.1,1.2,2.3c0.3,0.2,2.2-7.2,2.2-7.2"/>
					<path class="st31" d="M542.7,229.4c-1.4,0.4-5-0.4-6,1.1c-1,1.5-1.9,5.1-2.2,6.1c-0.7,2-1.2,4.1-1.8,6.2
						c-0.7,2.7-1.9,7.6,0.7,9.8c0.8,0.6,1.1,0.9,2,1c1.2,0.2,2.5,0.5,3.7,0.7c1.9,0.3,4,0.7,5.9,0.1c2.5-0.8,3.9-4.3,4.6-6.7
						l3.7-13.6L542.7,229.4z"/>
					<path class="st32" d="M548.1,258.1c0,0,1.5,0.9,2.6,2.5c-1.1,2.6-3.6,7.1-6.4,9.2c-1.3-3.5-3.2-5.3-3.2-5.3
						S545.3,262.1,548.1,258.1z"/>
					<path class="st32" d="M539.5,264.3c0,0-2.3,1.1-3.9,4.1c0,0-0.5-4.1,0.6-7.6c0,0,1.8-2.3,2.4-2.3
						C538.3,261.3,539.5,264.3,539.5,264.3z"/>
					<g>
						<path class="st8" d="M552.5,280.2l33.8,40.8c0.7,0.8,0.6,2-0.2,2.6L558,346.9c-0.8,0.7-2,0.5-2.6-0.3l-33.8-40.8
							c-0.7-0.8-0.6-2,0.2-2.6l28.1-23.3C550.7,279.3,551.9,279.4,552.5,280.2z"/>
						<path class="st34" d="M552.5,280.2l1.9,2.2l-31,25.7l-1.9-2.2c-0.7-0.8-0.6-2,0.2-2.6l28.1-23.3
							C550.7,279.3,551.9,279.4,552.5,280.2z"/>
						<path class="st16" d="M543.9,288.1c0.4,0.5,0.3,1.2-0.1,1.6s-1.2,0.3-1.6-0.1s-0.3-1.2,0.1-1.6S543.5,287.6,543.9,288.1z"/>
						<path class="st16" d="M547.7,284.9c0.4,0.5,0.3,1.2-0.1,1.6s-1.2,0.3-1.6-0.1s-0.3-1.2,0.1-1.6
							C546.6,284.4,547.3,284.4,547.7,284.9z"/>
						<path class="st16" d="M551.5,281.7c0.4,0.5,0.3,1.2-0.1,1.6s-1.2,0.3-1.6-0.1c-0.4-0.5-0.3-1.2,0.1-1.6
							S551.1,281.3,551.5,281.7z"/>
						
							<rect x="528.9" y="300.8" transform="matrix(0.7696 -0.6385 0.6385 0.7696 -72.5275 414.788)" class="st35" width="19.3" height="14.2"/>
						
							<rect x="542.6" y="305.9" transform="matrix(0.7696 -0.6385 0.6385 0.7696 -76.121 432.0276)" class="st35" width="35.9" height="31.1"/>
						
							<rect x="541.7" y="290.1" transform="matrix(0.7696 -0.6386 0.6386 0.7696 -59.1339 417.5802)" class="st35" width="14.6" height="1.2"/>
						
							<rect x="543.3" y="292.2" transform="matrix(0.7696 -0.6385 0.6385 0.7696 -60.0764 419.0453)" class="st35" width="14.6" height="1.2"/>
						
							<rect x="545" y="294.2" transform="matrix(0.7696 -0.6385 0.6385 0.7696 -60.9725 420.5655)" class="st35" width="14.6" height="1.2"/>
						
							<rect x="546.7" y="296.1" transform="matrix(0.7696 -0.6386 0.6386 0.7696 -61.8166 422.1399)" class="st35" width="14.6" height="1.2"/>
						
							<rect x="548.4" y="298.1" transform="matrix(0.7696 -0.6386 0.6386 0.7696 -62.7094 423.6591)" class="st35" width="14.6" height="1.2"/>
						
							<rect x="550.5" y="301.5" transform="matrix(0.7696 -0.6385 0.6385 0.7696 -64.8947 424.3947)" class="st35" width="10.4" height="1.2"/>
					</g>
					<g>
						<g>
							<path class="st36" d="M538.7,317.5c-2.7,0.4-4.6,1.7-6.1,3.2c-0.1,0.1-0.3,0.3-0.2,0.4c0,0.2,0.3,0.3,0.5,0.3
								c1.3,0.2,1.5-0.6,2.6-1.1c0.8-0.3,1.6-0.7,2.4-1"/>
						</g>
						<g>
							<path class="st31" d="M547.9,317.5c-1.1,0.7-2.3,1.4-3.4,2.1c-0.5,0.3-1,0.6-1.2,1.2c-0.7,2.4-2.3,2.6-3.1,3.1
								c-0.6,0.4-2.1,0.8-2.8,1.1c0.2,0.3,0.4,0.6,0.6,0.8c-0.1,0.1-0.3,0.1-0.5,0.2c0,0,0,0-0.1,0c-1,0.3-1.9-0.6-1.9-0.6h0
								c-0.9-0.9-2-2.2-2.2-3c-0.3-1.2,0.2-1.8,0.3-1.9c0,0,0,0,0,0c0.7-0.7,2.8-2.2,3.4-2.5c0.6-0.3,6.2-1.9,8.3-2.4L547.9,317.5z"
								/>
						</g>
						<path class="st27" d="M558.2,276.4c0.8,11.2,4.6,25.1,4.6,25.1l-21.1,14.6c0,0,0.3,1.2,0.8,2.6c0.4,1.1,1.3,2.4,1.3,2.4
							s27.2-9.7,29.1-15.5c-0.5-7,0.3-31.4-6.6-40.5c-2.2-2.9-15.6-4.6-15.6-4.6"/>
					</g>
					<path class="st33" d="M555.8,232.9c-0.2-0.2-0.3-0.3-0.4-0.5c0.1-3.3-1.6-3.9-3.7-4.8c-2.9-1.3-14.5-1.6-15.6-5.9
						c-0.9,0.4-1.7,0.9-1.5,4.1c-0.2-0.4-0.4-0.8-0.6-1.3c-0.7,1.1-1.1,2.4-1.1,3.6s0.5,2.6,1.5,3.4c0.6,0.5,1.3,0.8,2.1,1.1
						c1.8,0.6,3.7,0.8,5.5,1.1c1.8,0.4,3.7,1,5.1,2.2c0.4,0.3,0.7,0.7,1,1.2c-0.4,1.1-1,3.2-1,4.3c0,0.8,0.4,1.5,0.8,1.9
						c-0.2,1.7-0.3,3.2,0,3.1c0.5-0.1,0.7-0.8,1-1.2c0.6-0.8,1.2-0.3,2.1,0.2l-0.4,0.8l1.4-0.7C552.1,245.6,560.3,237.6,555.8,232.9
						z"/>
					<g>
						<path class="st31" d="M547.8,248.9c0,0-0.1,0.6,0.2,1.1c0.3,0.4,1,0.4,1.5,0.2c1.3-0.4,2.3-1.7,2.5-3.1c0.3-1.6-0.6-3.2-2-2.8
							c-0.9,0.2-1.4,1.2-1.4,2.1"/>
					</g>
					<g>
						<path class="st36" d="M543.5,254.8c0,0-1.6,0.9-4.8,0.9c0-0.5,0-1.1,0-1.5L543.5,254.8z"/>
					</g>
				</g>
			</g>
			<g>
				<path class="st37" d="M542,316.5"/>
			</g>
			<g>
				<path class="st32" d="M558.4,278.7c0,0,0.1,0.4,0.2,1c0.1,0.6,0.3,1.5,0.6,2.6c0.4,2.1,1,5,1.5,7.8c0.5,2.9,1,5.7,1.4,7.8
					c0.2,1.1,0.3,2,0.5,2.6c0.1,0.6,0.2,1,0.2,1s-0.1-0.3-0.4-0.9c-0.2-0.6-0.5-1.5-0.9-2.5c-0.7-2.1-1.3-4.9-1.8-7.8
					c-0.5-2.9-0.9-5.8-1.1-7.9c-0.1-1.1-0.1-2-0.2-2.6C558.4,279,558.4,278.7,558.4,278.7z"/>
			</g>
			<g>
				<path class="st38" d="M543.9,333.8c0,0,0.1,0.5,0.4,1.4c0.2,0.9,0.5,2.2,0.9,3.7c0.3,1.5,0.8,3.3,1.2,5.3c0.4,1.9,0.8,4,1.2,6.1
					c0.4,2.1,0.8,4.1,1.2,6.1c0.4,1.9,0.7,3.8,1,5.3c0.6,3.1,0.9,5.2,0.9,5.2s-0.7-2-1.5-5.1c-0.4-1.5-0.8-3.3-1.3-5.3
					c-0.4-1.9-0.9-4-1.3-6.1c-0.4-2.1-0.8-4.2-1.1-6.1c-0.3-2-0.6-3.8-0.9-5.4s-0.4-2.9-0.5-3.8
					C543.9,334.3,543.9,333.8,543.9,333.8z"/>
			</g>
		</g>
		<line class="st28" x1="503.3" y1="432.4" x2="584.4" y2="432.4"/>
		<line class="st28" x1="587.4" y1="432.4" x2="599" y2="432.4"/>
	</g>
	<g>
		<g>
			<polygon class="st39" points="209.5,432.4 231.8,279.9 220.6,279.9 198.4,432.4 			"/>
			<polygon class="st40" points="211.4,432.4 233.7,279.9 222.6,279.9 200.3,432.4 			"/>
			<line class="st41" x1="274.2" y1="351.1" x2="216.4" y2="351.1"/>
			<line class="st41" x1="278.3" y1="321.6" x2="220.5" y2="321.6"/>
			<line class="st41" x1="283" y1="292.2" x2="224.8" y2="292.2"/>
			<line class="st41" x1="270.1" y1="380.5" x2="212.4" y2="380.5"/>
			<line class="st41" x1="265.5" y1="409.9" x2="207.7" y2="409.9"/>
			<g>
				
					<rect x="194.7" y="157.4" transform="matrix(0.1179 -0.993 0.993 0.1179 -0.4283 415.3208)" class="st42" width="77.7" height="101"/>
				
					<rect x="196.5" y="159.8" transform="matrix(0.1179 -0.993 0.993 0.1179 -0.4285 415.3208)" class="st2" width="74.1" height="96.3"/>
				<polygon class="st13" points="253.7,202.6 221,234.5 222.6,234.7 221.5,243.8 277,250.4 278.1,241.3 				"/>
				<polyline class="st43" points="182.5,229.9 226.7,185.1 265.5,249 181.4,239 182.5,229.9 				"/>
				
					<ellipse transform="matrix(0.4014 -0.9159 0.9159 0.4014 -15.0937 352.8978)" class="st16" cx="262.4" cy="188" rx="10.2" ry="10.2"/>
			</g>
			<g>
				<g>
					<path class="st31" d="M222.8,370.2c0,0-0.4,4.5-0.6,5.6c-0.2,1.1-3.8,1-4.2,0.4c-0.4-0.6-0.2-5.9-0.2-5.9"/>
					<path class="st30" d="M217,377.1c-0.1,1.2,0.1,3.2,0.1,3.2l4.2,0.3l0.3-0.7c0,0,1.3,0.8,2.4,0.9l3.5,0.2
						c2.6,0.2,4.1-0.1,4.2-0.5c0.4-1.9-2.7-2-3.5-2.1c-2.3-0.2-4.8-1.4-5.2-2.6c-0.3-0.9-0.1-1.1-0.6-1c0,0-0.4,0.1-0.8,0.6
						c-0.5,0.8-1.4,1.3-2.3,1c-0.5-0.1-1-0.4-1.4-0.8C217.9,375.6,217.1,375.9,217,377.1z"/>
				</g>
				<g>
					<path class="st31" d="M264.9,339.3c0,0-0.5,3.1-1,4.2c-0.4,1.1-3.9,0.1-4.2-0.6c-0.2-0.7,1.1-5.8,1.1-5.8"/>
					<path class="st30" d="M258.5,343.7c-0.3,1.2-0.7,3.4-0.7,3.4l3.5,1.6l0.6-0.5c0,0,0.9,1.1,1.9,1.6c0.8,0.4,2.5,0.9,3.4,1
						c3.1,0.4,5.3-0.2,5.5-0.6c0.8-1.8-3.3-2.3-4.1-2.5c-2.3-0.6-3.6-2.6-3.8-3.9c-0.2-0.9,0.1-1.1-0.5-1.1c0,0-0.5,0-0.9,0.4
						c-0.7,0.7-1.6,1-2.5,0.6c-0.5-0.2-1-0.6-1.2-1C259.7,342.5,258.8,342.6,258.5,343.7z"/>
				</g>
				<path class="st27" d="M214.8,252.4c1,0.4,2.7,0.8,4.8,1.1c1.3,0.1,2.8,0.2,4.3,0.2c2.4-0.1,4.9-0.5,6.8-1.5
					c4.7-2.3,5.2-6.8,5.6-7.2c-0.6,0-3.8,0-6.9-0.1c-3.4-0.1-6.8-0.4-6.9-1.1c0.6-1.1,1.1-2.4,1.5-3.8c2.4-8.4,1.7-21.8,1.1-28
					c-2.7,0.6-7.1,1.6-8.2,3.6c-2,3.6-3,10.1-3.6,16.9C212.3,241.8,212.4,251.5,214.8,252.4z"/>
				<path class="st30" d="M239.6,265.4l-15.4-0.1c0,0-4.7,7.4-4.1,14.9c0.5,7.5,2.1,8,2.1,11.6c0.1,14.6,0.6,24.3,0.9,29.4
					c0.2,2.7-0.2,5.3-1,7.9c-1,3.1-2.4,7.4-2.8,10.4c-1.2,7.5-2.2,32.5-2.2,32.5s3.9,1.1,6,0.7c0,0,9.6-31.7,12.4-44.3
					c0,0,2.4-9.7,2.4-9.7c1.3-4.6,8.3-34.9,8.3-34.9L239.6,265.4z"/>
				<path class="st30" d="M269.2,292.8c2.1-6.1,14.3-5,12.5,2.1c-2.1,7.9-15.9,45.7-15.9,45.7s-3,0-6.6-1.7c0,0,1.8-9.2,4.3-29.9
					C264.2,303.3,268.3,294.2,269.2,292.8z"/>
				<path class="st30" d="M239.1,260.2c10.6,3.4,28.6,18.1,38.2,24.2c6.5,4.1,5.8,14.4-0.6,15c-7.6,0.7-41.4-6.2-52.4-25.8"/>
				<path class="st31" d="M228.7,209.3c0,0,1.2-4.2,0.7-7.3s-2.4-8.7-1.7-12.9s11.9-11,16.4-7.6c7.9,5.8,2.3,24.5,1.3,25.1
					c-0.9,0.5-4.4-0.2-5.1,0.5c-0.6,0.7-1.1,4.6-1.1,4.6"/>
				<path class="st32" d="M226.6,212.6c0,0,0.1-2.1,0.8-2.9c1.9-2,12.1,0.6,12.6,0.9c0.5,0.3,1,2.4,1,2.4L226.6,212.6z"/>
				<path class="st44" d="M227.7,202.2c0.6,1.4,0.8,3.4,1.6,3.8c0,0,6.3,0.6,7.9,0.4c3.4-1.6,4.4-9.6,4.4-9.6s0,0,0,0
					c-0.1-1.1-0.2-2.5,0.2-3.1c1-1.5,2.7-0.3,2.9,1.1s0.1,3,0.5,3.2c0.5,0.3,0.9-1.8,0.7-4.5c-0.2-2.3,1.5-6.1,2.8-8.2
					c1.6-2.4,0.8-8.5-4.2-8c-0.1,0.7-0.9,1.9-2.6,2.4c-3.4,0.9-9.5,0.1-12.5,1.9c-1.3,0.7-2.4,2.4-1.8,3.7c0,0-3.1-0.4-2.6,4.5
					C226.1,200.2,226.9,200.1,227.7,202.2z"/>
				<g>
					<path class="st27" d="M250.7,266.6c-0.7,0.3-1.4,0.7-2.1,0.9c-1.8,0.5-3.7,0.2-5.5,0.1c-1.9-0.2-3.8-0.3-5.7-0.5
						c-9.9-0.4-13.3,2-14.9-0.5c-0.3-0.5-0.5-1.1-0.3-2c0.2-1.3-0.6-13.3-2.2-24.3c-1.1-7.3-3.2-14.1-3.4-17.3
						c-0.6-11.4,11-11.3,11-11.3c17-1.1,23.4,3.8,24.3,11.2c0.1,0.5,0.1,1.1,0.1,1.7c0.4,7.5-1.7,23.1-2.8,32.2
						C248.8,259.3,252.2,266.1,250.7,266.6z"/>
				</g>
				<path class="st31" d="M285.5,199.8c0-0.3,0-0.6,0-0.7c0-0.6-0.7-0.4-0.9,0.1c0,0.1-0.1,0.4-0.2,0.8c0-0.2,0-0.4,0-0.5
					c-0.1-0.5-0.6-0.4-0.8,0c-0.1,0.1-0.1,0.4-0.2,1c-0.1,0.5-0.2,1-0.3,1.5c-0.1,0.5-0.6,2.6-1.7,2.8c-1.6,0.3-0.6-2.5-1.7-3.2
					c-0.4-0.2-0.8,2-0.8,3.2c0,1.2-0.1,1.9,0,2.6c0.1,0.7,0.5,1.8,0.4,2.2c-0.1,0.4-0.6,1.6-0.6,1.6l3.8,1.6c0,0,0.5-2.3,1-2.8
					c1.3-1.2,2-2.6,2.4-4.4C286.8,203.2,285.7,199.5,285.5,199.8z"/>
				<path class="st27" d="M283,212.1c0,0-1.1,6.6-2.2,11.8c-0.9,4-2.1,7.6-4,12.3c0,0-2.8,6.4-4.1,7c-6.4,2.9-22.1-11-25.1-13.7
					c-6.9,1.8-12-17.8-12-17.8s8.1,0.1,13,1.2c5.2,1.1,19.7,17.5,20.4,17.5c0.4-0.8,0.9-1.7,2.4-4.6c3.5-6.6,7.8-14.9,7.8-14.9
					s3.2,0.9,3.2,1L283,212.1z"/>
			</g>
			<polygon class="st45" points="265.3,432.4 287.6,279.9 276.5,279.9 254.2,432.4 			"/>
			<polygon class="st44" points="267.3,432.4 289.5,279.9 278.4,279.9 256.1,432.4 			"/>
			<g>
				<path class="st38" d="M231,271.9c0,0-0.2,0.6-0.3,1.5c-0.2,1-0.3,2.4-0.2,4.1c0.1,1.7,0.6,3.6,1.7,5.4c1.1,1.8,2.8,3.2,4.8,4.2
					c2,1,4.1,2,6.1,2.9c2,0.9,3.8,1.7,5.4,2.4c3.2,1.4,5.3,2.3,5.3,2.3s-0.6-0.1-1.5-0.4c-1-0.3-2.3-0.7-4-1.3
					c-1.6-0.6-3.5-1.3-5.5-2.1c-2-0.8-4.1-1.8-6.2-2.8c-2.1-1.1-4-2.7-5.1-4.7c-1.1-2-1.5-4.1-1.5-5.8c0-1.8,0.3-3.2,0.6-4.2
					C230.7,272.4,231,271.9,231,271.9z"/>
			</g>
			<g>
				<path class="st32" d="M245.3,225.8c0,0,0.2,0.3,0.5,0.7c0.3,0.4,0.9,1,1.5,1.7c0.6,0.7,1.4,1.5,2.2,2.3c0.8,0.8,1.7,1.7,2.7,2.5
					c0.5,0.4,0.9,0.8,1.4,1.2c0.5,0.4,0.9,0.8,1.4,1.1c0.5,0.4,0.9,0.7,1.3,1.1c0.4,0.3,0.8,0.6,1.2,0.9c0.7,0.6,1.4,1.1,1.8,1.4
					c0.4,0.3,0.7,0.5,0.7,0.5s-0.3-0.1-0.8-0.4c-0.5-0.3-1.2-0.6-2-1.1c-0.8-0.5-1.8-1.1-2.7-1.8c-1-0.7-2-1.5-2.9-2.3
					c-0.9-0.8-1.9-1.7-2.7-2.6c-0.8-0.9-1.5-1.8-2-2.5c-0.5-0.8-0.9-1.5-1.2-2C245.4,226.1,245.3,225.8,245.3,225.8z"/>
			</g>
			<g>
				<path class="st32" d="M217.4,228.3c0,0,0.2,0.4,0.4,1.2c0.2,0.8,0.6,1.9,0.9,3.3c0.3,1.4,0.7,3,1,4.7c0.4,1.7,0.6,3.6,0.9,5.5
					c0.3,1.9,0.5,3.8,0.7,5.5c0.2,1.8,0.3,3.4,0.4,4.8c0.1,1.4,0.1,2.6,0.1,3.4c0,0.8,0,1.3,0,1.3s-0.1-0.5-0.2-1.3
					c-0.1-0.8-0.3-2-0.5-3.4c-0.2-1.4-0.4-3-0.7-4.8c-0.3-1.8-0.5-3.6-0.8-5.5c-0.6-3.7-1.1-7.5-1.5-10.3
					C217.7,230.1,217.4,228.3,217.4,228.3z"/>
			</g>
			<g>
				<path class="st32" d="M266.5,228.2c0,0,0.4,0.3,1,0.7c0.6,0.5,1.3,1.1,2,1.8c0.3,0.4,0.6,0.7,0.9,1.1c0.3,0.4,0.5,0.7,0.7,1
					c0.4,0.6,0.6,1.1,0.6,1.1s-0.1-0.1-0.2-0.2c-0.1-0.2-0.3-0.4-0.6-0.7c-0.5-0.5-1.1-1.3-1.8-2c-0.7-0.7-1.3-1.4-1.8-2
					C266.8,228.6,266.5,228.2,266.5,228.2z"/>
			</g>
		</g>
		<line class="st28" x1="187.4" y1="432.4" x2="278.3" y2="432.4"/>
		<line class="st28" x1="159.7" y1="432.4" x2="182.7" y2="432.4"/>
	</g>
	<g>
		<path class="st44" d="M447.7,432.4H383c-1.5,0-2.7-1.2-2.7-2.7V326.2c0-1.5,1.2-2.7,2.7-2.7h64.7c1.5,0,2.7,1.2,2.7,2.7v103.5
			C450.4,431.2,449.2,432.4,447.7,432.4z"/>
		<path class="st8" d="M443.2,416.6h-55.7c-1.5,0-2.7-1.2-2.7-2.7v-82.1c0-1.5,1.2-2.7,2.7-2.7h55.7c1.5,0,2.7,1.2,2.7,2.7v82.1
			C445.9,415.3,444.7,416.6,443.2,416.6z"/>
		<line class="st28" x1="365.8" y1="432.4" x2="452.1" y2="432.4"/>
		<line class="st28" x1="454.4" y1="432.4" x2="460.5" y2="432.4"/>
		<g>
			<path class="st16" d="M422.1,335.5v31.1c0,0.5-0.4,1-1,1h-30.8c-0.5,0-0.9-0.4-0.9-1v-31.1c0-0.5,0.4-0.9,0.9-0.9h30.8
				C421.6,334.5,422.1,335,422.1,335.5z"/>
			<path class="st46" d="M422.1,360.8v5.8c0,0.5-0.4,1-1,1h-15.3l0.6-6.8l7.2-8L422.1,360.8z"/>
			<path class="st2" d="M417.8,367.6h-27.5c-0.5,0-0.9-0.4-0.9-1v-5.8l10.8-11.3L417.8,367.6z"/>
			<circle class="st46" cx="414" cy="343.5" r="3.8"/>
		</g>
		<path class="st16" d="M441,372.3v31.1c0,0.5-0.7,1-1.5,1h-48.3c-0.8,0-1.5-0.4-1.5-1v-31.1c0-0.5,0.7-0.9,1.5-0.9h48.3
			C440.3,371.4,441,371.8,441,372.3z"/>
		<g>
			<circle class="st8" cx="415.3" cy="387.9" r="9"/>
			<polygon class="st2" points="412.8,393.1 412.8,382.6 420.1,387.9 			"/>
		</g>
		<rect x="424.4" y="334.5" class="st18" width="16.6" height="2.5"/>
		<rect x="389.7" y="406.8" class="st18" width="51.3" height="2.5"/>
		<rect x="389.7" y="411.4" class="st18" width="43.3" height="2.5"/>
		<rect x="424.4" y="338.9" class="st18" width="16.6" height="2.5"/>
		<rect x="424.4" y="343.3" class="st18" width="16.6" height="2.5"/>
		<rect x="424.4" y="347.6" class="st18" width="16.6" height="2.5"/>
		<rect x="424.4" y="352" class="st18" width="16.6" height="2.5"/>
		<rect x="424.4" y="356.4" class="st18" width="16.6" height="2.5"/>
		<rect x="424.4" y="360.7" class="st18" width="16.6" height="2.5"/>
		<rect x="424.4" y="365.1" class="st18" width="11.3" height="2.5"/>
		<path class="st16" d="M420.1,424.6c0,2.4-2,4.4-4.4,4.4s-4.4-2-4.4-4.4s2-4.4,4.4-4.4S420.1,422.1,420.1,424.6z"/>
	</g>
	<g>
		<g>
			<path class="st8" d="M214.4,130.4h-20.3c-3.5,0-6.2-2.8-6.2-6.2v-20.3c0-3.5,2.8-6.2,6.2-6.2h20.3c3.5,0,6.2,2.8,6.2,6.2v20.3
				C220.7,127.6,217.9,130.4,214.4,130.4z"/>
			<path class="st16" d="M209.5,115.7l-6.8-6.8c0.5-1.7,0.1-3.7-1.3-5c-1.4-1.4-3.3-1.8-5.1-1.3l3.2,3.2l-0.7,2.7l-2.7,0.7l-3.2-3.2
				c-0.5,1.7-0.1,3.7,1.3,5.1c1.4,1.4,3.3,1.8,5,1.3l6.8,6.8c-0.5,1.7-0.1,3.7,1.3,5c1.4,1.4,3.3,1.8,5.1,1.3l-3.2-3.2l0.7-2.7
				l2.7-0.7l3.2,3.2c0.5-1.7,0.1-3.7-1.3-5.1C213.1,115.6,211.2,115.2,209.5,115.7z"/>
		</g>
		<g>
			<path class="st2" d="M177.6,280.5c0-0.2-0.1-0.3-0.1-0.5c0,0,0,0,0,0c0-0.1-0.1-0.2-0.1-0.3c-0.1-0.1-0.1-0.2-0.2-0.3
				c0,0-0.1-0.1-0.1-0.1c0,0-0.1-0.1-0.1-0.1c0,0,0,0,0,0c-0.1,0-0.1-0.1-0.2-0.1c-0.1-0.1-0.3-0.1-0.4-0.2c-0.1,0-0.1,0-0.2,0
				c-0.2,0-0.4,0-0.6,0l0,0c-0.1,0-0.3,0-0.4,0c-0.3,0-0.7-0.1-0.9-0.3c0,0-0.1-0.1-0.1-0.1c-0.1,0-0.1-0.1-0.1-0.1
				c-0.1-0.1-0.1-0.1-0.2-0.2c0-0.1-0.1-0.2-0.1-0.2c0,0,0-0.1-0.1-0.1c0,0,0-0.1,0-0.1c-0.1-0.3-0.3-0.7-0.4-1c0,0,0,0,0,0
				c0-0.1-0.1-0.1-0.1-0.2c-0.1-0.2-0.1-0.5-0.1-0.8c0,0,0,0,0,0c0-0.2,0.1-0.4,0.2-0.6c0.1-0.2,0.2-0.4,0.4-0.5
				c0.1,0,0.1-0.1,0.2-0.1l0,0c0.1,0,0.1-0.1,0.2-0.1c0.1-0.1,0.3-0.3,0.4-0.5c0-0.1,0.1-0.2,0.1-0.2v0c0-0.1,0.1-0.2,0.1-0.3
				c0.1-0.5,0-1.1-0.3-1.5c-0.4-0.5-0.8-0.9-1.2-1.4c-0.4-0.4-0.9-0.8-1.4-1.2c-0.5-0.4-1-0.5-1.5-0.3c-0.1,0-0.1,0-0.2,0.1
				c-0.3,0.1-0.5,0.2-0.7,0.5c-0.1,0-0.1,0.1-0.1,0.2l0,0c-0.2,0.3-0.5,0.5-0.8,0.6c-0.1,0-0.2,0.1-0.4,0.1c0,0,0,0-0.1,0
				c0,0-0.1,0-0.1,0c-0.1,0-0.3,0-0.4,0c-0.1,0-0.2,0-0.3-0.1c-0.1,0-0.1,0-0.2-0.1c-0.1,0-0.2-0.1-0.2-0.1
				c-0.1-0.1-0.2-0.1-0.3-0.1c-0.2-0.1-0.4-0.2-0.6-0.2c0,0,0,0,0,0c-0.7-0.3-1.2-1-1.1-1.8l0,0l0-0.1v0c0.1-0.9-0.5-1.8-1.4-2
				c-0.1,0-0.1,0-0.2,0c-0.6-0.1-1.2-0.1-1.8-0.1c-0.6,0-1.2,0-1.8,0.1c-1,0.1-1.7,1-1.6,2c0,0,0,0.1,0,0.1c0,0.1,0,0.2,0,0.3
				c0,0.7-0.4,1.3-1,1.7c-0.1,0-0.1,0-0.1,0.1c-0.2,0.1-0.4,0.1-0.6,0.2c-0.2,0.1-0.3,0.1-0.4,0.2c0,0-0.1,0-0.1,0
				c-0.8,0.4-1.7,0.1-2.2-0.6l0,0c-0.6-0.8-1.7-1-2.5-0.5c-0.1,0-0.1,0.1-0.2,0.1c-0.5,0.4-0.9,0.8-1.3,1.2
				c-0.4,0.4-0.8,0.9-1.2,1.3c-0.4,0.5-0.5,1.1-0.3,1.7c0,0.2,0.1,0.3,0.2,0.5c0.1,0.1,0.2,0.2,0.3,0.3c0.1,0,0.1,0.1,0.2,0.1l0,0
				c0.7,0.5,0.9,1.4,0.6,2.2c-0.2,0.4-0.3,0.7-0.5,1.1c-0.1,0.2-0.2,0.4-0.4,0.6c-0.1,0.1-0.2,0.2-0.3,0.3c-0.1,0.1-0.2,0.1-0.4,0.2
				c-0.1,0-0.2,0.1-0.3,0.1c-0.2,0-0.5,0.1-0.7,0c-0.1,0-0.2,0-0.3,0c-0.1,0-0.2,0-0.3,0c-0.8,0.1-1.4,0.8-1.5,1.6
				c-0.1,0.6-0.1,1.2-0.1,1.8c0,0.6,0,1.2,0.1,1.8c0.1,0.8,0.7,1.5,1.5,1.6c0.2,0,0.4,0,0.6,0c0.1,0,0.2,0,0.3,0
				c0.4,0,0.7,0.1,1,0.3c0.1,0.1,0.1,0.1,0.2,0.2c0.2,0.2,0.4,0.4,0.5,0.7c0.1,0.4,0.3,0.7,0.5,1.1c0.3,0.7,0.1,1.5-0.4,2.1
				c-0.1,0-0.1,0.1-0.2,0.1v0l0,0c-0.1,0-0.1,0.1-0.2,0.1c-0.1,0.1-0.2,0.2-0.3,0.3c-0.1,0.1-0.2,0.3-0.2,0.5c0,0.1,0,0.1,0,0.2
				c0,0.1,0,0.1,0,0.2c0,0.1,0,0.1,0,0.2c0,0,0,0,0,0c0,0,0,0,0,0.1c0,0.1,0,0.2,0,0.3c0,0.1,0,0.2,0.1,0.2c0,0,0,0,0,0c0,0,0,0,0,0
				c0,0,0,0.1,0,0.1c0,0.1,0.1,0.1,0.1,0.2c0,0,0,0,0,0s0,0,0,0c0,0.1,0.1,0.1,0.1,0.2c0.4,0.5,0.8,0.9,1.2,1.3
				c0.4,0.4,0.9,0.8,1.3,1.2c0.4,0.3,0.9,0.4,1.3,0.4c0.2,0,0.3,0,0.5-0.1c0.3-0.1,0.6-0.3,0.9-0.6l0.1-0.2c0.2-0.2,0.4-0.4,0.7-0.5
				l0.6-0.1c0.3,0,0.5,0.1,0.7,0.2c0.4,0.2,0.7,0.3,1.1,0.5c0.4,0.1,0.7,0.4,0.9,0.7c0.1,0.1,0.1,0.2,0.2,0.4
				c0.1,0.3,0.2,0.6,0.1,0.9v0c-0.1,1,0.5,1.9,1.4,2.1c0,0,0,0,0,0c0.1,0,0.1,0,0.2,0c0.6,0.1,1.2,0.1,1.8,0.1c0.6,0,1.2,0,1.8-0.1
				c0.4-0.1,0.8-0.3,1.1-0.6c0.1-0.1,0.2-0.3,0.3-0.4c0-0.1,0.1-0.1,0.1-0.2c0.1-0.3,0.2-0.6,0.1-0.9c0-0.1,0-0.2,0-0.3
				c0-0.8,0.5-1.5,1.2-1.7c0.4-0.1,0.7-0.3,1.1-0.5l0,0c0.5-0.2,1.1-0.2,1.6,0c0.1,0.1,0.2,0.1,0.4,0.2c0.1,0,0.1,0.1,0.2,0.2
				c0.1,0,0.1,0.1,0.1,0.2l0,0c0.6,0.8,1.6,1,2.4,0.5c0.1,0,0.1-0.1,0.2-0.1c0.5-0.4,0.9-0.8,1.3-1.2c0.4-0.4,0.8-0.9,1.2-1.3
				c0.4-0.5,0.5-1.1,0.3-1.7c0-0.1-0.1-0.2-0.1-0.2c0-0.1-0.1-0.2-0.1-0.2c-0.1-0.1-0.2-0.2-0.3-0.3c-0.1,0-0.1-0.1-0.2-0.1l0,0v0
				c-0.1,0-0.1-0.1-0.2-0.1c-0.6-0.5-0.7-1.4-0.4-2.1c0.2-0.4,0.3-0.7,0.5-1.1c0.3-0.8,1.1-1.3,2-1.2c0.5,0.1,0.9,0,1.2-0.2
				c0.1-0.1,0.2-0.1,0.3-0.2c0,0,0.1-0.1,0.1-0.1c0,0,0.1-0.1,0.1-0.1c0.2-0.3,0.4-0.6,0.4-0.9c0.1-0.6,0.1-1.2,0.1-1.8
				C177.7,281.6,177.7,281,177.6,280.5z M169.8,283.2C169.8,283.2,169.8,283.2,169.8,283.2c0,0.2,0,0.4-0.1,0.5
				c0,0.2-0.1,0.3-0.1,0.5c0,0,0,0,0,0c-0.1,0.3-0.1,0.6-0.2,0.9c-0.1,0.2-0.1,0.3-0.2,0.5c-0.1,0.1-0.1,0.3-0.2,0.4
				c-0.1,0.1-0.1,0.2-0.2,0.3c-0.1,0.3-0.3,0.6-0.5,0.8c0,0.1-0.1,0.1-0.1,0.2c0,0,0,0.1-0.1,0.1c-0.1,0.1-0.1,0.2-0.2,0.2
				c-0.1,0.1-0.1,0.2-0.2,0.3c-0.2,0.2-0.3,0.4-0.5,0.6c-0.1,0.1-0.2,0.2-0.2,0.2c-0.1,0.1-0.2,0.1-0.2,0.2
				c-0.1,0.1-0.2,0.2-0.4,0.3c-0.3,0.2-0.6,0.4-0.9,0.6c-0.1,0.1-0.2,0.1-0.3,0.2c-0.1,0.1-0.2,0.1-0.4,0.2
				c-0.1,0.1-0.2,0.1-0.3,0.2c-0.2,0.1-0.4,0.2-0.6,0.2c-0.1,0-0.2,0.1-0.3,0.1c-0.2,0.1-0.5,0.1-0.7,0.2c-0.1,0-0.2,0.1-0.4,0.1
				c-0.1,0-0.2,0-0.4,0.1c-0.6,0.1-1.2,0.1-1.9,0c-0.1,0-0.2,0-0.4,0c-0.1,0-0.2,0-0.4-0.1c-0.1,0-0.2,0-0.4-0.1
				c-0.4-0.1-0.8-0.2-1.3-0.4c-0.1,0-0.2-0.1-0.3-0.1c0,0,0,0,0,0c-0.1,0-0.2-0.1-0.4-0.2c0,0,0,0,0,0c-0.1-0.1-0.2-0.1-0.4-0.2
				c-0.3-0.1-0.5-0.3-0.7-0.4c0,0,0,0,0,0c-0.1-0.1-0.2-0.2-0.3-0.2c-0.1-0.1-0.2-0.1-0.3-0.2c-0.1-0.1-0.3-0.2-0.4-0.3
				c-0.1-0.1-0.3-0.2-0.4-0.4c-0.1-0.1-0.2-0.2-0.3-0.3c-0.4-0.4-0.7-0.8-0.9-1.3c-0.1-0.1-0.1-0.2-0.2-0.4
				c-0.1-0.1-0.2-0.3-0.2-0.4c0-0.1-0.1-0.2-0.1-0.2c0-0.1-0.1-0.1-0.1-0.2c0-0.1-0.1-0.1-0.1-0.2c0-0.1-0.1-0.2-0.1-0.3
				c0,0,0-0.1,0-0.1c0-0.1-0.1-0.2-0.1-0.4c-0.1-0.2-0.1-0.4-0.1-0.5c0-0.1,0-0.2-0.1-0.3c0-0.2-0.1-0.4-0.1-0.6c0-0.3,0-0.6,0-0.9
				c0,0,0,0,0,0c0-0.3,0-0.6,0-0.9c0,0,0-0.1,0-0.1c0-0.1,0-0.3,0.1-0.4c0-0.2,0.1-0.3,0.1-0.5c0,0,0,0,0,0c0.1-0.3,0.1-0.6,0.2-0.9
				c0-0.1,0.1-0.2,0.1-0.4c0-0.1,0.1-0.2,0.1-0.3c0-0.1,0.1-0.1,0.1-0.2c0-0.1,0.1-0.2,0.1-0.2c0.1-0.2,0.2-0.4,0.4-0.7
				c0.1-0.1,0.1-0.2,0.2-0.3c0,0,0,0,0,0c0.1-0.1,0.1-0.2,0.2-0.3c0.1-0.1,0.2-0.3,0.3-0.4c0.1-0.1,0.2-0.2,0.3-0.4
				c0.1-0.1,0.2-0.2,0.3-0.3c0.6-0.6,1.2-1,1.8-1.4c0.1-0.1,0.2-0.1,0.3-0.2c0.1-0.1,0.2-0.1,0.3-0.2c0.1-0.1,0.2-0.1,0.3-0.1
				c0.2-0.1,0.4-0.2,0.6-0.2c0.1,0,0.2-0.1,0.3-0.1c0.1,0,0.2-0.1,0.4-0.1c0.1,0,0.2-0.1,0.4-0.1c0.1,0,0.2-0.1,0.4-0.1
				c0.1,0,0.2,0,0.4-0.1c0.1,0,0.2,0,0.4,0c0.5,0,1,0,1.5,0c0.1,0,0.2,0,0.4,0c0.1,0,0.2,0,0.4,0.1c0.1,0,0.2,0,0.4,0.1
				c0.3,0.1,0.6,0.1,0.9,0.2c0.1,0,0.2,0,0.2,0.1c0.4,0.1,0.8,0.3,1.2,0.6c0.1,0.1,0.3,0.1,0.4,0.2c0.1,0.1,0.2,0.1,0.4,0.2
				c0.1,0.1,0.2,0.2,0.3,0.2c0,0,0,0,0,0c0.1,0.1,0.2,0.2,0.3,0.3c0.1,0.1,0.2,0.2,0.3,0.3c0.2,0.2,0.4,0.4,0.6,0.6
				c0.1,0.1,0.2,0.2,0.2,0.3c0.1,0.2,0.3,0.3,0.4,0.5c0.1,0.1,0.1,0.2,0.2,0.2c0.2,0.3,0.4,0.6,0.5,0.9c0.1,0.1,0.1,0.2,0.2,0.4
				c0,0,0,0,0,0.1c0.1,0.1,0.1,0.3,0.2,0.4c0,0,0,0,0,0.1c0,0.1,0.1,0.2,0.1,0.3c0,0.1,0,0.1,0.1,0.2c0.1,0.3,0.2,0.6,0.2,0.9
				c0,0.1,0,0.2,0.1,0.3c0,0.2,0.1,0.5,0.1,0.7c0,0.3,0,0.6,0,0.9C169.8,282.6,169.8,282.9,169.8,283.2z"/>
			<g>
				<g>
					<path class="st47" d="M178,305.6h-34.2c-3.5,0-6.2-2.8-6.2-6.2v-34.2c0-3.5,2.8-6.2,6.2-6.2H178c3.5,0,6.2,2.8,6.2,6.2v34.2
						C184.3,302.8,181.5,305.6,178,305.6z"/>
				</g>
			</g>
		</g>
		<g>
			<path class="st47" d="M651.2,319.2h-34.2c-3.5,0-6.2-2.8-6.2-6.2v-34.2c0-3.5,2.8-6.2,6.2-6.2h34.2c3.5,0,6.2,2.8,6.2,6.2v34.2
				C657.4,316.4,654.6,319.2,651.2,319.2z"/>
			<path class="st48" d="M649.6,309.5h-31.1c-1.7,0-2.7-1.9-1.7-3.3l15.6-23.1c0.8-1.2,2.6-1.2,3.5,0l15.6,23.1
				C652.3,307.6,651.3,309.5,649.6,309.5z"/>
			<g>
				<path class="st2" d="M634.5,302.7h-0.8c-0.5,0-1-0.4-1-1l-0.5-13.2c0-0.6,0.4-1,1-1h1.9c0.6,0,1,0.5,1,1l-0.5,13.2
					C635.4,302.3,635,302.7,634.5,302.7z"/>
				<circle class="st2" cx="634" cy="305.3" r="1.3"/>
			</g>
		</g>
		<g>
			<path class="st8" d="M367,97.2h-20.3c-3.5,0-6.2-2.8-6.2-6.2V70.7c0-3.5,2.8-6.2,6.2-6.2H367c3.5,0,6.2,2.8,6.2,6.2v20.3
				C373.2,94.4,370.4,97.2,367,97.2z"/>
			<g>
				<path class="st2" d="M359.9,87.9c0,1.7-1.4,3.1-3.1,3.1s-3.1-1.4-3.1-3.1c0-1.7,1.4-3.1,3.1-3.1S359.9,86.2,359.9,87.9z"/>
				<g>
					<g>
						<path class="st2" d="M356.9,77.5c-2.9,0-5.6,1.2-7.5,3.2l2.1,2c1.4-1.4,3.3-2.3,5.4-2.3s4,0.9,5.4,2.3l2.1-2
							C362.5,78.7,359.8,77.5,356.9,77.5z"/>
					</g>
					<g>
						<path class="st2" d="M356.9,70.6c-4.9,0-9.3,2-12.4,5.3l2.1,2c2.6-2.7,6.3-4.4,10.3-4.4c4.1,0,7.7,1.7,10.3,4.4l2.1-2
							C366.1,72.6,361.7,70.6,356.9,70.6z"/>
					</g>
				</g>
			</g>
		</g>
	</g>
</g>
</svg>
