<?xml version="1.0" encoding="utf-8"?>
<!-- Generator: Adobe Illustrator 27.5.0, SVG Export Plug-In . SVG Version: 6.00 Build 0)  -->
<svg version="1.1" xmlns="http://www.w3.org/2000/svg" xmlns:xlink="http://www.w3.org/1999/xlink" x="0px" y="0px"
	 viewBox="0 0 500 500" style="enable-background:new 0 0 500 500;" xml:space="preserve">
<g id="Background_Simple">
	<g>
		<path style="fill:#C6FF00;" d="M123.644,412.552c0,0,47.965,24.932,102.784-1.351c54.819-26.283,72.608-77.229,101.056-115.497
			c14.897-20.04,39.277-31.209,57.871-48.06c59.454-53.883,38.004-143.971-16.393-168.692
			c-47.092-21.401-101.495-13.735-168.905,22.497c-67.41,36.233-115.979,59.609-151.37,131.812
			C13.296,305.463,64.01,377.616,123.644,412.552z"/>
		<path style="opacity:0.7;fill:#FFFFFF;" d="M123.644,412.552c0,0,47.965,24.932,102.784-1.351
			c54.819-26.283,72.608-77.229,101.056-115.497c14.897-20.04,39.277-31.209,57.871-48.06
			c59.454-53.883,38.004-143.971-16.393-168.692c-47.092-21.401-101.495-13.735-168.905,22.497
			c-67.41,36.233-115.979,59.609-151.37,131.812C13.296,305.463,64.01,377.616,123.644,412.552z"/>
	</g>
</g>
<g id="Plants">
	<g>
		<path style="fill:#BFBFBF;" d="M415.297,381.131c0,0-3.335-14.175-0.834-26.683c2.501-12.508,8.338-4.169,15.009-12.508
			c6.671-8.338,3.335-24.181,10.84-30.852c7.505-6.671,18.345-5.837,20.846-18.344s4.169-22.514,9.172-20.846
			c5.003,1.668-4.169,16.677-4.169,25.849c0,9.172,5.003,15.009,1.668,24.181c-3.336,9.172-17.511,5.837-17.511,16.677
			s5.837,21.68,0.834,29.184c-5.003,7.505-18.345,9.172-20.012,13.342c-1.668,4.169-5.837,11.674-10.006,11.674
			C416.965,392.805,415.297,381.131,415.297,381.131z"/>
		<path style="fill:#BFBFBF;" d="M412.584,381.279c0.834-2.502-0.834-24.182-8.338-28.351c-7.505-4.169-15.843-2.501-20.012-10.006
			c-4.169-7.504-4.169-10.84-8.338-11.674c-4.169-0.834-24.181-4.169-21.68,0c2.502,4.169,17.511-2.501,17.511,5.837
			c0,8.338-1.668,21.68,3.335,25.015c5.003,3.335,18.345,2.501,17.511,10.006c-0.834,7.505-3.335,10.006,0.834,12.508
			c4.169,2.501,15.843,13.341,17.511,5.003C412.584,381.279,412.584,381.279,412.584,381.279z"/>
		<path style="fill:none;stroke:#263238;stroke-width:1.232;stroke-miterlimit:10;" d="M421.864,399.664
			c0,0-3.884-12.139,6.798-34.475c10.682-22.336,18.451-39.33,23.307-48.07"/>
		<path style="fill:none;stroke:#263238;stroke-width:1.232;stroke-miterlimit:10;" d="M413.124,401.606
			c0,0-1.457-5.827-6.312-21.85c-4.855-16.023-10.682-20.393-18.937-25.735c-8.255-5.341-8.74-14.081-10.197-16.509"/>
		<path style="fill:#BFBFBF;" d="M433.517,392.866c0,0,0.971-8.74,8.74-11.168c7.769-2.428,15.052-1.457,16.509-6.798
			c1.457-5.341,1.457-10.682,4.856-13.596c3.399-2.913,7.769-4.37,8.254-2.913c0.486,1.457-4.855,2.428-4.855,7.283
			c0,4.855,7.283,16.995-3.399,21.85c-10.682,4.856-19.422,0.486-23.307,3.885c-3.884,3.399-6.312,5.827-6.312,5.827
			L433.517,392.866z"/>
		<path style="fill:none;stroke:#263238;stroke-width:1.232;stroke-miterlimit:10;" d="M432.546,401.606
			c0,0,3.399-12.625,11.653-15.538c8.255-2.913,17.48,3.399,21.365-2.428c3.884-5.827,0.971-11.653,0.486-15.538"/>
		<path style="fill:#263238;" d="M438.009,399.664h-30.105c-1.341,0-2.428,1.087-2.428,2.428l0,0c0,1.341,1.087,2.428,2.428,2.428
			h0.243l2.344,6.148c0.372,0.976,1.309,1.621,2.353,1.621h20.225c1.045,0,1.981-0.645,2.353-1.621l2.344-6.148h0.243
			c1.341,0,2.428-1.087,2.428-2.428l0,0C440.436,400.751,439.349,399.664,438.009,399.664z"/>
	</g>
</g>
<g id="Text">
	<g>
		<g>
			<path style="fill:#263238;" d="M311.567,293.163c-0.183-0.167-0.274-0.378-0.274-0.629v-14.515c0-0.243,0.091-0.451,0.274-0.622
				c0.183-0.172,0.401-0.258,0.652-0.258h4.355c3.763,0,5.645,1.368,5.645,4.103c0,0.923-0.304,1.736-0.914,2.441
				c-0.609,0.704-1.455,1.111-2.536,1.216v0.046c1.264,0.114,2.268,0.526,3.011,1.234c0.742,0.709,1.114,1.662,1.114,2.857
				c0,0.58-0.102,1.125-0.309,1.635c-0.204,0.51-0.516,0.976-0.931,1.394c-0.415,0.419-0.976,0.748-1.68,0.989
				c-0.705,0.239-1.515,0.36-2.429,0.36h-5.326C311.968,293.414,311.75,293.33,311.567,293.163z M316.425,284.305
				c1.349,0,2.355-0.243,3.017-0.731c0.663-0.487,0.994-1.257,0.994-2.309c0-0.441-0.072-0.828-0.217-1.16
				c-0.144-0.331-0.332-0.594-0.561-0.788c-0.229-0.195-0.516-0.351-0.863-0.469c-0.346-0.118-0.689-0.196-1.029-0.234
				c-0.339-0.037-0.722-0.057-1.148-0.057h-3.509v5.748H316.425z M317.099,291.974c1.357,0,2.34-0.229,2.95-0.686
				c0.609-0.457,0.914-1.284,0.914-2.481c0-1.12-0.381-1.914-1.143-2.382c-0.763-0.469-1.939-0.704-3.532-0.704h-3.177v6.253
				H317.099z"/>
			<path style="fill:#263238;" d="M325.717,292.803c-0.739-0.568-1.108-1.381-1.108-2.441c0-0.487,0.053-0.905,0.16-1.251
				c0.107-0.347,0.29-0.647,0.549-0.902c0.259-0.256,0.575-0.463,0.948-0.623c0.374-0.16,0.867-0.29,1.481-0.388
				c0.612-0.099,1.28-0.166,2-0.2c0.721-0.035,1.599-0.052,2.635-0.052v-1.44c0-0.853-0.244-1.486-0.732-1.897
				c-0.487-0.411-1.154-0.617-2.001-0.617c-0.716,0-1.335,0.075-1.856,0.223c-0.522,0.149-1.091,0.372-1.71,0.669
				c-0.091,0.046-0.174,0.069-0.25,0.069c-0.161,0-0.303-0.069-0.43-0.206c-0.125-0.137-0.189-0.286-0.189-0.446
				c0-0.174,0.073-0.308,0.218-0.399c1.136-0.709,2.553-1.064,4.252-1.064c1.372,0,2.439,0.315,3.2,0.943
				c0.762,0.629,1.143,1.591,1.143,2.886v7.028c0,0.229-0.088,0.41-0.263,0.544c-0.174,0.132-0.38,0.2-0.616,0.2
				c-0.214,0-0.397-0.061-0.549-0.183c-0.153-0.122-0.229-0.297-0.229-0.526v-1.521c-0.77,1.632-2.008,2.446-3.715,2.446
				C327.436,293.654,326.457,293.37,325.717,292.803z M331.329,291.34c0.701-0.789,1.051-1.796,1.051-3.023v-0.378
				c-1.722,0-3.008,0.065-3.857,0.195c-0.85,0.13-1.448,0.356-1.795,0.68c-0.346,0.324-0.52,0.817-0.52,1.48
				c0,1.486,0.884,2.229,2.652,2.229C329.805,292.523,330.628,292.128,331.329,291.34z"/>
			<path style="fill:#263238;" d="M339.404,293.174c-0.636-0.32-1.15-0.759-1.542-1.32c-0.393-0.56-0.688-1.192-0.885-1.897
				c-0.199-0.705-0.298-1.461-0.298-2.269c0-0.784,0.111-1.526,0.332-2.222c0.221-0.698,0.539-1.316,0.954-1.858
				c0.415-0.541,0.95-0.972,1.606-1.292c0.656-0.32,1.387-0.48,2.195-0.48c0.853,0,1.624,0.208,2.315,0.623
				c0.689,0.415,1.193,0.996,1.513,1.743v-6.275c0-0.243,0.082-0.434,0.247-0.572c0.164-0.137,0.36-0.206,0.588-0.206
				c0.229,0,0.425,0.069,0.588,0.206c0.164,0.137,0.247,0.328,0.247,0.572v14.698c0,0.237-0.081,0.42-0.241,0.549
				c-0.16,0.13-0.354,0.195-0.582,0.195c-0.306,0-0.522-0.072-0.652-0.218c-0.13-0.144-0.195-0.32-0.195-0.526v-1.36
				c-0.366,0.784-0.905,1.379-1.617,1.783c-0.712,0.403-1.513,0.605-2.406,0.605C340.763,293.654,340.041,293.494,339.404,293.174z
				 M343.577,292.117c0.514-0.256,0.912-0.616,1.193-1.08c0.283-0.465,0.488-0.972,0.618-1.521c0.129-0.549,0.194-1.157,0.194-1.829
				c0-0.609-0.071-1.184-0.212-1.725c-0.141-0.541-0.353-1.038-0.634-1.492c-0.281-0.454-0.665-0.813-1.149-1.08
				c-0.484-0.266-1.042-0.399-1.673-0.399c-0.511,0-0.972,0.095-1.384,0.285c-0.411,0.191-0.751,0.443-1.018,0.754
				c-0.266,0.313-0.487,0.681-0.662,1.103c-0.176,0.423-0.302,0.852-0.378,1.286c-0.076,0.434-0.114,0.884-0.114,1.349
				c0,0.572,0.056,1.118,0.172,1.64c0.113,0.522,0.292,1.021,0.536,1.498c0.244,0.475,0.596,0.859,1.057,1.148
				c0.461,0.29,1,0.439,1.617,0.446C342.451,292.5,343.062,292.372,343.577,292.117z"/>
			<path style="fill:#263238;" d="M358.126,293.186c-0.179-0.153-0.27-0.366-0.27-0.64V278.03c0-0.244,0.09-0.453,0.27-0.629
				c0.178-0.174,0.398-0.262,0.657-0.262h4.846c0.503,0,0.966,0.021,1.389,0.063c0.423,0.042,0.864,0.114,1.321,0.218
				c0.457,0.102,0.86,0.255,1.21,0.457c0.351,0.201,0.669,0.445,0.955,0.732c0.285,0.285,0.504,0.65,0.657,1.091
				c0.153,0.441,0.229,0.941,0.229,1.497c0,0.93-0.273,1.724-0.817,2.383c-0.545,0.659-1.362,1.103-2.452,1.332v0.046
				c0.869,0.176,1.532,0.555,1.989,1.137c0.457,0.583,0.747,1.381,0.868,2.394l0.445,3.909c0,0.016,0.002,0.038,0.006,0.068
				c0.004,0.031,0.006,0.054,0.006,0.069c0,0.26-0.079,0.47-0.241,0.635c-0.159,0.164-0.361,0.245-0.605,0.245
				c-0.251,0-0.476-0.075-0.675-0.223c-0.197-0.149-0.312-0.361-0.342-0.635l-0.378-3.292c-0.061-0.526-0.122-0.96-0.183-1.303
				c-0.061-0.343-0.149-0.653-0.262-0.931c-0.116-0.278-0.243-0.493-0.384-0.646c-0.141-0.152-0.331-0.279-0.571-0.383
				c-0.24-0.102-0.5-0.171-0.782-0.206c-0.283-0.034-0.64-0.052-1.076-0.052h-4.228v6.801c0,0.281-0.094,0.497-0.28,0.646
				c-0.188,0.148-0.405,0.223-0.658,0.223C358.52,293.414,358.304,293.339,358.126,293.186z M363.583,284.317
				c0.564,0,1.067-0.045,1.509-0.131c0.442-0.088,0.857-0.237,1.247-0.446c0.387-0.209,0.689-0.52,0.902-0.931
				c0.213-0.411,0.32-0.911,0.32-1.498c0-0.465-0.084-0.869-0.251-1.212c-0.167-0.343-0.373-0.608-0.617-0.794
				c-0.244-0.186-0.551-0.336-0.92-0.445c-0.369-0.111-0.706-0.179-1.012-0.206c-0.304-0.028-0.651-0.041-1.039-0.041h-4.011v5.704
				H363.583z"/>
			<path style="fill:#263238;" d="M377.675,293.654c-1.554,0-2.856-0.535-3.903-1.605c-1.048-1.071-1.571-2.494-1.571-4.27
				c0-1.074,0.209-2.055,0.628-2.943c0.419-0.888,1.048-1.61,1.886-2.166c0.837-0.556,1.813-0.835,2.926-0.835
				c0.723,0,1.375,0.1,1.954,0.297c0.579,0.199,1.058,0.467,1.434,0.806c0.378,0.339,0.695,0.751,0.955,1.234
				c0.259,0.484,0.446,0.99,0.565,1.521c0.118,0.529,0.184,1.102,0.2,1.719c0,0.175-0.063,0.32-0.189,0.434
				c-0.125,0.114-0.307,0.172-0.543,0.172h-8.138c-0.007,1.402,0.362,2.484,1.109,3.246c0.746,0.762,1.676,1.154,2.789,1.177
				c0.784,0,1.458-0.129,2.022-0.389c0.564-0.259,1.127-0.617,1.691-1.074c0.137-0.114,0.282-0.171,0.434-0.171
				c0.144,0,0.268,0.053,0.372,0.16c0.102,0.107,0.154,0.236,0.154,0.389c0,0.206-0.091,0.396-0.274,0.572
				c-0.533,0.51-1.149,0.925-1.846,1.245c-0.698,0.32-1.576,0.48-2.635,0.48H377.675z M381.264,286.956
				c-0.069-1.18-0.391-2.137-0.966-2.868c-0.575-0.731-1.415-1.097-2.519-1.097c-1.143,0-2.049,0.385-2.715,1.154
				c-0.667,0.77-1.042,1.707-1.125,2.812H381.264z"/>
			<path style="fill:#263238;" d="M394.276,297.535c-0.165-0.134-0.247-0.322-0.247-0.567v-5.669
				c-0.32,0.74-0.824,1.316-1.514,1.732c-0.691,0.415-1.462,0.622-2.315,0.622c-0.807,0-1.539-0.16-2.194-0.48
				c-0.656-0.32-1.191-0.75-1.606-1.291c-0.415-0.541-0.733-1.16-0.954-1.858c-0.221-0.697-0.332-1.434-0.332-2.211
				c0-0.816,0.1-1.576,0.298-2.28c0.197-0.705,0.492-1.338,0.885-1.897c0.392-0.561,0.906-1.001,1.542-1.321
				c0.637-0.32,1.358-0.48,2.166-0.48c0.893,0,1.694,0.205,2.406,0.612c0.712,0.407,1.251,1,1.617,1.777v-1.349
				c0-0.206,0.065-0.383,0.195-0.532c0.13-0.148,0.347-0.223,0.652-0.223c0.229,0,0.422,0.065,0.582,0.194
				c0.16,0.13,0.241,0.316,0.241,0.561v14.092c0,0.244-0.083,0.433-0.247,0.567c-0.164,0.132-0.36,0.2-0.588,0.2
				C394.636,297.735,394.44,297.667,394.276,297.535z M392.024,292.099c0.484-0.266,0.867-0.627,1.149-1.079
				c0.281-0.454,0.493-0.951,0.634-1.492c0.141-0.542,0.212-1.117,0.212-1.727c0-0.67-0.065-1.28-0.194-1.829
				c-0.13-0.549-0.336-1.053-0.618-1.513c-0.281-0.462-0.68-0.822-1.193-1.08c-0.515-0.259-1.126-0.389-1.835-0.389
				c-0.503,0.007-0.953,0.111-1.349,0.308c-0.396,0.199-0.719,0.454-0.972,0.766c-0.25,0.313-0.458,0.679-0.622,1.097
				c-0.165,0.419-0.279,0.839-0.343,1.257c-0.065,0.419-0.097,0.853-0.097,1.303c0,0.464,0.039,0.914,0.114,1.349
				c0.076,0.434,0.202,0.863,0.378,1.286c0.175,0.422,0.396,0.79,0.662,1.102c0.267,0.313,0.606,0.564,1.018,0.754
				c0.411,0.191,0.872,0.286,1.384,0.286C390.982,292.5,391.54,292.367,392.024,292.099z"/>
			<path style="fill:#263238;" d="M400.346,292.557c-0.728-0.732-1.091-1.852-1.091-3.36v-6.309c0-0.251,0.081-0.444,0.245-0.576
				c0.164-0.133,0.36-0.201,0.588-0.201c0.228,0,0.427,0.067,0.594,0.201c0.167,0.132,0.251,0.325,0.251,0.576v6.332
				c0,2.187,0.926,3.281,2.777,3.281c0.946,0,1.728-0.303,2.35-0.908c0.621-0.606,0.973-1.465,1.058-2.578v-6.126
				c0-0.236,0.087-0.425,0.262-0.565c0.176-0.141,0.373-0.212,0.594-0.212c0.229,0,0.423,0.067,0.582,0.201
				c0.161,0.132,0.241,0.325,0.241,0.576v9.738c0,0.251-0.084,0.446-0.251,0.584c-0.167,0.137-0.366,0.206-0.594,0.206
				c-0.221,0-0.415-0.067-0.584-0.2c-0.167-0.134-0.25-0.322-0.25-0.567v-1.337c-0.26,0.747-0.728,1.323-1.406,1.731
				c-0.679,0.408-1.456,0.611-2.332,0.611C402.084,293.654,401.072,293.288,400.346,292.557z"/>
			<path style="fill:#263238;" d="M417.233,293.654c-1.554,0-2.856-0.535-3.903-1.605c-1.048-1.071-1.571-2.494-1.571-4.27
				c0-1.074,0.209-2.055,0.628-2.943c0.419-0.888,1.048-1.61,1.886-2.166c0.837-0.556,1.813-0.835,2.926-0.835
				c0.723,0,1.375,0.1,1.954,0.297c0.579,0.199,1.057,0.467,1.434,0.806c0.378,0.339,0.695,0.751,0.955,1.234
				c0.259,0.484,0.446,0.99,0.565,1.521c0.118,0.529,0.184,1.102,0.2,1.719c0,0.175-0.063,0.32-0.189,0.434
				c-0.125,0.114-0.307,0.172-0.543,0.172h-8.138c-0.007,1.402,0.362,2.484,1.109,3.246c0.746,0.762,1.676,1.154,2.789,1.177
				c0.784,0,1.458-0.129,2.022-0.389c0.564-0.259,1.127-0.617,1.691-1.074c0.137-0.114,0.281-0.171,0.434-0.171
				c0.144,0,0.268,0.053,0.372,0.16c0.102,0.107,0.154,0.236,0.154,0.389c0,0.206-0.091,0.396-0.274,0.572
				c-0.533,0.51-1.149,0.925-1.846,1.245c-0.698,0.32-1.576,0.48-2.635,0.48H417.233z M420.821,286.956
				c-0.069-1.18-0.391-2.137-0.966-2.868c-0.575-0.731-1.415-1.097-2.519-1.097c-1.143,0-2.049,0.385-2.715,1.154
				c-0.666,0.77-1.042,1.707-1.125,2.812H420.821z"/>
			<path style="fill:#263238;" d="M431.611,282.128c0.67,0.186,1.196,0.383,1.577,0.588c0.236,0.137,0.354,0.324,0.354,0.559
				c0,0.146-0.049,0.271-0.148,0.378c-0.099,0.107-0.232,0.16-0.401,0.16c-0.076,0-0.178-0.019-0.308-0.058
				c-0.046-0.014-0.171-0.064-0.378-0.148c-0.204-0.084-0.387-0.153-0.549-0.206c-0.159-0.053-0.36-0.114-0.599-0.183
				c-0.241-0.069-0.49-0.12-0.748-0.154c-0.26-0.035-0.522-0.052-0.789-0.052c-1.989,0-2.984,0.613-2.984,1.84
				c0,0.503,0.133,0.854,0.401,1.051c0.267,0.199,0.865,0.408,1.794,0.629l2.092,0.514c1.113,0.274,1.895,0.675,2.348,1.201
				c0.454,0.526,0.68,1.169,0.68,1.931c0,1.151-0.407,2.016-1.222,2.595c-0.816,0.579-1.882,0.872-3.2,0.879
				c-0.777,0-1.554-0.124-2.332-0.371c-0.777-0.248-1.379-0.528-1.806-0.841c-0.206-0.152-0.309-0.331-0.309-0.537
				c0-0.153,0.055-0.284,0.166-0.395c0.111-0.111,0.25-0.166,0.417-0.166c0.153,0,0.313,0.05,0.48,0.149
				c1.067,0.663,2.221,0.994,3.463,0.994c0.907-0.007,1.619-0.194,2.138-0.56c0.518-0.366,0.777-0.891,0.777-1.577
				c0-0.533-0.15-0.95-0.451-1.251c-0.302-0.302-0.818-0.539-1.55-0.715l-2.149-0.515c-0.457-0.114-0.83-0.215-1.119-0.302
				c-0.29-0.088-0.59-0.211-0.897-0.366c-0.309-0.156-0.547-0.33-0.715-0.521c-0.167-0.19-0.307-0.434-0.418-0.731
				c-0.111-0.297-0.165-0.644-0.165-1.039c0-0.556,0.125-1.038,0.376-1.446c0.251-0.408,0.594-0.725,1.029-0.954
				c0.434-0.229,0.905-0.396,1.411-0.503c0.507-0.107,1.054-0.16,1.64-0.16C430.243,281.848,430.941,281.941,431.611,282.128z"/>
			<path style="fill:#263238;" d="M437.839,290.123v-6.789h-1.509c-0.441,0-0.662-0.183-0.662-0.549c0-0.373,0.22-0.561,0.662-0.561
				h1.509l0.195-3.383c0.007-0.167,0.101-0.33,0.28-0.485c0.178-0.156,0.348-0.235,0.509-0.235c0.183,0,0.342,0.063,0.479,0.189
				c0.137,0.125,0.207,0.298,0.207,0.52v3.394h2.194c0.426,0,0.64,0.191,0.64,0.572c0,0.358-0.214,0.538-0.64,0.538h-2.194v6.652
				c0,0.876,0.125,1.482,0.377,1.817c0.251,0.336,0.64,0.503,1.166,0.503h0.103l0.719-0.034h0.034c0.221,0,0.395,0.066,0.521,0.2
				c0.125,0.134,0.189,0.288,0.189,0.463c0,0.29-0.123,0.48-0.366,0.572c-0.244,0.091-0.603,0.137-1.076,0.137
				c-0.076,0-0.19-0.002-0.342-0.006c-0.153-0.004-0.271-0.006-0.355-0.006C438.72,293.631,437.839,292.462,437.839,290.123z"/>
		</g>
	</g>
	<g>
		<path style="fill:#263238;" d="M332.048,262.556c-1.042-1.094-1.563-2.643-1.563-4.648v-5.813h-20.17
			c-1.714,0-3.092-0.467-4.133-1.404c-1.042-0.935-1.563-2.129-1.563-3.579c0-1.028,0.277-2.083,0.83-3.163l18.114-31.521
			c2.162-3.743,5.392-5.616,9.69-5.616c2.927,0,5.154,0.692,6.684,2.077c1.528,1.384,2.293,3.764,2.293,7.138v27.289h4.153
			c1.45,0,2.596,0.375,3.441,1.127c0.843,0.752,1.266,1.84,1.266,3.263c0,1.372-0.39,2.446-1.167,3.224
			c-0.778,0.778-1.957,1.166-3.539,1.166h-4.193v5.696c0,2.004-0.514,3.573-1.542,4.706c-1.027,1.133-2.478,1.7-4.35,1.7
			C334.506,264.197,333.089,263.65,332.048,262.556z M330.485,243.315v-26.3l-14.356,26.3H330.485z"/>
		<path style="fill:#263238;" d="M368.63,263.564c-2.544-1.054-4.642-2.484-6.289-4.29c-1.648-1.806-3.013-3.988-4.093-6.546
			c-1.082-2.557-1.847-5.253-2.294-8.088c-0.449-2.834-0.672-5.899-0.672-9.195c0-3.243,0.224-6.262,0.672-9.057
			c0.448-2.794,1.207-5.47,2.274-8.028c1.068-2.557,2.419-4.732,4.055-6.525c1.634-1.793,3.731-3.223,6.289-4.292
			c2.557-1.068,5.457-1.601,8.701-1.601c3.189,0,6.044,0.521,8.562,1.562c2.517,1.042,4.601,2.452,6.249,4.231
			c1.647,1.78,3.019,3.942,4.112,6.486c1.094,2.545,1.872,5.227,2.334,8.048c0.461,2.822,0.692,5.88,0.692,9.175
			c0,3.27-0.224,6.322-0.672,9.156c-0.449,2.834-1.213,5.531-2.293,8.088c-1.082,2.558-2.446,4.74-4.094,6.546
			c-1.648,1.806-3.737,3.242-6.268,4.311c-2.531,1.067-5.405,1.601-8.621,1.601C374.055,265.146,371.175,264.619,368.63,263.564z
			 M382.176,254.368c1.318-1.041,2.3-2.564,2.946-4.568c0.646-2.004,1.094-4.126,1.345-6.367c0.25-2.241,0.375-4.904,0.375-7.989
			c0-2.425-0.066-4.554-0.198-6.387c-0.131-1.832-0.402-3.665-0.81-5.498c-0.409-1.832-0.956-3.335-1.642-4.509
			c-0.686-1.172-1.608-2.122-2.768-2.847c-1.16-0.725-2.545-1.088-4.152-1.088c-1.345,0-2.531,0.237-3.56,0.712
			c-1.029,0.475-1.885,1.18-2.571,2.116c-0.686,0.936-1.26,1.991-1.72,3.164c-0.461,1.174-0.817,2.564-1.067,4.172
			c-0.251,1.609-0.422,3.204-0.515,4.786c-0.093,1.582-0.138,3.375-0.138,5.378c0,2.004,0.046,3.804,0.138,5.398
			c0.093,1.596,0.264,3.204,0.515,4.825c0.25,1.622,0.606,3.026,1.067,4.212c0.461,1.187,1.035,2.249,1.72,3.184
			c0.686,0.935,1.542,1.648,2.571,2.136c1.029,0.487,2.215,0.731,3.56,0.731C379.223,255.931,380.857,255.41,382.176,254.368z"/>
		<path style="fill:#263238;" d="M418.7,263.564c-2.544-1.054-4.642-2.484-6.289-4.29c-1.648-1.806-3.013-3.988-4.093-6.546
			c-1.082-2.557-1.847-5.253-2.294-8.088c-0.449-2.834-0.673-5.899-0.673-9.195c0-3.243,0.224-6.262,0.673-9.057
			c0.448-2.794,1.207-5.47,2.274-8.028c1.068-2.557,2.419-4.732,4.055-6.525c1.634-1.793,3.731-3.223,6.289-4.292
			c2.557-1.068,5.457-1.601,8.701-1.601c3.189,0,6.044,0.521,8.562,1.562c2.517,1.042,4.601,2.452,6.249,4.231
			c1.647,1.78,3.019,3.942,4.112,6.486c1.094,2.545,1.872,5.227,2.334,8.048c0.461,2.822,0.692,5.88,0.692,9.175
			c0,3.27-0.224,6.322-0.673,9.156c-0.449,2.834-1.213,5.531-2.293,8.088c-1.082,2.558-2.446,4.74-4.094,6.546
			c-1.648,1.806-3.737,3.242-6.268,4.311c-2.531,1.067-5.405,1.601-8.621,1.601C424.124,265.146,421.244,264.619,418.7,263.564z
			 M432.245,254.368c1.317-1.041,2.3-2.564,2.946-4.568c0.646-2.004,1.094-4.126,1.345-6.367c0.25-2.241,0.375-4.904,0.375-7.989
			c0-2.425-0.066-4.554-0.199-6.387c-0.131-1.832-0.402-3.665-0.81-5.498c-0.409-1.832-0.957-3.335-1.642-4.509
			c-0.686-1.172-1.608-2.122-2.768-2.847c-1.16-0.725-2.545-1.088-4.152-1.088c-1.345,0-2.531,0.237-3.56,0.712
			c-1.029,0.475-1.885,1.18-2.571,2.116c-0.686,0.936-1.26,1.991-1.721,3.164c-0.461,1.174-0.817,2.564-1.067,4.172
			c-0.251,1.609-0.422,3.204-0.515,4.786c-0.093,1.582-0.138,3.375-0.138,5.378c0,2.004,0.046,3.804,0.138,5.398
			c0.093,1.596,0.264,3.204,0.515,4.825c0.25,1.622,0.606,3.026,1.067,4.212c0.461,1.187,1.035,2.249,1.721,3.184
			c0.686,0.935,1.542,1.648,2.571,2.136c1.029,0.487,2.215,0.731,3.56,0.731C429.292,255.931,430.927,255.41,432.245,254.368z"/>
	</g>
	<g>
		<path style="fill:#263238;" d="M347.912,191.745c-0.23-0.22-0.345-0.469-0.345-0.746v-17.524c0-0.275,0.099-0.525,0.297-0.746
			c0.198-0.221,0.445-0.332,0.74-0.332h10.35c0.304,0,0.539,0.086,0.705,0.256c0.166,0.171,0.249,0.38,0.249,0.629
			c0,0.257-0.083,0.469-0.249,0.635c-0.166,0.166-0.401,0.249-0.705,0.249h-9.148v6.896h8.72c0.314,0,0.553,0.083,0.719,0.249
			c0.166,0.165,0.248,0.373,0.248,0.622c0,0.248-0.084,0.456-0.255,0.621c-0.171,0.166-0.408,0.249-0.712,0.249h-8.72v7.505h9.55
			c0.303,0,0.539,0.083,0.704,0.248c0.166,0.166,0.249,0.374,0.249,0.622c0,0.259-0.083,0.473-0.249,0.643
			c-0.165,0.171-0.401,0.256-0.704,0.256h-10.684C348.396,192.077,348.143,191.967,347.912,191.745z"/>
		<path style="fill:#263238;" d="M364.663,191.835c-0.194-0.161-0.291-0.389-0.291-0.684v-11.775c0-0.295,0.102-0.522,0.304-0.683
			c0.202-0.161,0.438-0.242,0.705-0.242c0.277,0,0.514,0.083,0.711,0.249c0.198,0.165,0.302,0.401,0.312,0.704v1.631
			c0.221-0.857,0.675-1.571,1.361-2.143c0.687-0.57,1.551-0.857,2.591-0.857c0.231,0,0.42,0.095,0.567,0.284
			c0.148,0.189,0.221,0.403,0.221,0.643c0,0.221-0.073,0.41-0.221,0.567c-0.147,0.156-0.359,0.235-0.635,0.235
			c-0.672,0-1.272,0.118-1.797,0.353c-0.525,0.234-0.932,0.541-1.222,0.919c-0.29,0.378-0.507,0.771-0.65,1.182
			c-0.143,0.41-0.214,0.818-0.214,1.224v7.711c0,0.286-0.104,0.511-0.312,0.677c-0.207,0.166-0.454,0.249-0.739,0.249
			C365.086,192.077,364.855,191.997,364.663,191.835z"/>
		<path style="fill:#263238;" d="M374.42,191.835c-0.194-0.161-0.291-0.389-0.291-0.684v-11.775c0-0.295,0.102-0.522,0.304-0.683
			c0.202-0.161,0.438-0.242,0.705-0.242c0.277,0,0.514,0.083,0.711,0.249c0.198,0.165,0.302,0.401,0.311,0.704v1.631
			c0.221-0.857,0.675-1.571,1.361-2.143c0.687-0.57,1.551-0.857,2.591-0.857c0.231,0,0.42,0.095,0.567,0.284
			c0.148,0.189,0.221,0.403,0.221,0.643c0,0.221-0.073,0.41-0.221,0.567c-0.147,0.156-0.358,0.235-0.635,0.235
			c-0.672,0-1.272,0.118-1.797,0.353c-0.525,0.234-0.932,0.541-1.222,0.919c-0.29,0.378-0.507,0.771-0.65,1.182
			c-0.143,0.41-0.214,0.818-0.214,1.224v7.711c0,0.286-0.103,0.511-0.311,0.677c-0.207,0.166-0.454,0.249-0.739,0.249
			C374.843,192.077,374.612,191.997,374.42,191.835z"/>
		<path style="fill:#263238;" d="M384.694,190.44c-1.257-1.286-1.887-3.02-1.887-5.203c0-2.184,0.629-3.922,1.887-5.217
			c1.259-1.294,2.886-1.942,4.886-1.942c2.008,0,3.642,0.65,4.899,1.948c1.257,1.299,1.886,3.037,1.886,5.211
			c0,2.184-0.63,3.917-1.894,5.203c-1.262,1.285-2.892,1.927-4.892,1.927C387.58,192.367,385.953,191.725,384.694,190.44z
			 M393.069,181.049c-0.842-1.05-2.005-1.575-3.489-1.575c-1.474,0-2.632,0.523-3.476,1.569c-0.843,1.045-1.264,2.443-1.264,4.194
			c0,1.723,0.419,3.11,1.257,4.16c0.839,1.05,1.99,1.575,3.455,1.575c1.511,0,2.685-0.521,3.524-1.562
			c0.839-1.041,1.258-2.433,1.258-4.173C394.335,183.496,393.912,182.099,393.069,181.049z"/>
		<path style="fill:#263238;" d="M399.863,191.835c-0.194-0.161-0.291-0.389-0.291-0.684v-11.775c0-0.295,0.102-0.522,0.305-0.683
			c0.202-0.161,0.438-0.242,0.705-0.242c0.277,0,0.514,0.083,0.711,0.249c0.199,0.165,0.302,0.401,0.312,0.704v1.631
			c0.221-0.857,0.675-1.571,1.361-2.143c0.687-0.57,1.551-0.857,2.591-0.857c0.231,0,0.42,0.095,0.567,0.284
			c0.148,0.189,0.221,0.403,0.221,0.643c0,0.221-0.073,0.41-0.221,0.567c-0.147,0.156-0.358,0.235-0.635,0.235
			c-0.673,0-1.272,0.118-1.797,0.353c-0.525,0.234-0.932,0.541-1.222,0.919c-0.29,0.378-0.506,0.771-0.65,1.182
			c-0.143,0.41-0.214,0.818-0.214,1.224v7.711c0,0.286-0.104,0.511-0.312,0.677c-0.207,0.166-0.453,0.249-0.739,0.249
			C400.286,192.077,400.055,191.997,399.863,191.835z"/>
	</g>
</g>
<g id="Clock">
	<g>
		
			<circle style="fill:none;stroke:#263238;stroke-width:1.232;stroke-linecap:round;stroke-linejoin:round;stroke-miterlimit:10;" cx="114.726" cy="163.35" r="31.907"/>
		
			<ellipse transform="matrix(0.9878 -0.1557 0.1557 0.9878 -24.0324 19.8531)" style="fill:none;stroke:#263238;stroke-width:1.232;stroke-linecap:round;stroke-linejoin:round;stroke-miterlimit:10;" cx="114.726" cy="163.35" rx="26.439" ry="26.439"/>
		
			<polyline style="fill:none;stroke:#263238;stroke-width:1.232;stroke-linecap:round;stroke-linejoin:round;stroke-miterlimit:10;" points="
			97.861,163.35 114.726,163.35 114.726,187.682 		"/>
	</g>
</g>
<g id="Character">
	<g>
		<g>
			<g>
				
					<path style="fill:#263238;stroke:#263238;stroke-width:1.232;stroke-linecap:round;stroke-linejoin:round;stroke-miterlimit:10;" d="
					M261.749,406.938c0-2.955,2.396-5.35,5.351-5.35c2.955,0,5.35,2.395,5.35,5.35c0,2.955-2.396,5.35-5.35,5.35
					C264.144,412.289,261.749,409.893,261.749,406.938z"/>
				
					<path style="fill:#FFFFFF;stroke:#263238;stroke-width:1.232;stroke-linecap:round;stroke-linejoin:round;stroke-miterlimit:10;" d="
					M264.424,406.938c0-1.478,1.198-2.675,2.675-2.675c1.477,0,2.675,1.198,2.675,2.675s-1.198,2.675-2.675,2.675
					C265.622,409.613,264.424,408.416,264.424,406.938z"/>
			</g>
			<g>
				
					<path style="fill:#263238;stroke:#263238;stroke-width:1.232;stroke-linecap:round;stroke-linejoin:round;stroke-miterlimit:10;" d="
					M204.443,406.938c0-2.955,2.395-5.35,5.35-5.35c2.955,0,5.351,2.395,5.351,5.35c0,2.955-2.396,5.35-5.351,5.35
					C206.838,412.289,204.443,409.893,204.443,406.938z"/>
				
					<path style="fill:#FFFFFF;stroke:#263238;stroke-width:1.232;stroke-linecap:round;stroke-linejoin:round;stroke-miterlimit:10;" d="
					M207.118,406.938c0-1.478,1.198-2.675,2.675-2.675c1.478,0,2.675,1.198,2.675,2.675s-1.198,2.675-2.675,2.675
					C208.316,409.613,207.118,408.416,207.118,406.938z"/>
			</g>
			<g>
				
					<path style="fill:#263238;stroke:#263238;stroke-width:1.232;stroke-linecap:round;stroke-linejoin:round;stroke-miterlimit:10;" d="
					M185.717,406.938c0-2.955,2.395-5.35,5.35-5.35c2.955,0,5.351,2.395,5.351,5.35c0,2.955-2.396,5.35-5.351,5.35
					C188.112,412.289,185.717,409.893,185.717,406.938z"/>
				
					<path style="fill:#FFFFFF;stroke:#263238;stroke-width:1.232;stroke-linecap:round;stroke-linejoin:round;stroke-miterlimit:10;" d="
					M188.392,406.938c0-1.478,1.198-2.675,2.675-2.675c1.478,0,2.675,1.198,2.675,2.675s-1.198,2.675-2.675,2.675
					C189.59,409.613,188.392,408.416,188.392,406.938z"/>
			</g>
			
				<path style="fill:#263238;stroke:#263238;stroke-width:1.232;stroke-linecap:round;stroke-linejoin:round;stroke-miterlimit:10;" d="
				M218.087,400.821h11.317v-57.896c0-0.02-0.016-0.036-0.036-0.036h-11.245c-0.02,0-0.036,0.016-0.036,0.036V400.821z"/>
			
				<rect x="215.074" y="359.908" transform="matrix(-1 -1.224647e-16 1.224647e-16 -1 447.4907 760.7286)" style="fill:#263238;stroke:#263238;stroke-width:1.232;stroke-linecap:round;stroke-linejoin:round;stroke-miterlimit:10;" width="17.344" height="40.913"/>
			
				<path style="fill:#263238;stroke:#263238;stroke-width:1.232;stroke-linecap:round;stroke-linejoin:round;stroke-miterlimit:10;" d="
				M235.335,333.188h14.478c0.02,0,0.036-0.016,0.036-0.036v-31.135h-14.55v31.135C235.299,333.172,235.315,333.188,235.335,333.188
				z"/>
			
				<path style="fill:#C6FF00;stroke:#263238;stroke-width:1.232;stroke-linecap:round;stroke-linejoin:round;stroke-miterlimit:10;" d="
				M213.924,302.032h56.651c5.582,0,10.067-4.598,9.929-10.178l-1.368-55.31c-0.133-5.388-4.54-9.687-9.93-9.687h-46.779
				c-4.903,0-9.072,3.577-9.817,8.423l-8.505,55.31C203.182,296.606,207.837,302.032,213.924,302.032z"/>
			
				<line style="fill:none;stroke:#263238;stroke-width:1.232;stroke-linecap:round;stroke-linejoin:round;stroke-miterlimit:10;" x1="232.435" y1="344.909" x2="257.291" y2="361.278"/>
			
				<path style="fill:#263238;stroke:#263238;stroke-width:1.232;stroke-linecap:round;stroke-linejoin:round;stroke-miterlimit:10;" d="
				M258.232,358.801l4.233,2.854c1.457,0.982,1.645,3.053,0.39,4.282l-0.294,0.287c-1.013,0.992-2.61,1.06-3.704,0.158l-3.89-3.208
				c-1.23-1.014-1.334-2.863-0.224-4.008l0,0C255.664,358.214,257.134,358.061,258.232,358.801z"/>
			
				<path style="fill:#C6FF00;stroke:#263238;stroke-width:1.232;stroke-linecap:round;stroke-linejoin:round;stroke-miterlimit:10;" d="
				M177.67,347.739h92.15c4.911,0,8.892-3.981,8.892-8.892l0,0c0-4.911-3.981-8.892-8.892-8.892h-92.15
				c-4.911,0-8.892,3.981-8.892,8.892l0,0C168.778,343.758,172.759,347.739,177.67,347.739z"/>
			
				<path style="fill:#C6FF00;stroke:#263238;stroke-width:1.232;stroke-linecap:round;stroke-linejoin:round;stroke-miterlimit:10;" d="
				M168.842,337.768c0.534-4.535,4.635-7.813,9.201-7.813h47.755c4.566,0,8.667,3.278,9.201,7.813
				c0.635,5.393-3.562,9.971-8.828,9.971h-48.5C172.404,347.739,168.207,343.161,168.842,337.768z"/>
			
				<path style="fill:#263238;stroke:#263238;stroke-width:1.232;stroke-linecap:round;stroke-linejoin:round;stroke-miterlimit:10;" d="
				M183.999,404.054h88.48l0,0c0-2.675-2.169-4.844-4.844-4.844h-78.791C186.168,399.21,183.999,401.379,183.999,404.054
				L183.999,404.054z"/>
			
				<path style="fill:#263238;stroke:#263238;stroke-width:1.232;stroke-linecap:round;stroke-linejoin:round;stroke-miterlimit:10;" d="
				M199.753,404.054h28.796v-4.844h-23.952C201.922,399.21,199.753,401.379,199.753,404.054L199.753,404.054z"/>
		</g>
		<g>
			
				<path style="fill:#263238;stroke:#263238;stroke-width:1.232;stroke-linecap:round;stroke-linejoin:round;stroke-miterlimit:10;" d="
				M193.568,292.776l-6.375,10.518c0,0-22.312,2.231-35.061,5.1c-12.75,2.869-15.3,16.893-15.937,19.762
				c-0.712,3.203-4.667,70.094-3.393,70.413c1.275,0.319,10.837,1.275,10.837,1.275s16.142-64.994,20.923-65.95
				c4.781-0.956,75.542,0.637,86.06-5.1c10.518-5.737,13.068-22.312,7.012-33.786C251.579,283.533,193.568,292.776,193.568,292.776z
				"/>
			
				<path style="fill:#263238;stroke:#263238;stroke-width:1.232;stroke-linecap:round;stroke-linejoin:round;stroke-miterlimit:10;" d="
				M236.917,305.526c0,0-29.643,0-43.986,1.275c-14.343,1.275-23.268,12.112-22.631,21.674c0.637,9.562,12.226,72.325,12.226,72.325
				l11.156-0.956l5.971-67.24c0,0,9.956,6.471,48.785-3.485"/>
			
				<path style="fill:#9C9C9C;stroke:#263238;stroke-width:1.232;stroke-linecap:round;stroke-linejoin:round;stroke-miterlimit:10;" d="
				M306.721,203.21c-0.956-0.637-4.144,7.65-4.144,7.65s-3.834-0.202-6.056,0c-3.506,0.319-6.375,5.1-6.375,8.287
				c0,3.188-14.662,28.687-14.662,28.687s-12.75-21.037-17.212-24.543c-4.462-3.506-21.037-6.694-21.037-6.694
				c-7.436-0.978-13.125-1.138-20.423,0c0,0-16.574,3.187-21.037,6.694c-4.462,3.506-17.212,24.543-17.212,24.543
				s-14.662-25.499-14.662-28.687c0-3.187-2.869-7.968-6.375-8.287c-2.222-0.202-6.056,0-6.056,0s-3.187-8.287-4.144-7.65
				c-0.956,0.638,0.638,10.837,1.594,13.068c0.956,2.231,8.925,3.825,8.925,3.825s9.881,37.611,13.068,42.711
				c3.187,5.1,6.694,11.475,15.3,7.65c8.606-3.825,19.443-16.256,19.443-16.256l18.193,0.28l-0.001,0.039l1.37-0.018l1.156,0.018
				l0.001-0.033l22.016-0.286c0,0,10.837,12.431,19.443,16.256c8.606,3.825,12.112-2.55,15.3-7.65
				c3.188-5.1,13.068-42.711,13.068-42.711s7.969-1.594,8.925-3.825C306.083,214.047,307.677,203.848,306.721,203.21z"/>
			<g>
				<defs>
					<path id="XMLID_2_" d="M280.641,238.661c-2.813,5.095-5.157,9.173-5.157,9.173s-12.75-21.037-17.212-24.543
						c-4.462-3.506-21.037-6.694-21.037-6.694c-7.436-0.978-13.125-1.138-20.423,0c0,0-16.574,3.187-21.037,6.694
						c-4.462,3.506-17.212,24.543-17.212,24.543s-2.539-4.417-5.503-9.801l-8.772,5.339c2.565,8.788,5.233,17.215,6.625,19.443
						c3.187,5.1,6.694,11.475,15.3,7.65c8.606-3.825,19.443-16.256,19.443-16.256l18.193,0.28l-0.001,0.039l1.37-0.018l1.156,0.018
						l0.001-0.033l22.016-0.286c0,0,10.837,12.431,19.443,16.256c8.606,3.825,12.112-2.55,15.3-7.65
						c1.396-2.233,4.074-10.698,6.645-19.51L280.641,238.661z"/>
				</defs>
				<use xlink:href="#XMLID_2_"  style="overflow:visible;fill:#FFFFFF;"/>
				<clipPath id="XMLID_00000078767902503853572020000002725551434331277456_">
					<use xlink:href="#XMLID_2_"  style="overflow:visible;"/>
				</clipPath>
				<g style="clip-path:url(#XMLID_00000078767902503853572020000002725551434331277456_);">
					<path style="fill:#C6FF00;" d="M272.968,253.732c-0.167-2.092-0.325-4.068,0.525-5.343c0.457-0.686,0.894-1.242,1.293-1.697
						c-0.325-0.528-0.75-1.216-1.259-2.033c-0.598,0.618-1.259,1.402-1.956,2.448c-1.294,1.942-1.096,4.416-0.905,6.809
						c0.168,2.092,0.325,4.068-0.524,5.342c-0.726,1.089-1.437,1.005-3.386,0.602c-1.547-0.319-3.471-0.718-5.667,0.015
						c-1.776,0.592-2.763,2.027-3.297,3.668c0.633,0.55,1.281,1.097,1.939,1.631c0.273-1.431,0.871-2.701,2.09-3.107
						c1.605-0.535,3.06-0.234,4.469,0.056c1.943,0.4,4.148,0.858,5.776-1.583C273.358,258.599,273.16,256.125,272.968,253.732z"/>
					<path style="fill:#C6FF00;" d="M248.391,254.208c0,0,0.272,0.312,0.762,0.85c0.863-0.384,1.571-0.749,1.944-1.048
						c0.248-0.198,1.248-0.107,2.13-0.029c1.745,0.158,4.135,0.375,7.113-0.477c3.865-1.104,4.01-5.301,4.137-9.005
						c0.071-2.065,0.145-4.2,0.848-5.49c0.907-1.663,2.449-1.756,3.625-1.522c-0.513-0.784-1.037-1.577-1.568-2.372
						c-1.526,0.152-3.055,0.898-4.086,2.788c-0.965,1.77-1.049,4.183-1.129,6.517c-0.134,3.871-0.366,6.265-2.464,6.864
						c-2.563,0.732-4.618,0.546-6.27,0.397c-1.507-0.136-2.809-0.255-3.785,0.528c-0.52,0.417-2.543,1.241-4.734,2.044
						L248.391,254.208z"/>
					<path style="fill:#C6FF00;" d="M193.573,259.876c-2.196-0.733-4.12-0.334-5.667-0.015c-1.949,0.403-2.66,0.487-3.386-0.602
						c-0.849-1.275-0.692-3.25-0.524-5.342c0.191-2.392,0.389-4.867-0.905-6.809c-0.844-1.266-1.644-2.177-2.33-2.832
						c-0.49,0.784-0.914,1.468-1.256,2.022c0.495,0.514,1.057,1.183,1.663,2.092c0.85,1.275,0.692,3.251,0.525,5.343
						c-0.192,2.393-0.39,4.866,0.905,6.808c1.628,2.441,3.833,1.983,5.776,1.583c1.409-0.291,2.865-0.592,4.469-0.056
						c1.096,0.365,1.683,1.434,1.99,2.685c0.644-0.534,1.277-1.077,1.894-1.621C196.164,261.666,195.199,260.418,193.573,259.876z"
						/>
					<path style="fill:#C6FF00;" d="M201.225,251.681c-1.652,0.149-3.707,0.335-6.27-0.397c-2.098-0.599-2.33-2.993-2.464-6.864
						c-0.08-2.334-0.164-4.747-1.129-6.517c-1.165-2.135-2.965-2.812-4.679-2.819c-0.582,0.872-1.158,1.743-1.718,2.601
						c1.173-0.394,3.252-0.723,4.368,1.324c0.703,1.289,0.777,3.425,0.848,5.49c0.127,3.704,0.272,7.901,4.137,9.005
						c2.978,0.852,5.368,0.635,7.113,0.477c0.882-0.078,1.882-0.169,2.13,0.029c0.308,0.247,0.845,0.54,1.509,0.851
						c0.373-0.413,0.583-0.653,0.583-0.653l4.139,0.064c-2.211-0.81-4.262-1.643-4.785-2.063
						C204.035,251.426,202.732,251.545,201.225,251.681z"/>
				</g>
				<g style="opacity:0.5;clip-path:url(#XMLID_00000078767902503853572020000002725551434331277456_);">
					<path style="fill:#FFFFFF;" d="M272.968,253.732c-0.167-2.092-0.325-4.068,0.525-5.343c0.457-0.686,0.894-1.242,1.293-1.697
						c-0.325-0.528-0.75-1.216-1.259-2.033c-0.598,0.618-1.259,1.402-1.956,2.448c-1.294,1.942-1.096,4.416-0.905,6.809
						c0.168,2.092,0.325,4.068-0.524,5.342c-0.726,1.089-1.437,1.005-3.386,0.602c-1.547-0.319-3.471-0.718-5.667,0.015
						c-1.776,0.592-2.763,2.027-3.297,3.668c0.633,0.55,1.281,1.097,1.939,1.631c0.273-1.431,0.871-2.701,2.09-3.107
						c1.605-0.535,3.06-0.234,4.469,0.056c1.943,0.4,4.148,0.858,5.776-1.583C273.358,258.599,273.16,256.125,272.968,253.732z"/>
					<path style="fill:#FFFFFF;" d="M248.391,254.208c0,0,0.272,0.312,0.762,0.85c0.863-0.384,1.571-0.749,1.944-1.048
						c0.248-0.198,1.248-0.107,2.13-0.029c1.745,0.158,4.135,0.375,7.113-0.477c3.865-1.104,4.01-5.301,4.137-9.005
						c0.071-2.065,0.145-4.2,0.848-5.49c0.907-1.663,2.449-1.756,3.625-1.522c-0.513-0.784-1.037-1.577-1.568-2.372
						c-1.526,0.152-3.055,0.898-4.086,2.788c-0.965,1.77-1.049,4.183-1.129,6.517c-0.134,3.871-0.366,6.265-2.464,6.864
						c-2.563,0.732-4.618,0.546-6.27,0.397c-1.507-0.136-2.809-0.255-3.785,0.528c-0.52,0.417-2.543,1.241-4.734,2.044
						L248.391,254.208z"/>
					<path style="fill:#FFFFFF;" d="M193.573,259.876c-2.196-0.733-4.12-0.334-5.667-0.015c-1.949,0.403-2.66,0.487-3.386-0.602
						c-0.849-1.275-0.692-3.25-0.524-5.342c0.191-2.392,0.389-4.867-0.905-6.809c-0.844-1.266-1.644-2.177-2.33-2.832
						c-0.49,0.784-0.914,1.468-1.256,2.022c0.495,0.514,1.057,1.183,1.663,2.092c0.85,1.275,0.692,3.251,0.525,5.343
						c-0.192,2.393-0.39,4.866,0.905,6.808c1.628,2.441,3.833,1.983,5.776,1.583c1.409-0.291,2.865-0.592,4.469-0.056
						c1.096,0.365,1.683,1.434,1.99,2.685c0.644-0.534,1.277-1.077,1.894-1.621C196.164,261.666,195.199,260.418,193.573,259.876z"
						/>
					<path style="fill:#FFFFFF;" d="M201.225,251.681c-1.652,0.149-3.707,0.335-6.27-0.397c-2.098-0.599-2.33-2.993-2.464-6.864
						c-0.08-2.334-0.164-4.747-1.129-6.517c-1.165-2.135-2.965-2.812-4.679-2.819c-0.582,0.872-1.158,1.743-1.718,2.601
						c1.173-0.394,3.252-0.723,4.368,1.324c0.703,1.289,0.777,3.425,0.848,5.49c0.127,3.704,0.272,7.901,4.137,9.005
						c2.978,0.852,5.368,0.635,7.113,0.477c0.882-0.078,1.882-0.169,2.13,0.029c0.308,0.247,0.845,0.54,1.509,0.851
						c0.373-0.413,0.583-0.653,0.583-0.653l4.139,0.064c-2.211-0.81-4.262-1.643-4.785-2.063
						C204.035,251.426,202.732,251.545,201.225,251.681z"/>
				</g>
				
					<use xlink:href="#XMLID_2_"  style="overflow:visible;fill:none;stroke:#263238;stroke-width:1.232;stroke-linecap:round;stroke-linejoin:round;stroke-miterlimit:10;"/>
			</g>
			<g>
				<defs>
					<path id="XMLID_1_" d="M199.624,238.909c0,0-4.144,8.925-3.187,14.662c0.956,5.737,0.956,7.012,0.956,7.012
						s-6.056,16.575-7.012,22.631c-0.956,6.056,1.912,10.837,5.418,13.387c3.506,2.55,51.317,3.187,58.648,1.275
						c7.331-1.912,6.694-8.925,6.375-15.3c-0.319-6.375-2.869-20.081-2.869-20.081s0.956-19.443-3.187-24.224"/>
				</defs>
				<use xlink:href="#XMLID_1_"  style="overflow:visible;fill:#FFFFFF;"/>
				<clipPath id="XMLID_00000122700595635131981650000014822227548296909974_">
					<use xlink:href="#XMLID_1_"  style="overflow:visible;"/>
				</clipPath>
				<path style="clip-path:url(#XMLID_00000122700595635131981650000014822227548296909974_);fill:#C6FF00;" d="M236.206,251.715
					c-1.393,0.001-2.861-0.571-4.467-2.043c-4.348-3.986-7.246-4.664-10.333-2.419c-0.5,0.364-0.977,0.728-1.438,1.079
					c-3.191,2.434-6.205,4.736-10.926,1.829c-1.082-0.665-2.059-1.374-2.922-2c-3.174-2.301-4.552-3.162-6.82-1.306
					c-1.693,1.385-3.04,2.208-4.499,2.029c-1.914-0.232-3.251-2.015-5.914-5.568l-0.176-0.235c-1.063-1.416-2.24-2.18-3.5-2.27
					c-2.16-0.158-4.033,1.66-4.051,1.678c-0.451,0.451-1.182,0.451-1.633,0c-0.451-0.451-0.451-1.182,0-1.633
					c0.105-0.105,2.617-2.574,5.848-2.35c1.958,0.139,3.703,1.212,5.185,3.188l0.177,0.236c2.053,2.738,3.409,4.547,4.344,4.661
					c0.534,0.06,1.371-0.389,2.758-1.523c3.735-3.056,6.604-0.978,9.639,1.224c0.87,0.631,1.769,1.283,2.776,1.903
					c3.371,2.074,5.232,0.654,8.314-1.698c0.475-0.362,0.966-0.737,1.481-1.111c5.128-3.729,9.576-0.786,13.253,2.584
					c2.755,2.525,4.486,1.415,8.143-1.339c0.697-0.525,1.43-1.077,2.212-1.618l0.367-0.254c4.708-3.267,5.23-2.979,11.601,0.53
					l1.707,0.941c2.21,1.223,3.57,1.965,4.205,1.928c0.48-0.023,1.083-0.684,2.291-2.058c0.499-0.567,1.084-1.232,1.799-1.998
					c5.164-5.532,6.856-5.164,10.999-3.273l0.331,0.151c0.581,0.264,0.837,0.949,0.573,1.529c-0.263,0.579-0.945,0.839-1.53,0.574
					l-0.333-0.151c-3.439-1.571-4.06-1.852-8.351,2.747c-0.697,0.747-1.268,1.395-1.754,1.947c-3.32,3.774-4.018,3.576-9.349,0.625
					l-1.703-0.939c-5.637-3.105-5.637-3.106-9.17-0.656l-0.368,0.255c-0.756,0.523-1.464,1.056-2.138,1.564
					C240.644,250.124,238.53,251.715,236.206,251.715z M242.832,259.555c0.674-0.508,1.382-1.041,2.138-1.565l0.368-0.256
					c3.532-2.452,3.533-2.449,9.169,0.656l1.703,0.939c5.332,2.952,6.03,3.149,9.35-0.624c0.485-0.552,1.056-1.201,1.754-1.949
					c4.295-4.602,4.914-4.315,8.351-2.747l0.333,0.152c0.587,0.266,1.267,0.007,1.53-0.574c0.264-0.58,0.008-1.265-0.573-1.529
					l-0.331-0.151c-4.139-1.887-5.833-2.261-10.999,3.274c-0.715,0.766-1.301,1.432-1.799,1.998
					c-1.208,1.374-1.811,2.035-2.291,2.058c-0.635,0.038-1.995-0.706-4.206-1.929l-1.706-0.941
					c-6.372-3.511-6.893-3.798-11.601-0.53l-0.367,0.254c-0.782,0.542-1.515,1.093-2.213,1.618
					c-3.656,2.753-5.388,3.864-8.143,1.339c-3.677-3.371-8.127-6.316-13.253-2.584c-0.515,0.375-1.006,0.749-1.481,1.111
					c-3.082,2.353-4.943,3.772-8.314,1.698c-1.007-0.62-1.906-1.272-2.775-1.902c-3.036-2.201-5.903-4.28-9.64-1.224
					c-1.385,1.134-2.2,1.597-2.758,1.523c-0.935-0.113-2.291-1.922-4.344-4.661l-0.177-0.236c-1.482-1.976-3.226-3.048-5.185-3.188
					c-3.231-0.223-5.743,2.244-5.848,2.35c-0.451,0.451-0.451,1.182,0,1.633c0.451,0.451,1.182,0.451,1.633,0
					c0.018-0.018,1.891-1.838,4.051-1.679c1.26,0.09,2.438,0.853,3.5,2.27l0.176,0.235c2.663,3.553,4.001,5.336,5.914,5.568
					c1.459,0.179,2.807-0.644,4.499-2.028c2.267-1.857,3.647-0.996,6.82,1.306c0.862,0.625,1.84,1.335,2.922,2
					c4.721,2.906,7.735,0.605,10.926-1.829c0.461-0.351,0.938-0.716,1.438-1.079c3.087-2.246,5.985-1.567,10.333,2.42
					c1.606,1.472,3.075,2.043,4.467,2.043C238.53,262.794,240.643,261.203,242.832,259.555z"/>
				<path style="opacity:0.5;clip-path:url(#XMLID_00000122700595635131981650000014822227548296909974_);fill:#FFFFFF;" d="
					M236.206,251.715c-1.393,0.001-2.861-0.571-4.467-2.043c-4.348-3.986-7.246-4.664-10.333-2.419
					c-0.5,0.364-0.977,0.728-1.438,1.079c-3.191,2.434-6.205,4.736-10.926,1.829c-1.082-0.665-2.059-1.374-2.922-2
					c-3.174-2.301-4.552-3.162-6.82-1.306c-1.693,1.385-3.04,2.208-4.499,2.029c-1.914-0.232-3.251-2.015-5.914-5.568l-0.176-0.235
					c-1.063-1.416-2.24-2.18-3.5-2.27c-2.16-0.158-4.033,1.66-4.051,1.678c-0.451,0.451-1.182,0.451-1.633,0
					c-0.451-0.451-0.451-1.182,0-1.633c0.105-0.105,2.617-2.574,5.848-2.35c1.958,0.139,3.703,1.212,5.185,3.188l0.177,0.236
					c2.053,2.738,3.409,4.547,4.344,4.661c0.534,0.06,1.371-0.389,2.758-1.523c3.735-3.056,6.604-0.978,9.639,1.224
					c0.87,0.631,1.769,1.283,2.776,1.903c3.371,2.074,5.232,0.654,8.314-1.698c0.475-0.362,0.966-0.737,1.481-1.111
					c5.128-3.729,9.576-0.786,13.253,2.584c2.755,2.525,4.486,1.415,8.143-1.339c0.697-0.525,1.43-1.077,2.212-1.618l0.367-0.254
					c4.708-3.267,5.23-2.979,11.601,0.53l1.707,0.941c2.21,1.223,3.57,1.965,4.205,1.928c0.48-0.023,1.083-0.684,2.291-2.058
					c0.499-0.567,1.084-1.232,1.799-1.998c5.164-5.532,6.856-5.164,10.999-3.273l0.331,0.151c0.581,0.264,0.837,0.949,0.573,1.529
					c-0.263,0.579-0.945,0.839-1.53,0.574l-0.333-0.151c-3.439-1.571-4.06-1.852-8.351,2.747c-0.697,0.747-1.268,1.395-1.754,1.947
					c-3.32,3.774-4.018,3.576-9.349,0.625l-1.703-0.939c-5.637-3.105-5.637-3.106-9.17-0.656l-0.368,0.255
					c-0.756,0.523-1.464,1.056-2.138,1.564C240.644,250.124,238.53,251.715,236.206,251.715z M242.832,259.555
					c0.674-0.508,1.382-1.041,2.138-1.565l0.368-0.256c3.532-2.452,3.533-2.449,9.169,0.656l1.703,0.939
					c5.332,2.952,6.03,3.149,9.35-0.624c0.485-0.552,1.056-1.201,1.754-1.949c4.295-4.602,4.914-4.315,8.351-2.747l0.333,0.152
					c0.587,0.266,1.267,0.007,1.53-0.574c0.264-0.58,0.008-1.265-0.573-1.529l-0.331-0.151c-4.139-1.887-5.833-2.261-10.999,3.274
					c-0.715,0.766-1.301,1.432-1.799,1.998c-1.208,1.374-1.811,2.035-2.291,2.058c-0.635,0.038-1.995-0.706-4.206-1.929
					l-1.706-0.941c-6.372-3.511-6.893-3.798-11.601-0.53l-0.367,0.254c-0.782,0.542-1.515,1.093-2.213,1.618
					c-3.656,2.753-5.388,3.864-8.143,1.339c-3.677-3.371-8.127-6.316-13.253-2.584c-0.515,0.375-1.006,0.749-1.481,1.111
					c-3.082,2.353-4.943,3.772-8.314,1.698c-1.007-0.62-1.906-1.272-2.775-1.902c-3.036-2.201-5.903-4.28-9.64-1.224
					c-1.385,1.134-2.2,1.597-2.758,1.523c-0.935-0.113-2.291-1.922-4.344-4.661l-0.177-0.236c-1.482-1.976-3.226-3.048-5.185-3.188
					c-3.231-0.223-5.743,2.244-5.848,2.35c-0.451,0.451-0.451,1.182,0,1.633c0.451,0.451,1.182,0.451,1.633,0
					c0.018-0.018,1.891-1.838,4.051-1.679c1.26,0.09,2.438,0.853,3.5,2.27l0.176,0.235c2.663,3.553,4.001,5.336,5.914,5.568
					c1.459,0.179,2.807-0.644,4.499-2.028c2.267-1.857,3.647-0.996,6.82,1.306c0.862,0.625,1.84,1.335,2.922,2
					c4.721,2.906,7.735,0.605,10.926-1.829c0.461-0.351,0.938-0.716,1.438-1.079c3.087-2.246,5.985-1.567,10.333,2.42
					c1.606,1.472,3.075,2.043,4.467,2.043C238.53,262.794,240.643,261.203,242.832,259.555z"/>
				
					<use xlink:href="#XMLID_1_"  style="overflow:visible;fill:none;stroke:#263238;stroke-width:1.232;stroke-linecap:round;stroke-linejoin:round;stroke-miterlimit:10;"/>
			</g>
			
				<path style="fill:#C6FF00;stroke:#263238;stroke-width:1.232;stroke-linecap:round;stroke-linejoin:round;stroke-miterlimit:10;" d="
				M216.812,216.597c0,0-0.509,0.098-1.36,0.276c-0.127,0.586-0.21,1.183-0.21,1.796c0,6.073,6.493,10.997,14.503,10.997
				c8.01,0,14.503-4.923,14.503-10.997c0-0.174-0.024-0.344-0.034-0.515c-3.878-0.96-6.978-1.556-6.978-1.556
				C229.8,215.619,224.111,215.459,216.812,216.597z"/>
			
				<path style="fill:#9C9C9C;stroke:#263238;stroke-width:1.232;stroke-linecap:round;stroke-linejoin:round;stroke-miterlimit:10;" d="
				M220.023,210.541c0,0-0.956,7.65,0,10.2c0.956,2.55,7.012,7.331,13.068,5.419c6.056-1.913,7.012-7.65,7.012-9.243
				s0-8.925,0-8.925l-19.762,0.637L220.023,210.541z"/>
			
				<ellipse style="fill:#263238;stroke:#263238;stroke-width:1.232;stroke-linecap:round;stroke-linejoin:round;stroke-miterlimit:10;" cx="230.223" cy="185.201" rx="22.631" ry="22.152"/>
			<g>
				
					<path style="fill:#9C9C9C;stroke:#263238;stroke-width:1.232;stroke-linecap:round;stroke-linejoin:round;stroke-miterlimit:10;" d="
					M215.88,192.691c0,0-1.913-4.462-3.188-0.319c-1.275,4.144,1.594,9.243,3.506,9.562
					C218.111,202.254,215.88,192.691,215.88,192.691z"/>
				
					<path style="fill:#9C9C9C;stroke:#263238;stroke-width:1.232;stroke-linecap:round;stroke-linejoin:round;stroke-miterlimit:10;" d="
					M243.431,192.691c0,0,1.912-4.462,3.187-0.319c1.275,4.144-1.594,9.243-3.506,9.562
					C241.2,202.254,243.431,192.691,243.431,192.691z"/>
				
					<path style="fill:#9C9C9C;stroke:#263238;stroke-width:1.232;stroke-linecap:round;stroke-linejoin:round;stroke-miterlimit:10;" d="
					M239.638,177.803c-1.711-1.332-3.928-1.832-6.066-1.473c-1.816,0.305-4.181,0.596-5.898,0.424
					c-3.188-0.319-5.737-1.594-8.287,0.956c-2.55,2.55-3.825,14.343-3.825,20.399c0,6.056,4.462,14.662,7.65,16.893
					c3.188,2.231,12.112,1.913,14.343,0c2.231-1.912,5.737-8.925,6.375-14.662c0.637-5.737-0.637-16.893-1.912-19.762
					C241.538,179.502,240.61,178.56,239.638,177.803z"/>
				<g>
					<ellipse style="fill:#263238;" cx="225.459" cy="191.69" rx="1.189" ry="1.946"/>
					<path style="fill:#263238;" d="M236.053,191.69c0,1.075-0.532,1.946-1.189,1.946c-0.657,0-1.189-0.871-1.189-1.946
						c0-1.075,0.533-1.946,1.189-1.946C235.521,189.745,236.053,190.616,236.053,191.69z"/>
					<path style="fill:#263238;" d="M231.621,202.717c0,1.075-0.533,1.946-1.189,1.946c-0.657,0-1.189-0.871-1.189-1.946
						c0-1.075,0.532-1.946,1.189-1.946C231.088,200.771,231.621,201.642,231.621,202.717z"/>
					
						<path style="fill:#9C9C9C;stroke:#263238;stroke-width:1.232;stroke-linecap:round;stroke-linejoin:round;stroke-miterlimit:10;" d="
						M228.053,194.069c-1.976,3.127,1.795,5.14,4.324,3.243c1.73-1.297,0-3.243,0-3.243"/>
					
						<path style="fill:none;stroke:#263238;stroke-width:1.232;stroke-linecap:round;stroke-linejoin:round;stroke-miterlimit:10;" d="
						M221.351,187.366c0,0,3.243-3.027,6.486-1.513"/>
					
						<path style="fill:none;stroke:#263238;stroke-width:1.232;stroke-linecap:round;stroke-linejoin:round;stroke-miterlimit:10;" d="
						M233.242,186.069c0,0,3.027-1.946,5.838,1.73"/>
				</g>
			</g>
			<g>
				
					<path style="fill:#FFFFFF;stroke:#263238;stroke-width:1.232;stroke-linecap:round;stroke-linejoin:round;stroke-miterlimit:10;" d="
					M132.802,398.569c0,0-19.15,3.753-19.15,5.705c0,1.952,24.398,7.482,27.001,7.807c2.602,0.325,2.986-12.237,2.986-12.237
					L132.802,398.569z"/>
				
					<path style="fill:#C6FF00;stroke:#263238;stroke-width:1.232;stroke-linecap:round;stroke-linejoin:round;stroke-miterlimit:10;" d="
					M142.25,410.207l-27.319-6.969c-0.801,0.375-1.279,0.728-1.279,1.035c0,1.952,24.398,7.482,27.001,7.807
					C141.322,412.165,141.843,411.394,142.25,410.207z"/>
			</g>
			<g>
				
					<path style="fill:#FFFFFF;stroke:#263238;stroke-width:1.232;stroke-linecap:round;stroke-linejoin:round;stroke-miterlimit:10;" d="
					M182.526,400.8c0,0-19.426,8.353-18.125,10.305c1.301,1.952,26.676,0.976,29.278,0.651c2.603-0.325,0.003-11.912,0.003-11.912
					L182.526,400.8z"/>
				
					<path style="fill:#C6FF00;stroke:#263238;stroke-width:1.232;stroke-linecap:round;stroke-linejoin:round;stroke-miterlimit:10;" d="
					M165.045,409.881c-0.571,0.514-0.834,0.939-0.644,1.224c1.301,1.952,26.675,0.976,29.278,0.651
					c0.626-0.078,0.949-0.812,1.082-1.875H165.045z"/>
			</g>
		</g>
	</g>
</g>
<g id="Device">
	<g style="display:none;">
		<g style="display:inline;">
			<g>
				<path style="fill:none;stroke:#263238;stroke-linecap:round;stroke-linejoin:round;stroke-miterlimit:10;" d="M100.148,342.69
					l69.017-58.207c2.563-2.162,6.001-2.362,8.741-0.509l86.963,58.792l43.655-29.756c2.264-1.543,5.061-1.637,7.4-0.247
					l50.315,29.898"/>
				<path style="fill:none;stroke:#263238;stroke-linecap:round;stroke-linejoin:round;stroke-miterlimit:10;" d="M346.223,330.648
					l16.994-6.818c1.972-0.791,4.141-0.62,6,0.474l31.489,18.526"/>
				<path style="fill:none;stroke:#263238;stroke-linecap:round;stroke-linejoin:round;stroke-miterlimit:10;" d="M132.948,314.833
					l-7.578-4.971c-2.609-1.609-5.784-1.393-8.209,0.559L77.058,342.69"/>
			</g>
			
				<line style="fill:none;stroke:#263238;stroke-linecap:round;stroke-linejoin:round;stroke-miterlimit:10;" x1="71.071" y1="342.766" x2="416.138" y2="342.766"/>
		</g>
		<g style="display:inline;">
			
				<line style="fill:none;stroke:#263238;stroke-linecap:round;stroke-linejoin:round;stroke-miterlimit:10;" x1="291.242" y1="329.852" x2="292.734" y2="328.852"/>
			
				<line style="fill:none;stroke:#263238;stroke-linecap:round;stroke-linejoin:round;stroke-miterlimit:10;" x1="271.881" y1="342.828" x2="289.271" y2="331.173"/>
		</g>
		<g style="display:inline;">
			
				<line style="fill:none;stroke:#263238;stroke-linecap:round;stroke-linejoin:round;stroke-miterlimit:10;" x1="148.097" y1="309.489" x2="151.101" y2="306.92"/>
			
				<line style="fill:none;stroke:#263238;stroke-linecap:round;stroke-linejoin:round;stroke-miterlimit:10;" x1="109.108" y1="342.828" x2="144.126" y2="312.884"/>
		</g>
	</g>
	<g>
		
			<rect x="103.074" y="269.751" transform="matrix(-1 -1.224647e-16 1.224647e-16 -1 279.4776 542.461)" style="fill:#FFFFFF;stroke:#263238;stroke-width:1.232;stroke-linecap:round;stroke-linejoin:round;stroke-miterlimit:10;" width="73.329" height="2.959"/>
		
			<rect x="82.399" y="269.751" transform="matrix(-1 -1.224647e-16 1.224647e-16 -1 238.1264 542.461)" style="fill:#FFFFFF;stroke:#263238;stroke-width:1.232;stroke-linecap:round;stroke-linejoin:round;stroke-miterlimit:10;" width="73.329" height="2.959"/>
		
			<polygon style="fill:#FFFFFF;stroke:#263238;stroke-width:1.232;stroke-linecap:round;stroke-linejoin:round;stroke-miterlimit:10;" points="
			90.573,264.491 151.721,264.491 145.128,217.809 83.981,217.809 		"/>
		
			<polygon style="fill:#263238;stroke:#263238;stroke-width:1.232;stroke-linecap:round;stroke-linejoin:round;stroke-miterlimit:10;" points="
			88.044,264.491 149.191,264.491 142.598,217.809 81.451,217.809 		"/>
		
			<path style="fill:#FFFFFF;stroke:#263238;stroke-width:1.232;stroke-linecap:round;stroke-linejoin:round;stroke-miterlimit:10;" d="
			M106.778,242.794l-6.134,29.916h15.78l6.134-29.916H106.778z M117.485,251.671c-0.06,0.252-0.287,0.429-0.546,0.426L108,252.011
			c-0.357-0.003-0.619-0.338-0.535-0.686l0.806-3.358c0.061-0.252,0.287-0.429,0.546-0.426l8.938,0.086
			c0.358,0.003,0.619,0.339,0.536,0.686L117.485,251.671z"/>
	</g>
	<g>
		
			<ellipse transform="matrix(0.2298 -0.9732 0.9732 0.2298 -144.9064 245.8129)" style="fill:#C6FF00;stroke:#263238;stroke-width:1.232;stroke-linecap:round;stroke-linejoin:round;stroke-miterlimit:10;" cx="82.846" cy="214.455" rx="11.261" ry="11.261"/>
		<g>
			<path style="fill:#263238;" d="M82.687,216.738l-3.313,3.778c-0.158,0.2-0.334,0.364-0.529,0.493
				c-0.518,0.361-1.057,0.447-1.619,0.261c-0.453-0.155-0.759-0.441-0.917-0.86c-0.245-0.612-0.076-1.259,0.507-1.942l3.852-4.077
				l-3.658-4.261c-0.302-0.399-0.457-0.798-0.464-1.198c-0.007-0.399,0.108-0.723,0.345-0.971c0.237-0.248,0.521-0.431,0.852-0.55
				c0.331-0.119,0.701-0.108,1.111,0.034c0.41,0.142,0.77,0.412,1.079,0.812l3.183,3.729l2.957-3.497
				c0.173-0.232,0.359-0.425,0.561-0.58c0.554-0.444,1.126-0.551,1.716-0.319c0.432,0.168,0.734,0.461,0.906,0.879
				c0.216,0.516,0.14,0.989-0.227,1.42l-3.96,4.377l4.003,4.686c0.136,0.168,0.241,0.342,0.313,0.522
				c0.194,0.522,0.111,1.008-0.248,1.459c-0.331,0.406-0.759,0.621-1.284,0.647c-0.698,0.039-1.313-0.286-1.845-0.976
				L82.687,216.738z"/>
		</g>
	</g>
</g>
<g id="Table">
	<g>
		<g>
			
				<path style="fill:#FFFFFF;stroke:#263238;stroke-width:1.232;stroke-linecap:round;stroke-linejoin:round;stroke-miterlimit:10;" d="
				M227.015,289.73l-3.171,119.71c-0.042,1.585-1.339,2.849-2.925,2.849l0,0c-1.601,0-2.905-1.287-2.926-2.888l-1.564-119.671
				H227.015z"/>
			
				<path style="fill:#FFFFFF;stroke:#263238;stroke-width:1.232;stroke-linecap:round;stroke-linejoin:round;stroke-miterlimit:10;" d="
				M188.34,289.73l-3.171,119.71c-0.042,1.585-1.339,2.849-2.925,2.849l0,0c-1.601,0-2.905-1.287-2.926-2.888l-1.564-119.671H188.34
				z"/>
			
				<path style="fill:#FFFFFF;stroke:#263238;stroke-width:1.232;stroke-linecap:round;stroke-linejoin:round;stroke-miterlimit:10;" d="
				M92.72,289.73l-3.171,119.71c-0.042,1.585-1.339,2.849-2.925,2.849l0,0c-1.601,0-2.905-1.287-2.926-2.888L82.134,289.73H92.72z"
				/>
			
				<path style="fill:#FFFFFF;stroke:#263238;stroke-width:1.232;stroke-linecap:round;stroke-linejoin:round;stroke-miterlimit:10;" d="
				M54.045,289.73l-3.171,119.71c-0.042,1.585-1.339,2.849-2.925,2.849l0,0c-1.601,0-2.905-1.287-2.926-2.888L43.458,289.73H54.045z
				"/>
			
				<rect x="39.927" y="276.655" transform="matrix(-1 -1.224647e-16 1.224647e-16 -1 270.7052 567.6352)" style="fill:#FFFFFF;stroke:#263238;stroke-width:1.232;stroke-linecap:round;stroke-linejoin:round;stroke-miterlimit:10;" width="190.852" height="14.325"/>
			
				<rect x="177.469" y="276.655" transform="matrix(-1 -1.224647e-16 1.224647e-16 -1 408.2474 567.6352)" style="fill:#FFFFFF;stroke:#263238;stroke-width:1.232;stroke-linecap:round;stroke-linejoin:round;stroke-miterlimit:10;" width="53.31" height="14.325"/>
			
				<rect x="39.927" y="276.655" transform="matrix(-1 -1.224647e-16 1.224647e-16 -1 270.7052 560.4725)" style="fill:#263238;stroke:#263238;stroke-width:1.232;stroke-linecap:round;stroke-linejoin:round;stroke-miterlimit:10;" width="190.852" height="7.163"/>
			
				<rect x="36.968" y="271.724" transform="matrix(-1 -1.224647e-16 1.224647e-16 -1 270.7052 551.3372)" style="fill:#C6FF00;stroke:#263238;stroke-width:1.232;stroke-linecap:round;stroke-linejoin:round;stroke-miterlimit:10;" width="196.769" height="7.89"/>
			
				<rect x="36.968" y="271.724" transform="matrix(-1 -1.224647e-16 1.224647e-16 -1 210.8957 551.3372)" style="fill:#C6FF00;stroke:#263238;stroke-width:1.232;stroke-linecap:round;stroke-linejoin:round;stroke-miterlimit:10;" width="136.96" height="7.89"/>
		</g>
	</g>
</g>
<g id="Floor">
	<g>
		
			<line style="fill:none;stroke:#263238;stroke-width:1.232;stroke-linecap:round;stroke-linejoin:round;stroke-miterlimit:10;" x1="466.766" y1="412.289" x2="475" y2="412.289"/>
		
			<line style="fill:none;stroke:#263238;stroke-width:1.232;stroke-linecap:round;stroke-linejoin:round;stroke-miterlimit:10;" x1="19" y1="412.289" x2="453.385" y2="412.289"/>
	</g>
</g>
</svg>
