<?xml version="1.0" encoding="utf-8"?>
<!-- Generator: Adobe Illustrator 27.5.0, SVG Export Plug-In . SVG Version: 6.00 Build 0)  -->
<svg version="1.1" xmlns="http://www.w3.org/2000/svg" xmlns:xlink="http://www.w3.org/1999/xlink" x="0px" y="0px"
	 viewBox="0 0 500 500" style="enable-background:new 0 0 500 500;" xml:space="preserve">
<g id="Background_Simple">
	<g>
		<path style="fill:#C6FF00;" d="M58.88,272.425c0,0-0.477,70.806,56.643,119.441c57.12,48.635,138.684,54.063,204.646,60.202
			c65.962,6.139,118.221-30.09,128.085-86.592c9.864-56.502-40.024-74.413-64.93-139.636s-21.64-86.376-78.11-127.524
			c-56.47-41.148-148.176-19.054-198.408,47.751C56.575,212.871,58.88,272.425,58.88,272.425z"/>
		<path style="opacity:0.7;fill:#FFFFFF;" d="M58.88,272.425c0,0-0.477,70.806,56.643,119.441
			c57.12,48.635,138.684,54.063,204.646,60.202c65.962,6.139,118.221-30.09,128.085-86.592
			c9.864-56.502-40.024-74.413-64.93-139.636s-21.64-86.376-78.11-127.524c-56.47-41.148-148.176-19.054-198.408,47.751
			C56.575,212.871,58.88,272.425,58.88,272.425z"/>
	</g>
</g>
<g id="Planet_3">
	<g>
		<path id="XMLID_19_" style="fill:#263238;" d="M396.652,263.731c-7.538-3.868-10.512-13.114-6.644-20.652
			c3.868-7.538,13.114-10.512,20.652-6.644c7.538,3.868,10.512,13.114,6.645,20.652
			C413.436,264.624,404.189,267.599,396.652,263.731z"/>
		<g>
			<path style="fill:#C6FF00;" d="M411.383,241.853l7.442,10.439c0.299-2.051,0.17-4.114-0.343-6.077L411.383,241.853z"/>
			<path style="fill:#C6FF00;" d="M395.778,236.937l17.68,24.947c1.432-1.188,2.658-2.666,3.608-4.387L402.24,234.82
				C399.955,235.035,397.747,235.759,395.778,236.937z"/>
			<path style="fill:#C6FF00;" d="M403.093,265.399l-7.682-10.996l4.002,10.418C400.628,265.172,401.862,265.355,403.093,265.399z"
				/>
			<path style="fill:#C6FF00;" d="M409.329,264.32l-17.56-23.931c-0.172,0.212-0.329,0.439-0.491,0.661l12.672,24.371
				C405.802,265.384,407.622,264.999,409.329,264.32z"/>
		</g>
	</g>
</g>
<g id="PLanet_2">
	<g>
		<g>
			<defs>
				<path id="XMLID_1_" d="M261.764,432.311c-12.424,5.684-27.104,0.221-32.788-12.203c-5.684-12.424-0.221-27.104,12.203-32.788
					c12.424-5.684,27.104-0.221,32.788,12.203C279.652,411.947,274.188,426.627,261.764,432.311z"/>
			</defs>
			<use xlink:href="#XMLID_1_"  style="overflow:visible;fill:#263238;"/>
			<clipPath id="XMLID_00000029767452413225576660000002788972673193849491_">
				<use xlink:href="#XMLID_1_"  style="overflow:visible;"/>
			</clipPath>
			<g style="clip-path:url(#XMLID_00000029767452413225576660000002788972673193849491_);">
				<path style="fill:#C6FF00;" d="M273.779,420.505l-16.88-26.48l19.171,18.421c0.055-0.513,0.092-1.029,0.115-1.546l-22.716-25.74
					c-1.923-0.157-3.875-0.089-5.82,0.217l4.563,7.251l-7.54-6.598c-0.008,0.002-0.017,0.005-0.025,0.008l5.976,10.86l-12.128-8.135
					c-0.303,0.186-0.602,0.377-0.895,0.575l22.513,24.983l-17.861-13.593l6.348,10.002l-9.253-6.396l24.227,27.052
					c3.024-1.692,5.573-3.943,7.569-6.565l-4.931-8.231l6.121,6.517C272.866,422.267,273.351,421.399,273.779,420.505z"/>
				<path style="fill:#C6FF00;" d="M258.769,433.448l-19.35-22.315l8.604,13.273l-21.204-16.62
					c-0.341,4.092,0.328,8.324,2.158,12.323c3.675,8.033,11.113,13.15,19.268,14.232l-7.642-6.792l11.853,6.989
					C254.564,434.453,256.684,434.094,258.769,433.448z"/>
				<path style="fill:#C6FF00;" d="M260.691,386.867l10.848,12.607l-2.202-4.813l3.511,2.705
					C270.003,392.466,265.665,388.864,260.691,386.867z"/>
				<path style="fill:#C6FF00;" d="M235.465,406.362l-5.862-8.1c-1.206,2.288-2.052,4.753-2.5,7.305L235.465,406.362z"/>
			</g>
		</g>
		<path style="fill:#263238;" d="M288.228,393.356c-1.802-3.939-9.773-4.484-20.375-2.079c0.668,0.59,1.303,1.223,1.909,1.889
			c7.919-1.813,13.572-1.655,14.735,0.885c2.062,4.507-10.788,14.806-28.702,23.002c-17.914,8.196-34.108,11.187-36.171,6.679
			c-1.063-2.323,1.842-6.185,7.351-10.503c-0.124-0.884-0.197-1.768-0.224-2.65c-7.692,6.014-11.778,11.839-10.093,15.522
			c2.855,6.241,21.192,3.97,40.955-5.072C277.377,411.987,291.083,399.598,288.228,393.356z"/>
	</g>
</g>
<g id="Planet_1">
	<g>
		
			<ellipse transform="matrix(0.2322 -0.9727 0.9727 0.2322 -66.6298 264.0585)" style="fill:#C6FF00;" cx="133.939" cy="174.232" rx="24.425" ry="24.425"/>
		<g>
			<path style="fill:#263238;" d="M139.698,156.162c1.743-1.598,3.647-2.741,5.592-3.547c-1.96-1.031-4.072-1.81-6.301-2.279
				c-2.15,1.45-4.34,3.123-6.44,5.031c-8.738,7.943-6.355,7.149-19.064,11.915c-1.233,0.462-2.35,1.009-3.369,1.615
				c-0.383,1.719-0.602,3.501-0.602,5.335c0,3.178,0.626,6.206,1.73,8.991c4.54-1.383,10.577-3.624,13.362-6.409
				C129.372,172.048,130.166,164.899,139.698,156.162z"/>
			<path style="fill:#263238;" d="M116.19,190.978c1.843,1.953,3.994,3.606,6.39,4.869c4.549-3.172,6.665-6.554,13.146-9.501
				c5.691-2.587,15.086-3.151,20.947-3.231c1.078-2.756,1.691-5.745,1.691-8.883c0-0.423-0.042-0.834-0.063-1.252
				c-4.054,0.31-11.928,1.322-20.192,4.627C128.872,181.303,124.392,187.846,116.19,190.978z"/>
			<path style="fill:#263238;" d="M140.492,165.693c4.313,2.156,10.964,1.034,16.145-0.442c-0.994-2.509-2.383-4.814-4.104-6.835
				C145.652,159.71,134.509,162.702,140.492,165.693z"/>
		</g>
	</g>
</g>
<g id="Text">
	<g>
		<g>
			<path style="fill:#263238;" d="M145.934,368.3l0.505-0.835c1.055,1.099,3.01,1.933,5.074,1.933c3.075,0,4.436-1.339,4.436-3.008
				c0-4.613-9.598-1.846-9.598-7.512c0-2.174,1.669-4.085,5.447-4.085c1.692,0,3.448,0.527,4.635,1.384l-0.418,0.9
				c-1.274-0.879-2.833-1.296-4.217-1.296c-2.986,0-4.326,1.382-4.326,3.075c0,4.612,9.598,1.888,9.598,7.467
				c0,2.174-1.735,4.064-5.535,4.064C149.25,370.386,147.054,369.529,145.934,368.3z"/>
			<path style="fill:#263238;" d="M170.204,364.807h-9.861c0.109,2.725,2.108,4.569,4.854,4.569c1.449,0,2.789-0.527,3.668-1.604
				l0.637,0.725c-1.01,1.23-2.592,1.868-4.327,1.868c-3.47,0-5.908-2.416-5.908-5.821c0-3.405,2.35-5.819,5.491-5.819
				c3.141,0,5.469,2.371,5.469,5.776C170.225,364.587,170.204,364.697,170.204,364.807z M160.364,363.95h8.786
				c-0.154-2.481-1.955-4.26-4.393-4.26C162.319,359.69,160.54,361.447,160.364,363.95z"/>
			<path style="fill:#263238;" d="M179.055,358.724v1.076c-0.088,0-0.175-0.022-0.264-0.022c-2.548,0-4.063,1.691-4.063,4.524v5.974
				h-1.099v-11.465h1.055v2.504C175.388,359.646,176.903,358.724,179.055,358.724z"/>
			<path style="fill:#263238;" d="M191.816,358.811l-5.183,11.465h-1.12l-5.161-11.465h1.164l4.569,10.258l4.612-10.258H191.816z"/>
			<path style="fill:#263238;" d="M193.859,355.144c0-0.483,0.395-0.9,0.9-0.9c0.505,0,0.9,0.395,0.9,0.877
				c0,0.505-0.395,0.9-0.9,0.9C194.255,356.021,193.859,355.626,193.859,355.144z M194.211,358.811h1.099v11.465h-1.099V358.811z"/>
			<path style="fill:#263238;" d="M198.692,364.543c0-3.427,2.438-5.819,5.798-5.819c1.823,0,3.404,0.702,4.349,2.108l-0.813,0.594
				c-0.835-1.164-2.109-1.714-3.536-1.714c-2.702,0-4.679,1.933-4.679,4.832s1.977,4.832,4.679,4.832
				c1.427,0,2.701-0.549,3.536-1.713l0.813,0.592c-0.945,1.384-2.526,2.109-4.349,2.109
				C201.13,370.364,198.692,367.948,198.692,364.543z"/>
			<path style="fill:#263238;" d="M221.622,364.807h-9.861c0.109,2.725,2.108,4.569,4.854,4.569c1.449,0,2.789-0.527,3.668-1.604
				l0.637,0.725c-1.01,1.23-2.592,1.868-4.327,1.868c-3.47,0-5.908-2.416-5.908-5.821c0-3.405,2.35-5.819,5.491-5.819
				s5.468,2.371,5.468,5.776C221.644,364.587,221.622,364.697,221.622,364.807z M211.783,363.95h8.786
				c-0.154-2.481-1.955-4.26-4.393-4.26C213.738,359.69,211.959,361.447,211.783,363.95z"/>
			<path style="fill:#263238;" d="M230.913,363.753v-8.851h1.12v8.807c0,3.844,1.845,5.644,5.051,5.644
				c3.207,0,5.03-1.801,5.03-5.644v-8.807h1.12v8.851c0,4.392-2.35,6.633-6.172,6.633
				C233.241,370.386,230.913,368.145,230.913,363.753z"/>
			<path style="fill:#263238;" d="M258.368,363.578v6.698h-1.098v-6.611c0-2.591-1.384-3.953-3.712-3.953
				c-2.702,0-4.349,1.736-4.349,4.459v6.106h-1.099v-11.465h1.055v2.483c0.769-1.604,2.372-2.569,4.546-2.569
				C256.502,358.724,258.368,360.37,258.368,363.578z"/>
			<path style="fill:#263238;" d="M271.174,363.006v7.27h-1.054v-2.043c-0.725,1.318-2.131,2.131-4.129,2.131
				c-2.57,0-4.129-1.319-4.129-3.273c0-1.734,1.098-3.207,4.283-3.207h3.932v-0.922c0-2.131-1.164-3.273-3.404-3.273
				c-1.581,0-3.01,0.593-3.953,1.449l-0.549-0.79c1.142-1.01,2.811-1.624,4.59-1.624
				C269.592,358.724,271.174,360.173,271.174,363.006z M270.076,366.894v-2.153h-3.909c-2.372,0-3.207,0.987-3.207,2.306
				c0,1.493,1.165,2.416,3.185,2.416C268.077,369.464,269.417,368.54,270.076,366.894z"/>
			<path style="fill:#263238;" d="M284.681,358.811l-5.183,11.465h-1.12l-5.162-11.465h1.164l4.569,10.258l4.612-10.258H284.681z"/>
			<path style="fill:#263238;" d="M295.005,363.006v7.27h-1.054v-2.043c-0.725,1.318-2.131,2.131-4.129,2.131
				c-2.57,0-4.129-1.319-4.129-3.273c0-1.734,1.098-3.207,4.283-3.207h3.932v-0.922c0-2.131-1.164-3.273-3.404-3.273
				c-1.581,0-3.009,0.593-3.953,1.449l-0.549-0.79c1.142-1.01,2.811-1.624,4.59-1.624
				C293.423,358.724,295.005,360.173,295.005,363.006z M293.907,366.894v-2.153h-3.909c-2.372,0-3.207,0.987-3.207,2.306
				c0,1.493,1.165,2.416,3.185,2.416C291.908,369.464,293.248,368.54,293.907,366.894z"/>
			<path style="fill:#263238;" d="M299.179,355.144c0-0.483,0.395-0.9,0.9-0.9c0.505,0,0.9,0.395,0.9,0.877
				c0,0.505-0.395,0.9-0.9,0.9C299.574,356.021,299.179,355.626,299.179,355.144z M299.53,358.811h1.099v11.465h-1.099V358.811z"/>
			<path style="fill:#263238;" d="M305.262,353.978h1.099v16.298h-1.099V353.978z"/>
			<path style="fill:#263238;" d="M319.275,363.006v7.27h-1.054v-2.043c-0.725,1.318-2.131,2.131-4.129,2.131
				c-2.57,0-4.129-1.319-4.129-3.273c0-1.734,1.098-3.207,4.283-3.207h3.932v-0.922c0-2.131-1.164-3.273-3.404-3.273
				c-1.582,0-3.01,0.593-3.953,1.449l-0.549-0.79c1.142-1.01,2.811-1.624,4.59-1.624
				C317.693,358.724,319.275,360.173,319.275,363.006z M318.177,366.894v-2.153h-3.909c-2.372,0-3.207,0.987-3.207,2.306
				c0,1.493,1.165,2.416,3.185,2.416C316.179,369.464,317.518,368.54,318.177,366.894z"/>
			<path style="fill:#263238;" d="M335.221,364.543c0,3.427-2.438,5.821-5.667,5.821c-2.064,0-3.799-1.032-4.7-2.79v2.701H323.8
				v-16.298h1.099v7.447c0.922-1.714,2.635-2.701,4.656-2.701C332.783,358.724,335.221,361.095,335.221,364.543z M334.123,364.543
				c0-2.876-1.999-4.832-4.635-4.832c-2.635,0-4.612,1.956-4.612,4.832c0,2.878,1.977,4.832,4.612,4.832
				C332.124,369.376,334.123,367.421,334.123,364.543z"/>
			<path style="fill:#263238;" d="M338.626,353.978h1.099v16.298h-1.099V353.978z"/>
			<path style="fill:#263238;" d="M354.044,364.807h-9.861c0.109,2.725,2.108,4.569,4.854,4.569c1.449,0,2.789-0.527,3.668-1.604
				l0.637,0.725c-1.01,1.23-2.592,1.868-4.327,1.868c-3.47,0-5.908-2.416-5.908-5.821c0-3.405,2.35-5.819,5.491-5.819
				c3.141,0,5.468,2.371,5.468,5.776C354.066,364.587,354.044,364.697,354.044,364.807z M344.205,363.95h8.786
				c-0.154-2.481-1.955-4.26-4.393-4.26C346.16,359.69,344.381,361.447,344.205,363.95z"/>
		</g>
		<path style="fill:#263238;" d="M200.386,297.845c0,17.372-12.749,32.503-40.769,32.503c-13.59,0-27.88-3.783-37.407-10.508
			l8.966-17.372c7.425,5.604,17.653,8.827,27.88,8.827c11.348,0,18.353-4.764,18.353-12.749c0-7.706-5.044-12.749-22.837-12.749
			h-25.078l5.044-55.199h59.823v18.212h-40.91l-1.541,18.633h7.986C188.898,267.442,200.386,280.472,200.386,297.845z
			 M209.631,279.632c0-32.363,17.933-50.716,42.03-50.716c24.237,0,42.03,18.353,42.03,50.716s-17.793,50.716-42.03,50.716
			C227.564,330.348,209.631,311.995,209.631,279.632z M270.854,279.632c0-22.276-7.845-31.523-19.193-31.523
			c-11.208,0-19.054,9.247-19.054,31.523c0,22.275,7.846,31.522,19.054,31.522C263.009,311.154,270.854,301.907,270.854,279.632z
			 M375.79,298.685c0,16.532-12.749,31.663-40.629,31.663c-13.73,0-27.88-3.783-37.406-10.508l8.826-17.372
			c7.426,5.604,17.793,8.827,28.02,8.827c11.348,0,18.354-4.624,18.354-12.609c0-7.425-5.464-12.049-18.354-12.049h-10.367v-14.99
			l20.175-22.837h-41.75v-18.212h68.649v14.71l-22.135,25.218C366.823,273.328,375.79,284.255,375.79,298.685z"/>
	</g>
</g>
<g id="Character">
	<g>
		<g>
			
				<path style="fill:#FFFFFF;stroke:#263238;stroke-width:1.1915;stroke-linecap:round;stroke-linejoin:round;stroke-miterlimit:10;" d="
				M325.238,82.786L325.238,82.786c-1.027-1.629-0.538-3.782,1.091-4.809l5.664-3.569c1.629-1.027,3.782-0.538,4.809,1.091l0,0
				c1.027,1.629,0.538,3.782-1.091,4.809l-5.664,3.569C328.418,84.904,326.265,84.415,325.238,82.786z"/>
			<g>
				<g>
					<defs>
						<path id="XMLID_9_" d="M322.158,107.287c0,0-4.136-6.135-9.852-9.821c-5.715-3.686-15.552-8.053-15.552-8.053l-3.236-18.024
							c0,0,5.366-5.094,8.285-9.801c2.919-4.707,1.955-7.872,0.126-11.132c-1.828-3.26-4.464-1.144-4.846,0.344
							c-0.382,1.488-0.52,4.751-0.52,4.751s-1.746-11.993-2.758-14.726c-1.012-2.733-4.851-0.106-4.513,0.806
							c0,0-1.157-3.405-3.556-3.449c-2.399-0.044-3.064,4.035-3.064,4.035s-3.069-1.417-4.793,0.361
							c-1.725,1.778-0.902,6.239-0.902,6.239s-2.733,1.012-3.159,4.899c-0.426,3.887-0.079,10.7,1.027,12.569
							c1.107,1.87,1.444,2.781,1.444,2.781c-1.355,16.237-1.308,15.166-1.707,21.648c-0.281,4.559,2.711,15.158,7.036,19.565
							c4.325,4.407,19.644,12.204,19.644,12.204S317.233,118.33,322.158,107.287z"/>
					</defs>
					<use xlink:href="#XMLID_9_"  style="overflow:visible;fill:#FFFFFF;"/>
					<clipPath id="XMLID_00000156567748462002604270000013811454547076244630_">
						<use xlink:href="#XMLID_9_"  style="overflow:visible;"/>
					</clipPath>
					<path style="clip-path:url(#XMLID_00000156567748462002604270000013811454547076244630_);fill:#C6FF00;" d="M301.262,122.482
						c0,0,15.971-4.152,20.896-15.195c0,0-0.319-0.47-0.887-1.214l-4.163-3.469c0,0-8.781,0.65-17.563,2.602
						c-8.781,1.951-15.611-2.277-18.213-12.034c-2.602-9.757-5.042-24.107-5.042-24.107l0,0v0
						c-1.355,16.236-1.308,15.166-1.707,21.648c-0.281,4.559,2.711,15.158,7.036,19.565
						C285.943,114.686,301.262,122.482,301.262,122.482z"/>
					<path style="opacity:0.5;clip-path:url(#XMLID_00000156567748462002604270000013811454547076244630_);fill:#FFFFFF;" d="
						M301.262,122.482c0,0,15.971-4.152,20.896-15.195c0,0-0.319-0.47-0.887-1.214l-4.163-3.469c0,0-8.781,0.65-17.563,2.602
						c-8.781,1.951-15.611-2.277-18.213-12.034c-2.602-9.757-5.042-24.107-5.042-24.107l0,0v0
						c-1.355,16.236-1.308,15.166-1.707,21.648c-0.281,4.559,2.711,15.158,7.036,19.565
						C285.943,114.686,301.262,122.482,301.262,122.482z"/>
					
						<use xlink:href="#XMLID_9_"  style="overflow:visible;fill:none;stroke:#263238;stroke-width:1.1915;stroke-linecap:round;stroke-linejoin:round;stroke-miterlimit:10;"/>
				</g>
				
					<path style="fill:#FFFFFF;stroke:#263238;stroke-width:1.1915;stroke-linecap:round;stroke-linejoin:round;stroke-miterlimit:10;" d="
					M295.498,82.418l-1.98-11.03c0,0,5.366-5.094,8.285-9.801c2.919-4.707,1.955-7.872,0.126-11.132
					c-1.828-3.26-4.464-1.144-4.846,0.344c-0.381,1.488-0.52,4.751-0.52,4.751s-1.746-11.993-2.758-14.726
					c-1.012-2.733-4.851-0.106-4.513,0.806c0,0-1.157-3.405-3.556-3.449s-3.064,4.035-3.064,4.035s-3.069-1.417-4.793,0.361
					c-1.725,1.778-0.902,6.239-0.902,6.239s-2.733,1.012-3.159,4.899c-0.426,3.887-0.079,10.7,1.027,12.569
					c1.107,1.87,1.444,2.781,1.444,2.781c-0.599,7.179-0.924,10.972-1.135,13.533L295.498,82.418z"/>
				
					<path style="fill:#FFFFFF;stroke:#263238;stroke-width:1.1915;stroke-linecap:round;stroke-linejoin:round;stroke-miterlimit:10;" d="
					M279.54,107.542c0.386,0.624,0.788,1.21,1.206,1.737c4.221-3.524,13.725-11.991,17.965-19.273
					c-1.204-0.378-1.957-0.593-1.957-0.593S287.911,100.963,279.54,107.542z"/>
				<g>
					
						<path style="fill:none;stroke:#263238;stroke-width:1.1915;stroke-linecap:round;stroke-linejoin:round;stroke-miterlimit:10;" d="
						M296.563,55.55c0,0-9.456-0.353-10.45,7.621"/>
					
						<line style="fill:none;stroke:#263238;stroke-width:1.1915;stroke-linecap:round;stroke-linejoin:round;stroke-miterlimit:10;" x1="289.292" y1="41.63" x2="289.612" y2="51.677"/>
					
						<line style="fill:none;stroke:#263238;stroke-width:1.1915;stroke-linecap:round;stroke-linejoin:round;stroke-miterlimit:10;" x1="282.671" y1="42.216" x2="283.323" y2="51.309"/>
					
						<line style="fill:none;stroke:#263238;stroke-width:1.1915;stroke-linecap:round;stroke-linejoin:round;stroke-miterlimit:10;" x1="276.976" y1="48.816" x2="277.997" y2="54.486"/>
					
						<path style="fill:none;stroke:#263238;stroke-width:1.1915;stroke-linecap:round;stroke-linejoin:round;stroke-miterlimit:10;" d="
						M291.507,51.205c0,0-10.667,1.768-14.782,5.287"/>
				</g>
				<g>
					<defs>
						<path id="XMLID_8_" d="M289.032,114.238c3.482-2.978,3.205-9.016-0.619-13.488c-3.695-4.321-9.343-5.586-12.862-2.98
							c1.19,4.599,3.368,9.758,6.067,12.508c1.328,1.353,3.694,3.026,6.334,4.695C288.33,114.763,288.696,114.526,289.032,114.238z"
							/>
					</defs>
					<use xlink:href="#XMLID_8_"  style="overflow:visible;fill:#C6FF00;"/>
					<clipPath id="XMLID_00000139275757163211107620000014186372002363568567_">
						<use xlink:href="#XMLID_8_"  style="overflow:visible;"/>
					</clipPath>
					
						<use xlink:href="#XMLID_8_"  style="overflow:visible;fill:none;stroke:#263238;stroke-width:1.1915;stroke-linecap:round;stroke-linejoin:round;stroke-miterlimit:10;"/>
				</g>
			</g>
			<g>
				<defs>
					<path id="XMLID_7_" d="M282.206,125.931c0,0-4.47,0.472-5.878,1.675c-1.408,1.204-12.141,10.382-13.88,15.829
						s4.871,21.727,12.096,28.039c7.225,6.312,16.232,12.926,23.893,11.554c7.661-1.372,16.464-13.164,17.371-16.378
						c0.908-3.213-29.058-40.037-29.058-40.037S284.618,124.477,282.206,125.931z"/>
				</defs>
				<use xlink:href="#XMLID_7_"  style="overflow:visible;fill:#FFFFFF;"/>
				<clipPath id="XMLID_00000080192905701535423130000012993235551851807929_">
					<use xlink:href="#XMLID_7_"  style="overflow:visible;"/>
				</clipPath>
				<path style="clip-path:url(#XMLID_00000080192905701535423130000012993235551851807929_);fill:#C6FF00;" d="M282.206,125.931
					c0,0-0.874,0.092-1.97,0.299l1.041,1.686c0,0-0.921,9.489,5.584,20.222c6.505,10.733,17.888,17.563,17.563,21.466
					c-0.325,3.903,0.976,9.107-8.781,8.456c-9.757-0.65-20.165-17.238-23.743-25.369c-1.86-4.228-3.457-10.651-5.293-15.618
					c-1.941,2.246-3.569,4.518-4.158,6.363c-1.739,5.447,4.871,21.727,12.096,28.039c7.225,6.312,16.232,12.926,23.893,11.554
					c7.661-1.372,16.464-13.164,17.371-16.378c0.908-3.213-29.058-40.037-29.058-40.037S284.618,124.477,282.206,125.931z"/>
				<path style="opacity:0.5;clip-path:url(#XMLID_00000080192905701535423130000012993235551851807929_);fill:#FFFFFF;" d="
					M282.206,125.931c0,0-0.874,0.092-1.97,0.299l1.041,1.686c0,0-0.921,9.489,5.584,20.222
					c6.505,10.733,17.888,17.563,17.563,21.466c-0.325,3.903,0.976,9.107-8.781,8.456c-9.757-0.65-20.165-17.238-23.743-25.369
					c-1.86-4.228-3.457-10.651-5.293-15.618c-1.941,2.246-3.569,4.518-4.158,6.363c-1.739,5.447,4.871,21.727,12.096,28.039
					c7.225,6.312,16.232,12.926,23.893,11.554c7.661-1.372,16.464-13.164,17.371-16.378c0.908-3.213-29.058-40.037-29.058-40.037
					S284.618,124.477,282.206,125.931z"/>
				
					<use xlink:href="#XMLID_7_"  style="overflow:visible;fill:none;stroke:#263238;stroke-width:1.1915;stroke-linecap:round;stroke-linejoin:round;stroke-miterlimit:10;"/>
			</g>
			<g>
				<g>
					<defs>
						<path id="XMLID_6_" d="M320.391,104.116c0,0-4.745-1.595-11.797,1.4c-7.052,2.995-24.727,13.378-27.318,22.401
							c-1.705,5.937,17.029,33.624,28.692,38.179c3.147,1.229,5.992,2.553,12.428-2.685c6.437-5.238,19.915-19.785,23.444-26.204
							c3.529-6.419-1.964-11.189-3.849-14.019C340.107,120.358,325.348,102.001,320.391,104.116z"/>
					</defs>
					<use xlink:href="#XMLID_6_"  style="overflow:visible;fill:#FFFFFF;"/>
					<clipPath id="XMLID_00000165194334500771356210000003509071673504290217_">
						<use xlink:href="#XMLID_6_"  style="overflow:visible;"/>
					</clipPath>
					<g style="clip-path:url(#XMLID_00000165194334500771356210000003509071673504290217_);">
						<path style="fill:#C6FF00;" d="M345.882,137.118l-12.187,3.864c0,0-12.684,14.961-17.238,18.864s-18.864-5.529-23.743-10.082
							c-0.524-0.49-0.999-0.93-1.444-1.34c5.825,7.913,13.08,15.477,18.698,17.671c3.147,1.229,5.992,2.553,12.428-2.685
							c6.437-5.238,19.915-19.785,23.444-26.204C345.856,137.176,345.865,137.148,345.882,137.118z"/>
						<path style="fill:#C6FF00;" d="M339.549,135.778l6.561,0.856c2.905-6.129-2.291-10.703-4.118-13.447
							c-1.884-2.829-16.644-21.186-21.6-19.071c0,0-1.018-0.335-2.795-0.408c-5.996,4.523-5.316,9.716,0.161,19.06
							C323.287,132.201,339.549,135.778,339.549,135.778z"/>
					</g>
					<g style="opacity:0.5;clip-path:url(#XMLID_00000165194334500771356210000003509071673504290217_);">
						<path style="fill:#FFFFFF;" d="M345.882,137.118l-12.187,3.864c0,0-12.684,14.961-17.238,18.864s-18.864-5.529-23.743-10.082
							c-0.524-0.49-0.999-0.93-1.444-1.34c5.825,7.913,13.08,15.477,18.698,17.671c3.147,1.229,5.992,2.553,12.428-2.685
							c6.437-5.238,19.915-19.785,23.444-26.204C345.856,137.176,345.865,137.148,345.882,137.118z"/>
						<path style="fill:#FFFFFF;" d="M339.549,135.778l6.561,0.856c2.905-6.129-2.291-10.703-4.118-13.447
							c-1.884-2.829-16.644-21.186-21.6-19.071c0,0-1.018-0.335-2.795-0.408c-5.996,4.523-5.316,9.716,0.161,19.06
							C323.287,132.201,339.549,135.778,339.549,135.778z"/>
					</g>
					
						<use xlink:href="#XMLID_6_"  style="overflow:visible;fill:none;stroke:#263238;stroke-width:1.1915;stroke-linecap:round;stroke-linejoin:round;stroke-miterlimit:10;"/>
				</g>
				<g>
					
						<path style="fill:#FFFFFF;stroke:#263238;stroke-width:1.1915;stroke-linecap:round;stroke-linejoin:round;stroke-miterlimit:10;" d="
						M303.386,147.81l-12.126-16.636c-1.915-2.627-1.337-6.308,1.289-8.223l12.804-9.333c2.627-1.915,6.308-1.337,8.223,1.289
						l12.126,16.636c1.915,2.627,1.338,6.308-1.289,8.223L311.61,149.1C308.983,151.014,305.301,150.437,303.386,147.81z"/>
					
						<path style="fill:#FFFFFF;stroke:#263238;stroke-width:1.1915;stroke-linecap:round;stroke-linejoin:round;stroke-miterlimit:10;" d="
						M479.518,230.22c-14.951-39.033-52.343-38.571-85.337-38.16c-11.373,0.143-22.115,0.275-32.023-0.979
						c-33.366-4.221-42.91-38.523-43.031-38.969c-0.334-1.271-1.633-2.032-2.911-1.696c-1.272,0.336-2.033,1.639-1.697,2.912
						c0.101,0.378,10.392,37.846,47.041,42.481c10.235,1.295,21.643,1.154,32.681,1.016c32.962-0.41,67.064-0.832,80.828,35.099
						c6.326,16.518,2.814,35.938-8.947,49.476c-10.246,11.79-24.77,16.567-39.853,13.106c-14.23-3.266-28.291-7.765-41.891-12.117
						c-22.505-7.202-45.776-14.649-70.478-16.721c-42.345-3.56-71.806,17.067-105.894,40.946
						c-6.856,4.803-13.947,9.769-21.38,14.709l-4.227,2.819c-21.084,14.08-42.886,28.64-67.556,31.269
						c-19.177,2.051-38.686-6.94-48.551-22.355c-5.613-8.772-7.543-19.251-5.297-28.752c2.049-8.666,7.255-15.702,15.056-20.349
						c12.766-7.606,35.332-10.134,54.572-8.047l0.33-4.753c-20.192-2.146-43.755,0.613-57.341,8.706
						c-8.809,5.247-14.936,13.539-17.255,23.346c-2.542,10.749-0.384,22.565,5.92,32.417c9.903,15.479,27.813,24.827,46.823,24.853
						c2.072,0.003,4.159-0.104,6.248-0.327c25.837-2.753,49.139-18.315,69.698-32.045l4.218-2.813
						c7.482-4.973,14.597-9.956,21.477-14.775c33.329-23.348,62.11-43.52,102.761-40.1c24.163,2.028,47.173,9.391,69.424,16.512
						c13.693,4.382,27.852,8.912,42.278,12.223c16.854,3.865,33.08-1.463,44.517-14.626
						C482.62,269.677,486.466,248.361,479.518,230.22z"/>
					
						<path style="fill:#C6FF00;stroke:#263238;stroke-width:1.1915;stroke-linecap:round;stroke-linejoin:round;stroke-miterlimit:10;" d="
						M313.398,121.062c0,1.794-1.454,3.247-3.248,3.247c-1.794,0-3.247-1.454-3.247-3.247s1.454-3.248,3.247-3.248
						C311.944,117.814,313.398,119.268,313.398,121.062z"/>
					
						<path style="fill:#C6FF00;stroke:#263238;stroke-width:1.1915;stroke-linecap:round;stroke-linejoin:round;stroke-miterlimit:10;" d="
						M304.583,128.484c0,1.794-1.454,3.248-3.247,3.248c-1.794,0-3.248-1.454-3.248-3.248c0-1.794,1.454-3.247,3.248-3.247
						C303.129,125.237,304.583,126.691,304.583,128.484z"/>
				</g>
			</g>
			<g>
				<defs>
					
						<ellipse id="XMLID_5_" transform="matrix(0.6614 -0.75 0.75 0.6614 37.9098 291.595)" cx="341.933" cy="103.808" rx="26.5" ry="26.5"/>
				</defs>
				<use xlink:href="#XMLID_5_"  style="overflow:visible;fill:#FFFFFF;"/>
				<clipPath id="XMLID_00000092440790537403191290000005927975257622898612_">
					<use xlink:href="#XMLID_5_"  style="overflow:visible;"/>
				</clipPath>
				<path style="clip-path:url(#XMLID_00000092440790537403191290000005927975257622898612_);fill:#C6FF00;" d="M362.073,86.585
					c-0.931-1.089-1.949-2.056-3.007-2.956c2.71,9.635-0.154,20.396-8.261,27.329c-10.034,8.58-24.611,8.329-34.355,0.038
					c1.008,3.585,2.764,7.018,5.344,10.034c9.512,11.123,26.239,12.43,37.363,2.918C370.278,114.436,371.585,97.708,362.073,86.585z
					"/>
				<path style="opacity:0.5;clip-path:url(#XMLID_00000092440790537403191290000005927975257622898612_);fill:#FFFFFF;" d="
					M362.073,86.585c-0.931-1.089-1.949-2.056-3.007-2.956c2.71,9.635-0.154,20.396-8.261,27.329
					c-10.034,8.58-24.611,8.329-34.355,0.038c1.008,3.585,2.764,7.018,5.344,10.034c9.512,11.123,26.239,12.43,37.363,2.918
					C370.278,114.436,371.585,97.708,362.073,86.585z"/>
				
					<use xlink:href="#XMLID_5_"  style="overflow:visible;fill:none;stroke:#263238;stroke-width:1.1915;stroke-linecap:round;stroke-linejoin:round;stroke-miterlimit:10;"/>
			</g>
			<g>
				
					<line style="fill:none;stroke:#263238;stroke-width:1.1915;stroke-linecap:round;stroke-linejoin:round;stroke-miterlimit:10;" x1="365.464" y1="122.13" x2="373.176" y2="115.535"/>
				<path style="fill:#263238;" d="M375.229,116.365c0.857-0.733,0.958-2.021,0.225-2.878c-0.733-0.857-2.021-0.958-2.878-0.225
					c-0.857,0.733-0.958,2.021-0.225,2.878C373.083,116.997,374.372,117.098,375.229,116.365z"/>
			</g>
			
				<path style="fill:#FFFFFF;stroke:#263238;stroke-width:1.1915;stroke-linecap:round;stroke-linejoin:round;stroke-miterlimit:10;" d="
				M356.001,130.132L356.001,130.132c-1.251-1.464-1.08-3.665,0.384-4.916l5.088-4.351c1.464-1.252,3.665-1.08,4.916,0.384l0,0
				c1.251,1.464,1.08,3.665-0.384,4.916l-5.088,4.351C359.454,131.767,357.253,131.595,356.001,130.132z"/>
			<g>
				<g>
					<defs>
						<path id="XMLID_4_" d="M347.712,134.495c0,0-10.293-2.774-14.345,4.955c-4.052,7.73,0.521,26.971,0.521,26.971
							s-7.523,12.221-9.433,13.549c-1.91,1.329-7.283,0.745-12.585,3.451c-5.302,2.706-3.547,5.47-2.142,6.401
							c1.405,0.931,5.728-1.852,7.033-1.75c1.306,0.102,1.127,2.387-3.876,7.579c-5.003,5.192-7.314,5.34-5.86,7.753
							c1.454,2.412,3.966,1.788,3.966,1.788s-0.655,2.084,1.403,3.065c2.058,0.982,2.938,0.23,2.938,0.23s-0.204,2.611,1.704,3.417
							c1.908,0.806,4.595,0.03,4.595,0.03s1.806,2.111,3.639,1.762c1.833-0.349,6.008-5.442,9.303-9.783
							c3.295-4.34,15.994-19.769,21.003-29.231c5.008-9.461,2.634-19.007,1.611-24.834
							C356.164,144.022,351.553,135.78,347.712,134.495z"/>
					</defs>
					<use xlink:href="#XMLID_4_"  style="overflow:visible;fill:#FFFFFF;"/>
					<clipPath id="XMLID_00000150819202300059418290000016484937704225543049_">
						<use xlink:href="#XMLID_4_"  style="overflow:visible;"/>
					</clipPath>
					<path style="clip-path:url(#XMLID_00000150819202300059418290000016484937704225543049_);fill:#C6FF00;" d="M357.187,149.85
						c-1.023-5.827-5.634-14.069-9.475-15.355c0,0-0.099-0.024-0.239-0.057c1.331,2.963,5.192,12.91,4.109,26.709
						c-1.301,16.587-16.512,29.66-21.141,34.475c-3.712,3.862-8.379,9.266-15.112,13.269c0.029,0.764,0.263,2.403,1.706,3.012
						c1.908,0.806,4.595,0.03,4.595,0.03s1.806,2.111,3.639,1.762c1.833-0.349,6.008-5.442,9.303-9.783
						c3.295-4.34,15.994-19.769,21.002-29.231C360.584,165.222,358.21,155.676,357.187,149.85z"/>
					<path style="opacity:0.5;clip-path:url(#XMLID_00000150819202300059418290000016484937704225543049_);fill:#FFFFFF;" d="
						M357.187,149.85c-1.023-5.827-5.634-14.069-9.475-15.355c0,0-0.099-0.024-0.239-0.057c1.331,2.963,5.192,12.91,4.109,26.709
						c-1.301,16.587-16.512,29.66-21.141,34.475c-3.712,3.862-8.379,9.266-15.112,13.269c0.029,0.764,0.263,2.403,1.706,3.012
						c1.908,0.806,4.595,0.03,4.595,0.03s1.806,2.111,3.639,1.762c1.833-0.349,6.008-5.442,9.303-9.783
						c3.295-4.34,15.994-19.769,21.002-29.231C360.584,165.222,358.21,155.676,357.187,149.85z"/>
					
						<use xlink:href="#XMLID_4_"  style="overflow:visible;fill:none;stroke:#263238;stroke-width:1.1915;stroke-linecap:round;stroke-linejoin:round;stroke-miterlimit:10;"/>
				</g>
				<g>
					
						<path style="fill:none;stroke:#263238;stroke-width:1.1915;stroke-linecap:round;stroke-linejoin:round;stroke-miterlimit:10;" d="
						M325.27,213.697c1.833-0.349,6.008-5.442,9.303-9.783c1.865-2.457,6.743-8.467,11.534-14.936
						c-3.212-11.044-12.712-14.289-16.938-15.195c-1.911,2.861-3.866,5.598-4.714,6.188c-1.91,1.329-7.283,0.745-12.585,3.451
						c-5.302,2.706-3.547,5.47-2.142,6.401c1.405,0.931,5.728-1.852,7.033-1.75c1.306,0.102,1.127,2.387-3.876,7.579
						c-5.003,5.192-7.314,5.34-5.86,7.753c1.454,2.412,3.966,1.788,3.966,1.788s-0.655,2.084,1.403,3.065
						c2.058,0.982,2.938,0.23,2.938,0.23s-0.204,2.611,1.704,3.417c1.908,0.806,4.595,0.03,4.595,0.03
						S323.437,214.046,325.27,213.697z"/>
					
						<path style="fill:none;stroke:#263238;stroke-width:1.1915;stroke-linecap:round;stroke-linejoin:round;stroke-miterlimit:10;" d="
						M310.992,205.192c0,0,5.804-2.831,9.979-7.924"/>
					
						<path style="fill:none;stroke:#263238;stroke-width:1.1915;stroke-linecap:round;stroke-linejoin:round;stroke-miterlimit:10;" d="
						M315.332,208.487c0,0,5.954-2.655,10.481-8.049"/>
					
						<path style="fill:none;stroke:#263238;stroke-width:1.1915;stroke-linecap:round;stroke-linejoin:round;stroke-miterlimit:10;" d="
						M321.631,211.934c0,0,5.756-4.313,8.497-7.875"/>
				</g>
				
					<path style="fill:#FFFFFF;stroke:#263238;stroke-width:1.1915;stroke-linecap:round;stroke-linejoin:round;stroke-miterlimit:10;" d="
					M357.651,169.444c0.21-0.764,0.373-1.523,0.511-2.277c-8.384-5.592-18.944-3.757-24.576-2.126
					c0.183,0.873,0.303,1.38,0.303,1.38s-0.333,0.541-0.873,1.401C346.484,164.568,353.9,166.967,357.651,169.444z"/>
				
					<path style="fill:#C6FF00;stroke:#263238;stroke-width:1.1915;stroke-linecap:round;stroke-linejoin:round;stroke-miterlimit:10;" d="
					M351.809,174.553c0.767,0.896,1.659,1.615,2.62,2.174c0.414-0.705,0.8-1.39,1.146-2.044c3.003-5.674,3.346-11.371,2.923-16.286
					c-2.061,0.098-4.094,0.838-5.769,2.27C348.648,164.158,348.236,170.374,351.809,174.553z"/>
			</g>
			<g>
				<g>
					<defs>
						<path id="XMLID_3_" d="M257.063,138.089c0,0,4.155,11.983,9.502,12.894c5.348,0.91,12.791-8.197,14.306-14.975
							c1.515-6.779-3.803-12.284-11.479-19.123c-7.676-6.839-18.696-10.82-27.968-5.633c-9.272,5.187-23.076,20.037-23.076,20.037
							s-8.605-7.569-13.179-3.657c-4.575,3.912,1.388,15.872,5.601,20.799c4.213,4.927,11.864,12.093,19.223,10.368
							c7.36-1.724,13.202-15.554,17.953-19.616C252.697,135.121,256.01,136.857,257.063,138.089z"/>
					</defs>
					<use xlink:href="#XMLID_3_"  style="overflow:visible;fill:#FFFFFF;"/>
					<clipPath id="XMLID_00000090259329323836235400000001966470033287776687_">
						<use xlink:href="#XMLID_3_"  style="overflow:visible;"/>
					</clipPath>
					<path style="clip-path:url(#XMLID_00000090259329323836235400000001966470033287776687_);fill:#C6FF00;" d="M268.972,140.982
						c-8.131-3.903-5.854-13.66-13.985-16.262c-8.131-2.602-7.48,2.927-13.985,13.335c-6.505,10.408-18.539,9.757-26.67,7.155
						c-2.753-0.881-5.348-1.91-7.587-2.887c1.27,2.408,2.73,4.592,4.026,6.108c4.213,4.927,11.864,12.093,19.223,10.368
						c7.36-1.724,13.202-15.554,17.953-19.616c4.751-4.063,8.064-2.326,9.117-1.094c0,0,4.155,11.983,9.502,12.894
						c5.348,0.91,12.791-8.197,14.306-14.975c0.26-1.167,0.306-2.294,0.184-3.398l-0.375-0.083
						C280.68,132.526,277.103,144.885,268.972,140.982z"/>
					<path style="opacity:0.5;clip-path:url(#XMLID_00000090259329323836235400000001966470033287776687_);fill:#FFFFFF;" d="
						M268.972,140.982c-8.131-3.903-5.854-13.66-13.985-16.262c-8.131-2.602-7.48,2.927-13.985,13.335
						c-6.505,10.408-18.539,9.757-26.67,7.155c-2.753-0.881-5.348-1.91-7.587-2.887c1.27,2.408,2.73,4.592,4.026,6.108
						c4.213,4.927,11.864,12.093,19.223,10.368c7.36-1.724,13.202-15.554,17.953-19.616c4.751-4.063,8.064-2.326,9.117-1.094
						c0,0,4.155,11.983,9.502,12.894c5.348,0.91,12.791-8.197,14.306-14.975c0.26-1.167,0.306-2.294,0.184-3.398l-0.375-0.083
						C280.68,132.526,277.103,144.885,268.972,140.982z"/>
					
						<use xlink:href="#XMLID_3_"  style="overflow:visible;fill:none;stroke:#263238;stroke-width:1.1915;stroke-linecap:round;stroke-linejoin:round;stroke-miterlimit:10;"/>
				</g>
				
					<path style="fill:none;stroke:#263238;stroke-width:1.1915;stroke-linecap:round;stroke-linejoin:round;stroke-miterlimit:10;" d="
					M230.829,119.182c-6.637,5.821-12.481,12.107-12.481,12.107s-8.605-7.569-13.179-3.657c-4.575,3.912,1.388,15.872,5.601,20.799
					c4.213,4.927,11.864,12.093,19.223,10.368c6.635-1.554,12.037-12.946,16.517-18.151
					C238.345,132.509,233.217,123.79,230.829,119.182z"/>
				
					<path style="fill:none;stroke:#263238;stroke-width:1.1915;stroke-linecap:round;stroke-linejoin:round;stroke-miterlimit:10;" d="
					M252.947,109.027c-0.818-0.09-1.637-0.151-2.455-0.145c1.205,4.145,3.436,14.272,1.637,27.96
					c0.929-0.233,1.751-0.237,2.454-0.103C255.183,129.659,255.589,117.909,252.947,109.027z"/>
				
					<path style="fill:#C6FF00;stroke:#263238;stroke-width:1.1915;stroke-linecap:round;stroke-linejoin:round;stroke-miterlimit:10;" d="
					M258.611,124.581c-3.693,3.158-9.246,2.724-12.404-0.969c-3.158-3.693-2.724-9.246,0.969-12.404
					c3.693-3.158,9.246-2.724,12.404,0.969C262.737,115.869,262.303,121.423,258.611,124.581z"/>
				
					<path style="fill:none;stroke:#263238;stroke-width:1.1915;stroke-linecap:round;stroke-linejoin:round;stroke-miterlimit:10;" d="
					M229.993,158.8c1.626-0.381,3.177-1.358,4.659-2.684c-4.713,0.785-13.414,0.527-21.319-8.962
					c-7.702-9.245-7.837-16.436-7.069-20.209c-0.383,0.172-0.751,0.394-1.095,0.688c-4.575,3.912,1.388,15.872,5.601,20.799
					C214.983,153.358,222.634,160.524,229.993,158.8z"/>
			</g>
			<g>
				<g>
					<defs>
						<path id="XMLID_2_" d="M281.13,180.593c0,0,12.167,3.58,16.015-0.244c3.848-3.824,4.401-15.431-3.878-20.344
							c-5.973-3.545-12.208-4.041-22.234-1.766c-10.026,2.275-19.668,8.932-20.832,19.492c-1.165,10.561,2.903,30.423,2.903,30.423
							s-11.159,2.607-10.633,8.603c0.527,5.996,13.725,8.091,20.183,7.524c6.458-0.567,16.735-2.631,19.607-9.623
							c2.872-6.992-4.99-19.781-5.537-26.008C276.178,182.422,279.516,180.734,281.13,180.593z"/>
					</defs>
					<use xlink:href="#XMLID_2_"  style="overflow:visible;fill:#FFFFFF;"/>
					<clipPath id="XMLID_00000054961607889483086510000010358787452912298403_">
						<use xlink:href="#XMLID_2_"  style="overflow:visible;"/>
					</clipPath>
					<path style="clip-path:url(#XMLID_00000054961607889483086510000010358787452912298403_);fill:#C6FF00;" d="M281.13,180.593
						c0,0,12.167,3.58,16.015-0.244c2.502-2.486,3.592-8.259,1.785-13.347h-0.036c0,0,0.976,5.204-6.18,6.505
						c-7.155,1.301-18.864-1.301-24.068,5.204c-5.204,6.505,2.277,19.84,2.927,28.621c0.651,8.781-1.301,11.709-10.082,12.684
						c-8.636,0.96-16.628-5.292-18.438-1.48c2.683,4.63,13.83,6.251,19.601,5.745c6.458-0.567,16.735-2.631,19.607-9.623
						c2.872-6.992-4.99-19.781-5.537-26.008C276.178,182.422,279.516,180.734,281.13,180.593z"/>
					<path style="opacity:0.5;clip-path:url(#XMLID_00000054961607889483086510000010358787452912298403_);fill:#FFFFFF;" d="
						M281.13,180.593c0,0,12.167,3.58,16.015-0.244c2.502-2.486,3.592-8.259,1.785-13.347h-0.036c0,0,0.976,5.204-6.18,6.505
						c-7.155,1.301-18.864-1.301-24.068,5.204c-5.204,6.505,2.277,19.84,2.927,28.621c0.651,8.781-1.301,11.709-10.082,12.684
						c-8.636,0.96-16.628-5.292-18.438-1.48c2.683,4.63,13.83,6.251,19.601,5.745c6.458-0.567,16.735-2.631,19.607-9.623
						c2.872-6.992-4.99-19.781-5.537-26.008C276.178,182.422,279.516,180.734,281.13,180.593z"/>
					
						<use xlink:href="#XMLID_2_"  style="overflow:visible;fill:none;stroke:#263238;stroke-width:1.1915;stroke-linecap:round;stroke-linejoin:round;stroke-miterlimit:10;"/>
				</g>
				
					<path style="fill:none;stroke:#263238;stroke-width:1.1915;stroke-linecap:round;stroke-linejoin:round;stroke-miterlimit:10;" d="
					M250.501,190.962c0.883,8.784,2.604,17.192,2.604,17.192s-11.159,2.607-10.633,8.603c0.527,5.996,13.725,8.091,20.183,7.524
					c6.458-0.567,16.735-2.631,19.607-9.623c2.59-6.304-3.544-17.318-5.178-23.989C265.714,192.586,255.639,191.695,250.501,190.962
					z"/>
				
					<path style="fill:none;stroke:#263238;stroke-width:1.1915;stroke-linecap:round;stroke-linejoin:round;stroke-miterlimit:10;" d="
					M255.085,167.06c-0.548,0.613-1.073,1.245-1.545,1.914c4.074,1.428,13.613,5.495,23.708,14.911
					c0.35-0.892,0.824-1.563,1.342-2.057C273.177,177.225,263.849,170.069,255.085,167.06z"/>
				
					<path style="fill:#C6FF00;stroke:#263238;stroke-width:1.1915;stroke-linecap:round;stroke-linejoin:round;stroke-miterlimit:10;" d="
					M271.034,171.485c0.425,4.84-3.154,9.109-7.995,9.533c-4.84,0.425-9.109-3.154-9.533-7.995c-0.425-4.84,3.154-9.108,7.994-9.533
					C266.341,163.066,270.609,166.645,271.034,171.485z"/>
				
					<path style="fill:none;stroke:#263238;stroke-width:1.1915;stroke-linecap:round;stroke-linejoin:round;stroke-miterlimit:10;" d="
					M282.262,214.658c0.635-1.545,0.74-3.374,0.522-5.351c-2.099,4.292-7.364,11.224-19.68,12.146
					c-12,0.899-17.93-3.17-20.556-5.986c-0.082,0.412-0.116,0.84-0.076,1.29c0.527,5.996,13.725,8.091,20.183,7.524
					C269.112,223.714,279.389,221.65,282.262,214.658z"/>
			</g>
			<g>
				
					<path style="fill:#263238;stroke:#263238;stroke-width:1.1915;stroke-linecap:round;stroke-linejoin:round;stroke-miterlimit:10;" d="
					M350.869,92.655c-2.74-3.6-5.133-7.27-7.173-10.915c-6.146-0.822-12.602,0.872-17.686,5.219
					c-9.484,8.11-10.598,22.373-2.488,31.857c8.11,9.484,22.373,10.598,31.857,2.488c4.723-4.038,7.368-9.603,7.835-15.344
					C358.946,102.228,354.749,97.753,350.869,92.655z"/>
				<path style="fill:#FFFFFF;" d="M353.061,113.172c-2.846,2.433-7.26,1.942-9.859-1.098c-2.599-3.04-2.4-7.477,0.446-9.91
					c2.846-2.433,7.26-1.942,9.859,1.098C356.106,106.302,355.907,110.739,353.061,113.172z"/>
				<path style="fill:#FFFFFF;" d="M345.627,96.418c-0.905,0.774-2.267,0.668-3.041-0.238c-0.774-0.905-0.668-2.267,0.238-3.041
					c0.905-0.774,2.267-0.668,3.041,0.238C346.639,94.282,346.532,95.644,345.627,96.418z"/>
			</g>
		</g>
		
			<rect x="125.157" y="268.542" transform="matrix(0.9952 0.098 -0.098 0.9952 27.3805 -11.2625)" style="fill:#263238;" width="6.451" height="9.317"/>
	</g>
</g>
</svg>
