<?xml version="1.0" encoding="utf-8"?>
<!-- Generator: Adobe Illustrator 27.5.0, SVG Export Plug-In . SVG Version: 6.00 Build 0)  -->
<svg version="1.1" xmlns="http://www.w3.org/2000/svg" xmlns:xlink="http://www.w3.org/1999/xlink" x="0px" y="0px"
	 viewBox="0 0 500 500" style="enable-background:new 0 0 500 500;" xml:space="preserve">
<g id="Background_complete">
	<path style="fill:#E0E0E0;" d="M283.818,85.414c-0.665,1.012-1.112,2.124-1.35,3.271l-1.826,0.172l0,3.537l1.827,0.172
		c0.238,1.146,0.685,2.258,1.35,3.271l-1.167,1.409l2.501,2.501l1.409-1.166c1.012,0.665,2.124,1.112,3.271,1.35l0.172,1.827
		l3.537,0l0.172-1.826c1.147-0.238,2.259-0.685,3.271-1.35l1.409,1.166l2.501-2.501l-1.167-1.409
		c0.665-1.012,1.112-2.124,1.35-3.271l1.826-0.172l0-3.537l-1.826-0.172c-0.238-1.146-0.685-2.258-1.35-3.27l1.167-1.409
		l-2.501-2.501l-1.409,1.167c-1.012-0.665-2.124-1.112-3.271-1.35l-0.172-1.826l-3.537,0l-0.172,1.826
		c-1.147,0.238-2.258,0.685-3.27,1.35l-1.409-1.167l-2.501,2.501L283.818,85.414z M295.159,87.239c1.87,1.87,1.87,4.902,0,6.772
		c-1.87,1.87-4.902,1.87-6.772,0c-1.87-1.87-1.87-4.902,0-6.772C290.257,85.369,293.289,85.369,295.159,87.239z"/>
	<path style="fill:#E0E0E0;" d="M429.439,138.166c-0.665,1.012-1.112,2.124-1.35,3.271l-1.826,0.172l0,3.537l1.827,0.172
		c0.238,1.146,0.685,2.258,1.35,3.271l-1.167,1.409l2.501,2.501l1.409-1.167c1.012,0.665,2.124,1.112,3.271,1.35l0.172,1.827
		l3.537,0l0.172-1.826c1.147-0.238,2.259-0.685,3.271-1.35l1.409,1.167l2.501-2.501l-1.166-1.409
		c0.664-1.012,1.112-2.124,1.35-3.271l1.826-0.172l0-3.537l-1.826-0.172c-0.238-1.146-0.685-2.258-1.35-3.27l1.167-1.409
		l-2.501-2.501l-1.409,1.166c-1.012-0.665-2.124-1.112-3.271-1.35l-0.172-1.826l-3.537,0l-0.172,1.826
		c-1.147,0.238-2.258,0.685-3.271,1.35l-1.409-1.167l-2.501,2.501L429.439,138.166z M440.78,139.991c1.87,1.87,1.87,4.902,0,6.772
		c-1.87,1.87-4.902,1.87-6.772,0c-1.87-1.87-1.87-4.902,0-6.772C435.878,138.121,438.909,138.121,440.78,139.991z"/>
	<path style="fill:#E0E0E0;" d="M63.008,136.14c-0.665,1.012-1.112,2.124-1.35,3.271l-1.826,0.172l0,3.537l1.827,0.172
		c0.238,1.146,0.685,2.258,1.35,3.271l-1.167,1.409l2.501,2.501l1.409-1.167c1.012,0.665,2.124,1.112,3.271,1.35l0.172,1.827
		l3.537,0l0.172-1.826c1.147-0.238,2.258-0.685,3.271-1.35l1.409,1.167l2.501-2.501l-1.167-1.409
		c0.665-1.012,1.112-2.124,1.35-3.271l1.826-0.172l0-3.537l-1.826-0.172c-0.238-1.146-0.685-2.258-1.35-3.27l1.167-1.409
		l-2.501-2.501l-1.409,1.166c-1.012-0.665-2.124-1.112-3.271-1.35l-0.172-1.826l-3.537,0l-0.172,1.826
		c-1.147,0.238-2.258,0.685-3.271,1.35l-1.409-1.167l-2.501,2.501L63.008,136.14z M74.349,137.965c1.87,1.87,1.87,4.902,0,6.772
		c-1.87,1.87-4.902,1.87-6.772,0c-1.87-1.87-1.87-4.902,0-6.772C69.447,136.095,72.479,136.095,74.349,137.965z"/>
	<g>
		<g>
			<g>
				<g>
					<g>
						<path style="fill:#E0E0E0;" d="M443.92,330.198H263.174c-3.232,0-5.862-2.63-5.862-5.862V61.062
							c0-3.232,2.63-5.862,5.862-5.862H443.92c3.232,0,5.862,2.629,5.862,5.862v263.273
							C449.783,327.568,447.153,330.198,443.92,330.198z M263.174,55.45c-3.095,0-5.612,2.518-5.612,5.612v263.273
							c0,3.095,2.518,5.612,5.612,5.612H443.92c3.095,0,5.612-2.518,5.612-5.612V61.062c0-3.094-2.518-5.612-5.612-5.612H263.174z"
							/>
					</g>
				</g>
				<g>
					<g>
						<path style="fill:#E0E0E0;" d="M235.493,330.198H54.746c-3.232,0-5.862-2.63-5.862-5.862V61.062
							c0-3.232,2.629-5.862,5.862-5.862h180.747c3.232,0,5.862,2.629,5.862,5.862v263.273
							C241.355,327.568,238.725,330.198,235.493,330.198z M54.746,55.45c-3.094,0-5.612,2.518-5.612,5.612v263.273
							c0,3.095,2.518,5.612,5.612,5.612h180.747c3.095,0,5.612-2.518,5.612-5.612V61.062c0-3.094-2.518-5.612-5.612-5.612H54.746z"
							/>
					</g>
				</g>
			</g>
			<g>
				<g>
					<rect x="0" y="391.267" style="fill:#E0E0E0;" width="500" height="0.25"/>
				</g>
			</g>
		</g>
		<rect x="51.672" y="405.531" style="fill:#E0E0E0;" width="16.06" height="0.25"/>
		<rect x="170.352" y="402.821" style="fill:#E0E0E0;" width="53.53" height="0.25"/>
		<rect x="68.732" y="414.821" style="fill:#E0E0E0;" width="36.25" height="0.25"/>
		<rect x="378.352" y="402.691" style="fill:#E0E0E0;" width="43.19" height="0.25"/>
		<rect x="430.452" y="402.691" style="fill:#E0E0E0;" width="6.33" height="0.25"/>
		<rect x="316.212" y="408.921" style="fill:#E0E0E0;" width="53.89" height="0.25"/>
	</g>
	<path style="fill:#E0E0E0;" d="M420.631,301.443c-0.821,1.25-1.372,2.622-1.667,4.038l-2.255,0.212l0,4.367l2.255,0.212
		c0.294,1.415,0.846,2.788,1.666,4.038l-1.44,1.74l3.088,3.088l1.74-1.44c1.25,0.82,2.622,1.372,4.038,1.666l0.212,2.255l4.367,0
		l0.212-2.255c1.416-0.294,2.788-0.846,4.038-1.667l1.74,1.44l3.088-3.088l-1.44-1.74c0.82-1.25,1.372-2.622,1.666-4.038
		l2.255-0.212l0-4.367l-2.255-0.213c-0.294-1.416-0.846-2.788-1.667-4.038l1.44-1.74l-3.088-3.088l-1.74,1.44
		c-1.25-0.821-2.623-1.373-4.038-1.667l-0.212-2.255l-4.367,0l-0.212,2.255c-1.416,0.294-2.788,0.846-4.038,1.666l-1.74-1.44
		l-3.088,3.088L420.631,301.443z M434.633,303.697c2.308,2.309,2.309,6.052,0,8.361c-2.309,2.309-6.052,2.309-8.361,0
		c-2.309-2.309-2.309-6.052,0-8.361C428.581,301.388,432.324,301.388,434.633,303.697z"/>
	<path style="fill:#E0E0E0;" d="M70.498,296.966c-0.665,1.012-1.112,2.124-1.35,3.271l-1.826,0.172l0,3.537l1.827,0.172
		c0.238,1.147,0.685,2.258,1.35,3.271l-1.167,1.409l2.501,2.501l1.409-1.167c1.012,0.665,2.124,1.112,3.271,1.35l0.172,1.827
		l3.537,0l0.172-1.826c1.147-0.238,2.258-0.685,3.271-1.35l1.409,1.167l2.501-2.501l-1.167-1.409
		c0.665-1.012,1.112-2.124,1.35-3.271l1.826-0.172l0-3.537l-1.826-0.172c-0.238-1.147-0.685-2.258-1.35-3.27l1.167-1.409
		l-2.501-2.501l-1.409,1.167c-1.012-0.665-2.124-1.112-3.271-1.35l-0.172-1.826l-3.537,0l-0.172,1.826
		c-1.147,0.238-2.258,0.685-3.271,1.35l-1.409-1.167l-2.501,2.501L70.498,296.966z M81.839,298.792c1.87,1.87,1.87,4.902,0,6.772
		c-1.87,1.87-4.902,1.87-6.772,0c-1.87-1.87-1.87-4.902,0-6.772C76.937,296.922,79.969,296.922,81.839,298.792z"/>
	<g>
		<path style="fill:#E0E0E0;" d="M60.838,67.812c-18.981,8.749-31.975,21.007-29.032,27.391c2.943,6.384,20.713,4.46,39.683-4.29
			c18.97-8.749,31.975-21.018,29.032-27.391C97.578,57.15,79.808,59.063,60.838,67.812z M70.199,88.106
			c-16.604,7.651-31.997,9.632-34.397,4.425c-2.399-5.206,9.111-15.619,25.704-23.271c16.593-7.651,31.986-9.643,34.397-4.437
			C98.314,70.03,86.792,80.455,70.199,88.106L70.199,88.106z"/>
		
			<ellipse transform="matrix(0.3363 -0.9417 0.9417 0.3363 -28.1501 115.7038)" style="fill:#E6E6E6;" cx="68.015" cy="77.824" rx="21.528" ry="21.528"/>
		<g style="opacity:0.2;">
			<path style="fill:#FAFAFA;enable-background:new    ;" d="M85.821,89.914c-4.389,6.486-11.962,10.069-19.761,9.348
				c-2.101-0.185-4.162-0.69-6.11-1.497C66.816,97.306,76.932,96.146,85.821,89.914z"/>
			<path style="fill:#FAFAFA;enable-background:new    ;" d="M68.434,73.607c4.586-1.767,13.88-3.844,18.048-6.812
				c0.194,0.278,0.365,0.572,0.512,0.877c-2.317,1.604-4.488,3.41-6.488,5.395c-4.613,4.208-6.92,8.093-14.581,8.39
				S63.322,75.603,68.434,73.607z"/>
			<path style="fill:#FAFAFA;enable-background:new    ;" d="M54.932,94.919c6.744-0.85,23.012-3.75,34.153-12.544
				c-0.175,0.769-0.391,1.511-0.634,2.28c-7.068,3.602-20.233,10.562-31.334,11.708C56.357,95.931,55.627,95.449,54.932,94.919z"/>
			<path style="fill:#FAFAFA;enable-background:new    ;" d="M49.793,89.24c4.362-0.613,8.679-1.514,12.922-2.698
				c8.673-2.59,20.732-8.714,26.289-13.489c0.289,1.226,0.456,2.477,0.499,3.736C82.57,81.43,65.817,91.628,51.87,91.992
				C51.099,91.137,50.404,90.216,49.793,89.24z"/>
			<path style="fill:#FAFAFA;enable-background:new    ;" d="M49.469,66.957c0.291-0.556,0.625-1.088,0.998-1.592
				c6.501-1.929,19.019-4.923,24.725-7.823c0.862,0.291,1.701,0.647,2.509,1.066C70.592,60.239,55.849,65.46,49.469,66.957z"/>
			<path style="fill:#FAFAFA;enable-background:new    ;" d="M47.797,70.41c4.935-1.602,10.042-2.612,15.215-3.008
				c3.48,0,13.785-4.047,17.427-7.149c0.289,0.191,0.564,0.403,0.823,0.634c-8.93,3.763-19.815,13.057-24.833,15.755
				c-3.097,1.688-6.349,3.075-9.712,4.141c-0.253-1.633-0.303-3.291-0.148-4.937C46.744,73.989,47.157,72.162,47.797,70.41z"/>
		</g>
		<path style="fill:#E0E0E0;enable-background:new    ;" d="M47.001,82.388c1.568-0.372,3.117-0.822,4.64-1.349
			c5.895-1.996,16.524-10.589,25.925-14.541c3.534-1.47,5.557-2.32,6.744-2.779c0.364,0.432,0.715,0.863,1.039,1.349
			c-2.694,1.574-5.487,2.971-8.363,4.182c-5.989,2.509-12.383,5.908-16.065,8.983c-2.819,2.334-9.941,5.395-13.259,6.529
			C47.385,83.987,47.164,83.194,47.001,82.388z"/>
		<path style="fill:#E0E0E0;enable-background:new    ;" d="M48.201,86.192c5.423-1.345,10.923-2.358,16.47-3.035
			c9.334-1.079,12.868-5.22,16.686-9.159c1.899-1.857,4.074-3.408,6.448-4.6c0.354,0.795,0.647,1.616,0.877,2.455
			c-4.295,3.575-9.032,6.58-14.096,8.943c-8.835,4.141-21.11,6.151-25.709,6.812C48.612,87.155,48.387,86.681,48.201,86.192z"/>
		<path style="fill:#E0E0E0;enable-background:new    ;" d="M53.071,93.273c8.093-1.042,15.961-3.398,23.295-6.974
			c6.002-2.954,10.278-5.288,13.124-6.906c0.014,0.134,0.014,0.27,0,0.405c-0.067,0.634-0.135,1.241-0.256,1.848
			c-6.744,3.602-22.337,11.034-35.961,11.789C53.179,93.422,53.125,93.341,53.071,93.273z"/>
		<path style="fill:#F0F0F0;enable-background:new    ;" d="M52.369,63.032c4.55-4.795,11.047-7.241,17.63-6.637
			c0.513,0,1.039,0.121,1.538,0.202C66.951,58.729,58.439,62.209,52.369,63.032z"/>
		<path style="fill:#E0E0E0;enable-background:new    ;" d="M58.749,97.225c5.395-1.281,19.181-4.748,25.048-7.958
			c1.088-0.616,2.214-1.161,3.372-1.632c-0.341,0.702-0.733,1.379-1.174,2.023c-4.195,1.834-12.302,5.193-16.874,5.935
			c-4.047,0.647-7.661,1.349-9.833,1.875l0,0C59.1,97.409,58.919,97.327,58.749,97.225z"/>
		<path style="fill:#E0E0E0;enable-background:new    ;" d="M76.959,60.334c0,0-7.891,4.883-11.438,5.476
			c-2.153,0.366-4.331,0.569-6.515,0.607C59.006,66.417,70.417,60.563,76.959,60.334z"/>
		<path style="fill:#E0E0E0;" d="M93.515,62.753c1.04,0.376,1.895,1.138,2.388,2.128c2.399,5.206-9.111,15.631-25.704,23.282
			s-31.997,9.632-34.397,4.426c-0.405-1.014-0.405-2.144,0-3.158l-4.063,1.868c-0.463,1.286-0.431,2.698,0.091,3.962
			c2.943,6.384,20.713,4.459,39.683-4.29c18.97-8.749,31.975-21.019,29.032-27.391c-0.618-1.219-1.673-2.161-2.954-2.637
			L93.515,62.753z"/>
	</g>
	<g>
		<circle style="fill:#E0E0E0;" cx="227.024" cy="124.437" r="5.725"/>
		<circle style="fill:#E0E0E0;" cx="301.269" cy="142.59" r="3.89"/>
		<circle style="fill:#E0E0E0;" cx="402.291" cy="221.708" r="3.89"/>
		<circle style="fill:#E0E0E0;" cx="329.004" cy="315.465" r="2.16"/>
		<circle style="fill:#E0E0E0;" cx="269.068" cy="115.726" r="2.16"/>
		<path style="fill:#E0E0E0;" d="M411.392,278.038c0,1.439-1.167,2.605-2.605,2.605c-1.439,0-2.605-1.166-2.605-2.605
			c0-1.439,1.167-2.605,2.605-2.605C410.225,275.432,411.392,276.599,411.392,278.038z"/>
		<circle style="fill:#E0E0E0;" cx="266.462" cy="321.357" r="2.605"/>
		<path style="fill:#E0E0E0;" d="M96.792,268.595c0,1.439-1.166,2.605-2.605,2.605s-2.605-1.167-2.605-2.605
			c0-1.439,1.166-2.605,2.605-2.605S96.792,267.156,96.792,268.595z"/>
		<circle style="fill:#E0E0E0;" cx="185.63" cy="329.311" r="2.605"/>
		<polygon style="fill:none;stroke:#E0E0E0;stroke-miterlimit:10;" points="227.169,125.603 407.724,277.124 269.068,321.357 
			94.187,269.164 		"/>
		<polygon style="fill:none;stroke:#E0E0E0;stroke-miterlimit:10;" points="266.462,321.707 152.059,190.896 301.435,142.59 
			407.724,277.124 		"/>
		<path style="fill:none;stroke:#E0E0E0;stroke-miterlimit:10;" d="M266.462,321.707l98.51-124.591l-203.681-57.922
			c0.876,1.397,23.272,190.471,23.272,190.471L266.462,321.707z"/>
		<path style="fill:none;stroke:#E0E0E0;stroke-miterlimit:10;" d="M132.591,212.497c-0.72,2.038,44.449,90.294,44.449,90.294
			l152.739,12.572l72.237-93.656l-100.58-79.117L132.591,212.497z"/>
		<polygon style="fill:none;stroke:#E0E0E0;stroke-miterlimit:10;" points="136.681,285.4 269.068,115.107 307.411,176.358 
			291.032,332.819 		"/>
	</g>
	<path style="fill:#E0E0E0;" d="M254.085,357.447c-1.2,1.827-2.007,3.834-2.437,5.904l-3.297,0.31l0,6.385l3.297,0.311
		c0.429,2.07,1.237,4.077,2.436,5.904l-2.106,2.543l4.515,4.515l2.543-2.106c1.827,1.2,3.834,2.007,5.904,2.436l0.31,3.297l6.385,0
		l0.311-3.297c2.07-0.43,4.077-1.237,5.904-2.437l2.543,2.106l4.515-4.515l-2.106-2.544c1.199-1.827,2.007-3.834,2.436-5.904
		l3.297-0.311l0-6.385l-3.297-0.311c-0.43-2.07-1.237-4.076-2.437-5.904l2.106-2.544l-4.515-4.515l-2.543,2.106
		c-1.828-1.2-3.835-2.007-5.904-2.437l-0.311-3.297l-6.385,0l-0.31,3.297c-2.07,0.43-4.077,1.237-5.904,2.436l-2.544-2.106
		l-4.515,4.515L254.085,357.447z M274.557,360.742c3.375,3.376,3.375,8.849,0,12.224c-3.376,3.376-8.849,3.376-12.224,0
		c-3.376-3.376-3.375-8.848,0-12.224C265.709,357.367,271.182,357.367,274.557,360.742z"/>
</g>
<g id="Background_simple" style="display:none;">
	<g style="display:inline;">
		<path style="fill:#FF725E;" d="M168.596,76.775c-24.689,2.154-48.497,6.74-69.612,13.934
			c-24.887,8.479-50.314,21.688-42.804,38.965c13.865,31.896,80.381,32.477,67.1,53.923c-15.043,24.292-4.955,52.788,62.547,60.712
			c128.21,15.051,283.197-73.014,239.667-121.404C398.394,92.779,299.69,65.338,168.596,76.775z"/>
		<path style="opacity:0.9;fill:#FFFFFF;" d="M168.596,76.775c-24.689,2.154-48.497,6.74-69.612,13.934
			c-24.887,8.479-50.314,21.688-42.804,38.965c13.865,31.896,80.381,32.477,67.1,53.923c-15.043,24.292-4.955,52.788,62.547,60.712
			c128.21,15.051,283.197-73.014,239.667-121.404C398.394,92.779,299.69,65.338,168.596,76.775z"/>
	</g>
</g>
<g id="Shadow">
	<g>
		<g>
			<path style="fill:#F5F5F5;" d="M453.421,456.268c0,3.387-93.517,6.132-208.875,6.132s-208.875-2.745-208.875-6.132
				c0-3.387,93.516-6.132,208.875-6.132S453.421,452.881,453.421,456.268z"/>
		</g>
	</g>
</g>
<g id="Planet">
	<g>
		<path style="fill:#FF725E;" d="M177.489,37.058c19.767-4.425,39.379,8.013,43.803,27.781c4.425,19.767-8.013,39.379-27.781,43.803
			c-19.767,4.425-39.379-8.013-43.803-27.781c-0.01-0.043-0.019-0.086-0.029-0.129C145.337,60.999,157.772,41.471,177.489,37.058z"
			/>
		<path style="opacity:0.5;fill:#FFFFFF;enable-background:new    ;" d="M177.489,37.058c19.767-4.425,39.379,8.013,43.803,27.781
			c4.425,19.767-8.013,39.379-27.781,43.803c-19.767,4.425-39.379-8.013-43.803-27.781c-0.01-0.043-0.019-0.086-0.029-0.129
			C145.337,60.999,157.772,41.471,177.489,37.058z"/>
		<path style="opacity:0.1;enable-background:new    ;" d="M218.355,56.711c-0.669,1.07-1.248-0.401-3.61,0.802
			c-2.307,1.028-4.786,1.617-7.309,1.738l-0.535,1.025c-0.49,1.07-4.991-0.668-4.991-2.407c0-1.738,0,0,3.476-1.025
			c3.476-1.025,0,0,0.312-2.496c0.312-2.496-0.98-1.382-2.407-3.12c-0.772-1.021-2.225-1.223-3.246-0.451
			c-0.003,0.002-0.005,0.004-0.007,0.006c-1.07,0.624-0.936,1.827-1.961,2.095c-1.025,0.267-0.579,0.891-1.025,1.203
			c-0.446,0.312-1.159,0-1.738,0c-0.579,0-1.337-0.49-1.694,0c-0.357,0.49-0.267,0.624-0.356,0.891
			c-0.385,0.044-0.774,0.044-1.159,0c-0.268,0-0.579-0.357-0.579-0.579c-0.03-0.147-0.03-0.299,0-0.446
			c0.187-0.439,0.442-0.845,0.758-1.203c0.311-0.381,0.83-0.524,1.292-0.356c0.099-0.422-0.038-0.865-0.356-1.159h1.426
			c0.357,0,1.382-2.941,1.471-3.387c0.013-0.376-0.173-0.732-0.49-0.936c-0.401-0.223-0.891,0-1.382,0s-1.515-1.382-2.451-1.248
			c-0.238,0.068-0.464,0.173-0.668,0.312l-1.114,0.802c-0.188,0.081-0.355,0.203-0.49,0.356c-0.021,0.237-0.021,0.476,0,0.713
			c-0.04,0.212-0.195,0.383-0.401,0.446c0.847,0-0.312,0.847-0.49,0.891c-0.892,0.312-2.63-0.312-3.655-0.401
			c-0.171,0.069-0.363,0.069-0.535,0c-0.024-0.133-0.024-0.268,0-0.401c-0.267-0.624-0.49-1.292-0.713-1.916
			c-0.223-0.624-0.713-2.897,0.401-3.521c1.114-0.624,2.362,0,2.718-1.159c0.041-0.136,0.118-0.26,0.223-0.356
			c0.312-0.267,0.668,0.356,0.624,0.802c-0.134,0.707-0.134,1.432,0,2.139c0.267,0.713,1.203,1.159,1.738,0.713
			c-0.356-0.535,0.357-1.159,0.98-1.159c0.624,0,1.337,0.312,1.916,0c0.506-0.323,0.756-0.929,0.624-1.515
			c-0.131-0.584-0.39-1.132-0.758-1.604c-0.76,0.305-1.624,0.186-2.273-0.312c-0.535-0.401-1.069-1.114-1.693-0.847
			c0.266-0.29,0.504-0.603,0.713-0.936c-0.404-0.205-0.821-0.384-1.248-0.535c-0.401-0.223-0.802-0.668-0.579-1.114
			c0.068-0.134,0.178-0.243,0.312-0.312l0,0c2.349,0.073,4.682,0.416,6.952,1.025c-0.713,1.337-0.891,3.788,2.451,4.991
			c4.858,1.738,0,0,4.456-2.406l0,0c3.513,1.671,6.734,3.898,9.537,6.596l-1.961,1.426c-2.05,1.382,0.668,2.095,0.668,2.095h2.808
			c1.515,0,1.382,0,1.471-0.312C215.572,52.161,217.097,54.36,218.355,56.711z"/>
		<path style="opacity:0.2;enable-background:new    ;" d="M163.451,59.073c0.022,0.178,0.022,0.357,0,0.535
			c-0.267,0.936-1.649,0.624-2.585,0.891c-1.961,0.624-1.47,4.056-3.387,4.947c-0.936,0.401-2.05,0-2.986,0.401
			c-0.627,0.448-1.196,0.972-1.693,1.56c-1.007,0.898-2.368,1.292-3.699,1.07c0.768-6.913,3.541-13.45,7.977-18.807
			c0.354-0.064,0.716-0.064,1.07,0c0.7,0.247,1.2,0.868,1.292,1.604c0.132,0.737,0.132,1.491,0,2.228l1.426-1.07
			c0.636,0.422,0.81,1.279,0.389,1.915c-0.01,0.016-0.021,0.031-0.032,0.046c-0.446,0.624-1.337,0.713-2.139,0.847
			c-0.802,0.134-1.694,0.579-1.738,1.337c-0.045,0.757,0.446,1.203,0.847,1.693c0.401,0.49,0.802,1.248,0.446,1.783l3.12-1.827
			c0.18-0.105,0.375-0.181,0.579-0.223C162.918,58.043,163.387,58.494,163.451,59.073z"/>
		<path style="opacity:0.2;enable-background:new    ;" d="M165.723,54.215l-0.267,0.847c0.791,0.29,1.66,0.29,2.451,0
			c0.257-0.111,0.485-0.279,0.669-0.49c0.313-0.413,0.499-0.909,0.535-1.426c0.089-0.665,0.089-1.34,0-2.005
			c-0.082-0.674-0.479-1.27-1.069-1.604c-0.616-0.336-1.388-0.118-1.738,0.49c-0.267,0.579,0,1.292-0.312,1.872
			c-0.312,0.579-0.891,0.713-1.07,1.203c-0.124,0.476,0.161,0.963,0.638,1.087C165.613,54.203,165.668,54.212,165.723,54.215z"/>
		<path style="opacity:0.2;enable-background:new    ;" d="M181.277,39.152c-1.114,0.936-2.897-0.312-4.234,0.312
			c-1.337,0.624-1.069,1.292-1.827,1.426c-0.416,0.022-0.832,0.022-1.248,0c-0.446,0-0.891,0.312-0.847,0.713
			c0.054,0.19,0.163,0.36,0.312,0.49l1.114,1.025c0.132,0.138,0.251,0.287,0.356,0.446c0.168,0.489-0.092,1.021-0.58,1.19
			c-0.014,0.005-0.029,0.01-0.044,0.014c-0.478,0.153-0.992,0.153-1.471,0c-0.307-0.026-0.608-0.102-0.891-0.223
			c-0.267,0-0.446-0.579-0.267-0.847l0.312-0.312c0.289-0.275,0.423-0.676,0.356-1.07c-0.046-0.433-0.412-0.76-0.847-0.758
			l-0.579,0.267l-1.916,1.159c-0.891,0.49-2.006,1.025-2.897,0.579c-0.171-0.013-0.323-0.114-0.401-0.267c0,0,0-0.357,0-0.579
			c0.067-0.233,0.067-0.48,0-0.713c3.602-2.355,7.605-4.032,11.81-4.947c1.366-0.313,2.75-0.536,4.145-0.668l0,0l0,0
			C181.901,37.414,181.99,38.573,181.277,39.152z"/>
		<path style="opacity:0.2;enable-background:new    ;" d="M173.745,48.467c-0.391-0.148-0.829,0.049-0.977,0.44
			c-0.028,0.073-0.044,0.15-0.048,0.228l0.446,0.713v-0.401c0,0.401,0.49,0.802,0.847,0.49c0.318-0.355,0.318-0.892,0-1.248
			L173.745,48.467z"/>
		<path style="opacity:0.2;enable-background:new    ;" d="M189.923,58.984c-0.579-0.624-1.604-0.401-2.496-0.312
			c-0.891,0.089-2.006-0.356-1.961-1.203c0.044-0.847,0.936-1.07,1.693-1.114c0.075-1.228-0.86-2.285-2.089-2.36
			c-0.076-0.005-0.153-0.005-0.229-0.002c0.313,0.71,0.313,1.518,0,2.228c-0.281,0.683-1.062,1.009-1.745,0.729
			c-0.043-0.018-0.086-0.038-0.127-0.06c-1.114-0.847,0.267-3.075-0.802-3.966c-0.578-0.273-1.249-0.273-1.827,0
			c-2.139,0.49-4.456,1.248-5.303,3.298c0,0.223-1.783,0-2.317,0c-0.535,0-0.847,1.649-0.936,2.228c-0.134,0.313-0.134,0.667,0,0.98
			c0,0.356,0.579,0.713,0.401,1.07c-0.178,0.356-0.446,0.267-0.624,0.49c-0.178,0.223,1.159,2.228,1.604,2.451
			c0.446,0.223,1.693,0,2.54,0.401c0.628,0.459,0.925,1.246,0.758,2.005h-0.802c0.426,1.095,0.06,2.34-0.891,3.03
			c1.153-0.229,2.343,0.14,3.164,0.981c0,0,0.401,0.446,0.668,0.446c0.181-0.027,0.351-0.104,0.49-0.223
			c0.896-0.527,1.539-1.396,1.782-2.407h0.892c0-0.49,0-1.293-0.535-1.114c-0.535,0.178,0,0-0.312,0.267
			c-0.312,0.267-1.159,0-1.203-0.758c0.032-0.588,0.251-1.15,0.624-1.604c0.223-0.267,0.401-0.579,0.624-0.891
			c0.409-0.734,1.076-1.29,1.872-1.56c1.382-0.312,2.496,1.159,3.164,2.407c0.267,0.535,0.401,1.382,0,1.471
			c-0.401,0.089-0.624-0.223-0.847,0c-0.223,0.223,0,0.713-0.446,0.936c-0.446,0.223-0.49,0-0.713,0c-0.223,0-0.49,1.025,0,1.56
			c0.49,0.535,0.668-0.312,1.025-0.535c0.357-0.223,1.693,0.356,2.496,0c0.802-0.357,0.668-0.668,0.98-0.98
			c0.312-0.312,2.406-1.025,2.54-2.184c0.134-1.159-0.446-1.248-0.579-1.916C190.324,62.104,190.769,59.831,189.923,58.984z"/>
		<path style="opacity:0.1;enable-background:new    ;" d="M163.629,67.674c0.366,0.093,0.749,0.093,1.114,0
			c0.535,0,2.273,0.49,1.56,1.471c-0.713,0.981-1.827-1.114-2.763-0.579c0.535,0,0.49,1.025,0.223,1.56
			c-0.267,0.535-0.579,1.203-0.223,1.693c0.713-0.312,1.426,0.356,2.228,0.535c0.802,0.178,2.006-0.579,3.03-0.401
			c0-0.356,0-0.758,0-1.159c0-0.401,0.758-0.312,1.114-0.579c0.356-0.268,0.802-0.579,1.159-0.312c0.357,0.267,0-0.891,0-1.293
			c-0.346-0.308-0.66-0.652-0.936-1.025c-0.223-0.401,0-1.025,0.267-1.159c0.267-0.134,0.847,0,1.203,0
			c0.292-0.179,0.463-0.504,0.446-0.847c-0.021-0.341-0.021-0.684,0-1.025h-0.847c0.086,0.368-0.128,0.739-0.49,0.847
			c-0.351,0.089-0.718,0.089-1.069,0c0.135-1.042-0.003-2.102-0.401-3.075h-1.114c0,0.446-0.49,0.713-0.936,0.713
			c-0.415-0.093-0.799-0.293-1.114-0.579c-0.223-0.223-0.49-0.446-0.802-0.356c-0.312,0.089-0.579,0.579-0.535,1.025
			c0,1.604-0.668,1.203-1.337,2.095C162.814,65.969,162.912,67.048,163.629,67.674z"/>
		<path style="opacity:0.1;enable-background:new    ;" d="M164.386,83.094c-0.892,0.151-1.809,0.026-2.629-0.356
			c-0.357-0.223-0.802-0.49-1.203-0.267c-0.355,0.23-0.532,0.655-0.446,1.07c0,0.356,0.401,0.713,0.535,1.114
			c0.51,1.04,0.51,2.258,0,3.298c-1.753,0.34-3.568-0.081-4.991-1.159c-0.147-0.152-0.281-0.316-0.401-0.49
			c-0.312-0.713,0.668-1.515,0.49-2.228c-0.178-0.713-1.56-1.248-1.114-1.916c0.446-0.669,0.847-0.268,1.248-0.446
			c0.463-0.23,0.651-0.792,0.421-1.255c-0.006-0.013-0.013-0.025-0.02-0.038c-1.067-0.503-2.342-0.141-2.986,0.847
			c-0.758,0-0.98-1.114-1.025-1.827c-0.045-0.713-0.535-1.783-1.293-1.515c-0.269,0.122-0.454,0.375-0.49,0.669
			c-0.579,1.693,0.802,3.298,2.05,4.456c0.333,0.248,0.556,0.616,0.624,1.025c0,0.446-0.267,0.936-0.713,0.847l1.56,1.738
			c0.128,0.168,0.205,0.369,0.223,0.579c0.034,0.132,0.034,0.27,0,0.401c-0.431,0.573-0.833,1.168-1.203,1.783
			c-1.482-2.806-2.563-5.806-3.209-8.913c-0.61-2.825-0.894-5.711-0.847-8.601c0.245-0.376,0.583-0.683,0.98-0.891
			c0.49,0,1.069,0,1.515-0.267c1.114-0.312,1.604-1.738,2.719-2.184c0.899-0.307,1.895-0.023,2.496,0.713
			c0.575,0.781,0.771,1.778,0.535,2.718c-0.278,0.708-0.37,1.475-0.267,2.228c0.446,1.292,2.05,1.426,3.387,1.382
			c-0.144,0.822,0.274,1.64,1.025,2.006c0.703,0.227,1.456-0.159,1.683-0.862c0.027-0.082,0.045-0.167,0.055-0.252
			c0.847,0,1.916,0.535,1.916,1.426c-0.158,0.548-0.506,1.022-0.98,1.337c-0.356,0.446-0.668,1.114-0.312,1.56
			c0.357,0.446,1.56,0,1.872,0.758C165.902,82.337,164.966,83.005,164.386,83.094z"/>
		<path style="opacity:0.2;enable-background:new    ;" d="M193.443,108.675h-1.159c-0.24-0.712-0.159-1.492,0.223-2.139
			c0.49-0.713,1.382-1.203,1.783-2.005c0.184-0.543,0.423-1.066,0.713-1.56c0.758-1.203,2.54-1.114,3.966-0.891
			c-0.358-0.674-0.102-1.51,0.572-1.868c0.002-0.001,0.005-0.002,0.007-0.004c0.71-0.273,1.469-0.395,2.228-0.356
			c0.739,0.076,1.478-0.149,2.05-0.624c0-0.223,0.357-0.535,0.624-0.624h0.624l4.011,0.49c0-0.98-1.07-1.515-2.006-1.604
			c-0.936-0.089-2.05,0-2.496-0.98c-1.064,1.716-3.149,2.502-5.081,1.916c-0.114,0.05-0.243,0.05-0.357,0
			c-0.401-0.535,0.98-1.203,0.535-1.649l-1.916-0.758c-0.267,0-0.579-0.223-0.713-0.49c-0.134-0.268,0-0.981,0.401-1.471
			c0.401-0.49-0.223-1.961-0.49-2.941c-0.267-0.98,0-2.407,1.114-2.407c0.223,0,0.49,0,0.669,0s0.446-0.713,0.535-1.114
			c0.267-1.203,1.471-1.916,2.496-2.629c0.303-0.244,0.587-0.512,0.847-0.802c0.96-0.911,1.534-2.155,1.604-3.476
			c-0.872,0.531-1.617,1.246-2.184,2.095c-0.713,0.802-1.783,1.471-2.718,0.98c0.175,1.292-0.592,2.526-1.827,2.941
			c-1.268,0.288-2.556-0.394-3.031-1.604c-0.239-0.349-0.239-0.809,0-1.159c0.363-0.113,0.751-0.113,1.114,0
			c1.185,0.078,2.317-0.505,2.941-1.515c-1.384,0.023-2.688-0.645-3.476-1.783c-0.704-1.225-0.333-2.787,0.847-3.565h-0.891
			c0.267-1.125,1.178-1.984,2.317-2.184c0.579,0,1.114,0,1.649,0c0.554-0.098,0.973-0.554,1.025-1.114
			c-0.63-0.403-0.975-1.129-0.891-1.872c0.146-0.618,0.576-1.13,1.159-1.382c-0.33-0.015-0.607-0.255-0.668-0.579
			c0.004-0.46,0.314-0.86,0.758-0.98c0.469-0.112,0.957-0.112,1.426,0c1.209,0.085,2.34,0.626,3.164,1.515
			c0.411,0.78,0.581,1.664,0.49,2.54c0,1.159,0,2.317,0,3.476c-0.15,1.142,0.227,2.29,1.025,3.12
			c0.544,0.344,1.186,0.501,1.827,0.446c1.87,0.013,3.723-0.367,5.437-1.114c0.914-0.321,1.686-0.951,2.184-1.783
			c0.396-0.848,0.55-1.789,0.446-2.718c0-1.872,0.356-4.858-1.56-6.017c-0.557-0.357-1.27-0.357-1.827,0
			c-0.356,0.267-0.624,0.669-1.025,0.802c-0.401,0.134-1.293-0.223-1.827,0c-0.535,0.223-0.49,0.579-0.758,0.936
			c-0.181,0.385-0.62,0.576-1.025,0.446c-0.401-0.223,0-0.891,0-1.382c0-0.49-0.758-1.916-0.579-2.897
			c0.178-0.98,1.114-1.515,1.738-2.228c0.59-0.655,1.085-1.39,1.47-2.184c0.579-0.267,1.248,0,1.783,0.535
			c0.503,0.435,1.198,0.57,1.827,0.356c0.49,0.624-0.267,1.782,0.446,2.273h0.312c0.092,0.244,0.092,0.514,0,0.758
			c0,0.891,0.446,1.961,1.337,2.228c0,0,0.312,0,0.357,0c0.044,0,0,0,0-0.267c0.203-1.17-0.07-2.374-0.758-3.342
			c-0.122-0.214-0.227-0.437-0.312-0.668c-0.061-0.219-0.061-0.45,0-0.669c0.056-0.263,0.146-0.518,0.267-0.758
			c-0.025-0.148-0.025-0.298,0-0.446c0.312-0.267,0.758,0,1.114,0c0.35-0.067,0.684-0.203,0.98-0.401
			c0.453-0.204,0.973-0.204,1.426,0c0.312,1.07,0.624,2.184,0.891,3.298C225.117,84.42,212.992,103.979,193.443,108.675z"/>
		<path style="opacity:0.2;enable-background:new    ;" d="M188.006,97.132c-0.155,0.735-0.155,1.493,0,2.228
			c-0.855,0.519-1.88,0.68-2.852,0.446c-0.713,1.908,0.134,4.046,1.961,4.947c-0.598,0.489-1.404,0.64-2.139,0.401
			c-0.691-0.305-1.324-0.727-1.872-1.248l-4.457-3.431c-0.713,0.267-0.267,1.382,0.446,1.738c0.713,0.357,1.56,0.401,1.916,1.07
			c0.356,0.668,0,2.005,0.401,2.718c0.365,0.258,0.752,0.482,1.159,0.668c0.668,0.51,0.966,1.37,0.758,2.184v0.579
			c-5.615-0.269-11.084-1.873-15.954-4.679l0,0c0.022-0.282,0.022-0.565,0-0.847c0-1.337,1.248-2.228,2.273-3.03
			c1.145-0.678,1.88-1.88,1.961-3.209c-1.738,0.446-2.407,2.629-3.877,3.565c-0.389,0.246-0.809,0.441-1.248,0.579
			c-0.74,0.377-1.441,0.825-2.095,1.337c-3.614-2.448-6.742-5.546-9.225-9.136c0.721-0.959,1.07-2.146,0.98-3.343
			c0.401-0.49,1.025,0.401,1.604,0.446s1.025-0.847,1.694-0.891c0.668-0.045,0.936,1.916,1.961,2.273
			c1.025,0.357,1.337-0.579,2.05-0.668c0.713-0.089,1.56,0.579,2.407,0.312c2.451-0.758,0.624-3.431,0.98-4.947
			c0.223-0.713,1.114-0.847,1.693-1.203c0.856-0.583,1.372-1.549,1.382-2.585c-0.025-0.998-0.19-1.989-0.49-2.941
			c-0.384-0.917-0.301-1.963,0.223-2.808c0.936-1.025,2.763-0.357,4.055-1.025c1.292-0.669,1.292-1.916,2.228-2.63
			c0.847-0.591,1.865-0.889,2.897-0.847c0.266-0.044,0.536-0.044,0.802,0c0.49,0.267,0.401,1.025,0.312,1.515
			c-0.319,1.526-0.781,3.018-1.382,4.456c1.159,0.535,2.763,1.025,3.61,0c0.153-0.281,0.349-0.536,0.579-0.758
			c0.475-0.246,1.04-0.246,1.515,0c0.401,0.891,0.847,1.738,1.292,2.54c-2.295-0.144-4.413,1.232-5.214,3.387
			c-0.053,0.319-0.174,0.624-0.357,0.891c-0.313,0.359-0.772,0.557-1.248,0.535c-1.47-0.196-2.891-0.664-4.189-1.382
			c-1.426-0.446-3.431,0-3.788,1.248c1.159-0.401,2.139,0.802,3.253,1.248c0.648,0.212,1.324,0.332,2.005,0.356
			c1.662,0.147,3.289,0.568,4.813,1.248c1.144-0.46,1.923-1.533,2.006-2.763c1.089,1.535,2.842,2.461,4.724,2.496
			c-0.439,1.453-0.439,3.003,0,4.457c0.535,1.069,1.604,2.05,1.56,3.253C188.555,96.075,188.132,96.549,188.006,97.132z"/>
	</g>
</g>
<g id="Rocket">
	<g>
		<path style="fill:#FF725E;" d="M197.514,440.505c-3.214-4.035-8.704-6.12-13.786-5.238c0.106-5.839-2.386-11.677-6.677-15.638
			s-10.308-5.981-16.12-5.41c-0.198-9.358-9.372-17.452-18.658-16.679v-85.328H105h-3.625h-8.996v85.328
			c-9.286-0.773-18.46,7.321-18.658,16.679c-5.812-0.571-11.83,1.449-16.12,5.41s-6.783,9.799-6.677,15.638
			c-5.082-0.882-10.572,1.203-13.786,5.238c-3.214,4.035-4.02,9.851-2.025,14.608h66.262H105h94.538
			C201.534,450.357,200.728,444.54,197.514,440.505z"/>
		<path style="opacity:0.8;fill:#FFFFFF;" d="M197.514,440.505c-3.214-4.035-8.704-6.12-13.786-5.238
			c0.106-5.839-2.386-11.677-6.677-15.638s-10.308-5.981-16.12-5.41c-0.198-9.358-9.372-17.452-18.658-16.679v-85.328H105h-3.625
			h-8.996v85.328c-9.286-0.773-18.46,7.321-18.658,16.679c-5.812-0.571-11.83,1.449-16.12,5.41s-6.783,9.799-6.677,15.638
			c-5.082-0.882-10.572,1.203-13.786,5.238c-3.214,4.035-4.02,9.851-2.025,14.608h66.262H105h94.538
			C201.534,450.357,200.728,444.54,197.514,440.505z"/>
		<g id="freepik--Rocket--inject-2">
			<path style="fill:#FF725E;" d="M72.037,177.813c0,0-24.257,12.232-31.558,42.865c-5.322,22.342-3.71,64.504,5.881,67.887
				s10.66-22.725,10.74-32.005c0.08-9.28,8.777-20.61,16.525-21.289C73.625,235.272,75.141,186.279,72.037,177.813z"/>
			<path style="opacity:0.2;enable-background:new    ;" d="M75.667,183.885c-5.737,2.186-10.453,6.383-14.275,11.075
				c-4.069,5.164-7.417,10.857-9.95,16.924c-2.81,6.481-4.858,13.266-6.104,20.219c-1.165,7.325-1.733,14.733-1.7,22.15
				c-0.128,9.072-0.351,18.52,3.192,27.074c0.136,0.343,0.702,0.192,0.559-0.152c-3.064-7.453-3.248-15.591-3.192-23.531
				c0.064-7.493,0.176-15.017,1.237-22.446c1.899-13.198,6.711-26.547,14.538-37.415c4.062-5.633,9.272-10.828,15.863-13.341
				c0.351-0.136,0.2-0.694-0.152-0.559H75.667z"/>
			<path style="fill:#FF725E;" d="M155.141,177.813c0,0,24.257,12.232,31.558,42.865c5.322,22.342,3.71,64.504-5.881,67.887
				c-9.591,3.383-10.66-22.725-10.74-32.005c-0.08-9.28-8.777-20.61-16.525-21.289C153.553,235.272,152.037,186.279,155.141,177.813
				z"/>
			<path style="opacity:0.2;enable-background:new    ;" d="M151.359,184.436c5.769,2.202,10.485,6.479,14.283,11.259
				c3.971,5.125,7.234,10.761,9.703,16.757c2.766,6.449,4.777,13.196,5.992,20.108c1.269,7.277,1.524,14.674,1.596,22.047
				c0.12,8.913,0.311,18.161-3.144,26.563c-0.136,0.343,0.423,0.495,0.559,0.152c3.104-7.548,3.264-15.815,3.192-23.858
				c-0.064-7.588-0.199-15.209-1.301-22.733c-1.064-7.164-2.982-14.174-5.713-20.882c-2.374-6.06-5.514-11.79-9.344-17.052
				c-4.046-5.482-9.208-10.445-15.671-12.911c-0.351-0.136-0.503,0.423-0.152,0.559V184.436z"/>
			<path style="fill:#FF725E;" d="M146.802,270.907H79.777c0,0-12.272-47.157-7.461-100.036
				c1.298-14.012,4.855-27.722,10.533-40.598c0.08-0.2,0.168-0.399,0.255-0.59c1.404-3.192,2.881-6.2,4.397-9.064
				c5.954-11.27,13.378-21.7,22.079-31.015c1.932-2.203,5.285-2.423,7.488-0.491c0.174,0.153,0.338,0.317,0.491,0.491
				c8.978,9.614,16.597,20.412,22.645,32.093c1.516,2.928,2.992,6.016,4.389,9.256l0.247,0.575
				c5.355,12.516,8.725,25.791,9.99,39.346C159.633,223.782,146.802,270.907,146.802,270.907z"/>
			<g style="opacity:0.5;">
				<path style="fill:#FFFFFF;" d="M146.802,270.907H79.777c0,0-12.272-47.157-7.461-100.036
					c1.298-14.012,4.855-27.722,10.533-40.598c0.08-0.2,0.168-0.399,0.255-0.59c1.404-3.192,2.881-6.2,4.397-9.064
					c5.954-11.27,13.378-21.7,22.079-31.015c1.932-2.203,5.285-2.423,7.488-0.491c0.174,0.153,0.338,0.317,0.491,0.491
					c8.978,9.614,16.597,20.412,22.645,32.093c1.516,2.928,2.992,6.016,4.389,9.256l0.247,0.575
					c5.355,12.516,8.725,25.791,9.99,39.346C159.633,223.782,146.802,270.907,146.802,270.907z"/>
			</g>
			<rect x="89.128" y="264.189" style="fill:#FF725E;" width="50.261" height="0.766"/>
			<path style="fill:#2E353A;" d="M148.326,288.861H80.575c-4.827-6.95,0.279-17.953,0.279-17.953h66.1
				C146.954,270.907,152.037,279.884,148.326,288.861z"/>
			<path style="fill:#2E353A;" d="M131.211,295.164h-33.88c-2.394-3.479,0.144-8.977,0.144-8.977h33.05
				C130.525,286.188,133.062,290.672,131.211,295.164z"/>
			<path style="fill:#FF725E;" d="M131.227,295.164H97.443c-6.838,3.63-23.85,12.296-21.472,26.978h77.598
				C155.947,307.46,138.065,298.787,131.227,295.164z"/>
			<rect x="73.058" y="319.038" style="fill:#2E353A;" width="82.849" height="6.391"/>
			<path style="fill:#FF725E;" d="M140.204,121.695c-6.112,4.373-15.464,9.272-26.635,9.272
				c-9.687-0.055-18.998-3.759-26.076-10.373c0.638-1.208,1.282-2.383,1.931-3.527l0.311-0.535
				c5.533-9.731,12.19-18.778,19.836-26.954c1.932-2.203,5.285-2.423,7.488-0.491c0.174,0.153,0.338,0.317,0.491,0.491
				c7.669,8.194,14.344,17.266,19.884,27.026l0.311,0.551C138.581,118.629,139.4,120.142,140.204,121.695z"/>
			<path style="opacity:0.2;enable-background:new    ;" d="M137.754,117.179c-1.962,1.408-4.041,2.644-6.216,3.694
				c-7.663,3.702-16.285,4.939-24.68,3.543c-6.293-1.085-12.255-3.59-17.435-7.325l0.311-0.535c2.104,1.526,4.348,2.849,6.703,3.95
				c7.651,3.606,16.241,4.723,24.56,3.192c5.932-1.124,11.545-3.535,16.445-7.062L137.754,117.179z"/>
			<path style="fill:#FF725E;" d="M145.693,179.313c-3.072-31.023-5.474-43.439-5.753-44.803c1.157-0.63,2.242-1.269,3.192-1.891
				c0.583-0.359,1.141-0.726,1.676-1.093l-0.247-0.575c-0.566,0.383-1.149,0.798-1.755,1.149c-6.383,4.03-16.637,8.841-28.989,8.841
				c-9.735,0.006-19.236-2.98-27.217-8.554c-1.317-0.91-2.49-1.827-3.535-2.705c-0.088,0.191-0.176,0.391-0.255,0.59
				c1.013,0.846,2.154,1.723,3.415,2.609c0.798,0.559,1.7,1.141,2.649,1.715c-0.343,1.724-2.713,14.243-5.729,44.684
				c-2.394,23.778-0.207,47.437,2.011,63.1c1.317,9.613,3.133,19.15,5.442,28.574c0.033,0.127,0.148,0.216,0.279,0.215h0.072
				c0.152-0.043,0.243-0.197,0.207-0.351c-2.303-9.405-4.114-18.924-5.426-28.518c-2.218-15.623-4.365-39.226-2.011-62.948
				c2.92-29.475,5.234-42.122,5.681-44.46c7.399,4.39,15.845,6.706,24.449,6.703c8.937-0.113,17.708-2.432,25.534-6.751
				c0.399,2.027,2.737,14.602,5.705,44.564c2.354,23.722,0.207,47.325-2.011,62.948c-1.311,9.594-3.122,19.113-5.426,28.518
				c-0.036,0.154,0.056,0.308,0.208,0.351h0.072c0.131,0,0.246-0.088,0.279-0.216c2.308-9.424,4.125-18.961,5.442-28.574
				C145.901,226.75,148.055,203.092,145.693,179.313z"/>
			<path style="fill:#FF725E;" d="M113.848,212.244c-12.264,0.004-22.21-9.934-22.214-22.198
				c-0.004-12.264,9.934-22.21,22.198-22.214c12.264-0.004,22.21,9.934,22.214,22.198c0,0.005,0,0.011,0,0.016
				C136.033,202.3,126.102,212.231,113.848,212.244z M113.848,168.422c-11.943,0-21.624,9.681-21.624,21.624
				s9.681,21.624,21.624,21.624c11.942,0,21.624-9.681,21.624-21.624l0,0C135.459,178.109,125.785,168.435,113.848,168.422z"/>
			<path style="fill:#FF725E;" d="M130.66,190.038c0,9.285-7.527,16.812-16.812,16.812l0,0h-0.391
				c-2.845-0.057-5.628-0.843-8.083-2.282c-1.898-1.11-3.562-2.579-4.899-4.325c-2.24-2.927-3.449-6.512-3.439-10.197
				c0.001-0.653,0.039-1.306,0.112-1.955c0.916-7.728,7.009-13.822,14.738-14.738c0.652-0.074,1.307-0.111,1.963-0.112
				c9.125,0.01,16.579,7.291,16.804,16.413C130.66,189.782,130.66,189.91,130.66,190.038z"/>
			<path style="opacity:0.1;fill:#FFFFFF;enable-background:new    ;" d="M124.038,176.704l-23.563,23.563
				c-2.24-2.927-3.449-6.512-3.439-10.198c0.001-0.653,0.039-1.306,0.112-1.955l14.738-14.738c0.652-0.073,1.307-0.111,1.963-0.112
				C117.53,173.261,121.111,174.469,124.038,176.704z"/>
			<path style="opacity:0.1;fill:#FFFFFF;enable-background:new    ;" d="M130.652,189.646l-17.195,17.195
				c-2.845-0.057-5.628-0.843-8.083-2.282l22.988-22.98C129.805,184.027,130.594,186.806,130.652,189.646z"/>
		</g>
	</g>
</g>
<g id="Server">
	<g>
		<rect x="68.506" y="362.685" style="fill:#FF725E;" width="96.587" height="92.64"/>
		<rect x="68.506" y="362.685" style="opacity:0.4;fill:#FFFFFF;enable-background:new    ;" width="96.587" height="92.64"/>
		<rect x="99.25" y="362.685" style="opacity:0.4;fill:#FFFFFF;enable-background:new    ;" width="65.834" height="92.64"/>
		<rect x="102.541" y="367.421" style="fill:#FF725E;" width="59.253" height="11.469"/>
		<rect x="102.541" y="381.764" style="fill:#FF725E;" width="59.253" height="11.469"/>
		<rect x="102.541" y="396.099" style="fill:#FF725E;" width="59.253" height="11.469"/>
		<rect x="102.541" y="410.442" style="fill:#FF725E;" width="59.253" height="11.469"/>
		<rect x="102.541" y="424.785" style="fill:#FF725E;" width="59.253" height="11.469"/>
		<rect x="102.541" y="439.128" style="fill:#FF725E;" width="59.253" height="11.469"/>
		<rect x="71.956" y="367.421" style="fill:#FF725E;" width="23.852" height="11.469"/>
		<rect x="71.956" y="381.764" style="fill:#FF725E;" width="23.852" height="11.469"/>
		<rect x="71.956" y="396.099" style="fill:#FF725E;" width="23.852" height="11.469"/>
		<rect x="71.956" y="410.442" style="fill:#FF725E;" width="23.852" height="11.469"/>
		<rect x="71.956" y="424.785" style="fill:#FF725E;" width="23.852" height="11.469"/>
		<rect x="71.956" y="439.128" style="fill:#FF725E;" width="23.852" height="11.469"/>
		<rect x="157.509" y="368.911" style="opacity:0.3;fill:#FFFFFF;enable-background:new    ;" width="1.384" height="8.489"/>
		<rect x="154.848" y="368.911" style="opacity:0.3;fill:#FFFFFF;enable-background:new    ;" width="1.384" height="8.489"/>
		<rect x="152.187" y="368.911" style="opacity:0.3;fill:#FFFFFF;enable-background:new    ;" width="1.384" height="8.489"/>
		<rect x="149.526" y="368.911" style="opacity:0.3;fill:#FFFFFF;enable-background:new    ;" width="1.384" height="8.489"/>
		<rect x="146.865" y="368.911" style="opacity:0.3;fill:#FFFFFF;enable-background:new    ;" width="1.384" height="8.489"/>
		<rect x="157.509" y="383.255" style="opacity:0.3;fill:#FFFFFF;enable-background:new    ;" width="1.384" height="8.48"/>
		<rect x="154.848" y="383.255" style="opacity:0.3;fill:#FFFFFF;enable-background:new    ;" width="1.384" height="8.48"/>
		<rect x="152.187" y="383.255" style="opacity:0.3;fill:#FFFFFF;enable-background:new    ;" width="1.384" height="8.48"/>
		<rect x="149.526" y="383.255" style="opacity:0.3;fill:#FFFFFF;enable-background:new    ;" width="1.384" height="8.48"/>
		<rect x="146.865" y="383.255" style="opacity:0.3;fill:#FFFFFF;enable-background:new    ;" width="1.384" height="8.48"/>
		<rect x="157.509" y="397.598" style="opacity:0.3;fill:#FFFFFF;enable-background:new    ;" width="1.384" height="8.48"/>
		<rect x="154.848" y="397.598" style="opacity:0.3;fill:#FFFFFF;enable-background:new    ;" width="1.384" height="8.48"/>
		<rect x="152.187" y="397.598" style="opacity:0.3;fill:#FFFFFF;enable-background:new    ;" width="1.384" height="8.48"/>
		<rect x="149.526" y="397.598" style="opacity:0.3;fill:#FFFFFF;enable-background:new    ;" width="1.384" height="8.48"/>
		<rect x="146.865" y="397.598" style="opacity:0.3;fill:#FFFFFF;enable-background:new    ;" width="1.384" height="8.48"/>
		<rect x="157.509" y="411.941" style="opacity:0.3;fill:#FFFFFF;enable-background:new    ;" width="1.384" height="8.489"/>
		<rect x="154.848" y="411.941" style="opacity:0.3;fill:#FFFFFF;enable-background:new    ;" width="1.384" height="8.489"/>
		<rect x="152.187" y="411.941" style="opacity:0.3;fill:#FFFFFF;enable-background:new    ;" width="1.384" height="8.489"/>
		<rect x="149.526" y="411.941" style="opacity:0.3;fill:#FFFFFF;enable-background:new    ;" width="1.384" height="8.489"/>
		<rect x="146.865" y="411.941" style="opacity:0.3;fill:#FFFFFF;enable-background:new    ;" width="1.384" height="8.489"/>
		<rect x="157.509" y="426.284" style="opacity:0.3;fill:#FFFFFF;enable-background:new    ;" width="1.384" height="8.48"/>
		<rect x="154.848" y="426.284" style="opacity:0.3;fill:#FFFFFF;enable-background:new    ;" width="1.384" height="8.48"/>
		<rect x="152.187" y="426.284" style="opacity:0.3;fill:#FFFFFF;enable-background:new    ;" width="1.384" height="8.48"/>
		<rect x="149.526" y="426.284" style="opacity:0.3;fill:#FFFFFF;enable-background:new    ;" width="1.384" height="8.48"/>
		<rect x="146.865" y="426.284" style="opacity:0.3;fill:#FFFFFF;enable-background:new    ;" width="1.384" height="8.48"/>
		<rect x="157.509" y="440.618" style="opacity:0.3;fill:#FFFFFF;enable-background:new    ;" width="1.384" height="8.489"/>
		<rect x="154.848" y="440.618" style="opacity:0.3;fill:#FFFFFF;enable-background:new    ;" width="1.384" height="8.489"/>
		<rect x="152.187" y="440.618" style="opacity:0.3;fill:#FFFFFF;enable-background:new    ;" width="1.384" height="8.489"/>
		<rect x="149.526" y="440.618" style="opacity:0.3;fill:#FFFFFF;enable-background:new    ;" width="1.384" height="8.489"/>
		<rect x="146.865" y="440.618" style="opacity:0.3;fill:#FFFFFF;enable-background:new    ;" width="1.384" height="8.489"/>
		<path style="opacity:0.2;fill:#FFFFFF;enable-background:new    ;" d="M109.433,373.151c0,0.779-0.631,1.41-1.41,1.41
			c-0.779,0-1.41-0.632-1.41-1.41c0-0.779,0.632-1.41,1.41-1.41l0,0C108.801,371.741,109.433,372.373,109.433,373.151z"/>
		<path style="opacity:0.2;fill:#FFFFFF;enable-background:new    ;" d="M118.303,373.151c0,0.779-0.631,1.41-1.41,1.41
			s-1.41-0.632-1.41-1.41c0-0.779,0.632-1.41,1.41-1.41l0,0C117.672,371.741,118.303,372.373,118.303,373.151z"/>
		<path style="opacity:0.4;fill:#FFFFFF;enable-background:new    ;" d="M127.173,373.151c0,0.779-0.631,1.41-1.41,1.41
			c-0.779,0-1.41-0.632-1.41-1.41c0-0.779,0.631-1.41,1.41-1.41l0,0C126.542,371.741,127.173,372.373,127.173,373.151z"/>
		<path style="opacity:0.4;fill:#FFFFFF;enable-background:new    ;" d="M109.433,387.495c0,0.779-0.631,1.41-1.41,1.41
			c-0.779,0-1.41-0.631-1.41-1.41c0-0.779,0.632-1.41,1.41-1.41l0,0C108.801,386.084,109.433,386.716,109.433,387.495z"/>
		<path style="opacity:0.2;fill:#FFFFFF;enable-background:new    ;" d="M118.303,387.495c0,0.779-0.631,1.41-1.41,1.41
			s-1.41-0.631-1.41-1.41c0-0.779,0.632-1.41,1.41-1.41l0,0C117.672,386.084,118.303,386.716,118.303,387.495z"/>
		<path style="opacity:0.4;fill:#FFFFFF;enable-background:new    ;" d="M127.173,387.495c0,0.779-0.631,1.41-1.41,1.41
			c-0.779,0-1.41-0.631-1.41-1.41c0-0.779,0.631-1.41,1.41-1.41l0,0C126.542,386.084,127.173,386.716,127.173,387.495z"/>
		<path style="opacity:0.2;fill:#FFFFFF;enable-background:new    ;" d="M109.433,401.838c0,0.779-0.631,1.41-1.41,1.41
			c-0.779,0-1.41-0.632-1.41-1.41c0-0.779,0.632-1.41,1.41-1.41l0,0C108.801,400.427,109.433,401.059,109.433,401.838z"/>
		<path style="opacity:0.4;fill:#FFFFFF;enable-background:new    ;" d="M118.303,401.838c0,0.779-0.631,1.41-1.41,1.41
			s-1.41-0.632-1.41-1.41c0-0.779,0.632-1.41,1.41-1.41l0,0C117.672,400.427,118.303,401.059,118.303,401.838z"/>
		<path style="opacity:0.2;fill:#FFFFFF;enable-background:new    ;" d="M127.173,401.838c0,0.779-0.631,1.41-1.41,1.41
			c-0.779,0-1.41-0.632-1.41-1.41c0-0.779,0.631-1.41,1.41-1.41l0,0C126.542,400.427,127.173,401.059,127.173,401.838z"/>
		<path style="opacity:0.4;fill:#FFFFFF;enable-background:new    ;" d="M109.433,416.181c0,0.779-0.631,1.41-1.41,1.41
			c-0.779,0-1.41-0.631-1.41-1.41c0-0.779,0.632-1.41,1.41-1.41l0,0C108.801,414.77,109.433,415.402,109.433,416.181z"/>
		<path style="opacity:0.2;fill:#FFFFFF;enable-background:new    ;" d="M118.303,416.181c0,0.779-0.631,1.41-1.41,1.41
			s-1.41-0.631-1.41-1.41c0-0.779,0.632-1.41,1.41-1.41l0,0C117.672,414.77,118.303,415.402,118.303,416.181z"/>
		<path style="opacity:0.2;fill:#FFFFFF;enable-background:new    ;" d="M127.173,416.181c0,0.779-0.631,1.41-1.41,1.41
			c-0.779,0-1.41-0.631-1.41-1.41c0-0.779,0.631-1.41,1.41-1.41l0,0C126.542,414.77,127.173,415.402,127.173,416.181z"/>
		<path style="opacity:0.2;fill:#FFFFFF;enable-background:new    ;" d="M109.433,430.524c0,0.779-0.631,1.41-1.41,1.41
			c-0.779,0-1.41-0.631-1.41-1.41s0.632-1.41,1.41-1.41l0,0C108.801,429.113,109.433,429.745,109.433,430.524z"/>
		<path style="opacity:0.4;fill:#FFFFFF;enable-background:new    ;" d="M118.303,430.524c0,0.779-0.631,1.41-1.41,1.41
			s-1.41-0.631-1.41-1.41s0.632-1.41,1.41-1.41l0,0C117.672,429.113,118.303,429.745,118.303,430.524z"/>
		<path style="opacity:0.4;fill:#FFFFFF;enable-background:new    ;" d="M127.173,430.524c0,0.779-0.631,1.41-1.41,1.41
			c-0.779,0-1.41-0.631-1.41-1.41s0.631-1.41,1.41-1.41l0,0C126.542,429.113,127.173,429.745,127.173,430.524z"/>
		<path style="opacity:0.4;fill:#FFFFFF;enable-background:new    ;" d="M109.433,444.867c0,0.779-0.631,1.41-1.41,1.41
			c-0.779,0-1.41-0.632-1.41-1.41s0.632-1.41,1.41-1.41l0,0C108.801,443.456,109.433,444.088,109.433,444.867z"/>
		<path style="opacity:0.2;fill:#FFFFFF;enable-background:new    ;" d="M118.303,444.867c0,0.779-0.631,1.41-1.41,1.41
			s-1.41-0.632-1.41-1.41s0.632-1.41,1.41-1.41l0,0C117.672,443.456,118.303,444.088,118.303,444.867z"/>
		<path style="opacity:0.4;fill:#FFFFFF;enable-background:new    ;" d="M127.173,444.867c0,0.779-0.631,1.41-1.41,1.41
			c-0.779,0-1.41-0.632-1.41-1.41s0.631-1.41,1.41-1.41l0,0C126.542,443.456,127.173,444.088,127.173,444.867z"/>
		<rect x="68.506" y="362.685" style="opacity:0.3;" width="30.744" height="92.64"/>
	</g>
</g>
<g id="Chart">
	<g>
		<rect x="349.847" y="385.675" style="fill:#FF725E;" width="48.641" height="69.524"/>
		<rect x="382.654" y="385.675" style="opacity:0.2;enable-background:new    ;" width="15.834" height="69.65"/>
	</g>
	<g>
		<rect x="285.655" y="405.781" style="fill:#FF725E;" width="43.608" height="49.544"/>
		<rect x="315.067" y="405.781" style="opacity:0.2;enable-background:new    ;" width="14.196" height="49.544"/>
	</g>
	<g>
		<rect x="417.01" y="345.344" style="fill:#FF725E;" width="47.54" height="109.981"/>
		<rect x="449.074" y="345.344" style="opacity:0.2;enable-background:new    ;" width="15.476" height="109.981"/>
	</g>
</g>
<g id="Speech_Bubble">
	<g>
		<g>
			<g>
				<g>
					<path style="fill:#FF725E;" d="M427.085,220.457h-36.596c-3.308,0-5.99,2.682-5.99,5.99v19.758c0,3.308,2.682,5.99,5.99,5.99
						h8.755l0.065,5.977l6.592-5.977h21.184c3.308,0,5.99-2.682,5.99-5.99v-19.758C433.075,223.139,430.393,220.457,427.085,220.457
						z"/>
				</g>
			</g>
		</g>
		<g>
			<g>
				<path style="fill:#FFFFFF;" d="M404.281,233.204l-5.77,2.695l5.77,2.694v2.173l-7.711-3.739v-2.256l7.711-3.74V233.204z"/>
				<path style="fill:#FFFFFF;" d="M421.841,234.772v2.256l-7.71,3.739v-2.173l5.77-2.694l-5.77-2.695v-2.173L421.841,234.772z"/>
			</g>
			<g>
				<polygon style="fill:#FFFFFF;" points="410.554,229.519 406.794,242.513 408.674,242.513 412.434,229.519 				"/>
			</g>
		</g>
		<g>
			<path style="fill:#FF725E;" d="M418.639,219.108h-18.796c-0.138,0-0.25-0.112-0.25-0.25s0.112-0.25,0.25-0.25h18.796
				c0.138,0,0.25,0.112,0.25,0.25S418.777,219.108,418.639,219.108z"/>
		</g>
		<g>
			<path style="fill:#FF725E;" d="M423.824,219.115h-2.966c-0.138,0-0.25-0.112-0.25-0.25s0.112-0.25,0.25-0.25h2.966
				c0.138,0,0.25,0.112,0.25,0.25S423.962,219.115,423.824,219.115z"/>
		</g>
	</g>
</g>
<g id="Screen_2">
	<g>
		<g>
			<path style="fill:#FF725E;" d="M428.955,176.864H327.749c-2.726,0-4.936-2.21-4.936-4.936V88.395c0-2.726,2.21-4.936,4.936-4.936
				h101.206c2.726,0,4.936,2.21,4.936,4.936v83.533C433.891,174.654,431.682,176.864,428.955,176.864z"/>
			<path style="opacity:0.5;fill:#FFFFFF;" d="M428.955,176.864H327.749c-2.726,0-4.936-2.21-4.936-4.936V88.395
				c0-2.726,2.21-4.936,4.936-4.936h101.206c2.726,0,4.936,2.21,4.936,4.936v83.533
				C433.891,174.654,431.682,176.864,428.955,176.864z"/>
			<path style="fill:#FF725E;" d="M433.891,99.746H322.813V88.086c0-2.555,2.072-4.627,4.627-4.627h101.906
				c2.51,0,4.546,2.035,4.546,4.546V99.746z"/>
		</g>
		<g>
			<path style="opacity:0.5;fill:#FFFFFF;" d="M427.619,92.79c0,1.964-1.592,3.556-3.555,3.556c-1.964,0-3.555-1.592-3.555-3.556
				c0-1.964,1.592-3.555,3.555-3.555C426.027,89.235,427.619,90.827,427.619,92.79z"/>
			<path style="opacity:0.5;fill:#FFFFFF;" d="M417.514,92.79c0,1.964-1.592,3.556-3.555,3.556c-1.964,0-3.555-1.592-3.555-3.556
				c0-1.964,1.592-3.555,3.555-3.555C415.922,89.235,417.514,90.827,417.514,92.79z"/>
			<path style="opacity:0.5;fill:#FFFFFF;" d="M407.409,92.79c0,1.964-1.592,3.556-3.555,3.556c-1.964,0-3.555-1.592-3.555-3.556
				c0-1.964,1.592-3.555,3.555-3.555C405.818,89.235,407.409,90.827,407.409,92.79z"/>
		</g>
		<rect x="347.811" y="113.362" style="opacity:0.6;fill:#FFFFFF;" width="56.974" height="3.315"/>
		<rect x="348.698" y="120.535" style="opacity:0.6;fill:#263238;" width="40.767" height="3.315"/>
		<rect x="408.972" y="113.362" style="fill:#FF725E;" width="11.208" height="3.315"/>
		<rect x="332.647" y="113.362" style="fill:#FF725E;" width="11.208" height="3.315"/>
		<rect x="347.811" y="128.504" style="fill:#FF725E;" width="56.974" height="3.315"/>
		<rect x="408.972" y="128.504" style="opacity:0.6;fill:#FFFFFF;" width="11.208" height="3.315"/>
		<rect x="332.647" y="128.504" style="fill:#FF725E;" width="11.208" height="3.315"/>
		<rect x="347.811" y="160.07" style="fill:#FF725E;" width="56.974" height="3.315"/>
		<rect x="408.972" y="160.07" style="opacity:0.6;fill:#FFFFFF;" width="11.208" height="3.315"/>
		<rect x="347.811" y="136.487" style="fill:#FF725E;" width="56.974" height="3.315"/>
		<rect x="408.972" y="136.487" style="opacity:0.6;fill:#263238;" width="11.208" height="3.315"/>
		<rect x="332.647" y="136.487" style="opacity:0.6;fill:#263238;" width="11.208" height="3.315"/>
		<rect x="393.928" y="120.666" style="fill:#FF725E;" width="27.08" height="3.315"/>
		<rect x="347.811" y="143.447" style="opacity:0.6;fill:#FFFFFF;" width="40.766" height="3.315"/>
		<rect x="393.04" y="143.578" style="fill:#FF725E;" width="27.08" height="3.315"/>
		<rect x="347.811" y="150.655" style="opacity:0.6;fill:#263238;" width="20.383" height="3.315"/>
	</g>
</g>
<g id="Screen_1">
	<g>
		<g>
			<g>
				<g>
					<g>
						<path style="fill:#FF725E;" d="M165.139,148.504v147.153c0,2.537,2.057,4.594,4.594,4.594h202.015V148.506
							c0-1.357-1.1-2.456-2.456-2.456H167.593C166.238,146.05,165.139,147.148,165.139,148.504z"/>
						<path style="opacity:0.9;fill:#FFFFFF;" d="M165.139,150.522v145.256c0,2.47,2.003,4.473,4.473,4.473h197.664
							c2.47,0,4.473-2.002,4.473-4.473V150.522c0-2.47-2.003-4.473-4.473-4.473H169.612
							C167.142,146.05,165.139,148.052,165.139,150.522z"/>
						<path style="fill:#FF725E;" d="M371.751,158.427H165.139v-9.824c0-1.41,1.143-2.554,2.554-2.554h201.976
							c1.15,0,2.082,0.932,2.082,2.082V158.427z"/>
						<path style="opacity:0.5;fill:#FFFFFF;" d="M368.612,151.722c0.352,1.853-1.24,3.448-3.091,3.098
							c-1.028-0.195-1.868-1.036-2.064-2.064c-0.353-1.854,1.24-3.45,3.091-3.099C367.577,149.852,368.417,150.694,368.612,151.722z
							"/>
						<path style="opacity:0.5;fill:#FFFFFF;" d="M361.148,151.722c0.352,1.853-1.24,3.448-3.091,3.097
							c-1.028-0.195-1.868-1.036-2.064-2.064c-0.353-1.854,1.24-3.451,3.091-3.099C360.113,149.853,360.953,150.694,361.148,151.722
							z"/>
						<path style="opacity:0.5;fill:#FFFFFF;" d="M353.683,151.722c0.352,1.853-1.24,3.448-3.091,3.097
							c-1.028-0.195-1.868-1.036-2.064-2.064c-0.353-1.854,1.24-3.451,3.092-3.099C352.648,149.853,353.488,150.694,353.683,151.722
							z"/>
					</g>
				</g>
			</g>
		</g>
		<g>
			<g>
				<path style="fill:#FF725E;" d="M356.562,234.506c-2.457-6.468-5.508-12.747-9.108-18.749c-1.984-3.307-4.463-6.777-8.388-7.921
					c-4.852-1.415-10.086,1.345-13.333,4.937c-3.247,3.592-5.234,8.012-8.354,11.698c-3.12,3.686-8.067,6.723-13.045,5.74
					c-5.026-0.992-9.093-5.847-14.135-4.93c-4.985,0.907-7.46,7.079-12.523,7.481c-3.709,0.295-6.668-2.701-8.713-5.55
					c-3.642-5.073-6.548-10.652-11.059-15.101c-4.511-4.449-11.235-7.685-17.683-6.277c-4.41,0.963-7.973,3.914-10.911,7.076
					c-4.773,5.136-8.455,11.119-10.779,17.519c-0.983,2.707-2.17,5.914-5.167,6.69c-2.756,0.714-5.547-1.134-7.236-3.252
					c-1.689-2.118-2.842-4.647-5.023-6.347c-4.541-3.54-11.932-1.949-16.111,1.947c-4.179,3.896-5.954,9.387-7.582,14.641v22.927
					h179.215L356.562,234.506z"/>
			</g>
			<g style="opacity:0.3;">
				<path style="fill:#FFFFFF;" d="M356.562,234.506c-2.457-6.468-5.508-12.747-9.108-18.749c-1.984-3.307-4.463-6.777-8.388-7.921
					c-4.852-1.415-10.086,1.345-13.333,4.937c-3.247,3.592-5.234,8.012-8.354,11.698c-3.12,3.686-8.067,6.723-13.045,5.74
					c-5.026-0.992-9.093-5.847-14.135-4.93c-4.985,0.907-7.46,7.079-12.523,7.481c-3.709,0.295-6.668-2.701-8.713-5.55
					c-3.642-5.073-6.548-10.652-11.059-15.101c-4.511-4.449-11.235-7.685-17.683-6.277c-4.41,0.963-7.973,3.914-10.911,7.076
					c-4.773,5.136-8.455,11.119-10.779,17.519c-0.983,2.707-2.17,5.914-5.167,6.69c-2.756,0.714-5.547-1.134-7.236-3.252
					c-1.689-2.118-2.842-4.647-5.023-6.347c-4.541-3.54-11.932-1.949-16.111,1.947c-4.179,3.896-5.954,9.387-7.582,14.641v22.927
					h179.215L356.562,234.506z"/>
			</g>
			<g>
				<g>
					<path style="fill:#FF725E;" d="M356.924,234.406c-1.72-4.5-3.698-8.898-5.946-13.159c-1.96-3.715-3.979-7.787-6.982-10.791
						c-2.66-2.66-6.201-3.888-9.921-3.129c-3.947,0.805-7.284,3.424-9.736,6.52c-2.812,3.55-4.758,7.754-7.864,11.075
						c-3.053,3.265-7.61,5.879-12.214,4.888c-3.779-0.813-6.722-3.628-10.413-4.671c-3.297-0.932-6.113,0.303-8.611,2.431
						c-2.662,2.268-5.393,5.538-9.311,4.704c-4.384-0.933-7.016-5.69-9.268-9.128c-4.645-7.092-9.555-14.538-18.089-17.198
						c-3.837-1.196-7.918-1.089-11.597,0.585c-3.863,1.758-6.967,4.872-9.664,8.074c-2.85,3.383-5.286,7.118-7.198,11.108
						c-0.889,1.855-1.597,3.766-2.336,5.683c-0.684,1.776-1.547,3.781-3.245,4.815c-2.229,1.358-4.826,0.447-6.678-1.114
						c-1.661-1.4-2.699-3.328-3.949-5.07c-2.103-2.932-4.911-4.728-8.574-4.848c-3.395-0.111-6.87,1.089-9.559,3.145
						c-3.172,2.426-5.209,6.024-6.669,9.673c-0.786,1.965-1.423,3.986-2.05,6.006c-0.143,0.462,0.58,0.66,0.723,0.199
						c2.4-7.731,5.777-16.385,14.722-18.053c4.271-0.797,8.065,0.592,10.646,4.1c2.142,2.911,3.98,6.525,7.883,7.286
						c3.448,0.672,5.742-1.886,6.996-4.766c0.762-1.749,1.335-3.572,2.108-5.318c0.897-2.027,1.931-3.994,3.085-5.886
						c2.334-3.828,5.158-7.456,8.465-10.496c3.298-3.032,7.323-5.265,11.91-5.195c9.429,0.144,15.905,7.752,20.673,14.977
						c3.284,4.976,8.372,15.131,15.943,11.599c2.946-1.374,4.838-4.226,7.611-5.857c3.714-2.185,7.321-0.328,10.699,1.545
						c3.22,1.785,6.44,3.181,10.191,2.355c3.824-0.842,7.1-3.428,9.494-6.439c2.804-3.526,4.76-7.673,7.798-11.02
						c2.785-3.069,6.914-5.523,11.188-5.173c4.437,0.364,7.386,3.934,9.567,7.46c2.447,3.957,4.613,8.105,6.546,12.336
						c1.043,2.283,2.007,4.6,2.902,6.945C356.371,235.052,357.096,234.858,356.924,234.406L356.924,234.406z"/>
				</g>
			</g>
			<g>
				<g style="opacity:0.3;">
					<g>
						<path d="M176.976,184.058c0,21.577,0,43.155,0,64.732c0,6.082,0,12.163,0,18.245c0,0.203,0.172,0.375,0.375,0.375
							c1.596,0,3.192,0,4.788,0c4.344,0,8.688,0,13.032,0c6.426,0,12.851,0,19.277,0c7.841,0,15.682,0,23.522,0
							c8.59,0,17.18,0,25.769,0c8.672,0,17.344,0,26.017,0c8.088,0,16.177,0,24.265,0c6.838,0,13.676,0,20.514,0
							c4.939,0,9.879,0,14.818,0c2.297,0,4.683,0.188,6.974,0c0.098-0.008,0.199,0,0.297,0c0.483,0,0.483-0.75,0-0.75
							c-1.596,0-3.192,0-4.788,0c-4.344,0-8.688,0-13.032,0c-6.426,0-12.851,0-19.277,0c-7.841,0-15.682,0-23.523,0
							c-8.59,0-17.18,0-25.769,0c-8.672,0-17.344,0-26.017,0c-8.088,0-16.177,0-24.265,0c-6.838,0-13.676,0-20.514,0
							c-4.939,0-9.879,0-14.818,0c-1.527,0-3.055,0-4.582,0c-0.732,0-1.674-0.16-2.392,0c-0.09,0.02-0.204,0-0.297,0
							c0.125,0.125,0.25,0.25,0.375,0.375c0-21.577,0-43.154,0-64.732c0-6.082,0-12.163,0-18.245
							C177.726,183.575,176.976,183.574,176.976,184.058L176.976,184.058z"/>
					</g>
				</g>
				<g style="opacity:0.3;">
					<g>
						<path d="M210.404,182.327c0,22.007,0,44.015,0,66.022c0,6.229,0,12.457,0,18.686c0,0.483,0.75,0.483,0.75,0
							c0-22.007,0-44.015,0-66.022c0-6.229,0-12.457,0-18.686C211.154,181.844,210.404,181.843,210.404,182.327L210.404,182.327z"/>
					</g>
				</g>
				<g style="opacity:0.3;">
					<g>
						<path d="M239.541,182.327c0,22.007,0,44.015,0,66.022c0,6.229,0,12.457,0,18.686c0,0.483,0.75,0.483,0.75,0
							c0-22.007,0-44.015,0-66.022c0-6.229,0-12.457,0-18.686C240.291,181.844,239.541,181.843,239.541,182.327L239.541,182.327z"/>
					</g>
				</g>
				<g style="opacity:0.3;">
					<g>
						<path d="M268.678,182.327c0,22.007,0,44.015,0,66.022c0,6.229,0,12.457,0,18.686c0,0.483,0.75,0.483,0.75,0
							c0-22.007,0-44.015,0-66.022c0-6.229,0-12.457,0-18.686C269.428,181.844,268.678,181.843,268.678,182.327L268.678,182.327z"/>
					</g>
				</g>
				<g style="opacity:0.3;">
					<g>
						<path d="M297.815,182.327c0,22.007,0,44.015,0,66.022c0,6.229,0,12.457,0,18.686c0,0.483,0.75,0.483,0.75,0
							c0-22.007,0-44.015,0-66.022c0-6.229,0-12.457,0-18.686C298.565,181.844,297.815,181.843,297.815,182.327L297.815,182.327z"/>
					</g>
				</g>
				<g style="opacity:0.3;">
					<g>
						<path d="M326.952,182.327c0,22.007,0,44.015,0,66.022c0,6.229,0,12.457,0,18.686c0,0.483,0.75,0.483,0.75,0
							c0-22.007,0-44.015,0-66.022c0-6.229,0-12.457,0-18.686C327.702,181.844,326.952,181.843,326.952,182.327L326.952,182.327z"/>
					</g>
				</g>
				<g style="opacity:0.3;">
					<g>
						<path d="M356.251,182.327c0,22.007,0,44.015,0,66.022c0,6.229,0,12.457,0,18.686c0,0.483,0.75,0.483,0.75,0
							c0-22.007,0-44.015,0-66.022c0-6.229,0-12.457,0-18.686C357.001,181.844,356.251,181.843,356.251,182.327L356.251,182.327z"/>
					</g>
				</g>
				<g style="opacity:0.3;">
					<g>
						<path d="M176.93,248.795c23.377,0,46.754,0,70.131,0s46.754,0,70.131,0c13.145,0,26.289,0,39.433,0c0.483,0,0.483-0.75,0-0.75
							c-23.377,0-46.754,0-70.131,0s-46.754,0-70.131,0c-13.144,0-26.289,0-39.433,0
							C176.447,248.045,176.447,248.795,176.93,248.795L176.93,248.795z"/>
					</g>
				</g>
				<g style="opacity:0.3;">
					<g>
						<path d="M176.93,227.801c23.377,0,46.754,0,70.131,0s46.754,0,70.131,0c13.145,0,26.289,0,39.433,0c0.483,0,0.483-0.75,0-0.75
							c-23.377,0-46.754,0-70.131,0s-46.754,0-70.131,0c-13.144,0-26.289,0-39.433,0
							C176.447,227.051,176.447,227.801,176.93,227.801L176.93,227.801z"/>
					</g>
				</g>
				<g style="opacity:0.3;">
					<g>
						<path d="M176.93,206.807c23.377,0,46.754,0,70.131,0s46.754,0,70.131,0c13.145,0,26.289,0,39.433,0c0.483,0,0.483-0.75,0-0.75
							c-23.377,0-46.754,0-70.131,0s-46.754,0-70.131,0c-13.144,0-26.289,0-39.433,0
							C176.447,206.057,176.447,206.807,176.93,206.807L176.93,206.807z"/>
					</g>
				</g>
				<g style="opacity:0.3;">
					<g>
						<path d="M176.93,185.814c23.377,0,46.754,0,70.131,0s46.754,0,70.131,0c13.145,0,26.289,0,39.433,0c0.483,0,0.483-0.75,0-0.75
							c-23.377,0-46.754,0-70.131,0s-46.754,0-70.131,0c-13.144,0-26.289,0-39.433,0
							C176.447,185.064,176.447,185.814,176.93,185.814L176.93,185.814z"/>
					</g>
				</g>
			</g>
			<circle style="fill:#FF725E;" cx="188.312" cy="279.758" r="2.83"/>
			<g>
				<g>
					<path style="fill:#263238;" d="M194.853,278.667c17.198,0,34.396,0,51.593,0c0.483,0,0.483-0.75,0-0.75
						c-17.198,0-34.396,0-51.593,0C194.37,277.917,194.369,278.667,194.853,278.667L194.853,278.667z"/>
				</g>
			</g>
			<g>
				<g>
					<path style="fill:#263238;" d="M194.853,282.107c9.469,0,18.937,0,28.405,0c0.483,0,0.483-0.75,0-0.75
						c-9.469,0-18.937,0-28.405,0C194.37,281.357,194.369,282.107,194.853,282.107L194.853,282.107z"/>
				</g>
			</g>
			<circle style="fill:#FF725E;" cx="269.193" cy="279.758" r="2.83"/>
			<g>
				<g>
					<path style="fill:#263238;" d="M275.734,278.667c17.198,0,34.396,0,51.594,0c0.483,0,0.483-0.75,0-0.75
						c-17.198,0-34.396,0-51.594,0C275.251,277.917,275.251,278.667,275.734,278.667L275.734,278.667z"/>
				</g>
			</g>
			<g>
				<g>
					<path style="fill:#263238;" d="M275.734,282.107c9.469,0,18.937,0,28.405,0c0.483,0,0.483-0.75,0-0.75
						c-9.468,0-18.937,0-28.405,0C275.251,281.357,275.251,282.107,275.734,282.107L275.734,282.107z"/>
				</g>
			</g>
		</g>
	</g>
</g>
<g id="Character_2_00000142134862697067076640000004500568270722866577_">
	<g>
		<g>
			<g>
				<g>
					<g>
						<g>
							<polygon style="fill:#E9B376;" points="365.829,431.846 369.062,450.486 361.396,453.577 355.032,434.021 							"/>
						</g>
					</g>
				</g>
			</g>
			<g>
				<g>
					<g>
						<g>
							<g>
								<g>
									<path style="fill:#263238;" d="M366.683,448.957c-0.517,1.401-1.759,2.077-3.094,1.815l-0.888-1.255
										c-0.766-1.08-1.835-1.473-3.01-0.676c-0.576,0.39-1.072,1.5-1.015,2.875c0.103,2.466-0.879,4.055-0.879,4.055
										s-4.191,5.632-5.889,7.27c-1.013,0.977-2.336,2.346-2.545,4.067c-0.059,0.492-0.06,1.039,0.008,1.65
										c0.056,0.502,0.543,1.452,0.554,1.473l14.202-7.218c0,0,1.02-1.581,1.647-1.871c1.115-0.517,2.091,0.188,2.091,0.188
										l5.184-2.586c0,0-0.305-0.848-0.752-2.08l0.001-0.001c-0.201-0.555-0.431-1.188-0.673-1.857
										c-1.039-2.87-2.244-6.54-2.544-7.349C368.556,446.039,366.683,448.957,366.683,448.957z"/>
									<g>
										<g>
											<g>
												<g>
													<path style="fill:#FF725E;" d="M355.473,458.676c0.035-0.09,0.13-0.145,0.227-0.136
														c0.446,0.04,0.881,0.195,1.262,0.472c0.201,0.146-0.014,0.49-0.216,0.343c-0.338-0.246-0.72-0.384-1.11-0.42
														c-0.13-0.012-0.211-0.133-0.164-0.254C355.472,458.678,355.473,458.677,355.473,458.676z"/>
												</g>
											</g>
										</g>
									</g>
									<g>
										<g>
											<g>
												<g>
													<path style="fill:#FF725E;" d="M356.27,457.529c0.035-0.09,0.13-0.146,0.228-0.137
														c0.446,0.041,0.881,0.196,1.262,0.472c0.201,0.146-0.014,0.49-0.216,0.343c-0.338-0.246-0.72-0.384-1.11-0.42
														c-0.13-0.012-0.211-0.133-0.164-0.254C356.268,457.532,356.269,457.53,356.27,457.529z"/>
												</g>
											</g>
										</g>
									</g>
									<g>
										<g>
											<g>
												<g>
													<path style="fill:#FF725E;" d="M357.12,456.405c0.035-0.09,0.13-0.145,0.228-0.136
														c0.446,0.041,0.881,0.195,1.262,0.472c0.201,0.146-0.014,0.49-0.216,0.343c-0.338-0.246-0.72-0.384-1.11-0.42
														c-0.13-0.012-0.211-0.133-0.164-0.254C357.119,456.408,357.12,456.406,357.12,456.405z"/>
												</g>
											</g>
										</g>
									</g>
								</g>
							</g>
						</g>
					</g>
				</g>
			</g>
			<path style="opacity:0.2;fill:#FFFFFF;enable-background:new    ;" d="M349.346,468.001c0.003,0.254,0.016,0.518,0.048,0.799
				c0.056,0.502,0.544,1.452,0.554,1.473l14.202-7.218c0,0,1.02-1.581,1.647-1.871c1.115-0.517,2.091,0.188,2.091,0.188l5.184-2.586
				c0,0-0.305-0.848-0.752-2.08l0.001-0.001c-0.035-0.097-0.076-0.208-0.112-0.309L349.346,468.001z"/>
			<path style="fill:none;stroke:#FF725E;stroke-width:0.25;stroke-miterlimit:10;" d="M357.335,456.503
				c-0.207-0.514-0.416-1.032-0.71-1.502c-0.294-0.47-0.681-0.896-1.172-1.154c-0.228-0.12-0.515-0.2-0.737-0.069
				c-0.234,0.137-0.297,0.452-0.265,0.721c0.06,0.518,0.382,0.982,0.798,1.296C355.665,456.108,356.826,456.393,357.335,456.503"/>
			<path style="fill:none;stroke:#FF725E;stroke-width:0.25;stroke-miterlimit:10;" d="M357.395,456.472
				c-0.037-0.553-0.074-1.11-0.013-1.662c0.06-0.551,0.224-1.103,0.554-1.549c0.153-0.208,0.376-0.404,0.634-0.382
				c0.27,0.022,0.463,0.278,0.552,0.534c0.171,0.493,0.083,1.05-0.155,1.514C358.728,455.391,357.807,456.151,357.395,456.472"/>
		</g>
		<g>
			<g>
				<g>
					<g>
						<g>
							<polygon style="fill:#E9B376;" points="341.212,427.861 344.445,446.502 336.779,449.592 330.415,430.036 							"/>
						</g>
					</g>
				</g>
			</g>
			<g>
				<g>
					<g>
						<g>
							<g>
								<g>
									<path style="fill:#263238;" d="M342.066,444.973c-0.517,1.401-1.759,2.077-3.094,1.815l-0.888-1.256
										c-0.766-1.08-1.835-1.473-3.01-0.676c-0.576,0.39-1.072,1.5-1.015,2.875c0.103,2.466-0.878,4.055-0.878,4.055
										s-4.191,5.632-5.889,7.27c-1.014,0.977-2.336,2.346-2.544,4.067c-0.059,0.492-0.06,1.039,0.008,1.65
										c0.056,0.502,0.543,1.453,0.554,1.473l14.202-7.218c0,0,1.02-1.581,1.647-1.871c1.115-0.517,2.09,0.188,2.09,0.188
										l5.184-2.586c0,0-0.305-0.847-0.752-2.08l0.001-0.001c-0.201-0.555-0.431-1.188-0.673-1.857
										c-1.039-2.87-2.244-6.54-2.544-7.349C343.938,442.054,342.066,444.973,342.066,444.973z"/>
									<g>
										<g>
											<g>
												<g>
													<path style="fill:#FF725E;" d="M330.856,454.691c0.035-0.09,0.13-0.145,0.228-0.136
														c0.446,0.04,0.881,0.195,1.261,0.472c0.201,0.146-0.013,0.49-0.216,0.343c-0.338-0.246-0.72-0.384-1.11-0.42
														c-0.13-0.012-0.211-0.133-0.164-0.254C330.855,454.694,330.855,454.693,330.856,454.691z"/>
												</g>
											</g>
										</g>
									</g>
									<g>
										<g>
											<g>
												<g>
													<path style="fill:#FF725E;" d="M331.652,453.545c0.035-0.09,0.13-0.145,0.228-0.137
														c0.446,0.041,0.881,0.196,1.262,0.472c0.201,0.146-0.014,0.49-0.216,0.343c-0.338-0.245-0.72-0.384-1.11-0.42
														c-0.13-0.012-0.211-0.133-0.164-0.254C331.651,453.547,331.652,453.546,331.652,453.545z"/>
												</g>
											</g>
										</g>
									</g>
									<g>
										<g>
											<g>
												<g>
													<path style="fill:#FF725E;" d="M332.503,452.421c0.035-0.09,0.13-0.145,0.227-0.136
														c0.446,0.041,0.881,0.196,1.262,0.472c0.201,0.146-0.014,0.49-0.216,0.343c-0.338-0.246-0.72-0.384-1.11-0.42
														c-0.13-0.012-0.211-0.133-0.164-0.254C332.502,452.423,332.502,452.422,332.503,452.421z"/>
												</g>
											</g>
										</g>
									</g>
								</g>
							</g>
						</g>
					</g>
				</g>
			</g>
			<path style="opacity:0.2;fill:#FFFFFF;enable-background:new    ;" d="M324.729,464.017c0.003,0.255,0.016,0.518,0.048,0.799
				c0.056,0.502,0.543,1.452,0.554,1.473l14.202-7.218c0,0,1.02-1.581,1.647-1.871c1.115-0.517,2.091,0.188,2.091,0.188l5.184-2.586
				c0,0-0.306-0.848-0.752-2.08l0.001-0.001c-0.035-0.097-0.075-0.208-0.112-0.309L324.729,464.017z"/>
			<path style="fill:none;stroke:#FF725E;stroke-width:0.25;stroke-miterlimit:10;" d="M332.718,452.518
				c-0.207-0.514-0.416-1.032-0.71-1.502c-0.294-0.47-0.681-0.896-1.172-1.154c-0.228-0.12-0.515-0.2-0.737-0.069
				c-0.234,0.138-0.297,0.452-0.265,0.721c0.06,0.518,0.382,0.982,0.798,1.296C331.048,452.124,332.208,452.408,332.718,452.518"/>
			<path style="fill:none;stroke:#FF725E;stroke-width:0.25;stroke-miterlimit:10;" d="M332.778,452.488
				c-0.037-0.553-0.074-1.11-0.014-1.662c0.061-0.551,0.224-1.103,0.554-1.549c0.153-0.208,0.376-0.404,0.634-0.382
				c0.27,0.022,0.464,0.278,0.552,0.534c0.171,0.493,0.083,1.05-0.155,1.514C334.111,451.406,333.189,452.167,332.778,452.488"/>
		</g>
		<g>
			<path style="fill:#263238;" d="M402.978,347.914c0,0-18.471,18.058-28.068,27.032c-9.597,8.974-39.812,7.636-39.812,7.636
				l11.4,58.182l-15.657,1.893c0,0-14.766-43.174-20.502-66.257c-0.832-3.348,0.72-8.398,2.235-10.53
				c6.329-8.906,53.309-10.416,53.309-10.416l1.032-6.273L402.978,347.914z"/>
			<path style="opacity:0.2;enable-background:new    ;" d="M337.394,394.301c0,0-8.273-14.569-10.036-20.401
				c-1.763-5.832-1.221-8.006,3.12-9.767c4.34-1.762,35.081-5.446,35.081-5.446l0.49-2.541l6.34,6.923c0,0-36.35,2.428-35.943,8.395
				C336.852,377.431,337.394,394.301,337.394,394.301z"/>
			<path style="fill:#263238;" d="M402.978,347.914c0,0,3.798,22.438-3.946,28.183c-7.4,5.49-38.672,8.759-38.672,8.759l9.597,58.5
				l-15.329,2.694c0,0-14.915-44.601-20.651-67.684c-0.832-3.348-0.116-7.661,1.399-9.793c6.329-8.906,52.892-11.62,52.892-11.62
				L402.978,347.914z"/>
			<path style="opacity:0.2;enable-background:new    ;" d="M360.359,384.855c0,0-2.445-3.558-4.295-5.02
				c0,0,5.304,1.763,6.309,4.901L360.359,384.855z"/>
		</g>
		<path style="fill:#E9B376;" d="M329.358,348.426l3.363,4.996c0,0,21.131-7.145,23.622-9.538s5.588-23.922,5.588-23.922v-15.256
			l0.252-11.049c0,0-8.757,2.127-9.458,9.167c-0.208,2.085-3.956,33.065-3.956,33.065L329.358,348.426z"/>
		<g>
			<g>
				<path style="fill:#263238;" d="M336.275,360.939h14.938h15.851c0,0.003,0,0.007,0,0.01c-0.008,1.176-1.32,2.124-2.932,2.118
					h-15.837h-9.06c-0.014,0-0.028,0-0.042,0c-0.001,0-0.001,0-0.002,0h-25.212c-1.599-0.011-2.885-0.962-2.877-2.129H336.275z"/>
			</g>
			<path style="fill:#263238;" d="M313.517,362.947h28.127c0.485-0.003,0.876-0.322,0.872-0.711
				c-0.001-0.073-0.016-0.146-0.044-0.216l-12.513-28.686c-0.316-0.819-1.258-1.379-2.327-1.383h-28.145
				c-0.476,0-0.862,0.31-0.862,0.692c0,0.08,0.018,0.16,0.051,0.235l12.513,28.686C311.511,362.381,312.45,362.939,313.517,362.947z
				"/>
			<path style="fill:#FF725E;" d="M299.488,331.951h28.145c1.069,0.004,2.011,0.564,2.327,1.383L342,360.939h9.213h15.851
				c0,0.003,0,0.007,0,0.01c-0.008,1.176-1.32,2.124-2.932,2.118h-15.837h-9.06c-0.014,0-0.028,0-0.042,0c-0.001,0-0.001,0-0.002,0
				h-25.212c-0.507-0.004-0.975-0.11-1.388-0.279c-0.654-0.221-1.178-0.657-1.4-1.224l-12.513-28.686
				c-0.034-0.075-0.051-0.155-0.051-0.235C298.626,332.261,299.012,331.951,299.488,331.951z"/>
			<path style="fill:#FFFFFF;" d="M316.391,347.223c0.608,1.377,1.84,2.322,2.758,2.13c0.919-0.192,1.163-1.447,0.573-2.827
				c-0.59-1.381-1.836-2.304-2.755-2.112C316.049,344.606,315.775,345.81,316.391,347.223z"/>
			<g style="opacity:0.3;">
				
					<line style="fill:none;stroke:#000000;stroke-width:0;stroke-linecap:round;stroke-linejoin:round;" x1="342.516" y1="360.939" x2="342" y2="360.939"/>
				<path d="M329.959,333.334L342,360.939h-1.304l-13.064-28.988C328.701,331.955,329.643,332.515,329.959,333.334z"/>
			</g>
			<path style="opacity:0.5;fill:#FFFFFF;" d="M299.488,331.951h28.145c1.069,0.004,2.011,0.564,2.327,1.383L342,360.939h9.213
				h15.851c0,0.003,0,0.007,0,0.01c-0.008,1.176-1.32,2.124-2.932,2.118h-15.837h-9.06c-0.014,0-0.028,0-0.042,0
				c-0.001,0-0.001,0-0.002,0h-25.212c-0.507-0.004-0.975-0.11-1.388-0.279c-0.654-0.221-1.178-0.657-1.4-1.224l-12.513-28.686
				c-0.034-0.075-0.051-0.155-0.051-0.235C298.626,332.261,299.012,331.951,299.488,331.951z"/>
		</g>
		<g>
			<g>
				<path style="fill:#FF725E;" d="M363.577,355.538c0,0-4.891-5.883-3.319-7.024l0.57-54.446l1.356-0.41l11.064-2.532l11.428-2.464
					l6,1.246l10.563,11.647c0,0,1.488,28.412,1.57,29.702c0.1,1.581,0.855,22.166,0.855,22.166
					C385.569,357.387,363.282,356.938,363.577,355.538z"/>
			</g>
			<g>
				<g>
					<path style="fill:#E9B376;" d="M369.488,292.074l4.612,6.9l8.47-10.444c0,0-2.257-1.75-4.161-3.378
						c-1.512-1.294-5.596-6.458-5.596-6.458l-1.119,0.985l-7.119,6.145c0,0,5.082,2.899,4.958,3.985
						c0.198,0.94,0.417,1.9-0.106,2.266"/>
					<path style="opacity:0.2;enable-background:new    ;" d="M369.526,289.809c0.196,1.055,0.307,1.266-0.039,2.266
						c5.328-1.119,2.781-12.362,2.781-12.362h-0.582l-7.118,6.145C364.568,285.858,369.683,288.779,369.526,289.809z"/>
				</g>
				<g>
					<g>
						<g>
							<path style="fill:#263238;" d="M350.823,268.719c-0.729,3.037,0.208,9.107,4.222,6.834
								C359.06,273.28,352.077,263.499,350.823,268.719z"/>
							<path style="fill:#E9B376;" d="M372.451,271.26c0.987,7.607,1.697,11.878-1.37,16.435c-4.614,6.855-14.34,5.246-17.588-1.934
								c-2.924-6.463-4.047-17.817,2.764-22.16C362.966,259.323,371.464,263.653,372.451,271.26z"/>
							<path style="fill:#263238;" d="M372.005,261.035c-1.831-3.944-7.631-5.196-10.123-2.52c-0.372,0.4,3.121,0.895,2.722,0.83
								l1.406,6.063c0.427-0.185,1.403,0.168,2.124,1.466c0,0,0.429,8.173,4.339,10.88
								C379.88,272.435,377.918,261.703,372.005,261.035z"/>
							<path style="fill:#E9B376;" d="M376.628,276.956c-0.228,2.051-1.388,3.799-2.736,4.827c-2.029,1.547-4.007-0.044-4.251-2.453
								c-0.219-2.169,0.572-5.587,2.996-6.187C375.025,272.551,376.888,274.61,376.628,276.956z"/>
							<path style="fill:#263238;" d="M362.108,275.505c0.148,0.769-0.141,1.468-0.645,1.56c-0.504,0.092-1.034-0.457-1.182-1.226
								c-0.148-0.769,0.141-1.468,0.645-1.56C361.43,274.187,361.959,274.736,362.108,275.505z"/>
							<path style="fill:#263238;" d="M354.591,277.109c0.148,0.769-0.14,1.468-0.645,1.56c-0.505,0.092-1.034-0.457-1.182-1.226
								c-0.148-0.769,0.141-1.468,0.645-1.56C353.914,275.791,354.443,276.34,354.591,277.109z"/>
							<path style="fill:#D58745;" d="M356.964,276.21c0,0-1.699,4.292-2.179,5.999c1.257,0.761,3.016-0.041,3.016-0.041
								L356.964,276.21z"/>
							<path style="fill:#263238;" d="M362.985,271.06c-0.104,0.074-0.245,0.091-0.37,0.032c-1.488-0.695-2.649-0.003-2.66,0.004
								c-0.173,0.106-0.4,0.052-0.507-0.119c-0.107-0.171-0.053-0.397,0.118-0.502c0.061-0.038,1.515-0.905,3.361-0.042
								c0.184,0.086,0.264,0.304,0.178,0.486C363.077,270.977,363.035,271.025,362.985,271.06z"/>
							<path style="fill:#263238;" d="M351.168,275.421c-0.069-0.008-0.137-0.035-0.195-0.083c-0.156-0.13-0.179-0.362-0.051-0.517
								c1.286-1.561,2.961-1.367,3.037-1.368c0.201,0.024,0.346,0.207,0.324,0.408c-0.022,0.201-0.201,0.344-0.401,0.322
								c-0.069-0.011-1.362-0.144-2.394,1.109C351.408,275.389,351.286,275.434,351.168,275.421z"/>
						</g>
						
							<path style="fill:none;stroke:#263238;stroke-width:0.5;stroke-linecap:round;stroke-linejoin:round;stroke-miterlimit:10;" d="
							M371.715,261.29c0.922-1.111,2.108-1.964,3.129-2.275"/>
						
							<path style="fill:none;stroke:#263238;stroke-width:0.5;stroke-linecap:round;stroke-linejoin:round;stroke-miterlimit:10;" d="
							M371.831,261.171c0.461-1.422,0.375-3.014-0.236-4.378"/>
						
							<path style="opacity:0.2;fill:none;stroke:#000000;stroke-width:0.5;stroke-linecap:round;stroke-linejoin:round;stroke-miterlimit:10;" d="
							M374.51,275.208c-0.39-0.391-1.039-0.436-1.54-0.206c-0.501,0.231-0.865,0.691-1.102,1.189
							c-0.284,0.598-0.409,1.271-0.357,1.931"/>
					</g>
					<path style="fill:#263238;" d="M359.686,283.965L359.686,283.965c1.753-0.447,3.182-1.715,3.835-3.402
						c0.035-0.099-0.017-0.208-0.116-0.243c-0.004-0.001-0.008-0.003-0.012-0.004c-0.093-0.033-0.195,0.016-0.228,0.109
						c-0.001,0.004-0.003,0.008-0.004,0.012l0,0c-0.624,1.553-1.944,2.722-3.562,3.151c-0.092,0.036-0.137,0.14-0.101,0.232
						c0.001,0.002,0.001,0.004,0.002,0.005l0,0c0.036,0.092,0.14,0.137,0.232,0.101c0.002-0.001,0.004-0.001,0.005-0.002
						L359.686,283.965z"/>
				</g>
			</g>
			<path style="fill:#FF725E;" d="M367.519,292.436c0.145-0.218,2.177-1.667,2.177-1.667l4.055,3.202l5.829-8.077l5.095,2.767
				l-10.765,13.543L367.519,292.436z"/>
			
				<path style="opacity:0.1;fill:none;stroke:#000000;stroke-width:0.5;stroke-linecap:round;stroke-linejoin:round;stroke-miterlimit:10;" d="
				M373.721,295.32c-0.844,10.31-1.423,20.605-1.333,30.526c0.09,9.921-1.663,20.912,1.551,30.298"/>
			<polygon style="opacity:0.2;enable-background:new    ;" points="390.242,327.57 385.118,328.061 386.872,306.272 
				388.136,324.893 402.497,325.489 			"/>
			<path style="opacity:0.2;enable-background:new    ;" d="M367.519,292.436c0.108,0.166,2.474,4.85,3.47,6.826
				c0.166,0.33,0.645,0.302,0.773-0.045l1.809-4.891l-2.23,3.802L367.519,292.436z"/>
			<path style="opacity:0.2;enable-background:new    ;" d="M373.939,294.048c0.149,0.149,4.147,4.443,4.147,4.443l5.874-9.83
				l-5.019,11.202c-0.232,0.517-0.946,0.569-1.25,0.091L373.939,294.048z"/>
			<path style="fill:#E9B376;" d="M390.276,315.929c0,0-0.032,15.716-0.065,15.884c-0.034,0.168-27.4,11.601-27.4,11.601
				c0,0.408,4.068,5.16,4.068,5.16s29.852-3.921,33.223-9.008c2.877-4.342,3.328-23.841,3.328-23.841L390.276,315.929z"/>
			<path style="fill:#FF725E;" d="M390.676,289.907c10.902,0.918,13.575,9.037,13.376,21.397
				c-0.191,11.902,0.099,14.542,0.099,14.542l-16.353-0.357c0,0-0.267-21.237-0.267-23.285S390.676,289.907,390.676,289.907z"/>
			<path style="fill:#FF725E;" d="M362.477,330.596l-14.984-3.768c0,0,4.106-21.319,4.809-24.89c0.796-4.048,5.696-7.115,9.881-8.28
				l3.524,13.7L362.477,330.596z"/>
			<path style="opacity:0.2;enable-background:new    ;" d="M360.258,330.037c-0.158-0.04-2.418-21.755-2.418-21.755l-1.24,20.835
				L360.258,330.037z"/>
			<g>
				<path style="fill:#E9B376;" d="M348.446,358.524c0.137-1.396,2.77-7.537,4.122-9.579c1.352-2.042,10.242-5.531,10.242-5.531
					l5.215,3.768c0,0-0.007,2.178-1.851,3.758c-1.063,0.911-4.651,1.832-4.651,1.832s0.298,1.11,0.305,2.352
					c0.008,1.376-0.273,3.075-1.406,3.022c-1.132-0.053-1.549-3.699-1.604-4.226c0.053,0.534,0.367,4.266-1.149,4.397
					c-1.462,0.126-1.703-3.769-1.703-3.769s-0.076,1.815-0.122,2.742c-0.046,0.927-0.976,1.734-1.836,0.703
					c-0.996-1.195-1.084-3.259-1.084-3.259s-0.788,1.207-1.968,3.838C350.107,360.467,348.33,359.705,348.446,358.524z"/>
				
					<path style="opacity:0.1;fill:none;stroke:#000000;stroke-width:0.5;stroke-linecap:round;stroke-linejoin:round;stroke-miterlimit:10;" d="
					M358.867,354.472c-0.034-0.701-0.069-1.406,0.028-2.101c0.096-0.695,0.332-1.386,0.783-1.924"/>
				
					<path style="opacity:0.1;fill:none;stroke:#000000;stroke-width:0.5;stroke-linecap:round;stroke-linejoin:round;stroke-miterlimit:10;" d="
					M355.904,354.966c-0.034-0.701-0.069-1.406,0.028-2.101c0.096-0.695,0.332-1.386,0.783-1.924"/>
				
					<path style="opacity:0.1;fill:none;stroke:#000000;stroke-width:0.5;stroke-linecap:round;stroke-linejoin:round;stroke-miterlimit:10;" d="
					M352.952,354.708c-0.034-0.701-0.068-1.406,0.028-2.101c0.096-0.695,0.332-1.386,0.783-1.924"/>
			</g>
		</g>
		<path style="fill:#263238;" d="M370.359,258.329c-0.694-0.871-1.793-1.317-2.892-1.5c-1.48-0.247-3.018-0.142-4.451,0.305
			c-1.646,0.513-3.157,1.468-4.861,1.732c-0.207,0.032-0.446,0.045-0.599-0.099c-0.107-0.101-0.143-0.253-0.188-0.392
			c-0.296-0.924-1.227-1.606-2.198-1.609c-0.971-0.003-1.905,0.674-2.206,1.597c-0.933-1.459-3.156-1.627-4.632-0.721
			c-1.476,0.906-2.327,1.928-2.816,3.59c-0.169,0.575-0.245,1.847-0.029,2.798c0.431,1.898,1.47,3.065,3.134,4.074
			c2.24,1.359,4.888,2.296,7.465,1.825c3.438-0.628,6.051-3.591,9.447-4.415c1.284-0.311,2.807-0.231,3.702,0.741l2.769-5.22
			C372.005,260.152,371.15,259.322,370.359,258.329z"/>
	</g>
</g>
<g id="Character_1_00000170275655952797927590000003207852323446772633_">
	<g>
		<g>
			<polygon style="fill:#B97964;" points="201.137,449.198 208.206,448.881 210.828,430.491 200.057,430.858 			"/>
			<g>
				<path style="fill:#263238;" d="M209.068,445.656h-2.514c-0.569,0-1.095,0.288-1.432,0.747c-1.45,1.98-2.54,1.232-4.117-0.63
					c-1.003-0.117-1.273,1.034-1.354,1.343l-1.88,6.838c-0.163,0.571,0.167,1.166,0.738,1.329c0.102,0.029,0.207,0.043,0.312,0.041
					c3.054,0,4.498,0,8.299,0h11.624c3.169,0,3.825-3.193,2.52-3.489c-5.869-1.297-10.025-3.024-11.839-4.731
					C209.088,446.805,209.434,446.582,209.068,445.656z"/>
				<path style="fill:#FF725E;" d="M213.99,447.942c0.265-0.19,0.423-0.495,0.427-0.821c0.022-0.175-0.057-0.347-0.205-0.443
					c-0.788-0.558-3.932,0.911-4.285,1.083c-0.039,0.014-0.07,0.045-0.084,0.084c-0.026,0.073,0.012,0.152,0.084,0.178
					c0.773,0.183,1.562,0.285,2.356,0.304C212.878,448.385,213.476,448.25,213.99,447.942z M214.014,446.916
					c0.064,0.04,0.097,0.115,0.082,0.189c-0.013,0.235-0.127,0.453-0.312,0.599c-0.714,0.534-2.438,0.304-3.365,0.131
					C211.724,447.261,213.579,446.612,214.014,446.916z"/>
				<path style="fill:#FF725E;" d="M210.033,448.057c0.944-0.394,2.922-1.945,2.816-2.766c-0.016-0.172-0.14-0.378-0.566-0.435
					c-1.724-0.197-2.463,2.898-2.463,3.029c-0.017,0.053-0.001,0.111,0.041,0.148c0.032,0.01,0.066,0.01,0.099,0L210.033,448.057z
					 M212.225,445.11c0.32,0.033,0.32,0.148,0.32,0.189c0.09,0.501-1.346,1.79-2.372,2.331c0.213-0.722,0.846-2.528,1.937-2.528
					L212.225,445.11z"/>
				<path style="fill:none;stroke:#FF725E;stroke-width:0.5;stroke-linecap:round;stroke-linejoin:round;stroke-miterlimit:10;" d="
					M210.279,447.939c-0.866,0.118-1.67,0.636-2.135,1.375"/>
				<path style="fill:none;stroke:#FF725E;stroke-width:0.5;stroke-linecap:round;stroke-linejoin:round;stroke-miterlimit:10;" d="
					M211.841,449.115c-0.866,0.118-1.67,0.636-2.135,1.376"/>
				<path style="fill:none;stroke:#FF725E;stroke-width:0.5;stroke-linecap:round;stroke-linejoin:round;stroke-miterlimit:10;" d="
					M213.786,450.104c-0.866,0.118-1.67,0.636-2.135,1.376"/>
			</g>
			<polygon style="opacity:0.3;" points="209.399,440.517 209.062,442.883 200.756,442.737 200.625,440.517 			"/>
		</g>
		<g>
			<polygon style="fill:#B97964;" points="230.595,447.38 238.269,446.408 239.959,429.072 229.433,428.778 			"/>
			<g>
				<path style="fill:#263238;" d="M238.658,444.96h-2.515c-0.569,0-1.095,0.288-1.432,0.747c-1.45,1.98-2.54,1.232-4.117-0.63
					c-1.003-0.117-1.273,1.034-1.354,1.343l-1.88,6.838c-0.163,0.571,0.167,1.166,0.738,1.33c0.102,0.029,0.207,0.043,0.312,0.041
					c3.054,0,4.498,0,8.299,0h11.623c3.169,0,3.825-3.193,2.52-3.489c-5.869-1.297-10.025-3.024-11.839-4.731
					C238.679,446.109,239.024,445.886,238.658,444.96z"/>
				<path style="fill:#FF725E;" d="M244.115,446.904c0.265-0.19,0.423-0.495,0.427-0.821c0.022-0.175-0.058-0.347-0.205-0.443
					c-0.788-0.558-3.932,0.911-4.285,1.083c-0.039,0.014-0.07,0.045-0.084,0.084c-0.026,0.073,0.012,0.153,0.084,0.179
					c0.773,0.183,1.562,0.285,2.356,0.304C243.003,447.346,243.602,447.211,244.115,446.904z M244.14,445.878
					c0.064,0.04,0.097,0.115,0.082,0.189c-0.013,0.235-0.127,0.453-0.312,0.599c-0.714,0.534-2.438,0.304-3.366,0.131
					C241.849,446.223,243.705,445.574,244.14,445.878z"/>
				<path style="fill:#FF725E;" d="M240.158,447.019c0.944-0.394,2.922-1.945,2.816-2.766c-0.016-0.172-0.14-0.378-0.566-0.435
					c-1.724-0.197-2.463,2.898-2.463,3.029c-0.017,0.053-0.001,0.111,0.041,0.148c0.032,0.01,0.066,0.01,0.098,0L240.158,447.019z
					 M242.35,444.072c0.32,0.033,0.32,0.148,0.32,0.189c0.09,0.501-1.346,1.789-2.372,2.331c0.213-0.722,0.845-2.528,1.937-2.528
					L242.35,444.072z"/>
				<path style="fill:none;stroke:#FF725E;stroke-width:0.5;stroke-linecap:round;stroke-linejoin:round;stroke-miterlimit:10;" d="
					M240.404,446.9c-0.866,0.118-1.67,0.636-2.135,1.375"/>
				<path style="fill:none;stroke:#FF725E;stroke-width:0.5;stroke-linecap:round;stroke-linejoin:round;stroke-miterlimit:10;" d="
					M241.967,448.077c-0.866,0.118-1.67,0.636-2.135,1.375"/>
				<path style="fill:none;stroke:#FF725E;stroke-width:0.5;stroke-linecap:round;stroke-linejoin:round;stroke-miterlimit:10;" d="
					M243.911,449.066c-0.866,0.118-1.669,0.636-2.135,1.375"/>
			</g>
			<polygon style="opacity:0.3;" points="238.944,439.479 238.713,441.852 230.246,441.797 230.102,439.479 			"/>
		</g>
		<g id="freepik--character-2--inject-2">
			<g>
				<path style="fill:#263238;" d="M196.727,248.896c-2.016-10.506,4.533-8.566,2.298-21.951c-2.461-14.736,8.05-16.869,8.05-16.869
					s1.239-7.343,8.103-6.959c6.864,0.384,24.039,4.018,20.586,22.245c-2.012,10.622,1.517,11.4,3.322,16.186
					c2.554,6.775-5.581,12.846-0.269,17.482c0,0-13.61,3.986-33.474,2.659C205.344,261.687,197.958,255.31,196.727,248.896z"/>
			</g>
			<path style="fill:#FF725E;" d="M233.72,252.846c0,0,9.339,23.372,10.821,23.514c1.482,0.141,20.426-7.242,20.426-7.242
				l2.947,3.329c0,0-9.922,13.268-25.628,17.479c-2.822,0.757-6.384-2.439-9.78-6.809c-0.666-0.849-1.315-1.748-1.964-2.672
				c-3.495-5.181-6.629-10.595-9.381-16.206L233.72,252.846z"/>
			<path style="opacity:0.6;fill:#FFFFFF;" d="M233.72,252.846c0,0,9.339,23.372,10.821,23.514
				c1.482,0.141,20.426-7.242,20.426-7.242l2.947,3.329c0,0-9.922,13.268-25.628,17.479c-2.822,0.757-6.384-2.439-9.78-6.809
				c-0.666-0.849-1.315-1.748-1.964-2.672c-3.495-5.181-6.629-10.595-9.381-16.206L233.72,252.846z"/>
			<path style="opacity:0.2;enable-background:new    ;" d="M233.72,255.942c0.732,3.236,2.446,8.093,3.8,11.54
				c0.438,1.116,0.63,2.324,0.427,3.505c-0.585,3.403-3.524,4.491-4.502,7.203c-0.547,1.589-0.864,3.249-0.941,4.928
				c-0.666-0.849-1.315-1.748-1.964-2.672l-1.448-5.727L233.72,255.942z"/>
			<path style="fill:#263238;" d="M241.393,278.956c-0.885-0.251-1.398-1.171-1.148-2.055l6.334-26.635
				c0.376-1.262,1.514-2.146,2.83-2.197l20.301-0.424c0.221-0.027,0.444-0.01,0.658,0.05c0.885,0.251,1.398,1.171,1.148,2.055
				l-6.334,26.635c-0.376,1.264-1.512,2.15-2.83,2.206l-20.301,0.416C241.831,279.034,241.607,279.017,241.393,278.956z"/>
			<path style="opacity:0.2;fill:#FFFFFF;enable-background:new    ;" d="M241.393,278.956c-0.885-0.251-1.398-1.171-1.148-2.055
				l6.334-26.635c0.376-1.262,1.514-2.146,2.83-2.197l20.301-0.424c0.221-0.027,0.444-0.01,0.658,0.05
				c0.885,0.251,1.398,1.171,1.148,2.055l-6.334,26.635c-0.376,1.264-1.512,2.15-2.83,2.206l-20.301,0.416
				C241.831,279.034,241.607,279.017,241.393,278.956z"/>
			<path style="fill:#263238;" d="M243.475,278.914c-0.885-0.25-1.399-1.17-1.149-2.055l6.334-26.635
				c0.377-1.26,1.508-2.144,2.822-2.206l20.309-0.416c0.221-0.027,0.444-0.01,0.658,0.05c0.885,0.251,1.398,1.171,1.148,2.055
				l-6.342,26.635c-0.377,1.26-1.508,2.144-2.822,2.206l-20.309,0.416C243.907,278.991,243.686,278.973,243.475,278.914z"/>
			<path style="opacity:0.3;fill:#FFFFFF;enable-background:new    ;" d="M243.475,278.914c-0.885-0.25-1.399-1.17-1.149-2.055
				l6.334-26.635c0.377-1.26,1.508-2.144,2.822-2.206l20.309-0.416c0.221-0.027,0.444-0.01,0.658,0.05
				c0.885,0.251,1.398,1.171,1.148,2.055l-6.342,26.635c-0.377,1.26-1.508,2.144-2.822,2.206l-20.309,0.416
				C243.907,278.991,243.686,278.973,243.475,278.914z"/>
			<path style="opacity:0.2;fill:#FFFFFF;enable-background:new    ;" d="M261.803,263.215c-0.111-1.167-1.147-2.023-2.314-1.912
				c-1.653,0.09-3.063,1.226-3.504,2.822c-0.079,0.264-0.105,0.54-0.077,0.814c0.117,1.157,1.151,2,2.308,1.882
				c1.653-0.088,3.065-1.22,3.513-2.813C261.803,263.75,261.828,263.481,261.803,263.215z"/>
			<path style="fill:#B97964;" d="M268.662,264.482c-0.4-0.033-2.098,0.807-2.897,0.25c-0.799-0.558-0.05-1.016-0.05-1.016
				c1.465-0.358,3.071-2.189,3.962-1.665c0.891,0.524,2.364,1.182,2.147,2.014c-0.245,0.77-0.539,1.524-0.882,2.256
				c0.232,0.371,0.263,0.833,0.083,1.232c-0.183,0.46-0.588,0.796-1.074,0.891c0.279,0.282,0.424,0.669,0.4,1.065
				c-0.066,0.633-1.731,1.465-1.731,1.465s0.325,0.99-0.058,1.373c-0.65,0.535-1.513,0.732-2.331,0.533
				c-0.974-0.233-1.64-0.566-1.573-1.548c0.067-0.982,1.823-0.982,1.823-0.982s-3.296-0.999-2.597-1.623
				c0.699-0.624,3.329-0.549,3.329-0.549s-4.461-0.882-3.754-1.798c0.708-0.916,5.152-0.666,5.152-0.666
				S269.061,264.515,268.662,264.482z"/>
			<path style="fill:#263238;" d="M214.321,302.138l19.711,0.081c0,0,6.887,34.67,6.483,73.542
				c0.804,22.821,0.159,64.784,0.159,64.784h-12.819c0,0-8.167-34.081-4.897-61.083c-1.189-4.656-2.779-12.718-3.713-16.833
				c-2.617-11.092-4.585-22.328-5.897-33.649C211.097,307.759,214.321,302.138,214.321,302.138z"/>
			<path style="opacity:0.2;enable-background:new    ;" d="M216.067,315.754c0,0,7.107,31.918,3.178,46.875
				c-2.617-11.092-4.585-22.328-5.897-33.649L216.067,315.754z"/>
			<path style="fill:#263238;" d="M197.752,293.058c-1.72,7.702-8.462,17.11-9.825,26.963c-2.329,16.828,7.787,37.758,10.435,57.502
				c-3.998,29.2,2.131,64.609,1.319,63.843l12.869,0.012c0.391-2.611,3.03-42.176,4.339-65.617
				c1.11-20.516,2.885-72.115,2.885-72.115L197.752,293.058z"/>
			<path style="fill:#FF725E;" d="M197.273,288.4c-0.017-1.382-2.69-11.291-2.757-12.747c-0.329-7.066-1.115-14.103-2.355-21.067
				c-0.054-0.302-0.091-0.606-0.113-0.912c-0.335-4.792,3.278-8.949,8.07-9.284c1.382-0.1,2.83-0.15,4.328-0.191
				c1.498-0.042,2.93-0.042,4.312-0.042c3.778-0.073,7.557,0.105,11.312,0.533l0.832,0.108c1.407,0.183,2.838,0.416,4.22,0.649
				c5.99,1.015,10.219,6.428,9.755,12.485c-0.674,7.932,5.31,12.768-2.339,18.12c-0.991,6.8,0.481,21.329,3.333,31.349
				c1.014,3.563-27.821,3.086-44.002-2.258L197.273,288.4"/>
			<path style="opacity:0.6;fill:#FFFFFF;" d="M197.273,288.4c-0.017-1.382-2.69-11.291-2.757-12.747
				c-0.329-7.066-1.115-14.103-2.355-21.067c-0.054-0.302-0.091-0.606-0.113-0.912c-0.335-4.792,3.278-8.949,8.07-9.284
				c1.382-0.1,2.83-0.15,4.328-0.191c1.498-0.042,2.93-0.042,4.312-0.042c3.778-0.073,7.557,0.105,11.312,0.533l0.832,0.108
				c1.407,0.183,2.838,0.416,4.22,0.649c5.99,1.015,10.219,6.428,9.755,12.485c-0.674,7.932,5.31,12.768-2.339,18.12
				c-0.991,6.8,0.481,21.329,3.333,31.349c1.014,3.563-27.821,3.086-44.002-2.258L197.273,288.4"/>
			<g>
				<g>
					<g>
						<g>
							<g>
								<path style="fill:#B97964;" d="M207.326,244.164c0,0,3.011,2.315,6.888,5.656c0.808,0.696,1.697,1.298,2.638,1.798
									c2.54,1.349,4.856,2.121,5.483,0.896c0.139-0.269,0.247-0.561,0.326-0.867c0.533-2.051,0.314-4.934-1.344-6.254
									c-1.869-1.488-2.77-2.761-2.433-4.775c0.177-1.142,0.59-2.321,1.073-3.465l-2.159-1.296l-7.693-7.764
									C210.985,232.854,211.378,241.35,207.326,244.164z"/>
							</g>
							<path style="opacity:0.2;" d="M218.821,241.061c-2.116-1.256-4.437-3.435-4.159-5.924c0.124-1.048,0.35-2.041,0.601-2.678
								l4.298,5.69C219.208,239.067,219.079,239.673,218.821,241.061z"/>
							<path style="fill:#B97964;" d="M208.615,219.34c0.724,7.905,0.864,11.257,4.943,15.402c6.136,6.235,15.575,4.137,17.2-3.698
								c1.463-7.052,0.033-18.794-7.727-22.116C215.385,205.654,207.891,211.435,208.615,219.34z"/>
							<path style="fill:#263238;" d="M218.853,221.913c0.039,0.836,0.492,1.523,1.012,1.534c0.52,0.011,0.91-0.659,0.871-1.495
								c-0.039-0.836-0.492-1.523-1.011-1.534S218.815,221.077,218.853,221.913z"/>
							<path style="fill:#263238;" d="M226.649,221.89c0.039,0.81,0.491,1.476,1.01,1.487c0.518,0.011,0.907-0.637,0.867-1.448
								c-0.039-0.81-0.491-1.476-1.01-1.487C226.998,220.431,226.609,221.079,226.649,221.89z"/>
							<path style="fill:#263238;" d="M217.204,219c0.101,0.011,0.203-0.018,0.281-0.09c1.218-1.128,2.589-0.732,2.605-0.727
								c0.203,0.059,0.409-0.056,0.455-0.263c0.046-0.207-0.083-0.425-0.289-0.487c-0.072-0.021-1.793-0.52-3.304,0.88
								c-0.15,0.139-0.154,0.387-0.007,0.551C217.017,218.944,217.11,218.99,217.204,219z"/>
							<path style="fill:#263238;" d="M229.271,217.923c0.08-0.027,0.146-0.086,0.181-0.173c0.072-0.179-0.016-0.406-0.196-0.508
								c-1.807-1.016-3.146-0.243-3.203-0.209c-0.159,0.095-0.197,0.319-0.085,0.502c0.111,0.182,0.331,0.254,0.49,0.16
								c0.052-0.031,1.101-0.612,2.537,0.196C229.087,217.943,229.186,217.951,229.271,217.923z"/>
							<path style="fill:#A24E3F;" d="M224.528,221.504c0,0,1.237,2.959,2.632,4.803c0.244,0.322,0.093,0.793-0.286,0.932
								c-0.976,0.359-2.118,0.034-2.118,0.034L224.528,221.504z"/>
						</g>
						<path style="fill:#263238;" d="M219.426,220.453l1.814-0.429C221.241,220.024,220.249,221.377,219.426,220.453z"/>
						<path style="fill:#263238;" d="M227.329,220.46l1.814-0.429C229.144,220.032,228.151,221.385,227.329,220.46z"/>
						<path style="fill:#263238;" d="M211.359,222.071c0,0,4.077-6.138,3.867-11.108c0,0,7.805-2.035,14.029,6.28
							c0.992,1.324,1.583,3.534,2.471,5.439c0,0,1.49-15.04-11.856-16.273c-13.325-1.231-15.944,17.502-9.443,23.806
							C210.426,230.214,208.833,225.911,211.359,222.071z"/>
						<path style="fill:#B97964;" d="M206.223,225.782c0.934,1.621,2.451,2.639,3.842,2.988c2.092,0.525,3.173-2.839,2.459-4.936
							c-0.643-1.887-2.699-3.136-4.735-2.725C205.782,221.515,205.156,223.929,206.223,225.782z"/>
					</g>
					
						<path style="opacity:0.2;fill:none;stroke:#000000;stroke-width:0.5;stroke-linecap:round;stroke-linejoin:round;stroke-miterlimit:10;" d="
						M210.645,225.361c-0.05-0.749-0.407-1.472-0.971-1.967c-0.564-0.495-1.328-0.755-2.077-0.707"/>
					
						<path style="fill:none;stroke:#263238;stroke-width:0.5;stroke-linecap:round;stroke-linejoin:round;stroke-miterlimit:10;" d="
						M219.799,227.988c0,0,0.765,2.085,3.11,1.601"/>
				</g>
			</g>
			<path style="opacity:0.2;enable-background:new    ;" d="M195.479,293.959l-1.755,5.437c0,0,19.625-3.448,29.46-12.243
				c7.003-6.262,5.908-8.9,5.908-8.9l-7.932,0.766L195.479,293.959z"/>
			<path style="opacity:0.2;enable-background:new    ;" d="M203.343,265.97l-1.067,17.739c-2.962,1.885-4.924-0.728-5.374-3.427
				v-5.107L203.343,265.97z"/>
			<path style="fill:#FF725E;" d="M204.404,263.283c0,0-7.43,18.404-6.09,19.253c1.34,0.849,22.729-5.002,22.729-5.002l3.371,4.836
				c-0.724,3.18-37.63,23.21-40.643,6.455c-1.831-10.18,9.241-39.771,9.241-39.771C202.11,245.491,204.404,263.283,204.404,263.283z
				"/>
			<path style="opacity:0.6;fill:#FFFFFF;" d="M204.404,263.283c0,0-7.43,18.404-6.09,19.253c1.34,0.849,22.729-5.002,22.729-5.002
				l3.371,4.836c-0.724,3.18-37.63,23.21-40.643,6.455c-1.831-10.18,9.241-39.771,9.241-39.771
				C202.11,245.491,204.404,263.283,204.404,263.283z"/>
			<path style="fill:#976827;" d="M199.668,282.536"/>
			<path style="fill:#B97964;" d="M224.735,282.84c2.529,0.2,2.617-3.608,3.933-3.758c0.765-0.074,1.515-0.264,2.222-0.566
				c0,0-0.832,2.289,0,2.106c0.832-0.183,3.504-0.316,4.162-2.497c0.658-2.181-1.723-6.842-2.264-7.491
				c-0.541-0.649-3.388-0.449-3.388-0.449s3.063-0.791,4.744-1.024c1.681-0.233,2.001-2.154-0.345-1.729
				c-0.963,0.174-8.569,0.231-9.393,1.014c-0.824,0.782-3.879,8.471-3.879,8.471C219.395,277.565,222.271,284.013,224.735,282.84z"
				/>
			<g style="opacity:0.3;">
				<path d="M229.371,269.942c-0.78-0.055-1.564-0.004-2.331,0.15c-0.115,0.031-0.184,0.15-0.152,0.266
					c0.027,0.101,0.123,0.168,0.227,0.159c0.726-0.145,1.467-0.196,2.206-0.15C229.595,270.367,229.645,269.959,229.371,269.942z"/>
				<path d="M233.291,272.248c0.241,0.125,0.491-0.225,0.25-0.35c-1.423-0.757-2.922-0.333-4.361,0.15
					c-0.258,0.083-0.075,0.474,0.183,0.391C230.628,272.015,232.026,271.607,233.291,272.248z"/>
				<path d="M234.407,274.129c-1.228-0.733-2.742-0.799-4.029-0.175c-0.101,0.064-0.132,0.197-0.068,0.298
					c0.051,0.081,0.15,0.119,0.242,0.093c1.151-0.561,2.506-0.511,3.612,0.133C234.398,274.62,234.648,274.27,234.407,274.129z"/>
				<path d="M232.362,277.321c0.11-0.223,0.199-0.458,0.259-0.703c0.058-0.266-0.341-0.416-0.408-0.15
					c-0.177,0.819-0.687,1.527-1.407,1.956c-0.241,0.133-0.058,0.524,0.175,0.391h-0.025c0.452-0.255,0.828-0.611,1.121-1.026
					c0.029,0.001,0.054,0.015,0.085,0.002c0.448-0.157,0.946-0.025,1.257,0.333c0.183,0.208,0.508-0.067,0.325-0.275
					C233.395,277.447,232.876,277.264,232.362,277.321z"/>
			</g>
		</g>
	</g>
</g>
</svg>
